<?xml version="1.0" encoding="UTF-8" standalone="no"?>
<!DOCTYPE svg PUBLIC "-//W3C//DTD SVG 1.1//EN"
 "http://www.w3.org/Graphics/SVG/1.1/DTD/svg11.dtd">
<!-- Generated by graphviz version 3.0.0 (20220226.1711)
 -->
<!-- Title: src/array.h Pages: 1 -->
<svg width="376pt" height="420pt"
 viewBox="0.00 0.00 375.97 420.00" xmlns="http://www.w3.org/2000/svg" xmlns:xlink="http://www.w3.org/1999/xlink">
<g id="graph0" class="graph" transform="scale(1 1) rotate(0) translate(4 416)">
<title>src/array.h</title>
<!-- Node1 -->
<g id="node1" class="node">
<title>Node1</title>
<g id="a_node1"><a xlink:title=" ">
<polygon fill="#bfbfbf" stroke="black" points="113,-392.5 113,-411.5 175,-411.5 175,-392.5 113,-392.5"/>
<text text-anchor="middle" x="144" y="-399.5" font-family="Helvetica,sans-Serif" font-size="10.00">src/array.h</text>
</a>
</g>
</g>
<!-- Node2 -->
<g id="node2" class="node">
<title>Node2</title>
<g id="a_node2"><a xlink:href="../../dc/dcc/array_8c.html" target="_top" xlink:title=" ">
<polygon fill="none" stroke="black" points="0,-224.5 0,-243.5 62,-243.5 62,-224.5 0,-224.5"/>
<text text-anchor="middle" x="31" y="-231.5" font-family="Helvetica,sans-Serif" font-size="10.00">src/array.c</text>
</a>
</g>
</g>
<!-- Node1&#45;&gt;Node2 -->
<g id="edge1" class="edge">
<title>Node1&#45;&gt;Node2</title>
<path fill="none" stroke="midnightblue" d="M122.65,-386.12C112.19,-378.07 99.95,-367.44 91,-356 61.68,-318.5 41.13,-264.39 33.88,-243.59"/>
<polygon fill="midnightblue" stroke="midnightblue" points="120.8,-389.1 130.92,-392.24 124.96,-383.47 120.8,-389.1"/>
</g>
<!-- Node5 -->
<g id="node5" class="node">
<title>Node5</title>
<g id="a_node5"><a xlink:href="../../dc/da1/frame__tree_8h.html" target="_top" xlink:title=" ">
<polygon fill="none" stroke="black" points="100,-336.5 100,-355.5 188,-355.5 188,-336.5 100,-336.5"/>
<text text-anchor="middle" x="144" y="-343.5" font-family="Helvetica,sans-Serif" font-size="10.00">src/frame_tree.h</text>
</a>
</g>
</g>
<!-- Node1&#45;&gt;Node5 -->
<g id="edge4" class="edge">
<title>Node1&#45;&gt;Node5</title>
<path fill="none" stroke="midnightblue" d="M144,-381.8C144,-372.91 144,-362.78 144,-355.75"/>
<polygon fill="midnightblue" stroke="midnightblue" points="140.5,-382.08 144,-392.08 147.5,-382.08 140.5,-382.08"/>
</g>
<!-- Node7 -->
<g id="node7" class="node">
<title>Node7</title>
<g id="a_node7"><a xlink:href="../../db/dde/internal_8h.html" target="_top" xlink:title=" ">
<polygon fill="none" stroke="black" points="159.5,-224.5 159.5,-243.5 232.5,-243.5 232.5,-224.5 159.5,-224.5"/>
<text text-anchor="middle" x="196" y="-231.5" font-family="Helvetica,sans-Serif" font-size="10.00">src/internal.h</text>
</a>
</g>
</g>
<!-- Node1&#45;&gt;Node7 -->
<g id="edge18" class="edge">
<title>Node1&#45;&gt;Node7</title>
<path fill="none" stroke="midnightblue" d="M168.72,-386.9C179.53,-379.28 191.08,-368.79 197,-356 214.82,-317.49 203.9,-264.42 198.49,-243.74"/>
<polygon fill="midnightblue" stroke="midnightblue" points="166.79,-383.98 160.33,-392.39 170.62,-389.84 166.79,-383.98"/>
</g>
<!-- Node3 -->
<g id="node3" class="node">
<title>Node3</title>
<g id="a_node3"><a xlink:href="../../dc/df8/internal_8c.html" target="_top" xlink:title=" ">
<polygon fill="none" stroke="black" points="159.5,-56.5 159.5,-75.5 232.5,-75.5 232.5,-56.5 159.5,-56.5"/>
<text text-anchor="middle" x="196" y="-63.5" font-family="Helvetica,sans-Serif" font-size="10.00">src/internal.c</text>
</a>
</g>
</g>
<!-- Node2&#45;&gt;Node3 -->
<g id="edge2" class="edge">
<title>Node2&#45;&gt;Node3</title>
<path fill="none" stroke="midnightblue" d="M27.78,-214.4C24.39,-188.32 22.49,-140.83 47,-112 74.65,-79.47 124.93,-69.95 159.37,-67.43"/>
<polygon fill="midnightblue" stroke="midnightblue" points="24.34,-215.08 29.3,-224.45 31.26,-214.04 24.34,-215.08"/>
</g>
<!-- Node4 -->
<g id="node4" class="node">
<title>Node4</title>
<g id="a_node4"><a xlink:href="../../d6/d07/yed_8c.html" target="_top" xlink:title=" ">
<polygon fill="none" stroke="black" points="256.5,-0.5 256.5,-19.5 313.5,-19.5 313.5,-0.5 256.5,-0.5"/>
<text text-anchor="middle" x="285" y="-7.5" font-family="Helvetica,sans-Serif" font-size="10.00">src/yed.c</text>
</a>
</g>
</g>
<!-- Node3&#45;&gt;Node4 -->
<g id="edge3" class="edge">
<title>Node3&#45;&gt;Node4</title>
<path fill="none" stroke="midnightblue" d="M219.24,-50.9C235.56,-41 256.87,-28.07 270.74,-19.65"/>
<polygon fill="midnightblue" stroke="midnightblue" points="217.03,-48.14 210.3,-56.32 220.66,-54.13 217.03,-48.14"/>
</g>
<!-- Node6 -->
<g id="node6" class="node">
<title>Node6</title>
<g id="a_node6"><a xlink:href="../../df/d7d/frame_8h.html" target="_top" xlink:title=" ">
<polygon fill="none" stroke="black" points="122,-280.5 122,-299.5 188,-299.5 188,-280.5 122,-280.5"/>
<text text-anchor="middle" x="155" y="-287.5" font-family="Helvetica,sans-Serif" font-size="10.00">src/frame.h</text>
</a>
</g>
</g>
<!-- Node5&#45;&gt;Node6 -->
<g id="edge5" class="edge">
<title>Node5&#45;&gt;Node6</title>
<path fill="none" stroke="midnightblue" d="M141.38,-326.1C142.57,-317.14 145.11,-306.86 148.09,-299.75"/>
<polygon fill="midnightblue" stroke="midnightblue" points="137.89,-325.86 140.65,-336.08 144.87,-326.36 137.89,-325.86"/>
</g>
<!-- Node12 -->
<g id="node12" class="node">
<title>Node12</title>
<g id="a_node12"><a xlink:href="../../d9/d27/frame__tree_8c.html" target="_top" xlink:title=" ">
<polygon fill="none" stroke="black" points="56,-112.5 56,-131.5 144,-131.5 144,-112.5 56,-112.5"/>
<text text-anchor="middle" x="100" y="-119.5" font-family="Helvetica,sans-Serif" font-size="10.00">src/frame_tree.c</text>
</a>
</g>
</g>
<!-- Node5&#45;&gt;Node12 -->
<g id="edge16" class="edge">
<title>Node5&#45;&gt;Node12</title>
<path fill="none" stroke="midnightblue" d="M129.61,-328.67C123.36,-320.6 116.65,-310.38 113,-300 91.42,-238.67 96.58,-158.2 99.06,-131.8"/>
<polygon fill="midnightblue" stroke="midnightblue" points="126.98,-330.98 136.04,-336.48 132.39,-326.53 126.98,-330.98"/>
</g>
<!-- Node6&#45;&gt;Node5 -->
<g id="edge6" class="edge">
<title>Node6&#45;&gt;Node5</title>
<path fill="none" stroke="midnightblue" d="M157.61,-309.99C156.42,-318.86 153.92,-329.01 150.98,-336.08"/>
<polygon fill="midnightblue" stroke="midnightblue" points="161.12,-309.98 158.35,-299.75 154.14,-309.47 161.12,-309.98"/>
</g>
<!-- Node6&#45;&gt;Node7 -->
<g id="edge7" class="edge">
<title>Node6&#45;&gt;Node7</title>
<path fill="none" stroke="midnightblue" d="M168.02,-271.86C175.12,-262.5 183.6,-251.33 189.36,-243.75"/>
<polygon fill="midnightblue" stroke="midnightblue" points="165.03,-270 161.77,-280.08 170.61,-274.24 165.03,-270"/>
</g>
<!-- Node7&#45;&gt;Node4 -->
<g id="edge15" class="edge">
<title>Node7&#45;&gt;Node4</title>
<path fill="none" stroke="midnightblue" d="M242.81,-226.08C284.65,-218.83 341.41,-205.97 355,-188 397.46,-131.86 320.8,-46.61 293.85,-19.55"/>
<polygon fill="midnightblue" stroke="midnightblue" points="242.08,-222.66 232.8,-227.76 243.24,-229.56 242.08,-222.66"/>
</g>
<!-- Node8 -->
<g id="node8" class="node">
<title>Node8</title>
<g id="a_node8"><a xlink:href="../../da/d9e/boyer__moore_8h.html" target="_top" xlink:title=" ">
<polygon fill="none" stroke="black" points="248,-168.5 248,-187.5 346,-187.5 346,-168.5 248,-168.5"/>
<text text-anchor="middle" x="297" y="-175.5" font-family="Helvetica,sans-Serif" font-size="10.00">src/boyer_moore.h</text>
</a>
</g>
</g>
<!-- Node7&#45;&gt;Node8 -->
<g id="edge8" class="edge">
<title>Node7&#45;&gt;Node8</title>
<path fill="none" stroke="midnightblue" d="M221.08,-219.59C239.76,-209.61 264.7,-196.27 280.81,-187.65"/>
<polygon fill="midnightblue" stroke="midnightblue" points="219.4,-216.52 212.23,-224.32 222.7,-222.7 219.4,-216.52"/>
</g>
<!-- Node10 -->
<g id="node10" class="node">
<title>Node10</title>
<g id="a_node10"><a xlink:href="../../d4/daa/plugin_8c.html" target="_top" xlink:title=" ">
<polygon fill="none" stroke="black" points="162.5,-112.5 162.5,-131.5 229.5,-131.5 229.5,-112.5 162.5,-112.5"/>
<text text-anchor="middle" x="196" y="-119.5" font-family="Helvetica,sans-Serif" font-size="10.00">src/plugin.c</text>
</a>
</g>
</g>
<!-- Node7&#45;&gt;Node10 -->
<g id="edge11" class="edge">
<title>Node7&#45;&gt;Node10</title>
<path fill="none" stroke="midnightblue" d="M175.95,-217.53C167.47,-209.71 158.51,-199.45 154,-188 145.33,-166 168.43,-143.53 183.72,-131.63"/>
<polygon fill="midnightblue" stroke="midnightblue" points="173.91,-220.39 183.79,-224.24 178.47,-215.07 173.91,-220.39"/>
</g>
<!-- Node11 -->
<g id="node11" class="node">
<title>Node11</title>
<g id="a_node11"><a xlink:href="../../d9/dc4/plugin_8h.html" target="_top" xlink:title=" ">
<polygon fill="none" stroke="black" points="162.5,-168.5 162.5,-187.5 229.5,-187.5 229.5,-168.5 162.5,-168.5"/>
<text text-anchor="middle" x="196" y="-175.5" font-family="Helvetica,sans-Serif" font-size="10.00">src/plugin.h</text>
</a>
</g>
</g>
<!-- Node7&#45;&gt;Node11 -->
<g id="edge13" class="edge">
<title>Node7&#45;&gt;Node11</title>
<path fill="none" stroke="midnightblue" d="M189.53,-214.1C188.9,-205.14 189.34,-194.86 190.87,-187.75"/>
<polygon fill="midnightblue" stroke="midnightblue" points="186.07,-214.62 190.83,-224.08 193.01,-213.71 186.07,-214.62"/>
</g>
<!-- Node9 -->
<g id="node9" class="node">
<title>Node9</title>
<g id="a_node9"><a xlink:href="../../d6/d91/boyer__moore_8c.html" target="_top" xlink:title=" ">
<polygon fill="none" stroke="black" points="248,-112.5 248,-131.5 346,-131.5 346,-112.5 248,-112.5"/>
<text text-anchor="middle" x="297" y="-119.5" font-family="Helvetica,sans-Serif" font-size="10.00">src/boyer_moore.c</text>
</a>
</g>
</g>
<!-- Node8&#45;&gt;Node9 -->
<g id="edge9" class="edge">
<title>Node8&#45;&gt;Node9</title>
<path fill="none" stroke="midnightblue" d="M297,-157.8C297,-148.91 297,-138.78 297,-131.75"/>
<polygon fill="midnightblue" stroke="midnightblue" points="293.5,-158.08 297,-168.08 300.5,-158.08 293.5,-158.08"/>
</g>
<!-- Node9&#45;&gt;Node3 -->
<g id="edge10" class="edge">
<title>Node9&#45;&gt;Node3</title>
<path fill="none" stroke="midnightblue" d="M271.92,-107.59C253.24,-97.61 228.3,-84.27 212.19,-75.65"/>
<polygon fill="midnightblue" stroke="midnightblue" points="270.3,-110.7 280.77,-112.32 273.6,-104.52 270.3,-110.7"/>
</g>
<!-- Node10&#45;&gt;Node3 -->
<g id="edge12" class="edge">
<title>Node10&#45;&gt;Node3</title>
<path fill="none" stroke="midnightblue" d="M196,-101.8C196,-92.91 196,-82.78 196,-75.75"/>
<polygon fill="midnightblue" stroke="midnightblue" points="192.5,-102.08 196,-112.08 199.5,-102.08 192.5,-102.08"/>
</g>
<!-- Node11&#45;&gt;Node7 -->
<g id="edge14" class="edge">
<title>Node11&#45;&gt;Node7</title>
<path fill="none" stroke="midnightblue" d="M202.46,-197.69C203.11,-206.64 202.68,-216.93 201.17,-224.08"/>
<polygon fill="midnightblue" stroke="midnightblue" points="205.92,-197.2 201.13,-187.75 198.98,-198.13 205.92,-197.2"/>
</g>
<!-- Node12&#45;&gt;Node3 -->
<g id="edge17" class="edge">
<title>Node12&#45;&gt;Node3</title>
<path fill="none" stroke="midnightblue" d="M124.57,-107.18C142.24,-97.24 165.51,-84.15 180.61,-75.65"/>
<polygon fill="midnightblue" stroke="midnightblue" points="122.42,-104.37 115.42,-112.32 125.86,-110.47 122.42,-104.37"/>
</g>
</g>
</svg>
