<?xml version="1.0" encoding="UTF-8" standalone="no"?>
<!DOCTYPE svg PUBLIC "-//W3C//DTD SVG 1.1//EN"
 "http://www.w3.org/Graphics/SVG/1.1/DTD/svg11.dtd">
<!-- Generated by graphviz version 3.0.0 (20220226.1711)
 -->
<!-- Title: src/frame.h Pages: 1 -->
<svg width="345pt" height="308pt"
 viewBox="0.00 0.00 345.43 308.00" xmlns="http://www.w3.org/2000/svg" xmlns:xlink="http://www.w3.org/1999/xlink">
<g id="graph0" class="graph" transform="scale(1 1) rotate(0) translate(4 304)">
<title>src/frame.h</title>
<!-- Node1 -->
<g id="node1" class="node">
<title>Node1</title>
<g id="a_node1"><a xlink:title=" ">
<polygon fill="#bfbfbf" stroke="black" points="95,-280.5 95,-299.5 161,-299.5 161,-280.5 95,-280.5"/>
<text text-anchor="middle" x="128" y="-287.5" font-family="Helvetica,sans-Serif" font-size="10.00">src/frame.h</text>
</a>
</g>
</g>
<!-- Node2 -->
<g id="node2" class="node">
<title>Node2</title>
<g id="a_node2"><a xlink:href="../../dc/da1/frame__tree_8h.html" target="_top" xlink:title=" ">
<polygon fill="none" stroke="black" points="84,-224.5 84,-243.5 172,-243.5 172,-224.5 84,-224.5"/>
<text text-anchor="middle" x="128" y="-231.5" font-family="Helvetica,sans-Serif" font-size="10.00">src/frame_tree.h</text>
</a>
</g>
</g>
<!-- Node1&#45;&gt;Node2 -->
<g id="edge1" class="edge">
<title>Node1&#45;&gt;Node2</title>
<path fill="none" stroke="midnightblue" d="M121.53,-270.1C120.9,-261.14 121.34,-250.86 122.87,-243.75"/>
<polygon fill="midnightblue" stroke="midnightblue" points="118.07,-270.62 122.83,-280.08 125.01,-269.71 118.07,-270.62"/>
</g>
<!-- Node6 -->
<g id="node6" class="node">
<title>Node6</title>
<g id="a_node6"><a xlink:href="../../db/dde/internal_8h.html" target="_top" xlink:title=" ">
<polygon fill="none" stroke="black" points="217.5,-224.5 217.5,-243.5 290.5,-243.5 290.5,-224.5 217.5,-224.5"/>
<text text-anchor="middle" x="254" y="-231.5" font-family="Helvetica,sans-Serif" font-size="10.00">src/internal.h</text>
</a>
</g>
</g>
<!-- Node1&#45;&gt;Node6 -->
<g id="edge6" class="edge">
<title>Node1&#45;&gt;Node6</title>
<path fill="none" stroke="midnightblue" d="M157.16,-276.5C180.78,-266.38 213.43,-252.39 234.13,-243.52"/>
<polygon fill="midnightblue" stroke="midnightblue" points="155.78,-273.29 147.97,-280.44 158.54,-279.72 155.78,-273.29"/>
</g>
<!-- Node2&#45;&gt;Node1 -->
<g id="edge2" class="edge">
<title>Node2&#45;&gt;Node1</title>
<path fill="none" stroke="midnightblue" d="M134.46,-253.69C135.11,-262.64 134.68,-272.93 133.17,-280.08"/>
<polygon fill="midnightblue" stroke="midnightblue" points="137.92,-253.2 133.13,-243.75 130.98,-254.13 137.92,-253.2"/>
</g>
<!-- Node3 -->
<g id="node3" class="node">
<title>Node3</title>
<g id="a_node3"><a xlink:href="../../d9/d27/frame__tree_8c.html" target="_top" xlink:title=" ">
<polygon fill="none" stroke="black" points="0,-112.5 0,-131.5 88,-131.5 88,-112.5 0,-112.5"/>
<text text-anchor="middle" x="44" y="-119.5" font-family="Helvetica,sans-Serif" font-size="10.00">src/frame_tree.c</text>
</a>
</g>
</g>
<!-- Node2&#45;&gt;Node3 -->
<g id="edge3" class="edge">
<title>Node2&#45;&gt;Node3</title>
<path fill="none" stroke="midnightblue" d="M112.65,-216.78C104.97,-208.41 95.7,-197.9 88,-188 72.94,-168.64 57.31,-144.37 49.35,-131.66"/>
<polygon fill="midnightblue" stroke="midnightblue" points="110.3,-219.39 119.67,-224.33 115.43,-214.63 110.3,-219.39"/>
</g>
<!-- Node4 -->
<g id="node4" class="node">
<title>Node4</title>
<g id="a_node4"><a xlink:href="../../dc/df8/internal_8c.html" target="_top" xlink:title=" ">
<polygon fill="none" stroke="black" points="169.5,-56.5 169.5,-75.5 242.5,-75.5 242.5,-56.5 169.5,-56.5"/>
<text text-anchor="middle" x="206" y="-63.5" font-family="Helvetica,sans-Serif" font-size="10.00">src/internal.c</text>
</a>
</g>
</g>
<!-- Node3&#45;&gt;Node4 -->
<g id="edge4" class="edge">
<title>Node3&#45;&gt;Node4</title>
<path fill="none" stroke="midnightblue" d="M79.48,-109.17C109.99,-99 153.24,-84.59 180.45,-75.52"/>
<polygon fill="midnightblue" stroke="midnightblue" points="78.05,-105.96 69.67,-112.44 80.26,-112.6 78.05,-105.96"/>
</g>
<!-- Node5 -->
<g id="node5" class="node">
<title>Node5</title>
<g id="a_node5"><a xlink:href="../../d6/d07/yed_8c.html" target="_top" xlink:title=" ">
<polygon fill="none" stroke="black" points="247.5,-0.5 247.5,-19.5 304.5,-19.5 304.5,-0.5 247.5,-0.5"/>
<text text-anchor="middle" x="276" y="-7.5" font-family="Helvetica,sans-Serif" font-size="10.00">src/yed.c</text>
</a>
</g>
</g>
<!-- Node4&#45;&gt;Node5 -->
<g id="edge5" class="edge">
<title>Node4&#45;&gt;Node5</title>
<path fill="none" stroke="midnightblue" d="M225.31,-50.1C237.91,-40.38 253.93,-28.03 264.55,-19.83"/>
<polygon fill="midnightblue" stroke="midnightblue" points="223.03,-47.44 217.25,-56.32 227.3,-52.99 223.03,-47.44"/>
</g>
<!-- Node6&#45;&gt;Node5 -->
<g id="edge14" class="edge">
<title>Node6&#45;&gt;Node5</title>
<path fill="none" stroke="midnightblue" d="M289.45,-220.2C303.78,-213.06 318.84,-202.61 327,-188 360.05,-128.8 303.39,-46.27 282.93,-19.64"/>
<polygon fill="midnightblue" stroke="midnightblue" points="287.85,-217.08 280.21,-224.41 290.76,-223.44 287.85,-217.08"/>
</g>
<!-- Node7 -->
<g id="node7" class="node">
<title>Node7</title>
<g id="a_node7"><a xlink:href="../../da/d9e/boyer__moore_8h.html" target="_top" xlink:title=" ">
<polygon fill="none" stroke="black" points="97,-168.5 97,-187.5 195,-187.5 195,-168.5 97,-168.5"/>
<text text-anchor="middle" x="146" y="-175.5" font-family="Helvetica,sans-Serif" font-size="10.00">src/boyer_moore.h</text>
</a>
</g>
</g>
<!-- Node6&#45;&gt;Node7 -->
<g id="edge7" class="edge">
<title>Node6&#45;&gt;Node7</title>
<path fill="none" stroke="midnightblue" d="M227.45,-219.73C207.45,-209.73 180.61,-196.31 163.31,-187.65"/>
<polygon fill="midnightblue" stroke="midnightblue" points="226.14,-222.98 236.65,-224.32 229.27,-216.72 226.14,-222.98"/>
</g>
<!-- Node9 -->
<g id="node9" class="node">
<title>Node9</title>
<g id="a_node9"><a xlink:href="../../d4/daa/plugin_8c.html" target="_top" xlink:title=" ">
<polygon fill="none" stroke="black" points="222.5,-112.5 222.5,-131.5 289.5,-131.5 289.5,-112.5 222.5,-112.5"/>
<text text-anchor="middle" x="256" y="-119.5" font-family="Helvetica,sans-Serif" font-size="10.00">src/plugin.c</text>
</a>
</g>
</g>
<!-- Node6&#45;&gt;Node9 -->
<g id="edge10" class="edge">
<title>Node6&#45;&gt;Node9</title>
<path fill="none" stroke="midnightblue" d="M247.28,-214.58C243.35,-201.59 239.6,-183.78 242,-168 243.97,-155.06 248.94,-140.72 252.4,-131.78"/>
<polygon fill="midnightblue" stroke="midnightblue" points="244,-215.82 250.48,-224.2 250.64,-213.6 244,-215.82"/>
</g>
<!-- Node10 -->
<g id="node10" class="node">
<title>Node10</title>
<g id="a_node10"><a xlink:href="../../d9/dc4/plugin_8h.html" target="_top" xlink:title=" ">
<polygon fill="none" stroke="black" points="251.5,-168.5 251.5,-187.5 318.5,-187.5 318.5,-168.5 251.5,-168.5"/>
<text text-anchor="middle" x="285" y="-175.5" font-family="Helvetica,sans-Serif" font-size="10.00">src/plugin.h</text>
</a>
</g>
</g>
<!-- Node6&#45;&gt;Node10 -->
<g id="edge12" class="edge">
<title>Node6&#45;&gt;Node10</title>
<path fill="none" stroke="midnightblue" d="M258.08,-214.69C262.61,-205.59 269.12,-195.01 274.85,-187.75"/>
<polygon fill="midnightblue" stroke="midnightblue" points="254.77,-213.52 253.95,-224.08 261.18,-216.34 254.77,-213.52"/>
</g>
<!-- Node8 -->
<g id="node8" class="node">
<title>Node8</title>
<g id="a_node8"><a xlink:href="../../d6/d91/boyer__moore_8c.html" target="_top" xlink:title=" ">
<polygon fill="none" stroke="black" points="106,-112.5 106,-131.5 204,-131.5 204,-112.5 106,-112.5"/>
<text text-anchor="middle" x="155" y="-119.5" font-family="Helvetica,sans-Serif" font-size="10.00">src/boyer_moore.c</text>
</a>
</g>
</g>
<!-- Node7&#45;&gt;Node8 -->
<g id="edge8" class="edge">
<title>Node7&#45;&gt;Node8</title>
<path fill="none" stroke="midnightblue" d="M149.15,-158.1C150.64,-149.14 152.36,-138.86 153.54,-131.75"/>
<polygon fill="midnightblue" stroke="midnightblue" points="145.68,-157.64 147.49,-168.08 152.58,-158.79 145.68,-157.64"/>
</g>
<!-- Node8&#45;&gt;Node4 -->
<g id="edge9" class="edge">
<title>Node8&#45;&gt;Node4</title>
<path fill="none" stroke="midnightblue" d="M170.38,-104.72C179.37,-95.2 190.36,-83.56 197.74,-75.75"/>
<polygon fill="midnightblue" stroke="midnightblue" points="167.74,-102.41 163.42,-112.08 172.83,-107.22 167.74,-102.41"/>
</g>
<!-- Node9&#45;&gt;Node4 -->
<g id="edge11" class="edge">
<title>Node9&#45;&gt;Node4</title>
<path fill="none" stroke="midnightblue" d="M240.92,-104.72C232.11,-95.2 221.33,-83.56 214.1,-75.75"/>
<polygon fill="midnightblue" stroke="midnightblue" points="238.38,-107.12 247.74,-112.08 243.52,-102.37 238.38,-107.12"/>
</g>
<!-- Node10&#45;&gt;Node6 -->
<g id="edge13" class="edge">
<title>Node10&#45;&gt;Node6</title>
<path fill="none" stroke="midnightblue" d="M281.02,-197.1C276.52,-206.18 270.03,-216.77 264.29,-224.08"/>
<polygon fill="midnightblue" stroke="midnightblue" points="284.31,-198.32 285.11,-187.75 277.9,-195.51 284.31,-198.32"/>
</g>
</g>
</svg>
