<?xml version="1.0" encoding="UTF-8" standalone="no"?>
<!DOCTYPE svg PUBLIC "-//W3C//DTD SVG 1.1//EN"
 "http://www.w3.org/Graphics/SVG/1.1/DTD/svg11.dtd">
<!-- Generated by graphviz version 3.0.0 (20220226.1711)
 -->
<!-- Title: yed_frame_t Pages: 1 -->
<svg width="424pt" height="389pt"
 viewBox="0.00 0.00 424.00 389.00" xmlns="http://www.w3.org/2000/svg" xmlns:xlink="http://www.w3.org/1999/xlink">
<g id="graph0" class="graph" transform="scale(1 1) rotate(0) translate(4 385)">
<title>yed_frame_t</title>
<!-- Node1 -->
<g id="node1" class="node">
<title>Node1</title>
<g id="a_node1"><a xlink:title=" ">
<polygon fill="#bfbfbf" stroke="black" points="119.5,-69.5 119.5,-88.5 190.5,-88.5 190.5,-69.5 119.5,-69.5"/>
<text text-anchor="middle" x="155" y="-76.5" font-family="Helvetica,sans-Serif" font-size="10.00">yed_frame_t</text>
</a>
</g>
</g>
<!-- Node2 -->
<g id="node2" class="node">
<title>Node2</title>
<g id="a_node2"><a xlink:href="../../db/d0f/structyed__frame__tree__t.html" target="_top" xlink:title=" ">
<polygon fill="none" stroke="black" points="109,-1.5 109,-20.5 201,-20.5 201,-1.5 109,-1.5"/>
<text text-anchor="middle" x="155" y="-8.5" font-family="Helvetica,sans-Serif" font-size="10.00">yed_frame_tree_t</text>
</a>
</g>
</g>
<!-- Node1&#45;&gt;Node2 -->
<g id="edge3" class="edge">
<title>Node1&#45;&gt;Node2</title>
<path fill="none" stroke="#9a32cd" stroke-dasharray="5,2" d="M134.07,-62.48C127.94,-55.98 123.66,-48.05 127,-40 130.21,-32.25 136.72,-25.53 142.65,-20.61"/>
<polygon fill="#9a32cd" stroke="#9a32cd" points="132,-65.33 141.78,-69.4 136.67,-60.12 132,-65.33"/>
<text text-anchor="middle" x="141" y="-43" font-family="Helvetica,sans-Serif" font-size="10.00"> frame</text>
</g>
<!-- Node2&#45;&gt;Node1 -->
<g id="edge1" class="edge">
<title>Node2&#45;&gt;Node1</title>
<path fill="none" stroke="#9a32cd" stroke-dasharray="5,2" d="M158.29,-30.97C159.04,-37.33 159.48,-44.47 159,-51 158.55,-57.05 157.55,-63.8 156.67,-69.04"/>
<polygon fill="#9a32cd" stroke="#9a32cd" points="161.69,-30.04 156.77,-20.66 154.77,-31.07 161.69,-30.04"/>
<text text-anchor="middle" x="169" y="-43" font-family="Helvetica,sans-Serif" font-size="10.00"> tree</text>
</g>
<!-- Node2&#45;&gt;Node2 -->
<g id="edge2" class="edge">
<title>Node2&#45;&gt;Node2</title>
<path fill="none" stroke="#9a32cd" stroke-dasharray="5,2" d="M211.27,-15.95C216.03,-14.89 219,-13.24 219,-11 219,-7.41 211.41,-5.34 201.02,-4.78"/>
<polygon fill="#9a32cd" stroke="#9a32cd" points="210.52,-12.52 201.02,-17.22 211.38,-19.46 210.52,-12.52"/>
<text text-anchor="middle" x="244.5" y="-14" font-family="Helvetica,sans-Serif" font-size="10.00"> child_trees</text>
<text text-anchor="middle" x="244.5" y="-3" font-family="Helvetica,sans-Serif" font-size="10.00">parent</text>
</g>
<!-- Node3 -->
<g id="node3" class="node">
<title>Node3</title>
<g id="a_node3"><a xlink:href="../../d5/d2d/structyed__buffer__t.html" target="_top" xlink:title=" ">
<polygon fill="none" stroke="black" points="119.5,-136.5 119.5,-155.5 190.5,-155.5 190.5,-136.5 119.5,-136.5"/>
<text text-anchor="middle" x="155" y="-143.5" font-family="Helvetica,sans-Serif" font-size="10.00">yed_buffer_t</text>
</a>
</g>
</g>
<!-- Node3&#45;&gt;Node1 -->
<g id="edge4" class="edge">
<title>Node3&#45;&gt;Node1</title>
<path fill="none" stroke="#9a32cd" stroke-dasharray="5,2" d="M155,-126.04C155,-113.67 155,-98.12 155,-88.63"/>
<polygon fill="#9a32cd" stroke="#9a32cd" points="151.5,-126.23 155,-136.23 158.5,-126.23 151.5,-126.23"/>
<text text-anchor="middle" x="169" y="-110" font-family="Helvetica,sans-Serif" font-size="10.00"> buffer</text>
</g>
<!-- Node4 -->
<g id="node4" class="node">
<title>Node4</title>
<g id="a_node4"><a xlink:href="../../dc/d81/structbucket__array__t.html" target="_top" xlink:title=" ">
<polygon fill="none" stroke="black" points="40.5,-254.5 40.5,-273.5 121.5,-273.5 121.5,-254.5 40.5,-254.5"/>
<text text-anchor="middle" x="81" y="-261.5" font-family="Helvetica,sans-Serif" font-size="10.00">bucket_array_t</text>
</a>
</g>
</g>
<!-- Node4&#45;&gt;Node3 -->
<g id="edge5" class="edge">
<title>Node4&#45;&gt;Node3</title>
<path fill="none" stroke="#9a32cd" stroke-dasharray="5,2" d="M92.02,-245.72C108.13,-220.48 137.48,-174.46 149.57,-155.5"/>
<polygon fill="#9a32cd" stroke="#9a32cd" points="88.99,-243.97 86.56,-254.28 94.89,-247.73 88.99,-243.97"/>
<text text-anchor="middle" x="130" y="-217" font-family="Helvetica,sans-Serif" font-size="10.00"> lines</text>
</g>
<!-- Node5 -->
<g id="node5" class="node">
<title>Node5</title>
<g id="a_node5"><a xlink:href="../../d1/d16/structarray__t.html" target="_top" xlink:title=" ">
<polygon fill="none" stroke="black" points="133.5,-361.5 133.5,-380.5 180.5,-380.5 180.5,-361.5 133.5,-361.5"/>
<text text-anchor="middle" x="157" y="-368.5" font-family="Helvetica,sans-Serif" font-size="10.00">array_t</text>
</a>
</g>
</g>
<!-- Node5&#45;&gt;Node1 -->
<g id="edge15" class="edge">
<title>Node5&#45;&gt;Node1</title>
<path fill="none" stroke="#9a32cd" stroke-dasharray="5,2" d="M123.33,-370.06C77.2,-368.17 0,-357.08 0,-304 0,-304 0,-304 0,-145 0,-93.5 73.68,-82.11 119.44,-80.01"/>
<polygon fill="#9a32cd" stroke="#9a32cd" points="123.4,-373.56 133.5,-370.35 123.6,-366.57 123.4,-373.56"/>
<text text-anchor="middle" x="29.5" y="-228" font-family="Helvetica,sans-Serif" font-size="10.00"> gutter_attrs</text>
<text text-anchor="middle" x="29.5" y="-217" font-family="Helvetica,sans-Serif" font-size="10.00">gutter_glyphs</text>
<text text-anchor="middle" x="29.5" y="-206" font-family="Helvetica,sans-Serif" font-size="10.00">line_attrs</text>
</g>
<!-- Node5&#45;&gt;Node4 -->
<g id="edge6" class="edge">
<title>Node5&#45;&gt;Node4</title>
<path fill="none" stroke="#9a32cd" stroke-dasharray="5,2" d="M130.27,-356.18C124.73,-352.45 119.28,-348.02 115,-343 96.81,-321.63 86.89,-289.01 82.99,-273.62"/>
<polygon fill="#9a32cd" stroke="#9a32cd" points="128.55,-359.24 138.9,-361.48 132.21,-353.27 128.55,-359.24"/>
<text text-anchor="middle" x="134" y="-335" font-family="Helvetica,sans-Serif" font-size="10.00"> buckets</text>
</g>
<!-- Node6 -->
<g id="node6" class="node">
<title>Node6</title>
<g id="a_node6"><a xlink:href="../../d6/df3/structyed__line__t.html" target="_top" xlink:title=" ">
<polygon fill="none" stroke="black" points="126.5,-254.5 126.5,-273.5 187.5,-273.5 187.5,-254.5 126.5,-254.5"/>
<text text-anchor="middle" x="157" y="-261.5" font-family="Helvetica,sans-Serif" font-size="10.00">yed_line_t</text>
</a>
</g>
</g>
<!-- Node5&#45;&gt;Node6 -->
<g id="edge8" class="edge">
<title>Node5&#45;&gt;Node6</title>
<path fill="none" stroke="#9a32cd" stroke-dasharray="5,2" d="M157,-351.26C157,-328.38 157,-290.65 157,-273.71"/>
<polygon fill="#9a32cd" stroke="#9a32cd" points="153.5,-351.41 157,-361.41 160.5,-351.41 153.5,-351.41"/>
<text text-anchor="middle" x="171" y="-335" font-family="Helvetica,sans-Serif" font-size="10.00"> chars</text>
</g>
<!-- Node8 -->
<g id="node8" class="node">
<title>Node8</title>
<g id="a_node8"><a xlink:href="../../d3/d53/structyed__undo__history.html" target="_top" xlink:title=" ">
<polygon fill="none" stroke="black" points="242.5,-210 242.5,-229 335.5,-229 335.5,-210 242.5,-210"/>
<text text-anchor="middle" x="289" y="-217" font-family="Helvetica,sans-Serif" font-size="10.00">yed_undo_history</text>
</a>
</g>
</g>
<!-- Node5&#45;&gt;Node8 -->
<g id="edge11" class="edge">
<title>Node5&#45;&gt;Node8</title>
<path fill="none" stroke="#9a32cd" stroke-dasharray="5,2" d="M177.5,-354.98C181.63,-351.36 185.71,-347.29 189,-343 204.26,-323.13 198.28,-312.27 213,-292 231.94,-265.9 261.29,-241.53 277.41,-229.1"/>
<polygon fill="#9a32cd" stroke="#9a32cd" points="175.24,-352.31 169.68,-361.33 179.65,-357.74 175.24,-352.31"/>
<text text-anchor="middle" x="224" y="-306" font-family="Helvetica,sans-Serif" font-size="10.00"> redo</text>
<text text-anchor="middle" x="224" y="-295" font-family="Helvetica,sans-Serif" font-size="10.00">undo</text>
</g>
<!-- Node9 -->
<g id="node9" class="node">
<title>Node9</title>
<g id="a_node9"><a xlink:href="../../dc/dde/structyed__undo__record.html" target="_top" xlink:title=" ">
<polygon fill="none" stroke="black" points="243.5,-293.5 243.5,-312.5 334.5,-312.5 334.5,-293.5 243.5,-293.5"/>
<text text-anchor="middle" x="289" y="-300.5" font-family="Helvetica,sans-Serif" font-size="10.00">yed_undo_record</text>
</a>
</g>
</g>
<!-- Node5&#45;&gt;Node9 -->
<g id="edge13" class="edge">
<title>Node5&#45;&gt;Node9</title>
<path fill="none" stroke="#9a32cd" stroke-dasharray="5,2" d="M186.27,-357.35C196.11,-352.96 207.1,-347.9 217,-343 237,-333.1 259.55,-320.67 274,-312.54"/>
<polygon fill="#9a32cd" stroke="#9a32cd" points="184.63,-354.24 176.9,-361.48 187.46,-360.65 184.63,-354.24"/>
<text text-anchor="middle" x="254.5" y="-335" font-family="Helvetica,sans-Serif" font-size="10.00"> actions</text>
</g>
<!-- Node6&#45;&gt;Node3 -->
<g id="edge7" class="edge">
<title>Node6&#45;&gt;Node3</title>
<path fill="none" stroke="#9a32cd" stroke-dasharray="5,2" d="M156.67,-244.02C156.23,-218.46 155.47,-174.04 155.15,-155.5"/>
<polygon fill="#9a32cd" stroke="#9a32cd" points="153.18,-244.34 156.85,-254.28 160.18,-244.22 153.18,-244.34"/>
<text text-anchor="middle" x="190.5" y="-217" font-family="Helvetica,sans-Serif" font-size="10.00"> get_line_cache</text>
</g>
<!-- Node7 -->
<g id="node7" class="node">
<title>Node7</title>
<g id="a_node7"><a xlink:href="../../d2/d1d/structyed__range.html" target="_top" xlink:title=" ">
<polygon fill="none" stroke="black" points="354,-210 354,-229 416,-229 416,-210 354,-210"/>
<text text-anchor="middle" x="385" y="-217" font-family="Helvetica,sans-Serif" font-size="10.00">yed_range</text>
</a>
</g>
</g>
<!-- Node7&#45;&gt;Node3 -->
<g id="edge9" class="edge">
<title>Node7&#45;&gt;Node3</title>
<path fill="none" stroke="#9a32cd" stroke-dasharray="5,2" d="M360.62,-205.24C341.59,-195.39 314.24,-182.26 289,-174 287.81,-173.61 230.14,-162.04 190.85,-154.17"/>
<polygon fill="#9a32cd" stroke="#9a32cd" points="359.02,-208.36 369.5,-209.92 362.28,-202.17 359.02,-208.36"/>
<text text-anchor="middle" x="337.5" y="-177" font-family="Helvetica,sans-Serif" font-size="10.00"> selection</text>
</g>
<!-- Node8&#45;&gt;Node3 -->
<g id="edge10" class="edge">
<title>Node8&#45;&gt;Node3</title>
<path fill="none" stroke="#9a32cd" stroke-dasharray="5,2" d="M263.93,-205.12C236.79,-190.64 194.29,-167.97 171.22,-155.66"/>
<polygon fill="#9a32cd" stroke="#9a32cd" points="262.37,-208.26 272.84,-209.88 265.66,-202.08 262.37,-208.26"/>
<text text-anchor="middle" x="255.5" y="-177" font-family="Helvetica,sans-Serif" font-size="10.00"> undo_history</text>
</g>
<!-- Node9&#45;&gt;Node8 -->
<g id="edge12" class="edge">
<title>Node9&#45;&gt;Node8</title>
<path fill="none" stroke="#9a32cd" stroke-dasharray="5,2" d="M289,-282.88C289,-265.9 289,-241.87 289,-229.16"/>
<polygon fill="#9a32cd" stroke="#9a32cd" points="285.5,-283.28 289,-293.28 292.5,-283.28 285.5,-283.28"/>
<text text-anchor="middle" x="322" y="-261.5" font-family="Helvetica,sans-Serif" font-size="10.00"> current_record</text>
</g>
<!-- Node10 -->
<g id="node10" class="node">
<title>Node10</title>
<g id="a_node10"><a xlink:href="../../d6/df6/structyed__attrs.html" target="_top" xlink:title=" ">
<polygon fill="none" stroke="black" points="208.5,-136.5 208.5,-155.5 265.5,-155.5 265.5,-136.5 208.5,-136.5"/>
<text text-anchor="middle" x="237" y="-143.5" font-family="Helvetica,sans-Serif" font-size="10.00">yed_attrs</text>
</a>
</g>
</g>
<!-- Node10&#45;&gt;Node1 -->
<g id="edge14" class="edge">
<title>Node10&#45;&gt;Node1</title>
<path fill="none" stroke="#9a32cd" stroke-dasharray="5,2" d="M217.72,-129.71C201.56,-116.91 179.08,-99.09 165.88,-88.63"/>
<polygon fill="#9a32cd" stroke="#9a32cd" points="215.93,-132.76 225.94,-136.23 220.28,-127.28 215.93,-132.76"/>
<text text-anchor="middle" x="235" y="-110" font-family="Helvetica,sans-Serif" font-size="10.00"> row_base_attrs</text>
</g>
</g>
</svg>
