<?xml version="1.0" encoding="UTF-8" standalone="no"?>
<!DOCTYPE svg PUBLIC "-//W3C//DTD SVG 1.1//EN"
 "http://www.w3.org/Graphics/SVG/1.1/DTD/svg11.dtd">
<!-- Generated by graphviz version 3.0.0 (20220226.1711)
 -->
<!-- Title: yed_gui_list_menu Pages: 1 -->
<svg width="159pt" height="162pt"
 viewBox="0.00 0.00 159.00 162.00" xmlns="http://www.w3.org/2000/svg" xmlns:xlink="http://www.w3.org/1999/xlink">
<g id="graph0" class="graph" transform="scale(1 1) rotate(0) translate(4 158)">
<title>yed_gui_list_menu</title>
<!-- Node1 -->
<g id="node1" class="node">
<title>Node1</title>
<g id="a_node1"><a xlink:title=" ">
<polygon fill="#bfbfbf" stroke="black" points="0,-0.5 0,-19.5 98,-19.5 98,-0.5 0,-0.5"/>
<text text-anchor="middle" x="49" y="-7.5" font-family="Helvetica,sans-Serif" font-size="10.00">yed_gui_list_menu</text>
</a>
</g>
</g>
<!-- Node2 -->
<g id="node2" class="node">
<title>Node2</title>
<g id="a_node2"><a xlink:href="../../dd/d2a/struct__yed__gui__base.html" target="_top" xlink:title=" ">
<polygon fill="none" stroke="black" points="69,-67.5 69,-86.5 151,-86.5 151,-67.5 69,-67.5"/>
<text text-anchor="middle" x="110" y="-74.5" font-family="Helvetica,sans-Serif" font-size="10.00">_yed_gui_base</text>
</a>
</g>
</g>
<!-- Node2&#45;&gt;Node1 -->
<g id="edge1" class="edge">
<title>Node2&#45;&gt;Node1</title>
<path fill="none" stroke="#9a32cd" stroke-dasharray="5,2" d="M94.64,-59.63C82.71,-46.92 66.64,-29.8 57.1,-19.63"/>
<polygon fill="#9a32cd" stroke="#9a32cd" points="92.38,-62.34 101.77,-67.23 97.48,-57.55 92.38,-62.34"/>
<text text-anchor="middle" x="95.5" y="-41" font-family="Helvetica,sans-Serif" font-size="10.00"> base</text>
</g>
<!-- Node3 -->
<g id="node3" class="node">
<title>Node3</title>
<g id="a_node3"><a xlink:href="../../d1/d16/structarray__t.html" target="_top" xlink:title=" ">
<polygon fill="none" stroke="black" points="10.5,-134.5 10.5,-153.5 57.5,-153.5 57.5,-134.5 10.5,-134.5"/>
<text text-anchor="middle" x="34" y="-141.5" font-family="Helvetica,sans-Serif" font-size="10.00">array_t</text>
</a>
</g>
</g>
<!-- Node3&#45;&gt;Node1 -->
<g id="edge3" class="edge">
<title>Node3&#45;&gt;Node1</title>
<path fill="none" stroke="#9a32cd" stroke-dasharray="5,2" d="M29.47,-124.64C26.33,-109.16 23.31,-86.49 27,-67 30.3,-49.55 38.92,-30.58 44.34,-19.81"/>
<polygon fill="#9a32cd" stroke="#9a32cd" points="26.08,-125.5 31.69,-134.49 32.91,-123.97 26.08,-125.5"/>
<text text-anchor="middle" x="43.5" y="-74.5" font-family="Helvetica,sans-Serif" font-size="10.00"> strings</text>
</g>
<!-- Node3&#45;&gt;Node2 -->
<g id="edge2" class="edge">
<title>Node3&#45;&gt;Node2</title>
<path fill="none" stroke="#9a32cd" stroke-dasharray="5,2" d="M51.87,-127.71C66.85,-114.91 87.68,-97.09 99.91,-86.63"/>
<polygon fill="#9a32cd" stroke="#9a32cd" points="49.57,-125.07 44.25,-134.23 54.12,-130.39 49.57,-125.07"/>
<text text-anchor="middle" x="85.5" y="-108" font-family="Helvetica,sans-Serif" font-size="10.00"> dds</text>
</g>
</g>
</svg>
