<?xml version="1.0" encoding="UTF-8" standalone="no"?>
<!DOCTYPE svg PUBLIC "-//W3C//DTD SVG 1.1//EN"
 "http://www.w3.org/Graphics/SVG/1.1/DTD/svg11.dtd">
<!-- Generated by graphviz version 3.0.0 (20220226.1711)
 -->
<!-- Title: src/version.h Pages: 1 -->
<svg width="317pt" height="308pt"
 viewBox="0.00 0.00 317.00 308.00" xmlns="http://www.w3.org/2000/svg" xmlns:xlink="http://www.w3.org/1999/xlink">
<g id="graph0" class="graph" transform="scale(1 1) rotate(0) translate(4 304)">
<title>src/version.h</title>
<!-- Node1 -->
<g id="node1" class="node">
<title>Node1</title>
<g id="a_node1"><a xlink:title=" ">
<polygon fill="#bfbfbf" stroke="black" points="149,-280.5 149,-299.5 222,-299.5 222,-280.5 149,-280.5"/>
<text text-anchor="middle" x="185.5" y="-287.5" font-family="Helvetica,sans-Serif" font-size="10.00">src/version.h</text>
</a>
</g>
</g>
<!-- Node2 -->
<g id="node2" class="node">
<title>Node2</title>
<g id="a_node2"><a xlink:href="../../db/dde/internal_8h.html" target="_top" xlink:title=" ">
<polygon fill="none" stroke="black" points="60,-224.5 60,-243.5 133,-243.5 133,-224.5 60,-224.5"/>
<text text-anchor="middle" x="96.5" y="-231.5" font-family="Helvetica,sans-Serif" font-size="10.00">src/internal.h</text>
</a>
</g>
</g>
<!-- Node1&#45;&gt;Node2 -->
<g id="edge1" class="edge">
<title>Node1&#45;&gt;Node2</title>
<path fill="none" stroke="midnightblue" d="M162.26,-274.9C145.94,-265 124.63,-252.07 110.76,-243.65"/>
<polygon fill="midnightblue" stroke="midnightblue" points="160.84,-278.13 171.2,-280.32 164.47,-272.14 160.84,-278.13"/>
</g>
<!-- Node9 -->
<g id="node9" class="node">
<title>Node9</title>
<g id="a_node9"><a xlink:href="../../d2/d0b/version_8c.html" target="_top" xlink:title=" ">
<polygon fill="none" stroke="black" points="236,-112.5 236,-131.5 309,-131.5 309,-112.5 236,-112.5"/>
<text text-anchor="middle" x="272.5" y="-119.5" font-family="Helvetica,sans-Serif" font-size="10.00">src/version.c</text>
</a>
</g>
</g>
<!-- Node1&#45;&gt;Node9 -->
<g id="edge11" class="edge">
<title>Node1&#45;&gt;Node9</title>
<path fill="none" stroke="midnightblue" d="M199.5,-272.73C215.25,-253.63 240.58,-220.44 255.5,-188 264.27,-168.92 269.11,-144.54 271.21,-131.74"/>
<polygon fill="midnightblue" stroke="midnightblue" points="196.76,-270.55 193.01,-280.46 202.12,-275.05 196.76,-270.55"/>
</g>
<!-- Node3 -->
<g id="node3" class="node">
<title>Node3</title>
<g id="a_node3"><a xlink:href="../../da/d9e/boyer__moore_8h.html" target="_top" xlink:title=" ">
<polygon fill="none" stroke="black" points="148.5,-168.5 148.5,-187.5 246.5,-187.5 246.5,-168.5 148.5,-168.5"/>
<text text-anchor="middle" x="197.5" y="-175.5" font-family="Helvetica,sans-Serif" font-size="10.00">src/boyer_moore.h</text>
</a>
</g>
</g>
<!-- Node2&#45;&gt;Node3 -->
<g id="edge2" class="edge">
<title>Node2&#45;&gt;Node3</title>
<path fill="none" stroke="midnightblue" d="M121.58,-219.59C140.26,-209.61 165.2,-196.27 181.31,-187.65"/>
<polygon fill="midnightblue" stroke="midnightblue" points="119.9,-216.52 112.73,-224.32 123.2,-222.7 119.9,-216.52"/>
</g>
<!-- Node6 -->
<g id="node6" class="node">
<title>Node6</title>
<g id="a_node6"><a xlink:href="../../d6/d07/yed_8c.html" target="_top" xlink:title=" ">
<polygon fill="none" stroke="black" points="0,-0.5 0,-19.5 57,-19.5 57,-0.5 0,-0.5"/>
<text text-anchor="middle" x="28.5" y="-7.5" font-family="Helvetica,sans-Serif" font-size="10.00">src/yed.c</text>
</a>
</g>
</g>
<!-- Node2&#45;&gt;Node6 -->
<g id="edge10" class="edge">
<title>Node2&#45;&gt;Node6</title>
<path fill="none" stroke="midnightblue" d="M76.37,-218.07C66.46,-209.98 54.87,-199.33 46.5,-188 30.19,-165.93 26.42,-158.8 20.5,-132 11.38,-90.68 21.51,-39.65 26.29,-19.63"/>
<polygon fill="midnightblue" stroke="midnightblue" points="74.5,-221.05 84.53,-224.47 78.82,-215.54 74.5,-221.05"/>
</g>
<!-- Node7 -->
<g id="node7" class="node">
<title>Node7</title>
<g id="a_node7"><a xlink:href="../../d4/daa/plugin_8c.html" target="_top" xlink:title=" ">
<polygon fill="none" stroke="black" points="30,-112.5 30,-131.5 97,-131.5 97,-112.5 30,-112.5"/>
<text text-anchor="middle" x="63.5" y="-119.5" font-family="Helvetica,sans-Serif" font-size="10.00">src/plugin.c</text>
</a>
</g>
</g>
<!-- Node2&#45;&gt;Node7 -->
<g id="edge6" class="edge">
<title>Node2&#45;&gt;Node7</title>
<path fill="none" stroke="midnightblue" d="M76.26,-217.86C67.49,-210.03 58.18,-199.67 53.5,-188 45.85,-168.92 53.9,-144.54 59.36,-131.74"/>
<polygon fill="midnightblue" stroke="midnightblue" points="74.08,-220.6 84,-224.3 78.55,-215.22 74.08,-220.6"/>
</g>
<!-- Node8 -->
<g id="node8" class="node">
<title>Node8</title>
<g id="a_node8"><a xlink:href="../../d9/dc4/plugin_8h.html" target="_top" xlink:title=" ">
<polygon fill="none" stroke="black" points="63,-168.5 63,-187.5 130,-187.5 130,-168.5 63,-168.5"/>
<text text-anchor="middle" x="96.5" y="-175.5" font-family="Helvetica,sans-Serif" font-size="10.00">src/plugin.h</text>
</a>
</g>
</g>
<!-- Node2&#45;&gt;Node8 -->
<g id="edge8" class="edge">
<title>Node2&#45;&gt;Node8</title>
<path fill="none" stroke="midnightblue" d="M90.03,-214.1C89.4,-205.14 89.84,-194.86 91.37,-187.75"/>
<polygon fill="midnightblue" stroke="midnightblue" points="86.57,-214.62 91.33,-224.08 93.51,-213.71 86.57,-214.62"/>
</g>
<!-- Node4 -->
<g id="node4" class="node">
<title>Node4</title>
<g id="a_node4"><a xlink:href="../../d6/d91/boyer__moore_8c.html" target="_top" xlink:title=" ">
<polygon fill="none" stroke="black" points="118.5,-112.5 118.5,-131.5 216.5,-131.5 216.5,-112.5 118.5,-112.5"/>
<text text-anchor="middle" x="167.5" y="-119.5" font-family="Helvetica,sans-Serif" font-size="10.00">src/boyer_moore.c</text>
</a>
</g>
</g>
<!-- Node3&#45;&gt;Node4 -->
<g id="edge3" class="edge">
<title>Node3&#45;&gt;Node4</title>
<path fill="none" stroke="midnightblue" d="M187.65,-159.27C182.53,-150.05 176.48,-139.17 172.36,-131.75"/>
<polygon fill="midnightblue" stroke="midnightblue" points="184.63,-161.04 192.55,-168.08 190.75,-157.64 184.63,-161.04"/>
</g>
<!-- Node5 -->
<g id="node5" class="node">
<title>Node5</title>
<g id="a_node5"><a xlink:href="../../dc/df8/internal_8c.html" target="_top" xlink:title=" ">
<polygon fill="none" stroke="black" points="74,-56.5 74,-75.5 147,-75.5 147,-56.5 74,-56.5"/>
<text text-anchor="middle" x="110.5" y="-63.5" font-family="Helvetica,sans-Serif" font-size="10.00">src/internal.c</text>
</a>
</g>
</g>
<!-- Node4&#45;&gt;Node5 -->
<g id="edge4" class="edge">
<title>Node4&#45;&gt;Node5</title>
<path fill="none" stroke="midnightblue" d="M150.88,-105.25C140.77,-95.67 128.22,-83.79 119.82,-75.83"/>
<polygon fill="midnightblue" stroke="midnightblue" points="148.68,-107.99 158.34,-112.32 153.49,-102.91 148.68,-107.99"/>
</g>
<!-- Node5&#45;&gt;Node6 -->
<g id="edge5" class="edge">
<title>Node5&#45;&gt;Node6</title>
<path fill="none" stroke="midnightblue" d="M88.67,-50.62C73.69,-40.76 54.3,-27.99 41.64,-19.65"/>
<polygon fill="midnightblue" stroke="midnightblue" points="87.05,-53.75 97.33,-56.32 90.9,-47.9 87.05,-53.75"/>
</g>
<!-- Node7&#45;&gt;Node5 -->
<g id="edge7" class="edge">
<title>Node7&#45;&gt;Node5</title>
<path fill="none" stroke="midnightblue" d="M77.92,-104.43C86.16,-94.97 96.15,-83.48 102.88,-75.75"/>
<polygon fill="midnightblue" stroke="midnightblue" points="75.19,-102.24 71.26,-112.08 80.47,-106.84 75.19,-102.24"/>
</g>
<!-- Node8&#45;&gt;Node2 -->
<g id="edge9" class="edge">
<title>Node8&#45;&gt;Node2</title>
<path fill="none" stroke="midnightblue" d="M102.96,-197.69C103.61,-206.64 103.18,-216.93 101.67,-224.08"/>
<polygon fill="midnightblue" stroke="midnightblue" points="106.42,-197.2 101.63,-187.75 99.48,-198.13 106.42,-197.2"/>
</g>
<!-- Node9&#45;&gt;Node5 -->
<g id="edge12" class="edge">
<title>Node9&#45;&gt;Node5</title>
<path fill="none" stroke="midnightblue" d="M237.02,-109.17C206.51,-99 163.26,-84.59 136.05,-75.52"/>
<polygon fill="midnightblue" stroke="midnightblue" points="236.24,-112.6 246.83,-112.44 238.45,-105.96 236.24,-112.6"/>
</g>
</g>
</svg>
