<?xml version="1.0" encoding="UTF-8" standalone="no"?>
<!DOCTYPE svg PUBLIC "-//W3C//DTD SVG 1.1//EN"
 "http://www.w3.org/Graphics/SVG/1.1/DTD/svg11.dtd">
<!-- Generated by graphviz version 3.0.0 (20220226.1711)
 -->
<!-- Title: _yed_syntax_range Pages: 1 -->
<svg width="328pt" height="229pt"
 viewBox="0.00 0.00 328.00 229.00" xmlns="http://www.w3.org/2000/svg" xmlns:xlink="http://www.w3.org/1999/xlink">
<g id="graph0" class="graph" transform="scale(1 1) rotate(0) translate(4 225)">
<title>_yed_syntax_range</title>
<!-- Node1 -->
<g id="node1" class="node">
<title>Node1</title>
<g id="a_node1"><a xlink:title=" ">
<polygon fill="#bfbfbf" stroke="black" points="69.5,-0.5 69.5,-19.5 170.5,-19.5 170.5,-0.5 69.5,-0.5"/>
<text text-anchor="middle" x="120" y="-7.5" font-family="Helvetica,sans-Serif" font-size="10.00">_yed_syntax_range</text>
</a>
</g>
</g>
<!-- Node2 -->
<g id="node2" class="node">
<title>Node2</title>
<g id="a_node2"><a xlink:href="../../d7/d24/struct__yed__syntax__attr.html" target="_top" xlink:title=" ">
<polygon fill="none" stroke="black" points="0,-67.5 0,-86.5 92,-86.5 92,-67.5 0,-67.5"/>
<text text-anchor="middle" x="46" y="-74.5" font-family="Helvetica,sans-Serif" font-size="10.00">_yed_syntax_attr</text>
</a>
</g>
</g>
<!-- Node2&#45;&gt;Node1 -->
<g id="edge1" class="edge">
<title>Node2&#45;&gt;Node1</title>
<path fill="none" stroke="#9a32cd" stroke-dasharray="5,2" d="M62.82,-60.54C70.45,-53.59 79.63,-45.32 88,-38 95.12,-31.78 103.26,-24.92 109.55,-19.66"/>
<polygon fill="#9a32cd" stroke="#9a32cd" points="60.28,-58.12 55.26,-67.45 65,-63.29 60.28,-58.12"/>
<text text-anchor="middle" x="97" y="-41" font-family="Helvetica,sans-Serif" font-size="10.00"> attr</text>
</g>
<!-- Node3 -->
<g id="node3" class="node">
<title>Node3</title>
<g id="a_node3"><a xlink:href="../../d6/df6/structyed__attrs.html" target="_top" xlink:title=" ">
<polygon fill="none" stroke="black" points="17.5,-134.5 17.5,-153.5 74.5,-153.5 74.5,-134.5 17.5,-134.5"/>
<text text-anchor="middle" x="46" y="-141.5" font-family="Helvetica,sans-Serif" font-size="10.00">yed_attrs</text>
</a>
</g>
</g>
<!-- Node3&#45;&gt;Node2 -->
<g id="edge2" class="edge">
<title>Node3&#45;&gt;Node2</title>
<path fill="none" stroke="#9a32cd" stroke-dasharray="5,2" d="M46,-124.04C46,-111.67 46,-96.12 46,-86.63"/>
<polygon fill="#9a32cd" stroke="#9a32cd" points="42.5,-124.23 46,-134.23 49.5,-124.23 42.5,-124.23"/>
<text text-anchor="middle" x="55" y="-108" font-family="Helvetica,sans-Serif" font-size="10.00"> attr</text>
</g>
<!-- Node4 -->
<g id="node4" class="node">
<title>Node4</title>
<g id="a_node4"><a xlink:href="../../d1/d16/structarray__t.html" target="_top" xlink:title=" ">
<polygon fill="none" stroke="black" points="142.5,-201.5 142.5,-220.5 189.5,-220.5 189.5,-201.5 142.5,-201.5"/>
<text text-anchor="middle" x="166" y="-208.5" font-family="Helvetica,sans-Serif" font-size="10.00">array_t</text>
</a>
</g>
</g>
<!-- Node4&#45;&gt;Node1 -->
<g id="edge3" class="edge">
<title>Node4&#45;&gt;Node1</title>
<path fill="none" stroke="#9a32cd" stroke-dasharray="5,2" d="M161.74,-191.57C152.12,-149.93 128.99,-49.89 122.02,-19.74"/>
<polygon fill="#9a32cd" stroke="#9a32cd" points="158.36,-192.49 164.02,-201.45 165.18,-190.92 158.36,-192.49"/>
<text text-anchor="middle" x="158.5" y="-108" font-family="Helvetica,sans-Serif" font-size="10.00"> skips</text>
</g>
<!-- Node5 -->
<g id="node5" class="node">
<title>Node5</title>
<g id="a_node5"><a xlink:href="../../de/d3a/struct__yed__syntax__items.html" target="_top" xlink:title=" ">
<polygon fill="none" stroke="black" points="148.5,-67.5 148.5,-86.5 249.5,-86.5 249.5,-67.5 148.5,-67.5"/>
<text text-anchor="middle" x="199" y="-74.5" font-family="Helvetica,sans-Serif" font-size="10.00">_yed_syntax_items</text>
</a>
</g>
</g>
<!-- Node4&#45;&gt;Node5 -->
<g id="edge7" class="edge">
<title>Node4&#45;&gt;Node5</title>
<path fill="none" stroke="#9a32cd" stroke-dasharray="5,2" d="M166.74,-191.05C167.7,-175.5 169.91,-153.02 175,-134 179.65,-116.63 188.71,-97.63 194.27,-86.83"/>
<polygon fill="#9a32cd" stroke="#9a32cd" points="163.22,-191.25 166.22,-201.42 170.21,-191.6 163.22,-191.25"/>
<text text-anchor="middle" x="186" y="-141.5" font-family="Helvetica,sans-Serif" font-size="10.00"> regs</text>
</g>
<!-- Node6 -->
<g id="node6" class="node">
<title>Node6</title>
<g id="a_node6"><a xlink:href="../../d4/d1b/struct__yed__syntax__kwd__set.html" target="_top" xlink:title=" ">
<polygon fill="none" stroke="black" points="206,-134.5 206,-153.5 320,-153.5 320,-134.5 206,-134.5"/>
<text text-anchor="middle" x="263" y="-141.5" font-family="Helvetica,sans-Serif" font-size="10.00">_yed_syntax_kwd_set</text>
</a>
</g>
</g>
<!-- Node4&#45;&gt;Node6 -->
<g id="edge6" class="edge">
<title>Node4&#45;&gt;Node6</title>
<path fill="none" stroke="#9a32cd" stroke-dasharray="5,2" d="M187.5,-195.59C206.69,-182.74 234.15,-164.33 250.13,-153.63"/>
<polygon fill="#9a32cd" stroke="#9a32cd" points="185.44,-192.76 179.08,-201.23 189.34,-198.57 185.44,-192.76"/>
<text text-anchor="middle" x="251.5" y="-175" font-family="Helvetica,sans-Serif" font-size="10.00"> kwds_by_len</text>
</g>
<!-- Node5&#45;&gt;Node1 -->
<g id="edge4" class="edge">
<title>Node5&#45;&gt;Node1</title>
<path fill="none" stroke="#9a32cd" stroke-dasharray="5,2" d="M180.42,-60.71C164.86,-47.91 143.2,-30.09 130.49,-19.63"/>
<polygon fill="#9a32cd" stroke="#9a32cd" points="178.4,-63.58 188.35,-67.23 182.85,-58.18 178.4,-63.58"/>
<text text-anchor="middle" x="179" y="-41" font-family="Helvetica,sans-Serif" font-size="10.00"> items</text>
</g>
<!-- Node6&#45;&gt;Node5 -->
<g id="edge5" class="edge">
<title>Node6&#45;&gt;Node5</title>
<path fill="none" stroke="#9a32cd" stroke-dasharray="5,2" d="M247.24,-127C234.69,-114.25 217.6,-96.89 207.49,-86.63"/>
<polygon fill="#9a32cd" stroke="#9a32cd" points="244.86,-129.56 254.37,-134.23 249.85,-124.65 244.86,-129.56"/>
<text text-anchor="middle" x="247.5" y="-108" font-family="Helvetica,sans-Serif" font-size="10.00"> kwds</text>
</g>
</g>
</svg>
