<?xml version="1.0" encoding="UTF-8" standalone="no"?>
<!DOCTYPE svg PUBLIC "-//W3C//DTD SVG 1.1//EN"
 "http://www.w3.org/Graphics/SVG/1.1/DTD/svg11.dtd">
<!-- Generated by graphviz version 3.0.0 (20220226.1711)
 -->
<!-- Title: yed_frame_tree_t Pages: 1 -->
<svg width="613pt" height="322pt"
 viewBox="0.00 0.00 613.00 322.00" xmlns="http://www.w3.org/2000/svg" xmlns:xlink="http://www.w3.org/1999/xlink">
<g id="graph0" class="graph" transform="scale(1 1) rotate(0) translate(4 318)">
<title>yed_frame_tree_t</title>
<!-- Node1 -->
<g id="node1" class="node">
<title>Node1</title>
<g id="a_node1"><a xlink:title=" ">
<polygon fill="#bfbfbf" stroke="black" points="0,-68.5 0,-87.5 92,-87.5 92,-68.5 0,-68.5"/>
<text text-anchor="middle" x="46" y="-75.5" font-family="Helvetica,sans-Serif" font-size="10.00">yed_frame_tree_t</text>
</a>
</g>
</g>
<!-- Node1&#45;&gt;Node1 -->
<g id="edge1" class="edge">
<title>Node1&#45;&gt;Node1</title>
<path fill="none" stroke="#9a32cd" stroke-dasharray="5,2" d="M102.27,-82.95C107.03,-81.89 110,-80.24 110,-78 110,-74.41 102.41,-72.34 92.02,-71.78"/>
<polygon fill="#9a32cd" stroke="#9a32cd" points="101.52,-79.52 92.02,-84.22 102.38,-86.46 101.52,-79.52"/>
<text text-anchor="middle" x="135.5" y="-81" font-family="Helvetica,sans-Serif" font-size="10.00"> child_trees</text>
<text text-anchor="middle" x="135.5" y="-70" font-family="Helvetica,sans-Serif" font-size="10.00">parent</text>
</g>
<!-- Node2 -->
<g id="node2" class="node">
<title>Node2</title>
<g id="a_node2"><a xlink:href="../../d3/d59/structyed__frame__t.html" target="_top" xlink:title=" ">
<polygon fill="none" stroke="black" points="153.5,-0.5 153.5,-19.5 224.5,-19.5 224.5,-0.5 153.5,-0.5"/>
<text text-anchor="middle" x="189" y="-7.5" font-family="Helvetica,sans-Serif" font-size="10.00">yed_frame_t</text>
</a>
</g>
</g>
<!-- Node1&#45;&gt;Node2 -->
<g id="edge3" class="edge">
<title>Node1&#45;&gt;Node2</title>
<path fill="none" stroke="#9a32cd" stroke-dasharray="5,2" d="M59.06,-60.3C65.99,-52.48 75.11,-43.66 85,-38 105.89,-26.05 132.13,-19.29 153.03,-15.52"/>
<polygon fill="#9a32cd" stroke="#9a32cd" points="56.19,-58.28 52.47,-68.2 61.56,-62.77 56.19,-58.28"/>
<text text-anchor="middle" x="95" y="-41" font-family="Helvetica,sans-Serif" font-size="10.00"> tree</text>
</g>
<!-- Node2&#45;&gt;Node1 -->
<g id="edge2" class="edge">
<title>Node2&#45;&gt;Node1</title>
<path fill="none" stroke="#9a32cd" stroke-dasharray="5,2" d="M160.9,-23.97C132.44,-37.11 89.21,-57.06 64.69,-68.37"/>
<polygon fill="#9a32cd" stroke="#9a32cd" points="162.69,-27 170.3,-19.63 159.75,-20.64 162.69,-27"/>
<text text-anchor="middle" x="145" y="-41" font-family="Helvetica,sans-Serif" font-size="10.00"> frame</text>
</g>
<!-- Node3 -->
<g id="node3" class="node">
<title>Node3</title>
<g id="a_node3"><a xlink:href="../../d5/d2d/structyed__buffer__t.html" target="_top" xlink:title=" ">
<polygon fill="none" stroke="black" points="278.5,-68.5 278.5,-87.5 349.5,-87.5 349.5,-68.5 278.5,-68.5"/>
<text text-anchor="middle" x="314" y="-75.5" font-family="Helvetica,sans-Serif" font-size="10.00">yed_buffer_t</text>
</a>
</g>
</g>
<!-- Node3&#45;&gt;Node2 -->
<g id="edge4" class="edge">
<title>Node3&#45;&gt;Node2</title>
<path fill="none" stroke="#9a32cd" stroke-dasharray="5,2" d="M288.79,-63.69C263.91,-50.55 226.59,-30.85 205.35,-19.63"/>
<polygon fill="#9a32cd" stroke="#9a32cd" points="287.18,-66.8 297.66,-68.37 290.45,-60.61 287.18,-66.8"/>
<text text-anchor="middle" x="272" y="-41" font-family="Helvetica,sans-Serif" font-size="10.00"> buffer</text>
</g>
<!-- Node4 -->
<g id="node4" class="node">
<title>Node4</title>
<g id="a_node4"><a xlink:href="../../dc/d81/structbucket__array__t.html" target="_top" xlink:title=" ">
<polygon fill="none" stroke="black" points="229.5,-187.5 229.5,-206.5 310.5,-206.5 310.5,-187.5 229.5,-187.5"/>
<text text-anchor="middle" x="270" y="-194.5" font-family="Helvetica,sans-Serif" font-size="10.00">bucket_array_t</text>
</a>
</g>
</g>
<!-- Node4&#45;&gt;Node3 -->
<g id="edge5" class="edge">
<title>Node4&#45;&gt;Node3</title>
<path fill="none" stroke="#9a32cd" stroke-dasharray="5,2" d="M276.94,-177.55C286.59,-151.89 303.68,-106.44 310.77,-87.58"/>
<polygon fill="#9a32cd" stroke="#9a32cd" points="273.55,-176.61 273.31,-187.21 280.1,-179.08 273.55,-176.61"/>
<text text-anchor="middle" x="304" y="-150" font-family="Helvetica,sans-Serif" font-size="10.00"> lines</text>
</g>
<!-- Node5 -->
<g id="node5" class="node">
<title>Node5</title>
<g id="a_node5"><a xlink:href="../../d1/d16/structarray__t.html" target="_top" xlink:title=" ">
<polygon fill="none" stroke="black" points="322.5,-294.5 322.5,-313.5 369.5,-313.5 369.5,-294.5 322.5,-294.5"/>
<text text-anchor="middle" x="346" y="-301.5" font-family="Helvetica,sans-Serif" font-size="10.00">array_t</text>
</a>
</g>
</g>
<!-- Node5&#45;&gt;Node2 -->
<g id="edge15" class="edge">
<title>Node5&#45;&gt;Node2</title>
<path fill="none" stroke="#9a32cd" stroke-dasharray="5,2" d="M312.33,-303.06C266.2,-301.17 189,-290.08 189,-237 189,-237 189,-237 189,-77 189,-56.38 189,-32.12 189,-19.54"/>
<polygon fill="#9a32cd" stroke="#9a32cd" points="312.4,-306.56 322.5,-303.35 312.6,-299.57 312.4,-306.56"/>
<text text-anchor="middle" x="218.5" y="-161" font-family="Helvetica,sans-Serif" font-size="10.00"> gutter_attrs</text>
<text text-anchor="middle" x="218.5" y="-150" font-family="Helvetica,sans-Serif" font-size="10.00">gutter_glyphs</text>
<text text-anchor="middle" x="218.5" y="-139" font-family="Helvetica,sans-Serif" font-size="10.00">line_attrs</text>
</g>
<!-- Node5&#45;&gt;Node4 -->
<g id="edge6" class="edge">
<title>Node5&#45;&gt;Node4</title>
<path fill="none" stroke="#9a32cd" stroke-dasharray="5,2" d="M319.27,-289.18C313.73,-285.45 308.28,-281.02 304,-276 285.81,-254.63 275.89,-222.01 271.99,-206.62"/>
<polygon fill="#9a32cd" stroke="#9a32cd" points="317.55,-292.24 327.9,-294.48 321.21,-286.27 317.55,-292.24"/>
<text text-anchor="middle" x="323" y="-268" font-family="Helvetica,sans-Serif" font-size="10.00"> buckets</text>
</g>
<!-- Node6 -->
<g id="node6" class="node">
<title>Node6</title>
<g id="a_node6"><a xlink:href="../../d6/df3/structyed__line__t.html" target="_top" xlink:title=" ">
<polygon fill="none" stroke="black" points="315.5,-187.5 315.5,-206.5 376.5,-206.5 376.5,-187.5 315.5,-187.5"/>
<text text-anchor="middle" x="346" y="-194.5" font-family="Helvetica,sans-Serif" font-size="10.00">yed_line_t</text>
</a>
</g>
</g>
<!-- Node5&#45;&gt;Node6 -->
<g id="edge8" class="edge">
<title>Node5&#45;&gt;Node6</title>
<path fill="none" stroke="#9a32cd" stroke-dasharray="5,2" d="M346,-284.26C346,-261.38 346,-223.65 346,-206.71"/>
<polygon fill="#9a32cd" stroke="#9a32cd" points="342.5,-284.41 346,-294.41 349.5,-284.41 342.5,-284.41"/>
<text text-anchor="middle" x="360" y="-268" font-family="Helvetica,sans-Serif" font-size="10.00"> chars</text>
</g>
<!-- Node8 -->
<g id="node8" class="node">
<title>Node8</title>
<g id="a_node8"><a xlink:href="../../d3/d53/structyed__undo__history.html" target="_top" xlink:title=" ">
<polygon fill="none" stroke="black" points="431.5,-143 431.5,-162 524.5,-162 524.5,-143 431.5,-143"/>
<text text-anchor="middle" x="478" y="-150" font-family="Helvetica,sans-Serif" font-size="10.00">yed_undo_history</text>
</a>
</g>
</g>
<!-- Node5&#45;&gt;Node8 -->
<g id="edge11" class="edge">
<title>Node5&#45;&gt;Node8</title>
<path fill="none" stroke="#9a32cd" stroke-dasharray="5,2" d="M366.5,-287.98C370.63,-284.36 374.71,-280.29 378,-276 393.26,-256.13 387.28,-245.27 402,-225 420.94,-198.9 450.29,-174.53 466.41,-162.1"/>
<polygon fill="#9a32cd" stroke="#9a32cd" points="364.24,-285.31 358.68,-294.33 368.65,-290.74 364.24,-285.31"/>
<text text-anchor="middle" x="413" y="-239" font-family="Helvetica,sans-Serif" font-size="10.00"> redo</text>
<text text-anchor="middle" x="413" y="-228" font-family="Helvetica,sans-Serif" font-size="10.00">undo</text>
</g>
<!-- Node9 -->
<g id="node9" class="node">
<title>Node9</title>
<g id="a_node9"><a xlink:href="../../dc/dde/structyed__undo__record.html" target="_top" xlink:title=" ">
<polygon fill="none" stroke="black" points="432.5,-226.5 432.5,-245.5 523.5,-245.5 523.5,-226.5 432.5,-226.5"/>
<text text-anchor="middle" x="478" y="-233.5" font-family="Helvetica,sans-Serif" font-size="10.00">yed_undo_record</text>
</a>
</g>
</g>
<!-- Node5&#45;&gt;Node9 -->
<g id="edge13" class="edge">
<title>Node5&#45;&gt;Node9</title>
<path fill="none" stroke="#9a32cd" stroke-dasharray="5,2" d="M375.27,-290.35C385.11,-285.96 396.1,-280.9 406,-276 426,-266.1 448.55,-253.67 463,-245.54"/>
<polygon fill="#9a32cd" stroke="#9a32cd" points="373.63,-287.24 365.9,-294.48 376.46,-293.65 373.63,-287.24"/>
<text text-anchor="middle" x="443.5" y="-268" font-family="Helvetica,sans-Serif" font-size="10.00"> actions</text>
</g>
<!-- Node6&#45;&gt;Node3 -->
<g id="edge7" class="edge">
<title>Node6&#45;&gt;Node3</title>
<path fill="none" stroke="#9a32cd" stroke-dasharray="5,2" d="M340.95,-177.55C333.94,-151.89 321.51,-106.44 316.35,-87.58"/>
<polygon fill="#9a32cd" stroke="#9a32cd" points="337.58,-178.48 343.59,-187.21 344.33,-176.64 337.58,-178.48"/>
<text text-anchor="middle" x="372.5" y="-150" font-family="Helvetica,sans-Serif" font-size="10.00"> get_line_cache</text>
</g>
<!-- Node7 -->
<g id="node7" class="node">
<title>Node7</title>
<g id="a_node7"><a xlink:href="../../d2/d1d/structyed__range.html" target="_top" xlink:title=" ">
<polygon fill="none" stroke="black" points="543,-143 543,-162 605,-162 605,-143 543,-143"/>
<text text-anchor="middle" x="574" y="-150" font-family="Helvetica,sans-Serif" font-size="10.00">yed_range</text>
</a>
</g>
</g>
<!-- Node7&#45;&gt;Node3 -->
<g id="edge9" class="edge">
<title>Node7&#45;&gt;Node3</title>
<path fill="none" stroke="#9a32cd" stroke-dasharray="5,2" d="M546.83,-138.74C524.7,-128.8 492.4,-115.34 463,-107 417.87,-94.2 405.02,-98.09 359,-89 356.02,-88.41 352.93,-87.78 349.83,-87.12"/>
<polygon fill="#9a32cd" stroke="#9a32cd" points="545.4,-141.93 555.95,-142.89 548.3,-135.56 545.4,-141.93"/>
<text text-anchor="middle" x="515.5" y="-110" font-family="Helvetica,sans-Serif" font-size="10.00"> selection</text>
</g>
<!-- Node8&#45;&gt;Node3 -->
<g id="edge10" class="edge">
<title>Node8&#45;&gt;Node3</title>
<path fill="none" stroke="#9a32cd" stroke-dasharray="5,2" d="M449.34,-138.83C416.08,-124.13 362.14,-100.28 333.43,-87.59"/>
<polygon fill="#9a32cd" stroke="#9a32cd" points="447.98,-142.06 458.54,-142.9 450.81,-135.65 447.98,-142.06"/>
<text text-anchor="middle" x="429.5" y="-110" font-family="Helvetica,sans-Serif" font-size="10.00"> undo_history</text>
</g>
<!-- Node9&#45;&gt;Node8 -->
<g id="edge12" class="edge">
<title>Node9&#45;&gt;Node8</title>
<path fill="none" stroke="#9a32cd" stroke-dasharray="5,2" d="M478,-215.88C478,-198.9 478,-174.87 478,-162.16"/>
<polygon fill="#9a32cd" stroke="#9a32cd" points="474.5,-216.28 478,-226.28 481.5,-216.28 474.5,-216.28"/>
<text text-anchor="middle" x="511" y="-194.5" font-family="Helvetica,sans-Serif" font-size="10.00"> current_record</text>
</g>
<!-- Node10 -->
<g id="node10" class="node">
<title>Node10</title>
<g id="a_node10"><a xlink:href="../../d6/df6/structyed__attrs.html" target="_top" xlink:title=" ">
<polygon fill="none" stroke="black" points="367.5,-68.5 367.5,-87.5 424.5,-87.5 424.5,-68.5 367.5,-68.5"/>
<text text-anchor="middle" x="396" y="-75.5" font-family="Helvetica,sans-Serif" font-size="10.00">yed_attrs</text>
</a>
</g>
</g>
<!-- Node10&#45;&gt;Node2 -->
<g id="edge14" class="edge">
<title>Node10&#45;&gt;Node2</title>
<path fill="none" stroke="#9a32cd" stroke-dasharray="5,2" d="M364.9,-64.71C343.92,-56.62 315.5,-46.08 290,-38 268.37,-31.15 243.78,-24.55 224.28,-19.59"/>
<polygon fill="#9a32cd" stroke="#9a32cd" points="363.69,-67.99 374.28,-68.34 366.22,-61.46 363.69,-67.99"/>
<text text-anchor="middle" x="357" y="-41" font-family="Helvetica,sans-Serif" font-size="10.00"> row_base_attrs</text>
</g>
</g>
</svg>
