<?xml version="1.0" encoding="UTF-8" standalone="no"?>
<!DOCTYPE svg PUBLIC "-//W3C//DTD SVG 1.1//EN"
 "http://www.w3.org/Graphics/SVG/1.1/DTD/svg11.dtd">
<!-- Generated by graphviz version 3.0.0 (20220226.1711)
 -->
<!-- Title: yed_screen Pages: 1 -->
<svg width="173pt" height="162pt"
 viewBox="0.00 0.00 173.00 162.00" xmlns="http://www.w3.org/2000/svg" xmlns:xlink="http://www.w3.org/1999/xlink">
<g id="graph0" class="graph" transform="scale(1 1) rotate(0) translate(4 158)">
<title>yed_screen</title>
<!-- Node1 -->
<g id="node1" class="node">
<title>Node1</title>
<g id="a_node1"><a xlink:title=" ">
<polygon fill="#bfbfbf" stroke="black" points="0,-0.5 0,-19.5 67,-19.5 67,-0.5 0,-0.5"/>
<text text-anchor="middle" x="33.5" y="-7.5" font-family="Helvetica,sans-Serif" font-size="10.00">yed_screen</text>
</a>
</g>
</g>
<!-- Node2 -->
<g id="node2" class="node">
<title>Node2</title>
<g id="a_node2"><a xlink:href="../../d6/df6/structyed__attrs.html" target="_top" xlink:title=" ">
<polygon fill="none" stroke="black" points="3,-134.5 3,-153.5 60,-153.5 60,-134.5 3,-134.5"/>
<text text-anchor="middle" x="31.5" y="-141.5" font-family="Helvetica,sans-Serif" font-size="10.00">yed_attrs</text>
</a>
</g>
</g>
<!-- Node2&#45;&gt;Node1 -->
<g id="edge1" class="edge">
<title>Node2&#45;&gt;Node1</title>
<path fill="none" stroke="#9a32cd" stroke-dasharray="5,2" d="M28.88,-123.83C27.11,-108.47 25.3,-86.35 26.5,-67 27.55,-50.18 30.35,-30.68 32.07,-19.7"/>
<polygon fill="#9a32cd" stroke="#9a32cd" points="25.45,-124.63 30.18,-134.11 32.4,-123.75 25.45,-124.63"/>
<text text-anchor="middle" x="47.5" y="-74.5" font-family="Helvetica,sans-Serif" font-size="10.00"> cur_attrs</text>
</g>
<!-- Node3 -->
<g id="node3" class="node">
<title>Node3</title>
<g id="a_node3"><a xlink:href="../../d9/dba/structyed__screen__cell.html" target="_top" xlink:title=" ">
<polygon fill="none" stroke="black" points="78,-67.5 78,-86.5 165,-86.5 165,-67.5 78,-67.5"/>
<text text-anchor="middle" x="121.5" y="-74.5" font-family="Helvetica,sans-Serif" font-size="10.00">yed_screen_cell</text>
</a>
</g>
</g>
<!-- Node2&#45;&gt;Node3 -->
<g id="edge3" class="edge">
<title>Node2&#45;&gt;Node3</title>
<path fill="none" stroke="#9a32cd" stroke-dasharray="5,2" d="M52.18,-128.07C69.94,-115.24 94.94,-97.19 109.55,-86.63"/>
<polygon fill="#9a32cd" stroke="#9a32cd" points="49.7,-125.54 43.64,-134.23 53.79,-131.22 49.7,-125.54"/>
<text text-anchor="middle" x="94" y="-108" font-family="Helvetica,sans-Serif" font-size="10.00"> attrs</text>
</g>
<!-- Node3&#45;&gt;Node1 -->
<g id="edge2" class="edge">
<title>Node3&#45;&gt;Node1</title>
<path fill="none" stroke="#9a32cd" stroke-dasharray="5,2" d="M101.28,-61.07C83.91,-48.24 59.47,-30.19 45.18,-19.63"/>
<polygon fill="#9a32cd" stroke="#9a32cd" points="99.51,-64.11 109.63,-67.23 103.67,-58.48 99.51,-64.11"/>
<text text-anchor="middle" x="95.5" y="-41" font-family="Helvetica,sans-Serif" font-size="10.00"> cells</text>
</g>
<!-- Node4 -->
<g id="node4" class="node">
<title>Node4</title>
<g id="a_node4"><a xlink:href="../../d8/d31/unionyed__glyph.html" target="_top" xlink:title=" ">
<polygon fill="none" stroke="black" points="91,-134.5 91,-153.5 152,-153.5 152,-134.5 91,-134.5"/>
<text text-anchor="middle" x="121.5" y="-141.5" font-family="Helvetica,sans-Serif" font-size="10.00">yed_glyph</text>
</a>
</g>
</g>
<!-- Node4&#45;&gt;Node3 -->
<g id="edge4" class="edge">
<title>Node4&#45;&gt;Node3</title>
<path fill="none" stroke="#9a32cd" stroke-dasharray="5,2" d="M121.5,-124.04C121.5,-111.67 121.5,-96.12 121.5,-86.63"/>
<polygon fill="#9a32cd" stroke="#9a32cd" points="118,-124.23 121.5,-134.23 125,-124.23 118,-124.23"/>
<text text-anchor="middle" x="135" y="-108" font-family="Helvetica,sans-Serif" font-size="10.00"> glyph</text>
</g>
</g>
</svg>
