<?xml version="1.0" encoding="UTF-8" standalone="no"?>
<!DOCTYPE svg PUBLIC "-//W3C//DTD SVG 1.1//EN"
 "http://www.w3.org/Graphics/SVG/1.1/DTD/svg11.dtd">
<!-- Generated by graphviz version 3.0.0 (20220226.1711)
 -->
<!-- Title: yed_undo_history Pages: 1 -->
<svg width="170pt" height="164pt"
 viewBox="0.00 0.00 170.00 164.00" xmlns="http://www.w3.org/2000/svg" xmlns:xlink="http://www.w3.org/1999/xlink">
<g id="graph0" class="graph" transform="scale(1 1) rotate(0) translate(4 160)">
<title>yed_undo_history</title>
<!-- Node1 -->
<g id="node1" class="node">
<title>Node1</title>
<g id="a_node1"><a xlink:title=" ">
<polygon fill="#bfbfbf" stroke="black" points="0,-0.5 0,-19.5 93,-19.5 93,-0.5 0,-0.5"/>
<text text-anchor="middle" x="46.5" y="-7.5" font-family="Helvetica,sans-Serif" font-size="10.00">yed_undo_history</text>
</a>
</g>
</g>
<!-- Node2 -->
<g id="node2" class="node">
<title>Node2</title>
<g id="a_node2"><a xlink:href="../../d1/d16/structarray__t.html" target="_top" xlink:title=" ">
<polygon fill="none" stroke="black" points="23,-136.5 23,-155.5 70,-155.5 70,-136.5 23,-136.5"/>
<text text-anchor="middle" x="46.5" y="-143.5" font-family="Helvetica,sans-Serif" font-size="10.00">array_t</text>
</a>
</g>
</g>
<!-- Node2&#45;&gt;Node1 -->
<g id="edge1" class="edge">
<title>Node2&#45;&gt;Node1</title>
<path fill="none" stroke="#9a32cd" stroke-dasharray="5,2" d="M43.23,-126.32C40.84,-110.53 38.24,-87.31 39.5,-67 40.55,-50.18 43.35,-30.68 45.07,-19.7"/>
<polygon fill="#9a32cd" stroke="#9a32cd" points="39.8,-127.05 44.86,-136.36 46.71,-125.92 39.8,-127.05"/>
<text text-anchor="middle" x="50.5" y="-81" font-family="Helvetica,sans-Serif" font-size="10.00"> redo</text>
<text text-anchor="middle" x="50.5" y="-70" font-family="Helvetica,sans-Serif" font-size="10.00">undo</text>
</g>
<!-- Node3 -->
<g id="node3" class="node">
<title>Node3</title>
<g id="a_node3"><a xlink:href="../../dc/dde/structyed__undo__record.html" target="_top" xlink:title=" ">
<polygon fill="none" stroke="black" points="71,-68.5 71,-87.5 162,-87.5 162,-68.5 71,-68.5"/>
<text text-anchor="middle" x="116.5" y="-75.5" font-family="Helvetica,sans-Serif" font-size="10.00">yed_undo_record</text>
</a>
</g>
</g>
<!-- Node2&#45;&gt;Node3 -->
<g id="edge3" class="edge">
<title>Node2&#45;&gt;Node3</title>
<path fill="none" stroke="#9a32cd" stroke-dasharray="5,2" d="M63.03,-129.41C76.78,-116.45 95.86,-98.46 107.12,-87.84"/>
<polygon fill="#9a32cd" stroke="#9a32cd" points="60.53,-126.96 55.65,-136.37 65.33,-132.06 60.53,-126.96"/>
<text text-anchor="middle" x="103" y="-110" font-family="Helvetica,sans-Serif" font-size="10.00"> actions</text>
</g>
<!-- Node3&#45;&gt;Node1 -->
<g id="edge2" class="edge">
<title>Node3&#45;&gt;Node1</title>
<path fill="none" stroke="#9a32cd" stroke-dasharray="5,2" d="M99.97,-61.41C86.22,-48.45 67.14,-30.46 55.88,-19.84"/>
<polygon fill="#9a32cd" stroke="#9a32cd" points="97.67,-64.06 107.35,-68.37 102.47,-58.96 97.67,-64.06"/>
<text text-anchor="middle" x="118.5" y="-41" font-family="Helvetica,sans-Serif" font-size="10.00"> current_record</text>
</g>
</g>
</svg>
