<?xml version="1.0" encoding="UTF-8" standalone="no"?>
<!DOCTYPE svg PUBLIC "-//W3C//DTD SVG 1.1//EN"
 "http://www.w3.org/Graphics/SVG/1.1/DTD/svg11.dtd">
<!-- Generated by graphviz version 3.0.0 (20220226.1711)
 -->
<!-- Title: src/internal.c Pages: 1 -->
<svg width="2165pt" height="252pt"
 viewBox="0.00 0.00 2165.00 252.00" xmlns="http://www.w3.org/2000/svg" xmlns:xlink="http://www.w3.org/1999/xlink">
<g id="graph0" class="graph" transform="scale(1 1) rotate(0) translate(4 248)">
<title>src/internal.c</title>
<!-- Node1 -->
<g id="node1" class="node">
<title>Node1</title>
<g id="a_node1"><a xlink:title=" ">
<polygon fill="#bfbfbf" stroke="black" points="992.5,-224.5 992.5,-243.5 1065.5,-243.5 1065.5,-224.5 992.5,-224.5"/>
<text text-anchor="middle" x="1029" y="-231.5" font-family="Helvetica,sans-Serif" font-size="10.00">src/internal.c</text>
</a>
</g>
</g>
<!-- Node2 -->
<g id="node2" class="node">
<title>Node2</title>
<g id="a_node2"><a xlink:href="../../dc/dcc/array_8c.html" target="_top" xlink:title=" ">
<polygon fill="none" stroke="black" points="728.5,-56.5 728.5,-75.5 773.5,-75.5 773.5,-56.5 728.5,-56.5"/>
<text text-anchor="middle" x="751" y="-63.5" font-family="Helvetica,sans-Serif" font-size="10.00">array.c</text>
</a>
</g>
</g>
<!-- Node1&#45;&gt;Node2 -->
<g id="edge1" class="edge">
<title>Node1&#45;&gt;Node2</title>
<path fill="none" stroke="midnightblue" d="M992.41,-232.04C850.9,-228.16 346.11,-212.63 323,-188 266.05,-127.3 608.5,-83.03 718.09,-70.56"/>
<polygon fill="midnightblue" stroke="midnightblue" points="718.69,-74.01 728.24,-69.42 717.91,-67.06 718.69,-74.01"/>
</g>
<!-- Node4 -->
<g id="node4" class="node">
<title>Node4</title>
<g id="a_node4"><a xlink:href="../../db/d39/bucket__array_8c.html" target="_top" xlink:title=" ">
<polygon fill="none" stroke="black" points="0,-112.5 0,-131.5 80,-131.5 80,-112.5 0,-112.5"/>
<text text-anchor="middle" x="40" y="-119.5" font-family="Helvetica,sans-Serif" font-size="10.00">bucket_array.c</text>
</a>
</g>
</g>
<!-- Node1&#45;&gt;Node4 -->
<g id="edge3" class="edge">
<title>Node1&#45;&gt;Node4</title>
<path fill="none" stroke="midnightblue" d="M992.37,-232.97C829.49,-232.61 175.39,-228.61 94,-188 73.76,-177.9 58.3,-156.38 49.22,-140.86"/>
<polygon fill="midnightblue" stroke="midnightblue" points="52.07,-138.79 44.18,-131.72 45.94,-142.16 52.07,-138.79"/>
</g>
<!-- Node6 -->
<g id="node6" class="node">
<title>Node6</title>
<g id="a_node6"><a xlink:href="../../d5/de5/term_8c.html" target="_top" xlink:title=" ">
<polygon fill="none" stroke="black" points="136,-168.5 136,-187.5 180,-187.5 180,-168.5 136,-168.5"/>
<text text-anchor="middle" x="158" y="-175.5" font-family="Helvetica,sans-Serif" font-size="10.00">term.c</text>
</a>
</g>
</g>
<!-- Node1&#45;&gt;Node6 -->
<g id="edge5" class="edge">
<title>Node1&#45;&gt;Node6</title>
<path fill="none" stroke="midnightblue" d="M992.12,-233.51C874.77,-234.62 499.78,-234.03 194,-188 192.75,-187.81 191.47,-187.6 190.19,-187.37"/>
<polygon fill="midnightblue" stroke="midnightblue" points="190.84,-183.93 180.33,-185.29 189.4,-190.78 190.84,-183.93"/>
</g>
<!-- Node7 -->
<g id="node7" class="node">
<title>Node7</title>
<g id="a_node7"><a xlink:href="../../d5/d88/screen_8c.html" target="_top" xlink:title=" ">
<polygon fill="none" stroke="black" points="127,-56.5 127,-75.5 181,-75.5 181,-56.5 127,-56.5"/>
<text text-anchor="middle" x="154" y="-63.5" font-family="Helvetica,sans-Serif" font-size="10.00">screen.c</text>
</a>
</g>
</g>
<!-- Node1&#45;&gt;Node7 -->
<g id="edge6" class="edge">
<title>Node1&#45;&gt;Node7</title>
<path fill="none" stroke="midnightblue" d="M992.49,-232.57C827.4,-230.44 157.31,-219.86 127,-188 99.91,-159.53 125.2,-110.12 141.93,-84.12"/>
<polygon fill="midnightblue" stroke="midnightblue" points="144.92,-85.94 147.59,-75.69 139.11,-82.04 144.92,-85.94"/>
</g>
<!-- Node9 -->
<g id="node9" class="node">
<title>Node9</title>
<g id="a_node9"><a xlink:href="../../db/dfd/key_8c.html" target="_top" xlink:title=" ">
<polygon fill="none" stroke="black" points="236.5,-168.5 236.5,-187.5 275.5,-187.5 275.5,-168.5 236.5,-168.5"/>
<text text-anchor="middle" x="256" y="-175.5" font-family="Helvetica,sans-Serif" font-size="10.00">key.c</text>
</a>
</g>
</g>
<!-- Node1&#45;&gt;Node9 -->
<g id="edge8" class="edge">
<title>Node1&#45;&gt;Node9</title>
<path fill="none" stroke="midnightblue" d="M992.19,-233.32C883.83,-233.72 556.8,-231 290,-188 288.53,-187.76 287.03,-187.49 285.53,-187.19"/>
<polygon fill="midnightblue" stroke="midnightblue" points="286.17,-183.75 275.63,-184.9 284.59,-190.57 286.17,-183.75"/>
</g>
<!-- Node10 -->
<g id="node10" class="node">
<title>Node10</title>
<g id="a_node10"><a xlink:href="../../d5/dfb/wcwidth_8c.html" target="_top" xlink:title=" ">
<polygon fill="none" stroke="black" points="210.5,-112.5 210.5,-131.5 271.5,-131.5 271.5,-112.5 210.5,-112.5"/>
<text text-anchor="middle" x="241" y="-119.5" font-family="Helvetica,sans-Serif" font-size="10.00">wcwidth.c</text>
</a>
</g>
</g>
<!-- Node1&#45;&gt;Node10 -->
<g id="edge9" class="edge">
<title>Node1&#45;&gt;Node10</title>
<path fill="none" stroke="midnightblue" d="M992.25,-232.33C838.49,-229.34 253.62,-216.15 227,-188 215.14,-175.46 221.91,-155.4 229.59,-140.88"/>
<polygon fill="midnightblue" stroke="midnightblue" points="232.83,-142.27 234.84,-131.87 226.78,-138.75 232.83,-142.27"/>
</g>
<!-- Node12 -->
<g id="node12" class="node">
<title>Node12</title>
<g id="a_node12"><a xlink:href="../../df/d51/utf8_8c.html" target="_top" xlink:title=" ">
<polygon fill="none" stroke="black" points="332.5,-168.5 332.5,-187.5 373.5,-187.5 373.5,-168.5 332.5,-168.5"/>
<text text-anchor="middle" x="353" y="-175.5" font-family="Helvetica,sans-Serif" font-size="10.00">utf8.c</text>
</a>
</g>
</g>
<!-- Node1&#45;&gt;Node12 -->
<g id="edge11" class="edge">
<title>Node1&#45;&gt;Node12</title>
<path fill="none" stroke="midnightblue" d="M992.22,-233.28C894.42,-233.41 619.86,-229.88 383.66,-187.65"/>
<polygon fill="midnightblue" stroke="midnightblue" points="383.97,-184.15 373.51,-185.81 382.72,-191.04 383.97,-184.15"/>
</g>
<!-- Node13 -->
<g id="node13" class="node">
<title>Node13</title>
<g id="a_node13"><a xlink:href="../../d4/d4c/undo_8c.html" target="_top" xlink:title=" ">
<polygon fill="none" stroke="black" points="392,-168.5 392,-187.5 438,-187.5 438,-168.5 392,-168.5"/>
<text text-anchor="middle" x="415" y="-175.5" font-family="Helvetica,sans-Serif" font-size="10.00">undo.c</text>
</a>
</g>
</g>
<!-- Node1&#45;&gt;Node13 -->
<g id="edge12" class="edge">
<title>Node1&#45;&gt;Node13</title>
<path fill="none" stroke="midnightblue" d="M992.25,-232.66C901.32,-231.29 658.55,-224.4 448.28,-187.89"/>
<polygon fill="midnightblue" stroke="midnightblue" points="448.75,-184.41 438.3,-186.12 447.54,-191.31 448.75,-184.41"/>
</g>
<!-- Node14 -->
<g id="node14" class="node">
<title>Node14</title>
<g id="a_node14"><a xlink:href="../../d3/d8b/buffer_8c.html" target="_top" xlink:title=" ">
<polygon fill="none" stroke="black" points="456.5,-168.5 456.5,-187.5 505.5,-187.5 505.5,-168.5 456.5,-168.5"/>
<text text-anchor="middle" x="481" y="-175.5" font-family="Helvetica,sans-Serif" font-size="10.00">buffer.c</text>
</a>
</g>
</g>
<!-- Node1&#45;&gt;Node14 -->
<g id="edge13" class="edge">
<title>Node1&#45;&gt;Node14</title>
<path fill="none" stroke="midnightblue" d="M992.26,-231.94C909.03,-229.09 699.67,-219.32 515.63,-187.8"/>
<polygon fill="midnightblue" stroke="midnightblue" points="516.23,-184.35 505.77,-186.08 515.03,-191.24 516.23,-184.35"/>
</g>
<!-- Node15 -->
<g id="node15" class="node">
<title>Node15</title>
<g id="a_node15"><a xlink:href="../../d1/d1a/attrs_8c.html" target="_top" xlink:title=" ">
<polygon fill="none" stroke="black" points="524,-168.5 524,-187.5 568,-187.5 568,-168.5 524,-168.5"/>
<text text-anchor="middle" x="546" y="-175.5" font-family="Helvetica,sans-Serif" font-size="10.00">attrs.c</text>
</a>
</g>
</g>
<!-- Node1&#45;&gt;Node15 -->
<g id="edge14" class="edge">
<title>Node1&#45;&gt;Node15</title>
<path fill="none" stroke="midnightblue" d="M992.35,-231.63C916.56,-228.3 737.09,-217.91 578.18,-187.9"/>
<polygon fill="midnightblue" stroke="midnightblue" points="578.71,-184.43 568.23,-185.98 577.39,-191.31 578.71,-184.43"/>
</g>
<!-- Node16 -->
<g id="node16" class="node">
<title>Node16</title>
<g id="a_node16"><a xlink:href="../../d5/d0e/ft_8c.html" target="_top" xlink:title=" ">
<polygon fill="none" stroke="black" points="586.5,-168.5 586.5,-187.5 617.5,-187.5 617.5,-168.5 586.5,-168.5"/>
<text text-anchor="middle" x="602" y="-175.5" font-family="Helvetica,sans-Serif" font-size="10.00">ft.c</text>
</a>
</g>
</g>
<!-- Node1&#45;&gt;Node16 -->
<g id="edge15" class="edge">
<title>Node1&#45;&gt;Node16</title>
<path fill="none" stroke="midnightblue" d="M992.48,-231.77C922.97,-228.81 766.9,-219.25 627.69,-187.6"/>
<polygon fill="midnightblue" stroke="midnightblue" points="628.23,-184.13 617.7,-185.28 626.65,-190.95 628.23,-184.13"/>
</g>
<!-- Node17 -->
<g id="node17" class="node">
<title>Node17</title>
<g id="a_node17"><a xlink:href="../../dd/dbe/frame_8c.html" target="_top" xlink:title=" ">
<polygon fill="none" stroke="black" points="636,-168.5 636,-187.5 686,-187.5 686,-168.5 636,-168.5"/>
<text text-anchor="middle" x="661" y="-175.5" font-family="Helvetica,sans-Serif" font-size="10.00">frame.c</text>
</a>
</g>
</g>
<!-- Node1&#45;&gt;Node17 -->
<g id="edge16" class="edge">
<title>Node1&#45;&gt;Node17</title>
<path fill="none" stroke="midnightblue" d="M992.18,-229.56C932.13,-223.62 809.24,-210.08 696.04,-187.99"/>
<polygon fill="midnightblue" stroke="midnightblue" points="696.66,-184.55 686.17,-186.04 695.3,-191.41 696.66,-184.55"/>
</g>
<!-- Node18 -->
<g id="node18" class="node">
<title>Node18</title>
<g id="a_node18"><a xlink:href="../../d7/df8/log_8c.html" target="_top" xlink:title=" ">
<polygon fill="none" stroke="black" points="704,-168.5 704,-187.5 742,-187.5 742,-168.5 704,-168.5"/>
<text text-anchor="middle" x="723" y="-175.5" font-family="Helvetica,sans-Serif" font-size="10.00">log.c</text>
</a>
</g>
</g>
<!-- Node1&#45;&gt;Node18 -->
<g id="edge17" class="edge">
<title>Node1&#45;&gt;Node18</title>
<path fill="none" stroke="midnightblue" d="M992.22,-228.84C940.56,-222.6 843.47,-209.46 752.13,-187.97"/>
<polygon fill="midnightblue" stroke="midnightblue" points="752.71,-184.51 742.17,-185.58 751.08,-191.31 752.71,-184.51"/>
</g>
<!-- Node19 -->
<g id="node19" class="node">
<title>Node19</title>
<g id="a_node19"><a xlink:href="../../d5/d2e/command_8c.html" target="_top" xlink:title=" ">
<polygon fill="none" stroke="black" points="760,-168.5 760,-187.5 828,-187.5 828,-168.5 760,-168.5"/>
<text text-anchor="middle" x="794" y="-175.5" font-family="Helvetica,sans-Serif" font-size="10.00">command.c</text>
</a>
</g>
</g>
<!-- Node1&#45;&gt;Node19 -->
<g id="edge18" class="edge">
<title>Node1&#45;&gt;Node19</title>
<path fill="none" stroke="midnightblue" d="M992.28,-224.56C950.6,-214.99 882.65,-199.37 838.13,-189.14"/>
<polygon fill="midnightblue" stroke="midnightblue" points="838.7,-185.68 828.17,-186.85 837.13,-192.5 838.7,-185.68"/>
</g>
<!-- Node20 -->
<g id="node20" class="node">
<title>Node20</title>
<g id="a_node20"><a xlink:href="../../d6/dbe/get_r_s_s_8c.html" target="_top" xlink:title=" ">
<polygon fill="none" stroke="black" points="846.5,-168.5 846.5,-187.5 905.5,-187.5 905.5,-168.5 846.5,-168.5"/>
<text text-anchor="middle" x="876" y="-175.5" font-family="Helvetica,sans-Serif" font-size="10.00">getRSS.c</text>
</a>
</g>
</g>
<!-- Node1&#45;&gt;Node20 -->
<g id="edge19" class="edge">
<title>Node1&#45;&gt;Node20</title>
<path fill="none" stroke="midnightblue" d="M1004.76,-224.44C979.13,-215.4 938.51,-201.06 909.76,-190.92"/>
<polygon fill="midnightblue" stroke="midnightblue" points="910.72,-187.54 900.13,-187.52 908.39,-194.15 910.72,-187.54"/>
</g>
<!-- Node21 -->
<g id="node21" class="node">
<title>Node21</title>
<g id="a_node21"><a xlink:href="../../dc/d6b/measure__time_8c.html" target="_top" xlink:title=" ">
<polygon fill="none" stroke="black" points="924,-168.5 924,-187.5 1010,-187.5 1010,-168.5 924,-168.5"/>
<text text-anchor="middle" x="967" y="-175.5" font-family="Helvetica,sans-Serif" font-size="10.00">measure_time.c</text>
</a>
</g>
</g>
<!-- Node1&#45;&gt;Node21 -->
<g id="edge20" class="edge">
<title>Node1&#45;&gt;Node21</title>
<path fill="none" stroke="midnightblue" d="M1019.04,-224.32C1009.87,-216.34 996.06,-204.31 984.97,-194.65"/>
<polygon fill="midnightblue" stroke="midnightblue" points="986.98,-191.76 977.14,-187.83 982.38,-197.04 986.98,-191.76"/>
</g>
<!-- Node22 -->
<g id="node22" class="node">
<title>Node22</title>
<g id="a_node22"><a xlink:href="../../db/d0d/default__event__handlers_8c.html" target="_top" xlink:title=" ">
<polygon fill="none" stroke="black" points="1028.5,-168.5 1028.5,-187.5 1153.5,-187.5 1153.5,-168.5 1028.5,-168.5"/>
<text text-anchor="middle" x="1091" y="-175.5" font-family="Helvetica,sans-Serif" font-size="10.00">default_event_handlers.c</text>
</a>
</g>
</g>
<!-- Node1&#45;&gt;Node22 -->
<g id="edge21" class="edge">
<title>Node1&#45;&gt;Node22</title>
<path fill="none" stroke="midnightblue" d="M1038.96,-224.32C1048.13,-216.34 1061.94,-204.31 1073.03,-194.65"/>
<polygon fill="midnightblue" stroke="midnightblue" points="1075.62,-197.04 1080.86,-187.83 1071.02,-191.76 1075.62,-197.04"/>
</g>
<!-- Node23 -->
<g id="node23" class="node">
<title>Node23</title>
<g id="a_node23"><a xlink:href="../../d0/deb/event_8c.html" target="_top" xlink:title=" ">
<polygon fill="none" stroke="black" points="1171.5,-168.5 1171.5,-187.5 1220.5,-187.5 1220.5,-168.5 1171.5,-168.5"/>
<text text-anchor="middle" x="1196" y="-175.5" font-family="Helvetica,sans-Serif" font-size="10.00">event.c</text>
</a>
</g>
</g>
<!-- Node1&#45;&gt;Node23 -->
<g id="edge22" class="edge">
<title>Node1&#45;&gt;Node23</title>
<path fill="none" stroke="midnightblue" d="M1055.46,-224.44C1084.18,-215.16 1130.13,-200.3 1161.62,-190.12"/>
<polygon fill="midnightblue" stroke="midnightblue" points="1162.86,-193.4 1171.3,-186.99 1160.7,-186.73 1162.86,-193.4"/>
</g>
<!-- Node24 -->
<g id="node24" class="node">
<title>Node24</title>
<g id="a_node24"><a xlink:href="../../d4/daa/plugin_8c.html" target="_top" xlink:title=" ">
<polygon fill="none" stroke="black" points="1618,-112.5 1618,-131.5 1668,-131.5 1668,-112.5 1618,-112.5"/>
<text text-anchor="middle" x="1643" y="-119.5" font-family="Helvetica,sans-Serif" font-size="10.00">plugin.c</text>
</a>
</g>
</g>
<!-- Node1&#45;&gt;Node24 -->
<g id="edge23" class="edge">
<title>Node1&#45;&gt;Node24</title>
<path fill="none" stroke="midnightblue" d="M1065.74,-232.28C1217.4,-229.14 1788.01,-215.53 1814,-188 1855.74,-143.8 1739.44,-129.36 1678.12,-124.88"/>
<polygon fill="midnightblue" stroke="midnightblue" points="1678.28,-121.39 1668.07,-124.2 1677.81,-128.37 1678.28,-121.39"/>
</g>
<!-- Node80 -->
<g id="node36" class="node">
<title>Node80</title>
<g id="a_node36"><a xlink:href="../../d6/d91/boyer__moore_8c.html" target="_top" xlink:title=" ">
<polygon fill="none" stroke="black" points="1327.5,-168.5 1327.5,-187.5 1408.5,-187.5 1408.5,-168.5 1327.5,-168.5"/>
<text text-anchor="middle" x="1368" y="-175.5" font-family="Helvetica,sans-Serif" font-size="10.00">boyer_moore.c</text>
</a>
</g>
</g>
<!-- Node1&#45;&gt;Node80 -->
<g id="edge39" class="edge">
<title>Node1&#45;&gt;Node80</title>
<path fill="none" stroke="midnightblue" d="M1065.68,-227.64C1118.93,-219.79 1221.01,-204.46 1317.46,-188.23"/>
<polygon fill="midnightblue" stroke="midnightblue" points="1318.1,-191.67 1327.37,-186.55 1316.93,-184.77 1318.1,-191.67"/>
</g>
<!-- Node82 -->
<g id="node38" class="node">
<title>Node82</title>
<g id="a_node38"><a xlink:href="../../d3/d0a/find_8c.html" target="_top" xlink:title=" ">
<polygon fill="none" stroke="black" points="1426.5,-168.5 1426.5,-187.5 1467.5,-187.5 1467.5,-168.5 1426.5,-168.5"/>
<text text-anchor="middle" x="1447" y="-175.5" font-family="Helvetica,sans-Serif" font-size="10.00">find.c</text>
</a>
</g>
</g>
<!-- Node1&#45;&gt;Node82 -->
<g id="edge42" class="edge">
<title>Node1&#45;&gt;Node82</title>
<path fill="none" stroke="midnightblue" d="M1065.56,-231.04C1133.23,-226.93 1282.59,-215.57 1416.21,-188.05"/>
<polygon fill="midnightblue" stroke="midnightblue" points="1417.14,-191.44 1426.21,-185.96 1415.71,-184.58 1417.14,-191.44"/>
</g>
<!-- Node83 -->
<g id="node39" class="node">
<title>Node83</title>
<g id="a_node39"><a xlink:href="../../d3/de4/var_8c.html" target="_top" xlink:title=" ">
<polygon fill="none" stroke="black" points="1486,-168.5 1486,-187.5 1524,-187.5 1524,-168.5 1486,-168.5"/>
<text text-anchor="middle" x="1505" y="-175.5" font-family="Helvetica,sans-Serif" font-size="10.00">var.c</text>
</a>
</g>
</g>
<!-- Node1&#45;&gt;Node83 -->
<g id="edge43" class="edge">
<title>Node1&#45;&gt;Node83</title>
<path fill="none" stroke="midnightblue" d="M1065.69,-231.93C1141.11,-229.17 1318.95,-219.79 1476.03,-187.78"/>
<polygon fill="midnightblue" stroke="midnightblue" points="1476.78,-191.2 1485.86,-185.74 1475.36,-184.34 1476.78,-191.2"/>
</g>
<!-- Node84 -->
<g id="node40" class="node">
<title>Node84</title>
<g id="a_node40"><a xlink:href="../../de/df1/util_8c.html" target="_top" xlink:title=" ">
<polygon fill="none" stroke="black" points="1542,-168.5 1542,-187.5 1580,-187.5 1580,-168.5 1542,-168.5"/>
<text text-anchor="middle" x="1561" y="-175.5" font-family="Helvetica,sans-Serif" font-size="10.00">util.c</text>
</a>
</g>
</g>
<!-- Node1&#45;&gt;Node84 -->
<g id="edge44" class="edge">
<title>Node1&#45;&gt;Node84</title>
<path fill="none" stroke="midnightblue" d="M1065.77,-232.5C1148.01,-230.79 1353.01,-223.23 1532.02,-187.75"/>
<polygon fill="midnightblue" stroke="midnightblue" points="1532.76,-191.18 1541.87,-185.77 1531.37,-184.31 1532.76,-191.18"/>
</g>
<!-- Node85 -->
<g id="node41" class="node">
<title>Node85</title>
<g id="a_node41"><a xlink:href="../../d9/de8/style_8c.html" target="_top" xlink:title=" ">
<polygon fill="none" stroke="black" points="1598,-168.5 1598,-187.5 1644,-187.5 1644,-168.5 1598,-168.5"/>
<text text-anchor="middle" x="1621" y="-175.5" font-family="Helvetica,sans-Serif" font-size="10.00">style.c</text>
</a>
</g>
</g>
<!-- Node1&#45;&gt;Node85 -->
<g id="edge45" class="edge">
<title>Node1&#45;&gt;Node85</title>
<path fill="none" stroke="midnightblue" d="M1065.68,-232.51C1154.14,-230.79 1386.22,-223.19 1587.82,-187.87"/>
<polygon fill="midnightblue" stroke="midnightblue" points="1588.47,-191.31 1597.7,-186.12 1587.24,-184.42 1588.47,-191.31"/>
</g>
<!-- Node86 -->
<g id="node42" class="node">
<title>Node86</title>
<g id="a_node42"><a xlink:href="../../d4/dad/subproc_8c.html" target="_top" xlink:title=" ">
<polygon fill="none" stroke="black" points="1662.5,-168.5 1662.5,-187.5 1721.5,-187.5 1721.5,-168.5 1662.5,-168.5"/>
<text text-anchor="middle" x="1692" y="-175.5" font-family="Helvetica,sans-Serif" font-size="10.00">subproc.c</text>
</a>
</g>
</g>
<!-- Node1&#45;&gt;Node86 -->
<g id="edge46" class="edge">
<title>Node1&#45;&gt;Node86</title>
<path fill="none" stroke="midnightblue" d="M1065.79,-232.33C1161.1,-230.18 1423.9,-221.56 1652.13,-187.88"/>
<polygon fill="midnightblue" stroke="midnightblue" points="1652.91,-191.3 1662.28,-186.36 1651.87,-184.38 1652.91,-191.3"/>
</g>
<!-- Node87 -->
<g id="node43" class="node">
<title>Node87</title>
<g id="a_node43"><a xlink:href="../../da/d5f/complete_8c.html" target="_top" xlink:title=" ">
<polygon fill="none" stroke="black" points="1739.5,-168.5 1739.5,-187.5 1804.5,-187.5 1804.5,-168.5 1739.5,-168.5"/>
<text text-anchor="middle" x="1772" y="-175.5" font-family="Helvetica,sans-Serif" font-size="10.00">complete.c</text>
</a>
</g>
</g>
<!-- Node1&#45;&gt;Node87 -->
<g id="edge47" class="edge">
<title>Node1&#45;&gt;Node87</title>
<path fill="none" stroke="midnightblue" d="M1065.74,-232.61C1168.97,-231.1 1470.47,-223.82 1729.44,-188.02"/>
<polygon fill="midnightblue" stroke="midnightblue" points="1729.99,-191.48 1739.41,-186.62 1729.02,-184.54 1729.99,-191.48"/>
</g>
<!-- Node88 -->
<g id="node44" class="node">
<title>Node88</title>
<g id="a_node44"><a xlink:href="../../d1/d7d/direct__draw_8c.html" target="_top" xlink:title=" ">
<polygon fill="none" stroke="black" points="1789,-112.5 1789,-131.5 1863,-131.5 1863,-112.5 1789,-112.5"/>
<text text-anchor="middle" x="1826" y="-119.5" font-family="Helvetica,sans-Serif" font-size="10.00">direct_draw.c</text>
</a>
</g>
</g>
<!-- Node1&#45;&gt;Node88 -->
<g id="edge48" class="edge">
<title>Node1&#45;&gt;Node88</title>
<path fill="none" stroke="midnightblue" d="M1065.54,-232.33C1219.09,-229.36 1805.33,-216.2 1832,-188 1843.53,-175.81 1839.71,-155.98 1834.45,-141.42"/>
<polygon fill="midnightblue" stroke="midnightblue" points="1837.59,-139.86 1830.56,-131.94 1831.12,-142.52 1837.59,-139.86"/>
</g>
<!-- Node89 -->
<g id="node45" class="node">
<title>Node89</title>
<g id="a_node45"><a xlink:href="../../d9/d27/frame__tree_8c.html" target="_top" xlink:title=" ">
<polygon fill="none" stroke="black" points="1238.5,-168.5 1238.5,-187.5 1309.5,-187.5 1309.5,-168.5 1238.5,-168.5"/>
<text text-anchor="middle" x="1274" y="-175.5" font-family="Helvetica,sans-Serif" font-size="10.00">frame_tree.c</text>
</a>
</g>
</g>
<!-- Node1&#45;&gt;Node89 -->
<g id="edge50" class="edge">
<title>Node1&#45;&gt;Node89</title>
<path fill="none" stroke="midnightblue" d="M1065.68,-224.92C1109.08,-215.35 1181.37,-199.42 1228.36,-189.06"/>
<polygon fill="midnightblue" stroke="midnightblue" points="1229.26,-192.45 1238.27,-186.88 1227.75,-185.61 1229.26,-192.45"/>
</g>
<!-- Node90 -->
<g id="node47" class="node">
<title>Node90</title>
<g id="a_node47"><a xlink:href="../../d2/d0b/version_8c.html" target="_top" xlink:title=" ">
<polygon fill="none" stroke="black" points="1872,-56.5 1872,-75.5 1928,-75.5 1928,-56.5 1872,-56.5"/>
<text text-anchor="middle" x="1900" y="-63.5" font-family="Helvetica,sans-Serif" font-size="10.00">version.c</text>
</a>
</g>
</g>
<!-- Node1&#45;&gt;Node90 -->
<g id="edge53" class="edge">
<title>Node1&#45;&gt;Node90</title>
<path fill="none" stroke="midnightblue" d="M1065.63,-233.24C1216.44,-233.94 1784.37,-233.5 1849,-188 1882.76,-164.23 1894.28,-113.53 1898.13,-85.9"/>
<polygon fill="midnightblue" stroke="midnightblue" points="1901.65,-85.96 1899.35,-75.62 1894.69,-85.13 1901.65,-85.96"/>
</g>
<!-- Node91 -->
<g id="node48" class="node">
<title>Node91</title>
<g id="a_node48"><a xlink:href="../../df/d61/print__backtrace_8c.html" target="_top" xlink:title=" ">
<polygon fill="none" stroke="black" points="1937,-168.5 1937,-187.5 2029,-187.5 2029,-168.5 1937,-168.5"/>
<text text-anchor="middle" x="1983" y="-175.5" font-family="Helvetica,sans-Serif" font-size="10.00">print_backtrace.c</text>
</a>
</g>
</g>
<!-- Node1&#45;&gt;Node91 -->
<g id="edge55" class="edge">
<title>Node1&#45;&gt;Node91</title>
<path fill="none" stroke="midnightblue" d="M1065.71,-232.45C1187.82,-230.34 1591.31,-221.14 1923,-188 1924.27,-187.87 1925.55,-187.74 1926.84,-187.6"/>
<polygon fill="midnightblue" stroke="midnightblue" points="1927.36,-191.06 1936.87,-186.39 1926.52,-184.11 1927.36,-191.06"/>
</g>
<!-- Node92 -->
<g id="node49" class="node">
<title>Node92</title>
<g id="a_node49"><a xlink:href="../../d5/d91/cmd__line_8c.html" target="_top" xlink:title=" ">
<polygon fill="none" stroke="black" points="2014,-56.5 2014,-75.5 2078,-75.5 2078,-56.5 2014,-56.5"/>
<text text-anchor="middle" x="2046" y="-63.5" font-family="Helvetica,sans-Serif" font-size="10.00">cmd_line.c</text>
</a>
</g>
</g>
<!-- Node1&#45;&gt;Node92 -->
<g id="edge56" class="edge">
<title>Node1&#45;&gt;Node92</title>
<path fill="none" stroke="midnightblue" d="M1065.57,-232.72C1242.49,-231.2 2002.58,-222.67 2038,-188 2065.12,-161.46 2058.02,-112.3 2051.44,-85.54"/>
<polygon fill="midnightblue" stroke="midnightblue" points="2054.73,-84.32 2048.75,-75.57 2047.97,-86.14 2054.73,-84.32"/>
</g>
<!-- Node93 -->
<g id="node50" class="node">
<title>Node93</title>
<g id="a_node50"><a xlink:href="../../df/dbb/status__line_8c.html" target="_top" xlink:title=" ">
<polygon fill="none" stroke="black" points="2085,-112.5 2085,-131.5 2157,-131.5 2157,-112.5 2085,-112.5"/>
<text text-anchor="middle" x="2121" y="-119.5" font-family="Helvetica,sans-Serif" font-size="10.00">status_line.c</text>
</a>
</g>
</g>
<!-- Node1&#45;&gt;Node93 -->
<g id="edge58" class="edge">
<title>Node1&#45;&gt;Node93</title>
<path fill="none" stroke="midnightblue" d="M1065.7,-233.24C1240.09,-234.13 1980.37,-235.09 2071,-188 2090.48,-177.88 2104.64,-156.36 2112.81,-140.85"/>
<polygon fill="midnightblue" stroke="midnightblue" points="2116.04,-142.23 2117.32,-131.71 2109.76,-139.13 2116.04,-142.23"/>
</g>
<!-- Node3 -->
<g id="node3" class="node">
<title>Node3</title>
<g id="a_node3"><a xlink:href="../../db/d63/array_8h.html" target="_top" xlink:title=" ">
<polygon fill="none" stroke="black" points="1251.5,-0.5 1251.5,-19.5 1296.5,-19.5 1296.5,-0.5 1251.5,-0.5"/>
<text text-anchor="middle" x="1274" y="-7.5" font-family="Helvetica,sans-Serif" font-size="10.00">array.h</text>
</a>
</g>
</g>
<!-- Node2&#45;&gt;Node3 -->
<g id="edge2" class="edge">
<title>Node2&#45;&gt;Node3</title>
<path fill="none" stroke="midnightblue" d="M773.81,-62.64C856.91,-54.07 1143.66,-24.46 1241.21,-14.39"/>
<polygon fill="midnightblue" stroke="midnightblue" points="1241.78,-17.85 1251.37,-13.34 1241.06,-10.88 1241.78,-17.85"/>
</g>
<!-- Node5 -->
<g id="node5" class="node">
<title>Node5</title>
<g id="a_node5"><a xlink:href="../../de/d00/bucket__array_8h.html" target="_top" xlink:title=" ">
<polygon fill="none" stroke="black" points="48,-0.5 48,-19.5 128,-19.5 128,-0.5 48,-0.5"/>
<text text-anchor="middle" x="88" y="-7.5" font-family="Helvetica,sans-Serif" font-size="10.00">bucket_array.h</text>
</a>
</g>
</g>
<!-- Node4&#45;&gt;Node5 -->
<g id="edge4" class="edge">
<title>Node4&#45;&gt;Node5</title>
<path fill="none" stroke="midnightblue" d="M43.77,-112.37C51.58,-94.46 69.71,-52.92 80.17,-28.95"/>
<polygon fill="midnightblue" stroke="midnightblue" points="83.46,-30.16 84.25,-19.59 77.04,-27.36 83.46,-30.16"/>
</g>
<!-- Node8 -->
<g id="node8" class="node">
<title>Node8</title>
<g id="a_node8"><a xlink:href="../../dd/ddc/screen_8h.html" target="_top" xlink:title=" ">
<polygon fill="none" stroke="black" points="154,-0.5 154,-19.5 208,-19.5 208,-0.5 154,-0.5"/>
<text text-anchor="middle" x="181" y="-7.5" font-family="Helvetica,sans-Serif" font-size="10.00">screen.h</text>
</a>
</g>
</g>
<!-- Node7&#45;&gt;Node8 -->
<g id="edge7" class="edge">
<title>Node7&#45;&gt;Node8</title>
<path fill="none" stroke="midnightblue" d="M158.46,-56.08C162.15,-48.69 167.52,-37.95 172.09,-28.81"/>
<polygon fill="midnightblue" stroke="midnightblue" points="175.28,-30.26 176.62,-19.75 169.02,-27.13 175.28,-30.26"/>
</g>
<!-- Node11 -->
<g id="node11" class="node">
<title>Node11</title>
<g id="a_node11"><a xlink:title=" ">
<polygon fill="none" stroke="#bfbfbf" points="705,-0.5 705,-19.5 755,-19.5 755,-0.5 705,-0.5"/>
<text text-anchor="middle" x="730" y="-7.5" font-family="Helvetica,sans-Serif" font-size="10.00">wchar.h</text>
</a>
</g>
</g>
<!-- Node10&#45;&gt;Node11 -->
<g id="edge10" class="edge">
<title>Node10&#45;&gt;Node11</title>
<path fill="none" stroke="midnightblue" d="M271.59,-114.12C357.96,-94.69 603.35,-39.49 694.95,-18.88"/>
<polygon fill="midnightblue" stroke="midnightblue" points="695.85,-22.27 704.84,-16.66 694.31,-15.44 695.85,-22.27"/>
</g>
<!-- Node25 -->
<g id="node25" class="node">
<title>Node25</title>
<g id="a_node25"><a xlink:href="../../db/dde/internal_8h.html" target="_top" xlink:title=" ">
<polygon fill="none" stroke="red" points="1483,-56.5 1483,-75.5 1539,-75.5 1539,-56.5 1483,-56.5"/>
<text text-anchor="middle" x="1511" y="-63.5" font-family="Helvetica,sans-Serif" font-size="10.00">internal.h</text>
</a>
</g>
</g>
<!-- Node24&#45;&gt;Node25 -->
<g id="edge24" class="edge">
<title>Node24&#45;&gt;Node25</title>
<path fill="none" stroke="midnightblue" d="M1622.08,-112.44C1600.26,-103.52 1565.85,-89.44 1541.11,-79.32"/>
<polygon fill="midnightblue" stroke="midnightblue" points="1542.4,-76.06 1531.82,-75.52 1539.75,-82.54 1542.4,-76.06"/>
</g>
<!-- Node25&#45;&gt;Node3 -->
<g id="edge32" class="edge">
<title>Node25&#45;&gt;Node3</title>
<path fill="none" stroke="midnightblue" d="M1482.81,-58.82C1444.06,-50.28 1372.16,-34.32 1311,-20 1309.55,-19.66 1308.07,-19.31 1306.58,-18.96"/>
<polygon fill="midnightblue" stroke="midnightblue" points="1307.22,-15.51 1296.68,-16.58 1305.59,-22.32 1307.22,-15.51"/>
</g>
<!-- Node25&#45;&gt;Node5 -->
<g id="edge33" class="edge">
<title>Node25&#45;&gt;Node5</title>
<path fill="none" stroke="midnightblue" d="M1482.7,-63.53C1445.26,-61.62 1377.19,-58.26 1319,-56 797.37,-35.78 664.74,-68.8 145,-20 142.77,-19.79 140.5,-19.55 138.2,-19.28"/>
<polygon fill="midnightblue" stroke="midnightblue" points="138.46,-15.79 128.09,-17.98 137.56,-22.73 138.46,-15.79"/>
</g>
<!-- Node25&#45;&gt;Node8 -->
<g id="edge34" class="edge">
<title>Node25&#45;&gt;Node8</title>
<path fill="none" stroke="midnightblue" d="M1482.7,-63.61C1445.25,-61.78 1377.18,-58.51 1319,-56 886.78,-37.32 362.09,-17.7 218.73,-12.39"/>
<polygon fill="midnightblue" stroke="midnightblue" points="218.43,-8.88 208.31,-12.01 218.17,-15.87 218.43,-8.88"/>
</g>
<!-- Node25&#45;&gt;Node11 -->
<g id="edge31" class="edge">
<title>Node25&#45;&gt;Node11</title>
<path fill="none" stroke="midnightblue" d="M1482.74,-63.05C1363.05,-54.77 897.89,-22.61 765.4,-13.45"/>
<polygon fill="midnightblue" stroke="midnightblue" points="765.24,-9.93 755.03,-12.73 764.76,-16.91 765.24,-9.93"/>
</g>
<!-- Node26 -->
<g id="node26" class="node">
<title>Node26</title>
<g id="a_node26"><a xlink:title=" ">
<polygon fill="none" stroke="#bfbfbf" points="1455,-0.5 1455,-19.5 1501,-19.5 1501,-0.5 1455,-0.5"/>
<text text-anchor="middle" x="1478" y="-7.5" font-family="Helvetica,sans-Serif" font-size="10.00">stdio.h</text>
</a>
</g>
</g>
<!-- Node25&#45;&gt;Node26 -->
<g id="edge25" class="edge">
<title>Node25&#45;&gt;Node26</title>
<path fill="none" stroke="midnightblue" d="M1505.55,-56.08C1500.99,-48.61 1494.33,-37.72 1488.71,-28.52"/>
<polygon fill="midnightblue" stroke="midnightblue" points="1491.55,-26.46 1483.35,-19.75 1485.58,-30.11 1491.55,-26.46"/>
</g>
<!-- Node27 -->
<g id="node27" class="node">
<title>Node27</title>
<g id="a_node27"><a xlink:title=" ">
<polygon fill="none" stroke="#bfbfbf" points="1519.5,-0.5 1519.5,-19.5 1568.5,-19.5 1568.5,-0.5 1519.5,-0.5"/>
<text text-anchor="middle" x="1544" y="-7.5" font-family="Helvetica,sans-Serif" font-size="10.00">string.h</text>
</a>
</g>
</g>
<!-- Node25&#45;&gt;Node27 -->
<g id="edge26" class="edge">
<title>Node25&#45;&gt;Node27</title>
<path fill="none" stroke="midnightblue" d="M1516.45,-56.08C1521.01,-48.61 1527.67,-37.72 1533.29,-28.52"/>
<polygon fill="midnightblue" stroke="midnightblue" points="1536.42,-30.11 1538.65,-19.75 1530.45,-26.46 1536.42,-30.11"/>
</g>
<!-- Node28 -->
<g id="node28" class="node">
<title>Node28</title>
<g id="a_node28"><a xlink:title=" ">
<polygon fill="none" stroke="#bfbfbf" points="1587,-0.5 1587,-19.5 1635,-19.5 1635,-0.5 1587,-0.5"/>
<text text-anchor="middle" x="1611" y="-7.5" font-family="Helvetica,sans-Serif" font-size="10.00">stdlib.h</text>
</a>
</g>
</g>
<!-- Node25&#45;&gt;Node28 -->
<g id="edge27" class="edge">
<title>Node25&#45;&gt;Node28</title>
<path fill="none" stroke="midnightblue" d="M1527.07,-56.32C1542.96,-47.74 1567.51,-34.49 1585.96,-24.52"/>
<polygon fill="midnightblue" stroke="midnightblue" points="1587.84,-27.49 1594.97,-19.65 1584.51,-21.33 1587.84,-27.49"/>
</g>
<!-- Node29 -->
<g id="node29" class="node">
<title>Node29</title>
<g id="a_node29"><a xlink:title=" ">
<polygon fill="none" stroke="#bfbfbf" points="1653,-0.5 1653,-19.5 1705,-19.5 1705,-0.5 1653,-0.5"/>
<text text-anchor="middle" x="1679" y="-7.5" font-family="Helvetica,sans-Serif" font-size="10.00">stdarg.h</text>
</a>
</g>
</g>
<!-- Node25&#45;&gt;Node29 -->
<g id="edge28" class="edge">
<title>Node25&#45;&gt;Node29</title>
<path fill="none" stroke="midnightblue" d="M1537.62,-56.44C1566.09,-47.29 1611.4,-32.73 1643.03,-22.56"/>
<polygon fill="midnightblue" stroke="midnightblue" points="1644.33,-25.82 1652.78,-19.43 1642.19,-19.16 1644.33,-25.82"/>
</g>
<!-- Node30 -->
<g id="node30" class="node">
<title>Node30</title>
<g id="a_node30"><a xlink:title=" ">
<polygon fill="none" stroke="#bfbfbf" points="1319.5,-0.5 1319.5,-19.5 1368.5,-19.5 1368.5,-0.5 1319.5,-0.5"/>
<text text-anchor="middle" x="1344" y="-7.5" font-family="Helvetica,sans-Serif" font-size="10.00">dirent.h</text>
</a>
</g>
</g>
<!-- Node25&#45;&gt;Node30 -->
<g id="edge29" class="edge">
<title>Node25&#45;&gt;Node30</title>
<path fill="none" stroke="midnightblue" d="M1484.54,-56.44C1455.82,-47.16 1409.87,-32.3 1378.38,-22.12"/>
<polygon fill="midnightblue" stroke="midnightblue" points="1379.3,-18.73 1368.7,-18.99 1377.14,-25.4 1379.3,-18.73"/>
</g>
<!-- Node31 -->
<g id="node31" class="node">
<title>Node31</title>
<g id="a_node31"><a xlink:title=" ">
<polygon fill="none" stroke="#bfbfbf" points="1387,-0.5 1387,-19.5 1437,-19.5 1437,-0.5 1387,-0.5"/>
<text text-anchor="middle" x="1412" y="-7.5" font-family="Helvetica,sans-Serif" font-size="10.00">libgen.h</text>
</a>
</g>
</g>
<!-- Node25&#45;&gt;Node31 -->
<g id="edge30" class="edge">
<title>Node25&#45;&gt;Node31</title>
<path fill="none" stroke="midnightblue" d="M1495.09,-56.32C1479.36,-47.74 1455.06,-34.49 1436.79,-24.52"/>
<polygon fill="midnightblue" stroke="midnightblue" points="1438.32,-21.37 1427.87,-19.65 1434.97,-27.52 1438.32,-21.37"/>
</g>
<!-- Node63 -->
<g id="node32" class="node">
<title>Node63</title>
<g id="a_node32"><a xlink:href="../../d6/dde/cmd__line_8h.html" target="_top" xlink:title=" ">
<polygon fill="none" stroke="black" points="1958,-0.5 1958,-19.5 2022,-19.5 2022,-0.5 1958,-0.5"/>
<text text-anchor="middle" x="1990" y="-7.5" font-family="Helvetica,sans-Serif" font-size="10.00">cmd_line.h</text>
</a>
</g>
</g>
<!-- Node25&#45;&gt;Node63 -->
<g id="edge35" class="edge">
<title>Node25&#45;&gt;Node63</title>
<path fill="none" stroke="midnightblue" d="M1539.21,-62.49C1607.13,-56.33 1785.09,-39.55 1933,-20 1937.78,-19.37 1942.77,-18.66 1947.73,-17.92"/>
<polygon fill="midnightblue" stroke="midnightblue" points="1948.43,-21.35 1957.79,-16.38 1947.37,-14.43 1948.43,-21.35"/>
</g>
<!-- Node75 -->
<g id="node33" class="node">
<title>Node75</title>
<g id="a_node33"><a xlink:href="../../d3/d7f/direct__draw_8h.html" target="_top" xlink:title=" ">
<polygon fill="none" stroke="black" points="1758,-0.5 1758,-19.5 1832,-19.5 1832,-0.5 1758,-0.5"/>
<text text-anchor="middle" x="1795" y="-7.5" font-family="Helvetica,sans-Serif" font-size="10.00">direct_draw.h</text>
</a>
</g>
</g>
<!-- Node25&#45;&gt;Node75 -->
<g id="edge36" class="edge">
<title>Node25&#45;&gt;Node75</title>
<path fill="none" stroke="midnightblue" d="M1539.01,-59.67C1587.69,-50.42 1688.4,-31.27 1747.96,-19.94"/>
<polygon fill="midnightblue" stroke="midnightblue" points="1748.69,-23.37 1757.86,-18.06 1747.39,-16.49 1748.69,-23.37"/>
</g>
<!-- Node76 -->
<g id="node34" class="node">
<title>Node76</title>
<g id="a_node34"><a xlink:href="../../df/dfc/version_8h.html" target="_top" xlink:title=" ">
<polygon fill="none" stroke="black" points="1868,-0.5 1868,-19.5 1924,-19.5 1924,-0.5 1868,-0.5"/>
<text text-anchor="middle" x="1896" y="-7.5" font-family="Helvetica,sans-Serif" font-size="10.00">version.h</text>
</a>
</g>
</g>
<!-- Node25&#45;&gt;Node76 -->
<g id="edge37" class="edge">
<title>Node25&#45;&gt;Node76</title>
<path fill="none" stroke="midnightblue" d="M1539.29,-61.4C1596.39,-54.08 1729.49,-36.72 1841,-20 1846.44,-19.18 1852.18,-18.29 1857.82,-17.38"/>
<polygon fill="midnightblue" stroke="midnightblue" points="1858.45,-20.83 1867.76,-15.77 1857.33,-13.92 1858.45,-20.83"/>
</g>
<!-- Node78 -->
<g id="node35" class="node">
<title>Node78</title>
<g id="a_node35"><a xlink:href="../../de/d96/status__line_8h.html" target="_top" xlink:title=" ">
<polygon fill="none" stroke="black" points="2062,-0.5 2062,-19.5 2134,-19.5 2134,-0.5 2062,-0.5"/>
<text text-anchor="middle" x="2098" y="-7.5" font-family="Helvetica,sans-Serif" font-size="10.00">status_line.h</text>
</a>
</g>
</g>
<!-- Node25&#45;&gt;Node78 -->
<g id="edge38" class="edge">
<title>Node25&#45;&gt;Node78</title>
<path fill="none" stroke="midnightblue" d="M1539.23,-63.03C1617.47,-57.46 1843.66,-40.68 2031,-20 2037.74,-19.26 2044.85,-18.39 2051.82,-17.49"/>
<polygon fill="midnightblue" stroke="midnightblue" points="2052.42,-20.95 2061.88,-16.17 2051.5,-14.01 2052.42,-20.95"/>
</g>
<!-- Node81 -->
<g id="node37" class="node">
<title>Node81</title>
<g id="a_node37"><a xlink:href="../../da/d9e/boyer__moore_8h.html" target="_top" xlink:title=" ">
<polygon fill="none" stroke="black" points="1398.5,-112.5 1398.5,-131.5 1479.5,-131.5 1479.5,-112.5 1398.5,-112.5"/>
<text text-anchor="middle" x="1439" y="-119.5" font-family="Helvetica,sans-Serif" font-size="10.00">boyer_moore.h</text>
</a>
</g>
</g>
<!-- Node80&#45;&gt;Node81 -->
<g id="edge40" class="edge">
<title>Node80&#45;&gt;Node81</title>
<path fill="none" stroke="midnightblue" d="M1379.41,-168.32C1390.11,-160.18 1406.34,-147.84 1419.16,-138.09"/>
<polygon fill="midnightblue" stroke="midnightblue" points="1421.54,-140.67 1427.39,-131.83 1417.31,-135.1 1421.54,-140.67"/>
</g>
<!-- Node81&#45;&gt;Node25 -->
<g id="edge41" class="edge">
<title>Node81&#45;&gt;Node25</title>
<path fill="none" stroke="midnightblue" d="M1450.57,-112.32C1461.42,-104.18 1477.88,-91.84 1490.88,-82.09"/>
<polygon fill="midnightblue" stroke="midnightblue" points="1493.32,-84.63 1499.22,-75.83 1489.12,-79.03 1493.32,-84.63"/>
</g>
<!-- Node88&#45;&gt;Node75 -->
<g id="edge49" class="edge">
<title>Node88&#45;&gt;Node75</title>
<path fill="none" stroke="midnightblue" d="M1823.57,-112.37C1818.54,-94.54 1806.92,-53.3 1800.15,-29.27"/>
<polygon fill="midnightblue" stroke="midnightblue" points="1803.5,-28.27 1797.42,-19.59 1796.77,-30.17 1803.5,-28.27"/>
</g>
<!-- Node60 -->
<g id="node46" class="node">
<title>Node60</title>
<g id="a_node46"><a xlink:href="../../dc/da1/frame__tree_8h.html" target="_top" xlink:title=" ">
<polygon fill="none" stroke="red" points="1238.5,-56.5 1238.5,-75.5 1309.5,-75.5 1309.5,-56.5 1238.5,-56.5"/>
<text text-anchor="middle" x="1274" y="-63.5" font-family="Helvetica,sans-Serif" font-size="10.00">frame_tree.h</text>
</a>
</g>
</g>
<!-- Node89&#45;&gt;Node60 -->
<g id="edge51" class="edge">
<title>Node89&#45;&gt;Node60</title>
<path fill="none" stroke="midnightblue" d="M1274,-168.37C1274,-150.62 1274,-109.67 1274,-85.6"/>
<polygon fill="midnightblue" stroke="midnightblue" points="1277.5,-85.59 1274,-75.59 1270.5,-85.59 1277.5,-85.59"/>
</g>
<!-- Node60&#45;&gt;Node3 -->
<g id="edge52" class="edge">
<title>Node60&#45;&gt;Node3</title>
<path fill="none" stroke="midnightblue" d="M1274,-56.08C1274,-49.01 1274,-38.86 1274,-29.99"/>
<polygon fill="midnightblue" stroke="midnightblue" points="1277.5,-29.75 1274,-19.75 1270.5,-29.75 1277.5,-29.75"/>
</g>
<!-- Node90&#45;&gt;Node76 -->
<g id="edge54" class="edge">
<title>Node90&#45;&gt;Node76</title>
<path fill="none" stroke="midnightblue" d="M1899.34,-56.08C1898.82,-49.01 1898.06,-38.86 1897.41,-29.99"/>
<polygon fill="midnightblue" stroke="midnightblue" points="1900.88,-29.47 1896.65,-19.75 1893.9,-29.98 1900.88,-29.47"/>
</g>
<!-- Node92&#45;&gt;Node63 -->
<g id="edge57" class="edge">
<title>Node92&#45;&gt;Node63</title>
<path fill="none" stroke="midnightblue" d="M2037,-56.32C2028.81,-48.42 2016.49,-36.55 2006.53,-26.94"/>
<polygon fill="midnightblue" stroke="midnightblue" points="2008.79,-24.26 1999.16,-19.83 2003.93,-29.29 2008.79,-24.26"/>
</g>
<!-- Node93&#45;&gt;Node78 -->
<g id="edge59" class="edge">
<title>Node93&#45;&gt;Node78</title>
<path fill="none" stroke="midnightblue" d="M2119.2,-112.37C2115.48,-94.62 2106.92,-53.67 2101.89,-29.6"/>
<polygon fill="midnightblue" stroke="midnightblue" points="2105.27,-28.66 2099.8,-19.59 2098.42,-30.1 2105.27,-28.66"/>
</g>
</g>
</svg>
