<?xml version="1.0" encoding="UTF-8" standalone="no"?>
<!DOCTYPE svg PUBLIC "-//W3C//DTD SVG 1.1//EN"
 "http://www.w3.org/Graphics/SVG/1.1/DTD/svg11.dtd">
<!-- Generated by graphviz version 3.0.0 (20220226.1711)
 -->
<!-- Title: src/plugin.h Pages: 1 -->
<svg width="216pt" height="308pt"
 viewBox="0.00 0.00 215.50 308.00" xmlns="http://www.w3.org/2000/svg" xmlns:xlink="http://www.w3.org/1999/xlink">
<g id="graph0" class="graph" transform="scale(1 1) rotate(0) translate(4 304)">
<title>src/plugin.h</title>
<!-- Node1 -->
<g id="node1" class="node">
<title>Node1</title>
<g id="a_node1"><a xlink:title=" ">
<polygon fill="#bfbfbf" stroke="black" points="116.5,-280.5 116.5,-299.5 183.5,-299.5 183.5,-280.5 116.5,-280.5"/>
<text text-anchor="middle" x="150" y="-287.5" font-family="Helvetica,sans-Serif" font-size="10.00">src/plugin.h</text>
</a>
</g>
</g>
<!-- Node2 -->
<g id="node2" class="node">
<title>Node2</title>
<g id="a_node2"><a xlink:href="../../db/dde/internal_8h.html" target="_top" xlink:title=" ">
<polygon fill="none" stroke="black" points="113.5,-224.5 113.5,-243.5 186.5,-243.5 186.5,-224.5 113.5,-224.5"/>
<text text-anchor="middle" x="150" y="-231.5" font-family="Helvetica,sans-Serif" font-size="10.00">src/internal.h</text>
</a>
</g>
</g>
<!-- Node1&#45;&gt;Node2 -->
<g id="edge1" class="edge">
<title>Node1&#45;&gt;Node2</title>
<path fill="none" stroke="midnightblue" d="M143.53,-270.1C142.9,-261.14 143.34,-250.86 144.87,-243.75"/>
<polygon fill="midnightblue" stroke="midnightblue" points="140.07,-270.62 144.83,-280.08 147.01,-269.71 140.07,-270.62"/>
</g>
<!-- Node2&#45;&gt;Node1 -->
<g id="edge8" class="edge">
<title>Node2&#45;&gt;Node1</title>
<path fill="none" stroke="midnightblue" d="M156.46,-253.69C157.11,-262.64 156.68,-272.93 155.17,-280.08"/>
<polygon fill="midnightblue" stroke="midnightblue" points="159.92,-253.2 155.13,-243.75 152.98,-254.13 159.92,-253.2"/>
</g>
<!-- Node3 -->
<g id="node3" class="node">
<title>Node3</title>
<g id="a_node3"><a xlink:href="../../da/d9e/boyer__moore_8h.html" target="_top" xlink:title=" ">
<polygon fill="none" stroke="black" points="12,-168.5 12,-187.5 110,-187.5 110,-168.5 12,-168.5"/>
<text text-anchor="middle" x="61" y="-175.5" font-family="Helvetica,sans-Serif" font-size="10.00">src/boyer_moore.h</text>
</a>
</g>
</g>
<!-- Node2&#45;&gt;Node3 -->
<g id="edge2" class="edge">
<title>Node2&#45;&gt;Node3</title>
<path fill="none" stroke="midnightblue" d="M126.76,-218.9C110.44,-209 89.13,-196.07 75.26,-187.65"/>
<polygon fill="midnightblue" stroke="midnightblue" points="125.34,-222.13 135.7,-224.32 128.97,-216.14 125.34,-222.13"/>
</g>
<!-- Node6 -->
<g id="node6" class="node">
<title>Node6</title>
<g id="a_node6"><a xlink:href="../../d6/d07/yed_8c.html" target="_top" xlink:title=" ">
<polygon fill="none" stroke="black" points="150.5,-0.5 150.5,-19.5 207.5,-19.5 207.5,-0.5 150.5,-0.5"/>
<text text-anchor="middle" x="179" y="-7.5" font-family="Helvetica,sans-Serif" font-size="10.00">src/yed.c</text>
</a>
</g>
</g>
<!-- Node2&#45;&gt;Node6 -->
<g id="edge9" class="edge">
<title>Node2&#45;&gt;Node6</title>
<path fill="none" stroke="midnightblue" d="M160.02,-215.54C170.63,-195.94 186.71,-162.85 193,-132 199.75,-98.9 198.07,-89.39 193,-56 191.03,-43.06 186.06,-28.72 182.6,-19.78"/>
<polygon fill="midnightblue" stroke="midnightblue" points="156.85,-214.03 155.04,-224.47 162.97,-217.44 156.85,-214.03"/>
</g>
<!-- Node7 -->
<g id="node7" class="node">
<title>Node7</title>
<g id="a_node7"><a xlink:href="../../d4/daa/plugin_8c.html" target="_top" xlink:title=" ">
<polygon fill="none" stroke="black" points="116.5,-112.5 116.5,-131.5 183.5,-131.5 183.5,-112.5 116.5,-112.5"/>
<text text-anchor="middle" x="150" y="-119.5" font-family="Helvetica,sans-Serif" font-size="10.00">src/plugin.c</text>
</a>
</g>
</g>
<!-- Node2&#45;&gt;Node7 -->
<g id="edge6" class="edge">
<title>Node2&#45;&gt;Node7</title>
<path fill="none" stroke="midnightblue" d="M150,-214.35C150,-190.25 150,-149.31 150,-131.59"/>
<polygon fill="midnightblue" stroke="midnightblue" points="146.5,-214.37 150,-224.37 153.5,-214.37 146.5,-214.37"/>
</g>
<!-- Node4 -->
<g id="node4" class="node">
<title>Node4</title>
<g id="a_node4"><a xlink:href="../../d6/d91/boyer__moore_8c.html" target="_top" xlink:title=" ">
<polygon fill="none" stroke="black" points="0,-112.5 0,-131.5 98,-131.5 98,-112.5 0,-112.5"/>
<text text-anchor="middle" x="49" y="-119.5" font-family="Helvetica,sans-Serif" font-size="10.00">src/boyer_moore.c</text>
</a>
</g>
</g>
<!-- Node3&#45;&gt;Node4 -->
<g id="edge3" class="edge">
<title>Node3&#45;&gt;Node4</title>
<path fill="none" stroke="midnightblue" d="M56.8,-158.1C54.81,-149.14 52.52,-138.86 50.94,-131.75"/>
<polygon fill="midnightblue" stroke="midnightblue" points="53.43,-159.08 59.02,-168.08 60.27,-157.56 53.43,-159.08"/>
</g>
<!-- Node5 -->
<g id="node5" class="node">
<title>Node5</title>
<g id="a_node5"><a xlink:href="../../dc/df8/internal_8c.html" target="_top" xlink:title=" ">
<polygon fill="none" stroke="black" points="110.5,-56.5 110.5,-75.5 183.5,-75.5 183.5,-56.5 110.5,-56.5"/>
<text text-anchor="middle" x="147" y="-63.5" font-family="Helvetica,sans-Serif" font-size="10.00">src/internal.c</text>
</a>
</g>
</g>
<!-- Node4&#45;&gt;Node5 -->
<g id="edge4" class="edge">
<title>Node4&#45;&gt;Node5</title>
<path fill="none" stroke="midnightblue" d="M73.59,-107.45C91.68,-97.48 115.73,-84.23 131.29,-75.65"/>
<polygon fill="midnightblue" stroke="midnightblue" points="71.81,-104.43 64.75,-112.32 75.19,-110.56 71.81,-104.43"/>
</g>
<!-- Node5&#45;&gt;Node6 -->
<g id="edge5" class="edge">
<title>Node5&#45;&gt;Node6</title>
<path fill="none" stroke="midnightblue" d="M157.5,-47.27C162.97,-38.05 169.42,-27.17 173.81,-19.75"/>
<polygon fill="midnightblue" stroke="midnightblue" points="154.37,-45.7 152.28,-56.08 160.39,-49.26 154.37,-45.7"/>
</g>
<!-- Node7&#45;&gt;Node5 -->
<g id="edge7" class="edge">
<title>Node7&#45;&gt;Node5</title>
<path fill="none" stroke="midnightblue" d="M148.93,-101.8C148.44,-92.91 147.88,-82.78 147.49,-75.75"/>
<polygon fill="midnightblue" stroke="midnightblue" points="145.46,-102.29 149.5,-112.08 152.44,-101.9 145.46,-102.29"/>
</g>
</g>
</svg>
