<?xml version="1.0" encoding="UTF-8" standalone="no"?>
<!DOCTYPE svg PUBLIC "-//W3C//DTD SVG 1.1//EN"
 "http://www.w3.org/Graphics/SVG/1.1/DTD/svg11.dtd">
<!-- Generated by graphviz version 3.0.0 (20220226.1711)
 -->
<!-- Title: src/cmd_line.h Pages: 1 -->
<svg width="338pt" height="308pt"
 viewBox="0.00 0.00 338.43 308.00" xmlns="http://www.w3.org/2000/svg" xmlns:xlink="http://www.w3.org/1999/xlink">
<g id="graph0" class="graph" transform="scale(1 1) rotate(0) translate(4 304)">
<title>src/cmd_line.h</title>
<!-- Node1 -->
<g id="node1" class="node">
<title>Node1</title>
<g id="a_node1"><a xlink:title=" ">
<polygon fill="#bfbfbf" stroke="black" points="92,-280.5 92,-299.5 172,-299.5 172,-280.5 92,-280.5"/>
<text text-anchor="middle" x="132" y="-287.5" font-family="Helvetica,sans-Serif" font-size="10.00">src/cmd_line.h</text>
</a>
</g>
</g>
<!-- Node2 -->
<g id="node2" class="node">
<title>Node2</title>
<g id="a_node2"><a xlink:href="../../d5/d91/cmd__line_8c.html" target="_top" xlink:title=" ">
<polygon fill="none" stroke="black" points="0,-112.5 0,-131.5 80,-131.5 80,-112.5 0,-112.5"/>
<text text-anchor="middle" x="40" y="-119.5" font-family="Helvetica,sans-Serif" font-size="10.00">src/cmd_line.c</text>
</a>
</g>
</g>
<!-- Node1&#45;&gt;Node2 -->
<g id="edge1" class="edge">
<title>Node1&#45;&gt;Node2</title>
<path fill="none" stroke="midnightblue" d="M122.2,-271.31C102.58,-235.92 59.16,-157.56 44.75,-131.57"/>
<polygon fill="midnightblue" stroke="midnightblue" points="119.14,-273.03 127.05,-280.08 125.27,-269.63 119.14,-273.03"/>
</g>
<!-- Node5 -->
<g id="node5" class="node">
<title>Node5</title>
<g id="a_node5"><a xlink:href="../../db/dde/internal_8h.html" target="_top" xlink:title=" ">
<polygon fill="none" stroke="black" points="210.5,-224.5 210.5,-243.5 283.5,-243.5 283.5,-224.5 210.5,-224.5"/>
<text text-anchor="middle" x="247" y="-231.5" font-family="Helvetica,sans-Serif" font-size="10.00">src/internal.h</text>
</a>
</g>
</g>
<!-- Node1&#45;&gt;Node5 -->
<g id="edge4" class="edge">
<title>Node1&#45;&gt;Node5</title>
<path fill="none" stroke="midnightblue" d="M159.48,-276.1C180.97,-266.01 210.22,-252.27 228.86,-243.52"/>
<polygon fill="midnightblue" stroke="midnightblue" points="157.79,-273.02 150.22,-280.44 160.76,-279.36 157.79,-273.02"/>
</g>
<!-- Node3 -->
<g id="node3" class="node">
<title>Node3</title>
<g id="a_node3"><a xlink:href="../../dc/df8/internal_8c.html" target="_top" xlink:title=" ">
<polygon fill="none" stroke="black" points="161.5,-56.5 161.5,-75.5 234.5,-75.5 234.5,-56.5 161.5,-56.5"/>
<text text-anchor="middle" x="198" y="-63.5" font-family="Helvetica,sans-Serif" font-size="10.00">src/internal.c</text>
</a>
</g>
</g>
<!-- Node2&#45;&gt;Node3 -->
<g id="edge2" class="edge">
<title>Node2&#45;&gt;Node3</title>
<path fill="none" stroke="midnightblue" d="M74.61,-109.17C104.36,-99 146.55,-84.59 173.08,-75.52"/>
<polygon fill="midnightblue" stroke="midnightblue" points="73.37,-105.9 65.04,-112.44 75.63,-112.52 73.37,-105.9"/>
</g>
<!-- Node4 -->
<g id="node4" class="node">
<title>Node4</title>
<g id="a_node4"><a xlink:href="../../d6/d07/yed_8c.html" target="_top" xlink:title=" ">
<polygon fill="none" stroke="black" points="240.5,-0.5 240.5,-19.5 297.5,-19.5 297.5,-0.5 240.5,-0.5"/>
<text text-anchor="middle" x="269" y="-7.5" font-family="Helvetica,sans-Serif" font-size="10.00">src/yed.c</text>
</a>
</g>
</g>
<!-- Node3&#45;&gt;Node4 -->
<g id="edge3" class="edge">
<title>Node3&#45;&gt;Node4</title>
<path fill="none" stroke="midnightblue" d="M217.59,-50.1C230.37,-40.38 246.61,-28.03 257.39,-19.83"/>
<polygon fill="midnightblue" stroke="midnightblue" points="215.25,-47.48 209.41,-56.32 219.49,-53.06 215.25,-47.48"/>
</g>
<!-- Node5&#45;&gt;Node4 -->
<g id="edge12" class="edge">
<title>Node5&#45;&gt;Node4</title>
<path fill="none" stroke="midnightblue" d="M282.45,-220.2C296.78,-213.06 311.84,-202.61 320,-188 353.05,-128.8 296.39,-46.27 275.93,-19.64"/>
<polygon fill="midnightblue" stroke="midnightblue" points="280.85,-217.08 273.21,-224.41 283.76,-223.44 280.85,-217.08"/>
</g>
<!-- Node6 -->
<g id="node6" class="node">
<title>Node6</title>
<g id="a_node6"><a xlink:href="../../da/d9e/boyer__moore_8h.html" target="_top" xlink:title=" ">
<polygon fill="none" stroke="black" points="90,-168.5 90,-187.5 188,-187.5 188,-168.5 90,-168.5"/>
<text text-anchor="middle" x="139" y="-175.5" font-family="Helvetica,sans-Serif" font-size="10.00">src/boyer_moore.h</text>
</a>
</g>
</g>
<!-- Node5&#45;&gt;Node6 -->
<g id="edge5" class="edge">
<title>Node5&#45;&gt;Node6</title>
<path fill="none" stroke="midnightblue" d="M220.45,-219.73C200.45,-209.73 173.61,-196.31 156.31,-187.65"/>
<polygon fill="midnightblue" stroke="midnightblue" points="219.14,-222.98 229.65,-224.32 222.27,-216.72 219.14,-222.98"/>
</g>
<!-- Node8 -->
<g id="node8" class="node">
<title>Node8</title>
<g id="a_node8"><a xlink:href="../../d4/daa/plugin_8c.html" target="_top" xlink:title=" ">
<polygon fill="none" stroke="black" points="214.5,-112.5 214.5,-131.5 281.5,-131.5 281.5,-112.5 214.5,-112.5"/>
<text text-anchor="middle" x="248" y="-119.5" font-family="Helvetica,sans-Serif" font-size="10.00">src/plugin.c</text>
</a>
</g>
</g>
<!-- Node5&#45;&gt;Node8 -->
<g id="edge8" class="edge">
<title>Node5&#45;&gt;Node8</title>
<path fill="none" stroke="midnightblue" d="M240.38,-214.59C236.5,-201.62 232.76,-183.8 235,-168 236.82,-155.12 241.45,-140.76 244.66,-131.8"/>
<polygon fill="midnightblue" stroke="midnightblue" points="237.09,-215.8 243.54,-224.21 243.74,-213.61 237.09,-215.8"/>
</g>
<!-- Node9 -->
<g id="node9" class="node">
<title>Node9</title>
<g id="a_node9"><a xlink:href="../../d9/dc4/plugin_8h.html" target="_top" xlink:title=" ">
<polygon fill="none" stroke="black" points="244.5,-168.5 244.5,-187.5 311.5,-187.5 311.5,-168.5 244.5,-168.5"/>
<text text-anchor="middle" x="278" y="-175.5" font-family="Helvetica,sans-Serif" font-size="10.00">src/plugin.h</text>
</a>
</g>
</g>
<!-- Node5&#45;&gt;Node9 -->
<g id="edge10" class="edge">
<title>Node5&#45;&gt;Node9</title>
<path fill="none" stroke="midnightblue" d="M251.08,-214.69C255.61,-205.59 262.12,-195.01 267.85,-187.75"/>
<polygon fill="midnightblue" stroke="midnightblue" points="247.77,-213.52 246.95,-224.08 254.18,-216.34 247.77,-213.52"/>
</g>
<!-- Node7 -->
<g id="node7" class="node">
<title>Node7</title>
<g id="a_node7"><a xlink:href="../../d6/d91/boyer__moore_8c.html" target="_top" xlink:title=" ">
<polygon fill="none" stroke="black" points="98,-112.5 98,-131.5 196,-131.5 196,-112.5 98,-112.5"/>
<text text-anchor="middle" x="147" y="-119.5" font-family="Helvetica,sans-Serif" font-size="10.00">src/boyer_moore.c</text>
</a>
</g>
</g>
<!-- Node6&#45;&gt;Node7 -->
<g id="edge6" class="edge">
<title>Node6&#45;&gt;Node7</title>
<path fill="none" stroke="midnightblue" d="M141.8,-158.1C143.13,-149.14 144.65,-138.86 145.7,-131.75"/>
<polygon fill="midnightblue" stroke="midnightblue" points="138.32,-157.68 140.32,-168.08 145.25,-158.7 138.32,-157.68"/>
</g>
<!-- Node7&#45;&gt;Node3 -->
<g id="edge7" class="edge">
<title>Node7&#45;&gt;Node3</title>
<path fill="none" stroke="midnightblue" d="M162.38,-104.72C171.37,-95.2 182.36,-83.56 189.74,-75.75"/>
<polygon fill="midnightblue" stroke="midnightblue" points="159.74,-102.41 155.42,-112.08 164.83,-107.22 159.74,-102.41"/>
</g>
<!-- Node8&#45;&gt;Node3 -->
<g id="edge9" class="edge">
<title>Node8&#45;&gt;Node3</title>
<path fill="none" stroke="midnightblue" d="M232.92,-104.72C224.11,-95.2 213.33,-83.56 206.1,-75.75"/>
<polygon fill="midnightblue" stroke="midnightblue" points="230.38,-107.12 239.74,-112.08 235.52,-102.37 230.38,-107.12"/>
</g>
<!-- Node9&#45;&gt;Node5 -->
<g id="edge11" class="edge">
<title>Node9&#45;&gt;Node5</title>
<path fill="none" stroke="midnightblue" d="M274.02,-197.1C269.52,-206.18 263.03,-216.77 257.29,-224.08"/>
<polygon fill="midnightblue" stroke="midnightblue" points="277.31,-198.32 278.11,-187.75 270.9,-195.51 277.31,-198.32"/>
</g>
</g>
</svg>
