<?xml version="1.0" encoding="UTF-8" standalone="no"?>
<!DOCTYPE svg PUBLIC "-//W3C//DTD SVG 1.1//EN"
 "http://www.w3.org/Graphics/SVG/1.1/DTD/svg11.dtd">
<!-- Generated by graphviz version 3.0.0 (20220226.1711)
 -->
<!-- Title: src/direct_draw.h Pages: 1 -->
<svg width="321pt" height="308pt"
 viewBox="0.00 0.00 320.79 308.00" xmlns="http://www.w3.org/2000/svg" xmlns:xlink="http://www.w3.org/1999/xlink">
<g id="graph0" class="graph" transform="scale(1 1) rotate(0) translate(4 304)">
<title>src/direct_draw.h</title>
<!-- Node1 -->
<g id="node1" class="node">
<title>Node1</title>
<g id="a_node1"><a xlink:title=" ">
<polygon fill="#bfbfbf" stroke="black" points="77,-280.5 77,-299.5 167,-299.5 167,-280.5 77,-280.5"/>
<text text-anchor="middle" x="122" y="-287.5" font-family="Helvetica,sans-Serif" font-size="10.00">src/direct_draw.h</text>
</a>
</g>
</g>
<!-- Node2 -->
<g id="node2" class="node">
<title>Node2</title>
<g id="a_node2"><a xlink:href="../../d1/d7d/direct__draw_8c.html" target="_top" xlink:title=" ">
<polygon fill="none" stroke="black" points="0,-112.5 0,-131.5 90,-131.5 90,-112.5 0,-112.5"/>
<text text-anchor="middle" x="45" y="-119.5" font-family="Helvetica,sans-Serif" font-size="10.00">src/direct_draw.c</text>
</a>
</g>
</g>
<!-- Node1&#45;&gt;Node2 -->
<g id="edge1" class="edge">
<title>Node1&#45;&gt;Node2</title>
<path fill="none" stroke="midnightblue" d="M110.58,-272.03C97.82,-252.47 77.22,-219.01 64,-188 55.7,-168.53 49.68,-144.31 46.84,-131.64"/>
<polygon fill="midnightblue" stroke="midnightblue" points="107.71,-274.04 116.15,-280.45 113.55,-270.18 107.71,-274.04"/>
</g>
<!-- Node5 -->
<g id="node5" class="node">
<title>Node5</title>
<g id="a_node5"><a xlink:href="../../db/dde/internal_8h.html" target="_top" xlink:title=" ">
<polygon fill="none" stroke="black" points="193.5,-224.5 193.5,-243.5 266.5,-243.5 266.5,-224.5 193.5,-224.5"/>
<text text-anchor="middle" x="230" y="-231.5" font-family="Helvetica,sans-Serif" font-size="10.00">src/internal.h</text>
</a>
</g>
</g>
<!-- Node1&#45;&gt;Node5 -->
<g id="edge4" class="edge">
<title>Node1&#45;&gt;Node5</title>
<path fill="none" stroke="midnightblue" d="M148.55,-275.73C168.55,-265.73 195.39,-252.31 212.69,-243.65"/>
<polygon fill="midnightblue" stroke="midnightblue" points="146.73,-272.72 139.35,-280.32 149.86,-278.98 146.73,-272.72"/>
</g>
<!-- Node3 -->
<g id="node3" class="node">
<title>Node3</title>
<g id="a_node3"><a xlink:href="../../dc/df8/internal_8c.html" target="_top" xlink:title=" ">
<polygon fill="none" stroke="black" points="171.5,-56.5 171.5,-75.5 244.5,-75.5 244.5,-56.5 171.5,-56.5"/>
<text text-anchor="middle" x="208" y="-63.5" font-family="Helvetica,sans-Serif" font-size="10.00">src/internal.c</text>
</a>
</g>
</g>
<!-- Node2&#45;&gt;Node3 -->
<g id="edge2" class="edge">
<title>Node2&#45;&gt;Node3</title>
<path fill="none" stroke="midnightblue" d="M80.7,-109.17C111.4,-99 154.92,-84.59 182.29,-75.52"/>
<polygon fill="midnightblue" stroke="midnightblue" points="79.22,-105.98 70.83,-112.44 81.42,-112.62 79.22,-105.98"/>
</g>
<!-- Node4 -->
<g id="node4" class="node">
<title>Node4</title>
<g id="a_node4"><a xlink:href="../../d6/d07/yed_8c.html" target="_top" xlink:title=" ">
<polygon fill="none" stroke="black" points="211.5,-0.5 211.5,-19.5 268.5,-19.5 268.5,-0.5 211.5,-0.5"/>
<text text-anchor="middle" x="240" y="-7.5" font-family="Helvetica,sans-Serif" font-size="10.00">src/yed.c</text>
</a>
</g>
</g>
<!-- Node3&#45;&gt;Node4 -->
<g id="edge3" class="edge">
<title>Node3&#45;&gt;Node4</title>
<path fill="none" stroke="midnightblue" d="M218.5,-47.27C223.97,-38.05 230.42,-27.17 234.81,-19.75"/>
<polygon fill="midnightblue" stroke="midnightblue" points="215.37,-45.7 213.28,-56.08 221.39,-49.26 215.37,-45.7"/>
</g>
<!-- Node5&#45;&gt;Node4 -->
<g id="edge12" class="edge">
<title>Node5&#45;&gt;Node4</title>
<path fill="none" stroke="midnightblue" d="M265.45,-220.2C279.78,-213.06 294.84,-202.61 303,-188 336.71,-127.62 271.38,-45.86 247.93,-19.54"/>
<polygon fill="midnightblue" stroke="midnightblue" points="263.85,-217.08 256.21,-224.41 266.76,-223.44 263.85,-217.08"/>
</g>
<!-- Node6 -->
<g id="node6" class="node">
<title>Node6</title>
<g id="a_node6"><a xlink:href="../../da/d9e/boyer__moore_8h.html" target="_top" xlink:title=" ">
<polygon fill="none" stroke="black" points="73,-168.5 73,-187.5 171,-187.5 171,-168.5 73,-168.5"/>
<text text-anchor="middle" x="122" y="-175.5" font-family="Helvetica,sans-Serif" font-size="10.00">src/boyer_moore.h</text>
</a>
</g>
</g>
<!-- Node5&#45;&gt;Node6 -->
<g id="edge5" class="edge">
<title>Node5&#45;&gt;Node6</title>
<path fill="none" stroke="midnightblue" d="M203.45,-219.73C183.45,-209.73 156.61,-196.31 139.31,-187.65"/>
<polygon fill="midnightblue" stroke="midnightblue" points="202.14,-222.98 212.65,-224.32 205.27,-216.72 202.14,-222.98"/>
</g>
<!-- Node8 -->
<g id="node8" class="node">
<title>Node8</title>
<g id="a_node8"><a xlink:href="../../d4/daa/plugin_8c.html" target="_top" xlink:title=" ">
<polygon fill="none" stroke="black" points="224.5,-112.5 224.5,-131.5 291.5,-131.5 291.5,-112.5 224.5,-112.5"/>
<text text-anchor="middle" x="258" y="-119.5" font-family="Helvetica,sans-Serif" font-size="10.00">src/plugin.c</text>
</a>
</g>
</g>
<!-- Node5&#45;&gt;Node8 -->
<g id="edge8" class="edge">
<title>Node5&#45;&gt;Node8</title>
<path fill="none" stroke="midnightblue" d="M221.54,-214.88C216.54,-201.57 212.21,-183.23 218,-168 223.72,-152.95 237.03,-139.73 246.73,-131.57"/>
<polygon fill="midnightblue" stroke="midnightblue" points="218.41,-216.46 225.51,-224.32 224.86,-213.75 218.41,-216.46"/>
</g>
<!-- Node9 -->
<g id="node9" class="node">
<title>Node9</title>
<g id="a_node9"><a xlink:href="../../d9/dc4/plugin_8h.html" target="_top" xlink:title=" ">
<polygon fill="none" stroke="black" points="227.5,-168.5 227.5,-187.5 294.5,-187.5 294.5,-168.5 227.5,-168.5"/>
<text text-anchor="middle" x="261" y="-175.5" font-family="Helvetica,sans-Serif" font-size="10.00">src/plugin.h</text>
</a>
</g>
</g>
<!-- Node5&#45;&gt;Node9 -->
<g id="edge10" class="edge">
<title>Node5&#45;&gt;Node9</title>
<path fill="none" stroke="midnightblue" d="M234.08,-214.69C238.61,-205.59 245.12,-195.01 250.85,-187.75"/>
<polygon fill="midnightblue" stroke="midnightblue" points="230.77,-213.52 229.95,-224.08 237.18,-216.34 230.77,-213.52"/>
</g>
<!-- Node7 -->
<g id="node7" class="node">
<title>Node7</title>
<g id="a_node7"><a xlink:href="../../d6/d91/boyer__moore_8c.html" target="_top" xlink:title=" ">
<polygon fill="none" stroke="black" points="108,-112.5 108,-131.5 206,-131.5 206,-112.5 108,-112.5"/>
<text text-anchor="middle" x="157" y="-119.5" font-family="Helvetica,sans-Serif" font-size="10.00">src/boyer_moore.c</text>
</a>
</g>
</g>
<!-- Node6&#45;&gt;Node7 -->
<g id="edge6" class="edge">
<title>Node6&#45;&gt;Node7</title>
<path fill="none" stroke="midnightblue" d="M133.3,-159.57C139.32,-150.27 146.47,-139.25 151.33,-131.75"/>
<polygon fill="midnightblue" stroke="midnightblue" points="130.28,-157.79 127.78,-168.08 136.16,-161.6 130.28,-157.79"/>
</g>
<!-- Node7&#45;&gt;Node3 -->
<g id="edge7" class="edge">
<title>Node7&#45;&gt;Node3</title>
<path fill="none" stroke="midnightblue" d="M172.38,-104.72C181.37,-95.2 192.36,-83.56 199.74,-75.75"/>
<polygon fill="midnightblue" stroke="midnightblue" points="169.74,-102.41 165.42,-112.08 174.83,-107.22 169.74,-102.41"/>
</g>
<!-- Node8&#45;&gt;Node3 -->
<g id="edge9" class="edge">
<title>Node8&#45;&gt;Node3</title>
<path fill="none" stroke="midnightblue" d="M242.92,-104.72C234.11,-95.2 223.33,-83.56 216.1,-75.75"/>
<polygon fill="midnightblue" stroke="midnightblue" points="240.38,-107.12 249.74,-112.08 245.52,-102.37 240.38,-107.12"/>
</g>
<!-- Node9&#45;&gt;Node5 -->
<g id="edge11" class="edge">
<title>Node9&#45;&gt;Node5</title>
<path fill="none" stroke="midnightblue" d="M257.02,-197.1C252.52,-206.18 246.03,-216.77 240.29,-224.08"/>
<polygon fill="midnightblue" stroke="midnightblue" points="260.31,-198.32 261.11,-187.75 253.9,-195.51 260.31,-198.32"/>
</g>
</g>
</svg>
