<?xml version="1.0" encoding="UTF-8" standalone="no"?>
<!DOCTYPE svg PUBLIC "-//W3C//DTD SVG 1.1//EN"
 "http://www.w3.org/Graphics/SVG/1.1/DTD/svg11.dtd">
<!-- Generated by graphviz version 3.0.0 (20220226.1711)
 -->
<!-- Title: yed_plugin_t Pages: 1 -->
<svg width="144pt" height="177pt"
 viewBox="0.00 0.00 143.50 176.71" xmlns="http://www.w3.org/2000/svg" xmlns:xlink="http://www.w3.org/1999/xlink">
<g id="graph0" class="graph" transform="scale(1 1) rotate(0) translate(4 172.71)">
<title>yed_plugin_t</title>
<!-- Node1 -->
<g id="node1" class="node">
<title>Node1</title>
<g id="a_node1"><a xlink:title=" ">
<polygon fill="#bfbfbf" stroke="black" points="0,-4.21 0,-23.21 71,-23.21 71,-4.21 0,-4.21"/>
<text text-anchor="middle" x="35.5" y="-11.21" font-family="Helvetica,sans-Serif" font-size="10.00">yed_plugin_t</text>
</a>
</g>
</g>
<!-- Node1&#45;&gt;Node1 -->
<g id="edge1" class="edge">
<title>Node1&#45;&gt;Node1</title>
<path fill="none" stroke="#9a32cd" stroke-dasharray="5,2" d="M59.82,-26.28C74.79,-29.27 89,-25.08 89,-13.71 89,0.14 67.88,3.33 50.02,-4.14"/>
<polygon fill="#9a32cd" stroke="#9a32cd" points="60.6,-22.86 50.02,-23.29 58.56,-29.56 60.6,-22.86"/>
<text text-anchor="middle" x="103.5" y="-16.71" font-family="Helvetica,sans-Serif" font-size="10.00"> boot</text>
<text text-anchor="middle" x="103.5" y="-5.71" font-family="Helvetica,sans-Serif" font-size="10.00">unload</text>
</g>
<!-- Node2 -->
<g id="node2" class="node">
<title>Node2</title>
<g id="a_node2"><a xlink:href="../../d1/d16/structarray__t.html" target="_top" xlink:title=" ">
<polygon fill="none" stroke="black" points="12,-149.21 12,-168.21 59,-168.21 59,-149.21 12,-149.21"/>
<text text-anchor="middle" x="35.5" y="-156.21" font-family="Helvetica,sans-Serif" font-size="10.00">array_t</text>
</a>
</g>
</g>
<!-- Node2&#45;&gt;Node1 -->
<g id="edge2" class="edge">
<title>Node2&#45;&gt;Node1</title>
<path fill="none" stroke="#9a32cd" stroke-dasharray="5,2" d="M35.5,-138.81C35.5,-107.48 35.5,-46.02 35.5,-23.37"/>
<polygon fill="#9a32cd" stroke="#9a32cd" points="32,-139.2 35.5,-149.2 39,-139.2 32,-139.2"/>
<text text-anchor="middle" x="85.5" y="-122.71" font-family="Helvetica,sans-Serif" font-size="10.00"> acquired_keys</text>
<text text-anchor="middle" x="85.5" y="-111.71" font-family="Helvetica,sans-Serif" font-size="10.00">added_bindings</text>
<text text-anchor="middle" x="85.5" y="-100.71" font-family="Helvetica,sans-Serif" font-size="10.00">added_cmds</text>
<text text-anchor="middle" x="85.5" y="-89.71" font-family="Helvetica,sans-Serif" font-size="10.00">added_compls</text>
<text text-anchor="middle" x="85.5" y="-78.71" font-family="Helvetica,sans-Serif" font-size="10.00">added_event_handlers</text>
<text text-anchor="middle" x="85.5" y="-67.71" font-family="Helvetica,sans-Serif" font-size="10.00">added_fts</text>
<text text-anchor="middle" x="85.5" y="-56.71" font-family="Helvetica,sans-Serif" font-size="10.00">added_key_sequences</text>
<text text-anchor="middle" x="85.5" y="-45.71" font-family="Helvetica,sans-Serif" font-size="10.00">added_styles</text>
</g>
</g>
</svg>
