<?xml version="1.0" encoding="UTF-8" standalone="no"?>
<!DOCTYPE svg PUBLIC "-//W3C//DTD SVG 1.1//EN"
 "http://www.w3.org/Graphics/SVG/1.1/DTD/svg11.dtd">
<!-- Generated by graphviz version 3.0.0 (20220226.1711)
 -->
<!-- Title: yed_event Pages: 1 -->
<svg width="511pt" height="411pt"
 viewBox="0.00 0.00 511.00 411.00" xmlns="http://www.w3.org/2000/svg" xmlns:xlink="http://www.w3.org/1999/xlink">
<g id="graph0" class="graph" transform="scale(1 1) rotate(0) translate(4 407)">
<title>yed_event</title>
<!-- Node1 -->
<g id="node1" class="node">
<title>Node1</title>
<g id="a_node1"><a xlink:title=" ">
<polygon fill="#bfbfbf" stroke="black" points="231,-1.5 231,-20.5 293,-20.5 293,-1.5 231,-1.5"/>
<text text-anchor="middle" x="262" y="-8.5" font-family="Helvetica,sans-Serif" font-size="10.00">yed_event</text>
</a>
</g>
</g>
<!-- Node2 -->
<g id="node2" class="node">
<title>Node2</title>
<g id="a_node2"><a xlink:href="../../d3/d59/structyed__frame__t.html" target="_top" xlink:title=" ">
<polygon fill="none" stroke="black" points="64.5,-69.5 64.5,-88.5 135.5,-88.5 135.5,-69.5 64.5,-69.5"/>
<text text-anchor="middle" x="100" y="-76.5" font-family="Helvetica,sans-Serif" font-size="10.00">yed_frame_t</text>
</a>
</g>
</g>
<!-- Node2&#45;&gt;Node1 -->
<g id="edge1" class="edge">
<title>Node2&#45;&gt;Node1</title>
<path fill="none" stroke="#9a32cd" stroke-dasharray="5,2" d="M114.72,-61.67C122.44,-54.04 132.47,-45.45 143,-40 158.13,-32.17 201.06,-23.16 230.99,-17.52"/>
<polygon fill="#9a32cd" stroke="#9a32cd" points="111.72,-59.75 107.34,-69.39 116.78,-64.59 111.72,-59.75"/>
<text text-anchor="middle" x="157" y="-43" font-family="Helvetica,sans-Serif" font-size="10.00"> frame</text>
</g>
<!-- Node3 -->
<g id="node3" class="node">
<title>Node3</title>
<g id="a_node3"><a xlink:href="../../db/d0f/structyed__frame__tree__t.html" target="_top" xlink:title=" ">
<polygon fill="none" stroke="black" points="28,-1.5 28,-20.5 120,-20.5 120,-1.5 28,-1.5"/>
<text text-anchor="middle" x="74" y="-8.5" font-family="Helvetica,sans-Serif" font-size="10.00">yed_frame_tree_t</text>
</a>
</g>
</g>
<!-- Node2&#45;&gt;Node3 -->
<g id="edge4" class="edge">
<title>Node2&#45;&gt;Node3</title>
<path fill="none" stroke="#9a32cd" stroke-dasharray="5,2" d="M66.46,-64.12C61.48,-60.58 57.01,-56.25 54,-51 48.18,-40.83 56.6,-28.78 64.23,-20.8"/>
<polygon fill="#9a32cd" stroke="#9a32cd" points="64.81,-67.2 75.18,-69.34 68.4,-61.2 64.81,-67.2"/>
<text text-anchor="middle" x="68" y="-43" font-family="Helvetica,sans-Serif" font-size="10.00"> frame</text>
</g>
<!-- Node3&#45;&gt;Node2 -->
<g id="edge2" class="edge">
<title>Node3&#45;&gt;Node2</title>
<path fill="none" stroke="#9a32cd" stroke-dasharray="5,2" d="M81.27,-30.47C86.29,-43.2 92.73,-59.54 96.6,-69.37"/>
<polygon fill="#9a32cd" stroke="#9a32cd" points="84.4,-28.86 77.48,-20.84 77.89,-31.43 84.4,-28.86"/>
<text text-anchor="middle" x="100" y="-43" font-family="Helvetica,sans-Serif" font-size="10.00"> tree</text>
</g>
<!-- Node3&#45;&gt;Node3 -->
<g id="edge3" class="edge">
<title>Node3&#45;&gt;Node3</title>
<path fill="none" stroke="#9a32cd" stroke-dasharray="5,2" d="M130.27,-15.95C135.03,-14.89 138,-13.24 138,-11 138,-7.41 130.41,-5.34 120.02,-4.78"/>
<polygon fill="#9a32cd" stroke="#9a32cd" points="129.52,-12.52 120.02,-17.22 130.38,-19.46 129.52,-12.52"/>
<text text-anchor="middle" x="163.5" y="-14" font-family="Helvetica,sans-Serif" font-size="10.00"> child_trees</text>
<text text-anchor="middle" x="163.5" y="-3" font-family="Helvetica,sans-Serif" font-size="10.00">parent</text>
</g>
<!-- Node4 -->
<g id="node4" class="node">
<title>Node4</title>
<g id="a_node4"><a xlink:href="../../d5/d2d/structyed__buffer__t.html" target="_top" xlink:title=" ">
<polygon fill="none" stroke="black" points="218.5,-136.5 218.5,-155.5 289.5,-155.5 289.5,-136.5 218.5,-136.5"/>
<text text-anchor="middle" x="254" y="-143.5" font-family="Helvetica,sans-Serif" font-size="10.00">yed_buffer_t</text>
</a>
</g>
</g>
<!-- Node4&#45;&gt;Node1 -->
<g id="edge17" class="edge">
<title>Node4&#45;&gt;Node1</title>
<path fill="none" stroke="#9a32cd" stroke-dasharray="5,2" d="M255.13,-126.13C256.89,-96.88 260.21,-41.76 261.48,-20.59"/>
<polygon fill="#9a32cd" stroke="#9a32cd" points="251.63,-126.08 254.52,-136.27 258.62,-126.5 251.63,-126.08"/>
<text text-anchor="middle" x="272" y="-76.5" font-family="Helvetica,sans-Serif" font-size="10.00"> buffer</text>
</g>
<!-- Node4&#45;&gt;Node2 -->
<g id="edge5" class="edge">
<title>Node4&#45;&gt;Node2</title>
<path fill="none" stroke="#9a32cd" stroke-dasharray="5,2" d="M228.26,-131.79C212.96,-124.15 193.08,-114.58 175,-107 158.92,-100.26 140.5,-93.61 125.94,-88.6"/>
<polygon fill="#9a32cd" stroke="#9a32cd" points="227.08,-135.11 237.58,-136.49 230.23,-128.86 227.08,-135.11"/>
<text text-anchor="middle" x="213" y="-110" font-family="Helvetica,sans-Serif" font-size="10.00"> buffer</text>
</g>
<!-- Node5 -->
<g id="node5" class="node">
<title>Node5</title>
<g id="a_node5"><a xlink:href="../../dc/d81/structbucket__array__t.html" target="_top" xlink:title=" ">
<polygon fill="none" stroke="black" points="340.5,-276.5 340.5,-295.5 421.5,-295.5 421.5,-276.5 340.5,-276.5"/>
<text text-anchor="middle" x="381" y="-283.5" font-family="Helvetica,sans-Serif" font-size="10.00">bucket_array_t</text>
</a>
</g>
</g>
<!-- Node5&#45;&gt;Node4 -->
<g id="edge6" class="edge">
<title>Node5&#45;&gt;Node4</title>
<path fill="none" stroke="#9a32cd" stroke-dasharray="5,2" d="M381.68,-266.25C381.51,-241.7 377.39,-198.86 353,-174 336.53,-157.21 310.73,-150.56 289.59,-148.05"/>
<polygon fill="#9a32cd" stroke="#9a32cd" points="378.18,-266.35 381.53,-276.4 385.18,-266.45 378.18,-266.35"/>
<text text-anchor="middle" x="393" y="-239" font-family="Helvetica,sans-Serif" font-size="10.00"> lines</text>
</g>
<!-- Node6 -->
<g id="node6" class="node">
<title>Node6</title>
<g id="a_node6"><a xlink:href="../../d1/d16/structarray__t.html" target="_top" xlink:title=" ">
<polygon fill="none" stroke="black" points="264.5,-383.5 264.5,-402.5 311.5,-402.5 311.5,-383.5 264.5,-383.5"/>
<text text-anchor="middle" x="288" y="-390.5" font-family="Helvetica,sans-Serif" font-size="10.00">array_t</text>
</a>
</g>
</g>
<!-- Node6&#45;&gt;Node1 -->
<g id="edge19" class="edge">
<title>Node6&#45;&gt;Node1</title>
<path fill="none" stroke="#9a32cd" stroke-dasharray="5,2" d="M321.81,-391.97C367.69,-389.94 444,-378.65 444,-326 444,-326 444,-326 444,-78 444,-46.32 345.32,-25.51 293.29,-16.74"/>
<polygon fill="#9a32cd" stroke="#9a32cd" points="321.58,-388.47 311.69,-392.29 321.8,-395.47 321.58,-388.47"/>
<text text-anchor="middle" x="473.5" y="-199" font-family="Helvetica,sans-Serif" font-size="10.00"> gutter_attrs</text>
<text text-anchor="middle" x="473.5" y="-188" font-family="Helvetica,sans-Serif" font-size="10.00">gutter_glyphs</text>
<text text-anchor="middle" x="473.5" y="-177" font-family="Helvetica,sans-Serif" font-size="10.00">line_attrs</text>
</g>
<!-- Node6&#45;&gt;Node2 -->
<g id="edge16" class="edge">
<title>Node6&#45;&gt;Node2</title>
<path fill="none" stroke="#9a32cd" stroke-dasharray="5,2" d="M254.42,-391.33C178.47,-388.9 0,-377.69 0,-326 0,-326 0,-326 0,-145 0,-113.32 35.72,-96.29 64.46,-87.71"/>
<polygon fill="#9a32cd" stroke="#9a32cd" points="254.34,-394.83 264.43,-391.62 254.54,-387.83 254.34,-394.83"/>
<text text-anchor="middle" x="29.5" y="-250" font-family="Helvetica,sans-Serif" font-size="10.00"> gutter_attrs</text>
<text text-anchor="middle" x="29.5" y="-239" font-family="Helvetica,sans-Serif" font-size="10.00">gutter_glyphs</text>
<text text-anchor="middle" x="29.5" y="-228" font-family="Helvetica,sans-Serif" font-size="10.00">line_attrs</text>
</g>
<!-- Node6&#45;&gt;Node5 -->
<g id="edge7" class="edge">
<title>Node6&#45;&gt;Node5</title>
<path fill="none" stroke="#9a32cd" stroke-dasharray="5,2" d="M311.73,-377.6C317.04,-373.84 322.45,-369.55 327,-365 348.89,-343.11 367.75,-311.3 376.23,-295.95"/>
<polygon fill="#9a32cd" stroke="#9a32cd" points="309.42,-374.94 303.03,-383.39 313.29,-380.76 309.42,-374.94"/>
<text text-anchor="middle" x="355" y="-357" font-family="Helvetica,sans-Serif" font-size="10.00"> buckets</text>
</g>
<!-- Node7 -->
<g id="node7" class="node">
<title>Node7</title>
<g id="a_node7"><a xlink:href="../../d6/df3/structyed__line__t.html" target="_top" xlink:title=" ">
<polygon fill="none" stroke="black" points="78.5,-276.5 78.5,-295.5 139.5,-295.5 139.5,-276.5 78.5,-276.5"/>
<text text-anchor="middle" x="109" y="-283.5" font-family="Helvetica,sans-Serif" font-size="10.00">yed_line_t</text>
</a>
</g>
</g>
<!-- Node6&#45;&gt;Node7 -->
<g id="edge9" class="edge">
<title>Node6&#45;&gt;Node7</title>
<path fill="none" stroke="#9a32cd" stroke-dasharray="5,2" d="M254.88,-379.84C244.19,-375.55 232.42,-370.43 222,-365 181.83,-344.07 139.04,-311.24 119.65,-295.71"/>
<polygon fill="#9a32cd" stroke="#9a32cd" points="253.72,-383.14 264.31,-383.53 256.27,-376.62 253.72,-383.14"/>
<text text-anchor="middle" x="236" y="-357" font-family="Helvetica,sans-Serif" font-size="10.00"> chars</text>
</g>
<!-- Node9 -->
<g id="node9" class="node">
<title>Node9</title>
<g id="a_node9"><a xlink:href="../../d3/d53/structyed__undo__history.html" target="_top" xlink:title=" ">
<polygon fill="none" stroke="black" points="262.5,-232 262.5,-251 355.5,-251 355.5,-232 262.5,-232"/>
<text text-anchor="middle" x="309" y="-239" font-family="Helvetica,sans-Serif" font-size="10.00">yed_undo_history</text>
</a>
</g>
</g>
<!-- Node6&#45;&gt;Node9 -->
<g id="edge12" class="edge">
<title>Node6&#45;&gt;Node9</title>
<path fill="none" stroke="#9a32cd" stroke-dasharray="5,2" d="M296.23,-373.95C297.32,-371.01 298.3,-367.95 299,-365 308.95,-323.28 309.44,-271.56 309.19,-251.26"/>
<polygon fill="#9a32cd" stroke="#9a32cd" points="292.98,-372.65 292.37,-383.23 299.44,-375.34 292.98,-372.65"/>
<text text-anchor="middle" x="317" y="-328" font-family="Helvetica,sans-Serif" font-size="10.00"> redo</text>
<text text-anchor="middle" x="317" y="-317" font-family="Helvetica,sans-Serif" font-size="10.00">undo</text>
</g>
<!-- Node10 -->
<g id="node10" class="node">
<title>Node10</title>
<g id="a_node10"><a xlink:href="../../dc/dde/structyed__undo__record.html" target="_top" xlink:title=" ">
<polygon fill="none" stroke="black" points="185.5,-315.5 185.5,-334.5 276.5,-334.5 276.5,-315.5 185.5,-315.5"/>
<text text-anchor="middle" x="231" y="-322.5" font-family="Helvetica,sans-Serif" font-size="10.00">yed_undo_record</text>
</a>
</g>
</g>
<!-- Node6&#45;&gt;Node10 -->
<g id="edge14" class="edge">
<title>Node6&#45;&gt;Node10</title>
<path fill="none" stroke="#9a32cd" stroke-dasharray="5,2" d="M273.21,-375.49C270.15,-372.04 266.96,-368.41 264,-365 255.05,-354.68 244.93,-342.66 238.28,-334.73"/>
<polygon fill="#9a32cd" stroke="#9a32cd" points="270.68,-377.91 279.94,-383.05 275.91,-373.25 270.68,-377.91"/>
<text text-anchor="middle" x="281.5" y="-357" font-family="Helvetica,sans-Serif" font-size="10.00"> actions</text>
</g>
<!-- Node7&#45;&gt;Node4 -->
<g id="edge8" class="edge">
<title>Node7&#45;&gt;Node4</title>
<path fill="none" stroke="#9a32cd" stroke-dasharray="5,2" d="M102,-266.28C98.54,-253.72 96.53,-237.3 104,-225 128.75,-184.23 182.52,-163.79 218.49,-154.3"/>
<polygon fill="#9a32cd" stroke="#9a32cd" points="98.78,-267.69 105.2,-276.11 105.43,-265.52 98.78,-267.69"/>
<text text-anchor="middle" x="138.5" y="-239" font-family="Helvetica,sans-Serif" font-size="10.00"> get_line_cache</text>
</g>
<!-- Node8 -->
<g id="node8" class="node">
<title>Node8</title>
<g id="a_node8"><a xlink:href="../../d2/d1d/structyed__range.html" target="_top" xlink:title=" ">
<polygon fill="none" stroke="black" points="182,-232 182,-251 244,-251 244,-232 182,-232"/>
<text text-anchor="middle" x="213" y="-239" font-family="Helvetica,sans-Serif" font-size="10.00">yed_range</text>
</a>
</g>
</g>
<!-- Node8&#45;&gt;Node4 -->
<g id="edge10" class="edge">
<title>Node8&#45;&gt;Node4</title>
<path fill="none" stroke="#9a32cd" stroke-dasharray="5,2" d="M214.95,-221.58C216.98,-207.75 221.03,-188.89 229,-174 232.74,-167.02 238.72,-160.46 243.9,-155.56"/>
<polygon fill="#9a32cd" stroke="#9a32cd" points="211.44,-221.46 213.68,-231.82 218.38,-222.33 211.44,-221.46"/>
<text text-anchor="middle" x="250.5" y="-188" font-family="Helvetica,sans-Serif" font-size="10.00"> selection</text>
</g>
<!-- Node9&#45;&gt;Node4 -->
<g id="edge11" class="edge">
<title>Node9&#45;&gt;Node4</title>
<path fill="none" stroke="#9a32cd" stroke-dasharray="5,2" d="M299.56,-222.62C292.3,-209.1 281.87,-190.18 272,-174 268.24,-167.84 263.74,-161.09 260.18,-155.88"/>
<polygon fill="#9a32cd" stroke="#9a32cd" points="296.64,-224.58 304.43,-231.76 302.82,-221.29 296.64,-224.58"/>
<text text-anchor="middle" x="319.5" y="-188" font-family="Helvetica,sans-Serif" font-size="10.00"> undo_history</text>
</g>
<!-- Node10&#45;&gt;Node9 -->
<g id="edge13" class="edge">
<title>Node10&#45;&gt;Node9</title>
<path fill="none" stroke="#9a32cd" stroke-dasharray="5,2" d="M227.36,-305.27C226.54,-295.74 227.26,-284.42 233,-276 241.29,-263.85 255.04,-256.06 268.58,-251.09"/>
<polygon fill="#9a32cd" stroke="#9a32cd" points="223.92,-305.96 228.82,-315.35 230.85,-304.96 223.92,-305.96"/>
<text text-anchor="middle" x="266" y="-283.5" font-family="Helvetica,sans-Serif" font-size="10.00"> current_record</text>
</g>
<!-- Node11 -->
<g id="node11" class="node">
<title>Node11</title>
<g id="a_node11"><a xlink:href="../../d6/df6/structyed__attrs.html" target="_top" xlink:title=" ">
<polygon fill="none" stroke="black" points="107.5,-136.5 107.5,-155.5 164.5,-155.5 164.5,-136.5 107.5,-136.5"/>
<text text-anchor="middle" x="136" y="-143.5" font-family="Helvetica,sans-Serif" font-size="10.00">yed_attrs</text>
</a>
</g>
</g>
<!-- Node11&#45;&gt;Node1 -->
<g id="edge18" class="edge">
<title>Node11&#45;&gt;Node1</title>
<path fill="none" stroke="#9a32cd" stroke-dasharray="5,2" d="M159.27,-130.14C163.6,-126.57 167.78,-122.48 171,-118 184.47,-99.29 174.53,-87.7 188,-69 203.45,-47.55 229.22,-30.31 245.91,-20.61"/>
<polygon fill="#9a32cd" stroke="#9a32cd" points="156.88,-127.56 150.94,-136.33 161.05,-133.18 156.88,-127.56"/>
<text text-anchor="middle" x="220.5" y="-76.5" font-family="Helvetica,sans-Serif" font-size="10.00"> row_base_attr</text>
</g>
<!-- Node11&#45;&gt;Node2 -->
<g id="edge15" class="edge">
<title>Node11&#45;&gt;Node2</title>
<path fill="none" stroke="#9a32cd" stroke-dasharray="5,2" d="M111.18,-130.46C107.1,-126.91 103.41,-122.75 101,-118 96.34,-108.82 96.99,-96.72 98.2,-88.66"/>
<polygon fill="#9a32cd" stroke="#9a32cd" points="109.18,-133.33 119.3,-136.49 113.36,-127.72 109.18,-133.33"/>
<text text-anchor="middle" x="136" y="-110" font-family="Helvetica,sans-Serif" font-size="10.00"> row_base_attrs</text>
</g>
</g>
</svg>
