<?xml version="1.0" encoding="UTF-8" standalone="no"?>
<!DOCTYPE svg PUBLIC "-//W3C//DTD SVG 1.1//EN"
 "http://www.w3.org/Graphics/SVG/1.1/DTD/svg11.dtd">
<!-- Generated by graphviz version 3.0.0 (20220226.1711)
 -->
<!-- Title: src/status_line.h Pages: 1 -->
<svg width="326pt" height="308pt"
 viewBox="0.00 0.00 326.00 308.00" xmlns="http://www.w3.org/2000/svg" xmlns:xlink="http://www.w3.org/1999/xlink">
<g id="graph0" class="graph" transform="scale(1 1) rotate(0) translate(4 304)">
<title>src/status_line.h</title>
<!-- Node1 -->
<g id="node1" class="node">
<title>Node1</title>
<g id="a_node1"><a xlink:title=" ">
<polygon fill="#bfbfbf" stroke="black" points="141,-280.5 141,-299.5 230,-299.5 230,-280.5 141,-280.5"/>
<text text-anchor="middle" x="185.5" y="-287.5" font-family="Helvetica,sans-Serif" font-size="10.00">src/status_line.h</text>
</a>
</g>
</g>
<!-- Node2 -->
<g id="node2" class="node">
<title>Node2</title>
<g id="a_node2"><a xlink:href="../../db/dde/internal_8h.html" target="_top" xlink:title=" ">
<polygon fill="none" stroke="black" points="60,-224.5 60,-243.5 133,-243.5 133,-224.5 60,-224.5"/>
<text text-anchor="middle" x="96.5" y="-231.5" font-family="Helvetica,sans-Serif" font-size="10.00">src/internal.h</text>
</a>
</g>
</g>
<!-- Node1&#45;&gt;Node2 -->
<g id="edge1" class="edge">
<title>Node1&#45;&gt;Node2</title>
<path fill="none" stroke="midnightblue" d="M162.26,-274.9C145.94,-265 124.63,-252.07 110.76,-243.65"/>
<polygon fill="midnightblue" stroke="midnightblue" points="160.84,-278.13 171.2,-280.32 164.47,-272.14 160.84,-278.13"/>
</g>
<!-- Node9 -->
<g id="node9" class="node">
<title>Node9</title>
<g id="a_node9"><a xlink:href="../../df/dbb/status__line_8c.html" target="_top" xlink:title=" ">
<polygon fill="none" stroke="black" points="229,-112.5 229,-131.5 318,-131.5 318,-112.5 229,-112.5"/>
<text text-anchor="middle" x="273.5" y="-119.5" font-family="Helvetica,sans-Serif" font-size="10.00">src/status_line.c</text>
</a>
</g>
</g>
<!-- Node1&#45;&gt;Node9 -->
<g id="edge11" class="edge">
<title>Node1&#45;&gt;Node9</title>
<path fill="none" stroke="midnightblue" d="M199.42,-272.69C215.09,-253.56 240.35,-220.33 255.5,-188 264.44,-168.91 269.71,-144.53 272.05,-131.74"/>
<polygon fill="midnightblue" stroke="midnightblue" points="196.67,-270.51 192.96,-280.43 202.05,-275 196.67,-270.51"/>
</g>
<!-- Node3 -->
<g id="node3" class="node">
<title>Node3</title>
<g id="a_node3"><a xlink:href="../../da/d9e/boyer__moore_8h.html" target="_top" xlink:title=" ">
<polygon fill="none" stroke="black" points="148.5,-168.5 148.5,-187.5 246.5,-187.5 246.5,-168.5 148.5,-168.5"/>
<text text-anchor="middle" x="197.5" y="-175.5" font-family="Helvetica,sans-Serif" font-size="10.00">src/boyer_moore.h</text>
</a>
</g>
</g>
<!-- Node2&#45;&gt;Node3 -->
<g id="edge2" class="edge">
<title>Node2&#45;&gt;Node3</title>
<path fill="none" stroke="midnightblue" d="M121.58,-219.59C140.26,-209.61 165.2,-196.27 181.31,-187.65"/>
<polygon fill="midnightblue" stroke="midnightblue" points="119.9,-216.52 112.73,-224.32 123.2,-222.7 119.9,-216.52"/>
</g>
<!-- Node6 -->
<g id="node6" class="node">
<title>Node6</title>
<g id="a_node6"><a xlink:href="../../d6/d07/yed_8c.html" target="_top" xlink:title=" ">
<polygon fill="none" stroke="black" points="0,-0.5 0,-19.5 57,-19.5 57,-0.5 0,-0.5"/>
<text text-anchor="middle" x="28.5" y="-7.5" font-family="Helvetica,sans-Serif" font-size="10.00">src/yed.c</text>
</a>
</g>
</g>
<!-- Node2&#45;&gt;Node6 -->
<g id="edge10" class="edge">
<title>Node2&#45;&gt;Node6</title>
<path fill="none" stroke="midnightblue" d="M76.64,-217.86C66.8,-209.72 55.19,-199.09 46.5,-188 29.08,-165.78 23.37,-159.39 16.5,-132 6.17,-90.85 19.46,-39.72 25.65,-19.66"/>
<polygon fill="midnightblue" stroke="midnightblue" points="74.72,-220.81 84.72,-224.33 79.1,-215.35 74.72,-220.81"/>
</g>
<!-- Node7 -->
<g id="node7" class="node">
<title>Node7</title>
<g id="a_node7"><a xlink:href="../../d4/daa/plugin_8c.html" target="_top" xlink:title=" ">
<polygon fill="none" stroke="black" points="26,-112.5 26,-131.5 93,-131.5 93,-112.5 26,-112.5"/>
<text text-anchor="middle" x="59.5" y="-119.5" font-family="Helvetica,sans-Serif" font-size="10.00">src/plugin.c</text>
</a>
</g>
</g>
<!-- Node2&#45;&gt;Node7 -->
<g id="edge6" class="edge">
<title>Node2&#45;&gt;Node7</title>
<path fill="none" stroke="midnightblue" d="M76.26,-217.86C67.49,-210.03 58.18,-199.67 53.5,-188 45.91,-169.07 51.96,-144.62 56.22,-131.78"/>
<polygon fill="midnightblue" stroke="midnightblue" points="74.08,-220.6 84,-224.3 78.55,-215.22 74.08,-220.6"/>
</g>
<!-- Node8 -->
<g id="node8" class="node">
<title>Node8</title>
<g id="a_node8"><a xlink:href="../../d9/dc4/plugin_8h.html" target="_top" xlink:title=" ">
<polygon fill="none" stroke="black" points="63,-168.5 63,-187.5 130,-187.5 130,-168.5 63,-168.5"/>
<text text-anchor="middle" x="96.5" y="-175.5" font-family="Helvetica,sans-Serif" font-size="10.00">src/plugin.h</text>
</a>
</g>
</g>
<!-- Node2&#45;&gt;Node8 -->
<g id="edge8" class="edge">
<title>Node2&#45;&gt;Node8</title>
<path fill="none" stroke="midnightblue" d="M90.03,-214.1C89.4,-205.14 89.84,-194.86 91.37,-187.75"/>
<polygon fill="midnightblue" stroke="midnightblue" points="86.57,-214.62 91.33,-224.08 93.51,-213.71 86.57,-214.62"/>
</g>
<!-- Node4 -->
<g id="node4" class="node">
<title>Node4</title>
<g id="a_node4"><a xlink:href="../../d6/d91/boyer__moore_8c.html" target="_top" xlink:title=" ">
<polygon fill="none" stroke="black" points="112.5,-112.5 112.5,-131.5 210.5,-131.5 210.5,-112.5 112.5,-112.5"/>
<text text-anchor="middle" x="161.5" y="-119.5" font-family="Helvetica,sans-Serif" font-size="10.00">src/boyer_moore.c</text>
</a>
</g>
</g>
<!-- Node3&#45;&gt;Node4 -->
<g id="edge3" class="edge">
<title>Node3&#45;&gt;Node4</title>
<path fill="none" stroke="midnightblue" d="M185.88,-159.57C179.68,-150.27 172.33,-139.25 167.33,-131.75"/>
<polygon fill="midnightblue" stroke="midnightblue" points="183.1,-161.7 191.56,-168.08 188.92,-157.82 183.1,-161.7"/>
</g>
<!-- Node5 -->
<g id="node5" class="node">
<title>Node5</title>
<g id="a_node5"><a xlink:href="../../dc/df8/internal_8c.html" target="_top" xlink:title=" ">
<polygon fill="none" stroke="black" points="74,-56.5 74,-75.5 147,-75.5 147,-56.5 74,-56.5"/>
<text text-anchor="middle" x="110.5" y="-63.5" font-family="Helvetica,sans-Serif" font-size="10.00">src/internal.c</text>
</a>
</g>
</g>
<!-- Node4&#45;&gt;Node5 -->
<g id="edge4" class="edge">
<title>Node4&#45;&gt;Node5</title>
<path fill="none" stroke="midnightblue" d="M146.12,-104.72C137.13,-95.2 126.14,-83.56 118.76,-75.75"/>
<polygon fill="midnightblue" stroke="midnightblue" points="143.67,-107.22 153.08,-112.08 148.76,-102.41 143.67,-107.22"/>
</g>
<!-- Node5&#45;&gt;Node6 -->
<g id="edge5" class="edge">
<title>Node5&#45;&gt;Node6</title>
<path fill="none" stroke="midnightblue" d="M88.67,-50.62C73.69,-40.76 54.3,-27.99 41.64,-19.65"/>
<polygon fill="midnightblue" stroke="midnightblue" points="87.05,-53.75 97.33,-56.32 90.9,-47.9 87.05,-53.75"/>
</g>
<!-- Node7&#45;&gt;Node5 -->
<g id="edge7" class="edge">
<title>Node7&#45;&gt;Node5</title>
<path fill="none" stroke="midnightblue" d="M74.88,-104.72C83.87,-95.2 94.86,-83.56 102.24,-75.75"/>
<polygon fill="midnightblue" stroke="midnightblue" points="72.24,-102.41 67.92,-112.08 77.33,-107.22 72.24,-102.41"/>
</g>
<!-- Node8&#45;&gt;Node2 -->
<g id="edge9" class="edge">
<title>Node8&#45;&gt;Node2</title>
<path fill="none" stroke="midnightblue" d="M102.96,-197.69C103.61,-206.64 103.18,-216.93 101.67,-224.08"/>
<polygon fill="midnightblue" stroke="midnightblue" points="106.42,-197.2 101.63,-187.75 99.48,-198.13 106.42,-197.2"/>
</g>
<!-- Node9&#45;&gt;Node5 -->
<g id="edge12" class="edge">
<title>Node9&#45;&gt;Node5</title>
<path fill="none" stroke="midnightblue" d="M237.8,-109.17C207.1,-99 163.58,-84.59 136.21,-75.52"/>
<polygon fill="midnightblue" stroke="midnightblue" points="237.08,-112.62 247.67,-112.44 239.28,-105.98 237.08,-112.62"/>
</g>
</g>
</svg>
