<?xml version="1.0" encoding="UTF-8" standalone="no"?>
<!DOCTYPE svg PUBLIC "-//W3C//DTD SVG 1.1//EN"
 "http://www.w3.org/Graphics/SVG/1.1/DTD/svg11.dtd">
<!-- Generated by graphviz version 3.0.0 (20220226.1711)
 -->
<!-- Title: src/attrs.h Pages: 1 -->
<svg width="316pt" height="308pt"
 viewBox="0.00 0.00 315.50 308.00" xmlns="http://www.w3.org/2000/svg" xmlns:xlink="http://www.w3.org/1999/xlink">
<g id="graph0" class="graph" transform="scale(1 1) rotate(0) translate(4 304)">
<title>src/attrs.h</title>
<!-- Node1 -->
<g id="node1" class="node">
<title>Node1</title>
<g id="a_node1"><a xlink:title=" ">
<polygon fill="#bfbfbf" stroke="black" points="181.5,-280.5 181.5,-299.5 242.5,-299.5 242.5,-280.5 181.5,-280.5"/>
<text text-anchor="middle" x="212" y="-287.5" font-family="Helvetica,sans-Serif" font-size="10.00">src/attrs.h</text>
</a>
</g>
</g>
<!-- Node2 -->
<g id="node2" class="node">
<title>Node2</title>
<g id="a_node2"><a xlink:href="../../db/dde/internal_8h.html" target="_top" xlink:title=" ">
<polygon fill="none" stroke="black" points="175.5,-224.5 175.5,-243.5 248.5,-243.5 248.5,-224.5 175.5,-224.5"/>
<text text-anchor="middle" x="212" y="-231.5" font-family="Helvetica,sans-Serif" font-size="10.00">src/internal.h</text>
</a>
</g>
</g>
<!-- Node1&#45;&gt;Node2 -->
<g id="edge1" class="edge">
<title>Node1&#45;&gt;Node2</title>
<path fill="none" stroke="midnightblue" d="M212,-269.8C212,-260.91 212,-250.78 212,-243.75"/>
<polygon fill="midnightblue" stroke="midnightblue" points="208.5,-270.08 212,-280.08 215.5,-270.08 208.5,-270.08"/>
</g>
<!-- Node3 -->
<g id="node3" class="node">
<title>Node3</title>
<g id="a_node3"><a xlink:href="../../da/d9e/boyer__moore_8h.html" target="_top" xlink:title=" ">
<polygon fill="none" stroke="black" points="12,-168.5 12,-187.5 110,-187.5 110,-168.5 12,-168.5"/>
<text text-anchor="middle" x="61" y="-175.5" font-family="Helvetica,sans-Serif" font-size="10.00">src/boyer_moore.h</text>
</a>
</g>
</g>
<!-- Node2&#45;&gt;Node3 -->
<g id="edge2" class="edge">
<title>Node2&#45;&gt;Node3</title>
<path fill="none" stroke="midnightblue" d="M178.55,-221.04C150.14,-210.88 110.06,-196.55 84.81,-187.52"/>
<polygon fill="midnightblue" stroke="midnightblue" points="177.48,-224.37 188.07,-224.44 179.84,-217.78 177.48,-224.37"/>
</g>
<!-- Node6 -->
<g id="node6" class="node">
<title>Node6</title>
<g id="a_node6"><a xlink:href="../../d6/d07/yed_8c.html" target="_top" xlink:title=" ">
<polygon fill="none" stroke="black" points="150.5,-0.5 150.5,-19.5 207.5,-19.5 207.5,-0.5 150.5,-0.5"/>
<text text-anchor="middle" x="179" y="-7.5" font-family="Helvetica,sans-Serif" font-size="10.00">src/yed.c</text>
</a>
</g>
</g>
<!-- Node2&#45;&gt;Node6 -->
<g id="edge10" class="edge">
<title>Node2&#45;&gt;Node6</title>
<path fill="none" stroke="midnightblue" d="M211.18,-214.17C209.5,-181.63 204.78,-112.87 193,-56 190.34,-43.18 185.54,-28.81 182.31,-19.83"/>
<polygon fill="midnightblue" stroke="midnightblue" points="207.7,-214.61 211.67,-224.43 214.69,-214.28 207.7,-214.61"/>
</g>
<!-- Node7 -->
<g id="node7" class="node">
<title>Node7</title>
<g id="a_node7"><a xlink:href="../../d4/daa/plugin_8c.html" target="_top" xlink:title=" ">
<polygon fill="none" stroke="black" points="116.5,-112.5 116.5,-131.5 183.5,-131.5 183.5,-112.5 116.5,-112.5"/>
<text text-anchor="middle" x="150" y="-119.5" font-family="Helvetica,sans-Serif" font-size="10.00">src/plugin.c</text>
</a>
</g>
</g>
<!-- Node2&#45;&gt;Node7 -->
<g id="edge6" class="edge">
<title>Node2&#45;&gt;Node7</title>
<path fill="none" stroke="midnightblue" d="M202.22,-215.64C188.75,-191.74 165.01,-149.63 154.84,-131.59"/>
<polygon fill="midnightblue" stroke="midnightblue" points="199.18,-217.38 207.13,-224.37 205.27,-213.94 199.18,-217.38"/>
</g>
<!-- Node8 -->
<g id="node8" class="node">
<title>Node8</title>
<g id="a_node8"><a xlink:href="../../d9/dc4/plugin_8h.html" target="_top" xlink:title=" ">
<polygon fill="none" stroke="black" points="240.5,-168.5 240.5,-187.5 307.5,-187.5 307.5,-168.5 240.5,-168.5"/>
<text text-anchor="middle" x="274" y="-175.5" font-family="Helvetica,sans-Serif" font-size="10.00">src/plugin.h</text>
</a>
</g>
</g>
<!-- Node2&#45;&gt;Node8 -->
<g id="edge8" class="edge">
<title>Node2&#45;&gt;Node8</title>
<path fill="none" stroke="midnightblue" d="M224.14,-217C234.17,-207.43 248.07,-195.64 258.82,-187.75"/>
<polygon fill="midnightblue" stroke="midnightblue" points="221.66,-214.53 217.07,-224.08 226.61,-219.48 221.66,-214.53"/>
</g>
<!-- Node4 -->
<g id="node4" class="node">
<title>Node4</title>
<g id="a_node4"><a xlink:href="../../d6/d91/boyer__moore_8c.html" target="_top" xlink:title=" ">
<polygon fill="none" stroke="black" points="0,-112.5 0,-131.5 98,-131.5 98,-112.5 0,-112.5"/>
<text text-anchor="middle" x="49" y="-119.5" font-family="Helvetica,sans-Serif" font-size="10.00">src/boyer_moore.c</text>
</a>
</g>
</g>
<!-- Node3&#45;&gt;Node4 -->
<g id="edge3" class="edge">
<title>Node3&#45;&gt;Node4</title>
<path fill="none" stroke="midnightblue" d="M56.8,-158.1C54.81,-149.14 52.52,-138.86 50.94,-131.75"/>
<polygon fill="midnightblue" stroke="midnightblue" points="53.43,-159.08 59.02,-168.08 60.27,-157.56 53.43,-159.08"/>
</g>
<!-- Node5 -->
<g id="node5" class="node">
<title>Node5</title>
<g id="a_node5"><a xlink:href="../../dc/df8/internal_8c.html" target="_top" xlink:title=" ">
<polygon fill="none" stroke="black" points="110.5,-56.5 110.5,-75.5 183.5,-75.5 183.5,-56.5 110.5,-56.5"/>
<text text-anchor="middle" x="147" y="-63.5" font-family="Helvetica,sans-Serif" font-size="10.00">src/internal.c</text>
</a>
</g>
</g>
<!-- Node4&#45;&gt;Node5 -->
<g id="edge4" class="edge">
<title>Node4&#45;&gt;Node5</title>
<path fill="none" stroke="midnightblue" d="M73.59,-107.45C91.68,-97.48 115.73,-84.23 131.29,-75.65"/>
<polygon fill="midnightblue" stroke="midnightblue" points="71.81,-104.43 64.75,-112.32 75.19,-110.56 71.81,-104.43"/>
</g>
<!-- Node5&#45;&gt;Node6 -->
<g id="edge5" class="edge">
<title>Node5&#45;&gt;Node6</title>
<path fill="none" stroke="midnightblue" d="M157.5,-47.27C162.97,-38.05 169.42,-27.17 173.81,-19.75"/>
<polygon fill="midnightblue" stroke="midnightblue" points="154.37,-45.7 152.28,-56.08 160.39,-49.26 154.37,-45.7"/>
</g>
<!-- Node7&#45;&gt;Node5 -->
<g id="edge7" class="edge">
<title>Node7&#45;&gt;Node5</title>
<path fill="none" stroke="midnightblue" d="M148.93,-101.8C148.44,-92.91 147.88,-82.78 147.49,-75.75"/>
<polygon fill="midnightblue" stroke="midnightblue" points="145.46,-102.29 149.5,-112.08 152.44,-101.9 145.46,-102.29"/>
</g>
<!-- Node8&#45;&gt;Node2 -->
<g id="edge9" class="edge">
<title>Node8&#45;&gt;Node2</title>
<path fill="none" stroke="midnightblue" d="M261.92,-194.94C251.86,-204.55 237.86,-216.42 227.08,-224.32"/>
<polygon fill="midnightblue" stroke="midnightblue" points="264.42,-197.39 269.01,-187.83 259.47,-192.44 264.42,-197.39"/>
</g>
</g>
</svg>
