<?xml version="1.0" encoding="UTF-8" standalone="no"?>
<!DOCTYPE svg PUBLIC "-//W3C//DTD SVG 1.1//EN"
 "http://www.w3.org/Graphics/SVG/1.1/DTD/svg11.dtd">
<!-- Generated by graphviz version 3.0.0 (20220226.1711)
 -->
<!-- Title: yed_state_t Pages: 1 -->
<svg width="1332pt" height="646pt"
 viewBox="0.00 0.00 1332.00 646.00" xmlns="http://www.w3.org/2000/svg" xmlns:xlink="http://www.w3.org/1999/xlink">
<g id="graph0" class="graph" transform="scale(1 1) rotate(0) translate(4 642)">
<title>yed_state_t</title>
<!-- Node1 -->
<g id="node1" class="node">
<title>Node1</title>
<g id="a_node1"><a xlink:title=" ">
<polygon fill="#bfbfbf" stroke="black" points="1112,-184.5 1112,-203.5 1180,-203.5 1180,-184.5 1112,-184.5"/>
<text text-anchor="middle" x="1146" y="-191.5" font-family="Helvetica,sans-Serif" font-size="10.00">yed_state_t</text>
</a>
</g>
</g>
<!-- Node2 -->
<g id="node2" class="node">
<title>Node2</title>
<g id="a_node2"><a xlink:href="../../d7/d9e/structyed__lib.html" target="_top" xlink:title=" ">
<polygon fill="none" stroke="black" points="1277,-184.5 1277,-203.5 1324,-203.5 1324,-184.5 1277,-184.5"/>
<text text-anchor="middle" x="1300.5" y="-191.5" font-family="Helvetica,sans-Serif" font-size="10.00">yed_lib</text>
</a>
</g>
</g>
<!-- Node1&#45;&gt;Node2 -->
<g id="edge2" class="edge">
<title>Node1&#45;&gt;Node2</title>
<path fill="none" stroke="#9a32cd" stroke-dasharray="5,2" d="M1190.11,-194C1218.32,-194 1254.05,-194 1276.85,-194"/>
<polygon fill="#9a32cd" stroke="#9a32cd" points="1190.09,-190.5 1180.09,-194 1190.09,-197.5 1190.09,-190.5"/>
<text text-anchor="middle" x="1234.5" y="-208" font-family="Helvetica,sans-Serif" font-size="10.00"> _get_state</text>
<text text-anchor="middle" x="1234.5" y="-197" font-family="Helvetica,sans-Serif" font-size="10.00">_init</text>
</g>
<!-- Node2&#45;&gt;Node1 -->
<g id="edge1" class="edge">
<title>Node2&#45;&gt;Node1</title>
<path fill="none" stroke="#9a32cd" stroke-dasharray="5,2" d="M1270.23,-180.96C1266.51,-179.75 1262.71,-178.71 1259,-178 1231.21,-172.71 1199.25,-178.43 1176.6,-184.45"/>
<polygon fill="#9a32cd" stroke="#9a32cd" points="1269.16,-184.3 1279.76,-184.48 1271.59,-177.73 1269.16,-184.3"/>
<text text-anchor="middle" x="1234.5" y="-181" font-family="Helvetica,sans-Serif" font-size="10.00"> yed_lib</text>
</g>
<!-- Node3 -->
<g id="node3" class="node">
<title>Node3</title>
<g id="a_node3"><a xlink:href="../../d1/d16/structarray__t.html" target="_top" xlink:title=" ">
<polygon fill="none" stroke="black" points="0,-389.5 0,-408.5 47,-408.5 47,-389.5 0,-389.5"/>
<text text-anchor="middle" x="23.5" y="-396.5" font-family="Helvetica,sans-Serif" font-size="10.00">array_t</text>
</a>
</g>
</g>
<!-- Node3&#45;&gt;Node1 -->
<g id="edge3" class="edge">
<title>Node3&#45;&gt;Node1</title>
<path fill="none" stroke="#9a32cd" stroke-dasharray="5,2" d="M46.79,-383.68C110.9,-340.65 302.77,-219.17 483,-178 544.43,-163.97 986.21,-185.71 1111.79,-192.24"/>
<polygon fill="#9a32cd" stroke="#9a32cd" points="44.59,-380.94 38.27,-389.44 48.52,-386.73 44.59,-380.94"/>
<text text-anchor="middle" x="531.5" y="-291" font-family="Helvetica,sans-Serif" font-size="10.00"> bracketed_paste_buff</text>
<text text-anchor="middle" x="531.5" y="-280" font-family="Helvetica,sans-Serif" font-size="10.00">cmd_buff</text>
<text text-anchor="middle" x="531.5" y="-269" font-family="Helvetica,sans-Serif" font-size="10.00">cmd_prompt_hist</text>
<text text-anchor="middle" x="531.5" y="-258" font-family="Helvetica,sans-Serif" font-size="10.00">direct_draws</text>
<text text-anchor="middle" x="531.5" y="-247" font-family="Helvetica,sans-Serif" font-size="10.00">event_handlers</text>
<text text-anchor="middle" x="531.5" y="-236" font-family="Helvetica,sans-Serif" font-size="10.00">frame_trees</text>
<text text-anchor="middle" x="531.5" y="-225" font-family="Helvetica,sans-Serif" font-size="10.00">frames</text>
<text text-anchor="middle" x="531.5" y="-214" font-family="Helvetica,sans-Serif" font-size="10.00">ft_array</text>
<text text-anchor="middle" x="531.5" y="-203" font-family="Helvetica,sans-Serif" font-size="10.00">key_sequences</text>
<text text-anchor="middle" x="531.5" y="-192" font-family="Helvetica,sans-Serif" font-size="10.00">log_name_stack</text>
<text text-anchor="middle" x="531.5" y="-181" font-family="Helvetica,sans-Serif" font-size="10.00">...</text>
</g>
<!-- Node4 -->
<g id="node4" class="node">
<title>Node4</title>
<g id="a_node4"><a xlink:href="../../d3/d59/structyed__frame__t.html" target="_top" xlink:title=" ">
<polygon fill="none" stroke="black" points="885.5,-484.5 885.5,-503.5 956.5,-503.5 956.5,-484.5 885.5,-484.5"/>
<text text-anchor="middle" x="921" y="-491.5" font-family="Helvetica,sans-Serif" font-size="10.00">yed_frame_t</text>
</a>
</g>
</g>
<!-- Node3&#45;&gt;Node4 -->
<g id="edge19" class="edge">
<title>Node3&#45;&gt;Node4</title>
<path fill="none" stroke="#9a32cd" stroke-dasharray="5,2" d="M28.11,-418.54C38.86,-469.93 75.66,-605 165.5,-605 165.5,-605 165.5,-605 647.5,-605 754.52,-605 868.87,-530.66 906.89,-503.66"/>
<polygon fill="#9a32cd" stroke="#9a32cd" points="31.53,-417.79 26.16,-408.66 24.67,-419.15 31.53,-417.79"/>
<text text-anchor="middle" x="418.5" y="-630" font-family="Helvetica,sans-Serif" font-size="10.00"> gutter_attrs</text>
<text text-anchor="middle" x="418.5" y="-619" font-family="Helvetica,sans-Serif" font-size="10.00">gutter_glyphs</text>
<text text-anchor="middle" x="418.5" y="-608" font-family="Helvetica,sans-Serif" font-size="10.00">line_attrs</text>
</g>
<!-- Node7 -->
<g id="node7" class="node">
<title>Node7</title>
<g id="a_node7"><a xlink:href="../../dc/d81/structbucket__array__t.html" target="_top" xlink:title=" ">
<polygon fill="none" stroke="black" points="251.5,-451.5 251.5,-470.5 332.5,-470.5 332.5,-451.5 251.5,-451.5"/>
<text text-anchor="middle" x="292" y="-458.5" font-family="Helvetica,sans-Serif" font-size="10.00">bucket_array_t</text>
</a>
</g>
</g>
<!-- Node3&#45;&gt;Node7 -->
<g id="edge10" class="edge">
<title>Node3&#45;&gt;Node7</title>
<path fill="none" stroke="#9a32cd" stroke-dasharray="5,2" d="M56.53,-411.36C59.38,-412.31 62.23,-413.2 65,-414 129.32,-432.49 205.9,-446.86 251.37,-454.61"/>
<polygon fill="#9a32cd" stroke="#9a32cd" points="57.6,-408.03 47.01,-408.02 55.28,-414.63 57.6,-408.03"/>
<text text-anchor="middle" x="84" y="-426" font-family="Helvetica,sans-Serif" font-size="10.00"> buckets</text>
</g>
<!-- Node8 -->
<g id="node8" class="node">
<title>Node8</title>
<g id="a_node8"><a xlink:href="../../d6/df3/structyed__line__t.html" target="_top" xlink:title=" ">
<polygon fill="none" stroke="black" points="136,-389.5 136,-408.5 197,-408.5 197,-389.5 136,-389.5"/>
<text text-anchor="middle" x="166.5" y="-396.5" font-family="Helvetica,sans-Serif" font-size="10.00">yed_line_t</text>
</a>
</g>
</g>
<!-- Node3&#45;&gt;Node8 -->
<g id="edge12" class="edge">
<title>Node3&#45;&gt;Node8</title>
<path fill="none" stroke="#9a32cd" stroke-dasharray="5,2" d="M57.42,-399C81.13,-399 112.85,-399 135.78,-399"/>
<polygon fill="#9a32cd" stroke="#9a32cd" points="57.15,-395.5 47.15,-399 57.15,-402.5 57.15,-395.5"/>
<text text-anchor="middle" x="84" y="-402" font-family="Helvetica,sans-Serif" font-size="10.00"> chars</text>
</g>
<!-- Node10 -->
<g id="node10" class="node">
<title>Node10</title>
<g id="a_node10"><a xlink:href="../../d3/d53/structyed__undo__history.html" target="_top" xlink:title=" ">
<polygon fill="none" stroke="black" points="372,-511.5 372,-530.5 465,-530.5 465,-511.5 372,-511.5"/>
<text text-anchor="middle" x="418.5" y="-518.5" font-family="Helvetica,sans-Serif" font-size="10.00">yed_undo_history</text>
</a>
</g>
</g>
<!-- Node3&#45;&gt;Node10 -->
<g id="edge15" class="edge">
<title>Node3&#45;&gt;Node10</title>
<path fill="none" stroke="#9a32cd" stroke-dasharray="5,2" d="M28.95,-418.41C34.29,-437.25 45.13,-465.26 65,-481 154.31,-551.76 298.62,-541.14 371.81,-529.81"/>
<polygon fill="#9a32cd" stroke="#9a32cd" points="32.29,-417.35 26.41,-408.53 25.51,-419.09 32.29,-417.35"/>
<text text-anchor="middle" x="166.5" y="-548" font-family="Helvetica,sans-Serif" font-size="10.00"> redo</text>
<text text-anchor="middle" x="166.5" y="-537" font-family="Helvetica,sans-Serif" font-size="10.00">undo</text>
</g>
<!-- Node11 -->
<g id="node11" class="node">
<title>Node11</title>
<g id="a_node11"><a xlink:href="../../dc/dde/structyed__undo__record.html" target="_top" xlink:title=" ">
<polygon fill="none" stroke="black" points="121,-465.5 121,-484.5 212,-484.5 212,-465.5 121,-465.5"/>
<text text-anchor="middle" x="166.5" y="-472.5" font-family="Helvetica,sans-Serif" font-size="10.00">yed_undo_record</text>
</a>
</g>
</g>
<!-- Node3&#45;&gt;Node11 -->
<g id="edge17" class="edge">
<title>Node3&#45;&gt;Node11</title>
<path fill="none" stroke="#9a32cd" stroke-dasharray="5,2" d="M34.48,-417.43C41.55,-428.77 52.07,-442.68 65,-451 81.59,-461.68 102.48,-467.61 120.91,-470.9"/>
<polygon fill="#9a32cd" stroke="#9a32cd" points="37.44,-415.55 29.37,-408.68 31.4,-419.08 37.44,-415.55"/>
<text text-anchor="middle" x="84" y="-469" font-family="Helvetica,sans-Serif" font-size="10.00"> actions</text>
</g>
<!-- Node13 -->
<g id="node13" class="node">
<title>Node13</title>
<g id="a_node13"><a xlink:href="../../df/d9c/structyed__cmd__line__readline__t.html" target="_top" xlink:title=" ">
<polygon fill="none" stroke="black" points="230,-85.5 230,-104.5 354,-104.5 354,-85.5 230,-85.5"/>
<text text-anchor="middle" x="292" y="-92.5" font-family="Helvetica,sans-Serif" font-size="10.00">yed_cmd_line_readline_t</text>
</a>
</g>
</g>
<!-- Node3&#45;&gt;Node13 -->
<g id="edge21" class="edge">
<title>Node3&#45;&gt;Node13</title>
<path fill="none" stroke="#9a32cd" stroke-dasharray="5,2" d="M24.3,-379.14C24.15,-320.84 27.08,-152.09 65,-116 114.52,-68.87 200.73,-75.98 251.14,-85.45"/>
<polygon fill="#9a32cd" stroke="#9a32cd" points="20.8,-379.27 24.36,-389.25 27.8,-379.23 20.8,-379.27"/>
<text text-anchor="middle" x="84" y="-119" font-family="Helvetica,sans-Serif" font-size="10.00"> hist</text>
</g>
<!-- Node14 -->
<g id="node14" class="node">
<title>Node14</title>
<g id="a_node14"><a xlink:href="../../d5/dce/structyed__completion__results__t.html" target="_top" xlink:title=" ">
<polygon fill="none" stroke="black" points="713,-42.5 713,-61.5 841,-61.5 841,-42.5 713,-42.5"/>
<text text-anchor="middle" x="777" y="-49.5" font-family="Helvetica,sans-Serif" font-size="10.00">yed_completion_results_t</text>
</a>
</g>
</g>
<!-- Node3&#45;&gt;Node14 -->
<g id="edge23" class="edge">
<title>Node3&#45;&gt;Node14</title>
<path fill="none" stroke="#9a32cd" stroke-dasharray="5,2" d="M24.55,-378.97C25.07,-317.75 29.63,-134.48 65,-89 94.51,-51.05 117.43,-49 165.5,-49 165.5,-49 165.5,-49 532.5,-49 593.8,-49 663.78,-49.96 712.94,-50.8"/>
<polygon fill="#9a32cd" stroke="#9a32cd" points="21.04,-379.2 24.49,-389.22 28.04,-379.24 21.04,-379.2"/>
<text text-anchor="middle" x="292" y="-52" font-family="Helvetica,sans-Serif" font-size="10.00"> strings</text>
</g>
<!-- Node18 -->
<g id="node18" class="node">
<title>Node18</title>
<g id="a_node18"><a xlink:href="../../d5/d88/structoptions__t.html" target="_top" xlink:title=" ">
<polygon fill="none" stroke="black" points="503.5,-134.5 503.5,-153.5 559.5,-153.5 559.5,-134.5 503.5,-134.5"/>
<text text-anchor="middle" x="531.5" y="-141.5" font-family="Helvetica,sans-Serif" font-size="10.00">options_t</text>
</a>
</g>
</g>
<!-- Node3&#45;&gt;Node18 -->
<g id="edge28" class="edge">
<title>Node3&#45;&gt;Node18</title>
<path fill="none" stroke="#9a32cd" stroke-dasharray="5,2" d="M25.15,-379.23C27.23,-328.63 35.43,-196.22 65,-166 125.89,-103.76 413.49,-130.63 503.5,-140.76"/>
<polygon fill="#9a32cd" stroke="#9a32cd" points="21.64,-379.36 24.77,-389.49 28.64,-379.62 21.64,-379.36"/>
<text text-anchor="middle" x="166.5" y="-143" font-family="Helvetica,sans-Serif" font-size="10.00"> files</text>
</g>
<!-- Node4&#45;&gt;Node1 -->
<g id="edge4" class="edge">
<title>Node4&#45;&gt;Node1</title>
<path fill="none" stroke="#9a32cd" stroke-dasharray="5,2" d="M955.97,-480.66C1001.61,-462.6 1077.58,-432.05 1082,-427 1141.9,-358.59 1145.52,-238.74 1145.23,-203.81"/>
<polygon fill="#9a32cd" stroke="#9a32cd" points="954.46,-477.49 946.45,-484.42 957.03,-484 954.46,-477.49"/>
<text text-anchor="middle" x="1041.5" y="-475" font-family="Helvetica,sans-Serif" font-size="10.00"> active_frame</text>
<text text-anchor="middle" x="1041.5" y="-464" font-family="Helvetica,sans-Serif" font-size="10.00">prev_active_frame</text>
</g>
<!-- Node5 -->
<g id="node5" class="node">
<title>Node5</title>
<g id="a_node5"><a xlink:href="../../db/d0f/structyed__frame__tree__t.html" target="_top" xlink:title=" ">
<polygon fill="none" stroke="black" points="1100,-501.5 1100,-520.5 1192,-520.5 1192,-501.5 1100,-501.5"/>
<text text-anchor="middle" x="1146" y="-508.5" font-family="Helvetica,sans-Serif" font-size="10.00">yed_frame_tree_t</text>
</a>
</g>
</g>
<!-- Node4&#45;&gt;Node5 -->
<g id="edge7" class="edge">
<title>Node4&#45;&gt;Node5</title>
<path fill="none" stroke="#9a32cd" stroke-dasharray="5,2" d="M966.53,-501.69C977.75,-503.37 989.79,-504.96 1001,-506 1034,-509.07 1071.42,-510.3 1099.84,-510.77"/>
<polygon fill="#9a32cd" stroke="#9a32cd" points="966.92,-498.21 956.5,-500.13 965.85,-505.12 966.92,-498.21"/>
<text text-anchor="middle" x="1041.5" y="-513" font-family="Helvetica,sans-Serif" font-size="10.00"> frame</text>
</g>
<!-- Node5&#45;&gt;Node4 -->
<g id="edge5" class="edge">
<title>Node5&#45;&gt;Node4</title>
<path fill="none" stroke="#9a32cd" stroke-dasharray="5,2" d="M1103.42,-498.93C1096.33,-497.31 1088.99,-495.9 1082,-495 1039.16,-489.51 989.33,-490.32 956.81,-491.8"/>
<polygon fill="#9a32cd" stroke="#9a32cd" points="1103.02,-502.44 1113.56,-501.42 1104.69,-495.64 1103.02,-502.44"/>
<text text-anchor="middle" x="1041.5" y="-498" font-family="Helvetica,sans-Serif" font-size="10.00"> tree</text>
</g>
<!-- Node5&#45;&gt;Node5 -->
<g id="edge6" class="edge">
<title>Node5&#45;&gt;Node5</title>
<path fill="none" stroke="#9a32cd" stroke-dasharray="5,2" d="M1129.7,-530.4C1130.79,-535.31 1136.22,-539 1146,-539 1161.64,-539 1166.16,-529.57 1159.56,-520.76"/>
<polygon fill="#9a32cd" stroke="#9a32cd" points="1133.08,-531.33 1132.44,-520.76 1126.34,-529.42 1133.08,-531.33"/>
<text text-anchor="middle" x="1146" y="-553" font-family="Helvetica,sans-Serif" font-size="10.00"> child_trees</text>
<text text-anchor="middle" x="1146" y="-542" font-family="Helvetica,sans-Serif" font-size="10.00">parent</text>
</g>
<!-- Node6 -->
<g id="node6" class="node">
<title>Node6</title>
<g id="a_node6"><a xlink:href="../../d5/d2d/structyed__buffer__t.html" target="_top" xlink:title=" ">
<polygon fill="none" stroke="black" points="611,-484.5 611,-503.5 682,-503.5 682,-484.5 611,-484.5"/>
<text text-anchor="middle" x="646.5" y="-491.5" font-family="Helvetica,sans-Serif" font-size="10.00">yed_buffer_t</text>
</a>
</g>
</g>
<!-- Node6&#45;&gt;Node4 -->
<g id="edge8" class="edge">
<title>Node6&#45;&gt;Node4</title>
<path fill="none" stroke="#9a32cd" stroke-dasharray="5,2" d="M692.33,-494C746.44,-494 836.25,-494 885.34,-494"/>
<polygon fill="#9a32cd" stroke="#9a32cd" points="692.01,-490.5 682.01,-494 692.01,-497.5 692.01,-490.5"/>
<text text-anchor="middle" x="777" y="-497" font-family="Helvetica,sans-Serif" font-size="10.00"> buffer</text>
</g>
<!-- Node7&#45;&gt;Node6 -->
<g id="edge9" class="edge">
<title>Node7&#45;&gt;Node6</title>
<path fill="none" stroke="#9a32cd" stroke-dasharray="5,2" d="M343,-465.68C415.56,-472.47 548.17,-484.89 610.88,-490.76"/>
<polygon fill="#9a32cd" stroke="#9a32cd" points="343.03,-462.17 332.75,-464.72 342.38,-469.14 343.03,-462.17"/>
<text text-anchor="middle" x="418.5" y="-479" font-family="Helvetica,sans-Serif" font-size="10.00"> lines</text>
</g>
<!-- Node8&#45;&gt;Node6 -->
<g id="edge11" class="edge">
<title>Node8&#45;&gt;Node6</title>
<path fill="none" stroke="#9a32cd" stroke-dasharray="5,2" d="M207.25,-404.64C281.2,-415.48 444.67,-441.1 580,-474 592.13,-476.95 605.33,-480.84 616.68,-484.41"/>
<polygon fill="#9a32cd" stroke="#9a32cd" points="207.41,-401.13 197.01,-403.15 206.4,-408.05 207.41,-401.13"/>
<text text-anchor="middle" x="418.5" y="-451" font-family="Helvetica,sans-Serif" font-size="10.00"> get_line_cache</text>
</g>
<!-- Node9 -->
<g id="node9" class="node">
<title>Node9</title>
<g id="a_node9"><a xlink:href="../../d2/d1d/structyed__range.html" target="_top" xlink:title=" ">
<polygon fill="none" stroke="black" points="387.5,-549.5 387.5,-568.5 449.5,-568.5 449.5,-549.5 387.5,-549.5"/>
<text text-anchor="middle" x="418.5" y="-556.5" font-family="Helvetica,sans-Serif" font-size="10.00">yed_range</text>
</a>
</g>
</g>
<!-- Node9&#45;&gt;Node6 -->
<g id="edge13" class="edge">
<title>Node9&#45;&gt;Node6</title>
<path fill="none" stroke="#9a32cd" stroke-dasharray="5,2" d="M459.92,-554.47C492.9,-550 540.33,-541.8 580,-528 598.03,-521.73 617.26,-511.24 630.19,-503.57"/>
<polygon fill="#9a32cd" stroke="#9a32cd" points="459.22,-551.03 449.76,-555.79 460.12,-557.97 459.22,-551.03"/>
<text text-anchor="middle" x="531.5" y="-553" font-family="Helvetica,sans-Serif" font-size="10.00"> selection</text>
</g>
<!-- Node10&#45;&gt;Node6 -->
<g id="edge14" class="edge">
<title>Node10&#45;&gt;Node6</title>
<path fill="none" stroke="#9a32cd" stroke-dasharray="5,2" d="M475.42,-514.32C517.86,-509.25 574.87,-502.44 610.91,-498.13"/>
<polygon fill="#9a32cd" stroke="#9a32cd" points="474.75,-510.87 465.23,-515.54 475.58,-517.83 474.75,-510.87"/>
<text text-anchor="middle" x="531.5" y="-516" font-family="Helvetica,sans-Serif" font-size="10.00"> undo_history</text>
</g>
<!-- Node11&#45;&gt;Node10 -->
<g id="edge16" class="edge">
<title>Node11&#45;&gt;Node10</title>
<path fill="none" stroke="#9a32cd" stroke-dasharray="5,2" d="M222.38,-477.38C259.9,-479.93 310.5,-485.19 354,-496 368.95,-499.71 385.09,-506.1 397.36,-511.49"/>
<polygon fill="#9a32cd" stroke="#9a32cd" points="222.37,-473.88 212.17,-476.73 221.93,-480.86 222.37,-473.88"/>
<text text-anchor="middle" x="292" y="-499" font-family="Helvetica,sans-Serif" font-size="10.00"> current_record</text>
</g>
<!-- Node12 -->
<g id="node12" class="node">
<title>Node12</title>
<g id="a_node12"><a xlink:href="../../d6/df6/structyed__attrs.html" target="_top" xlink:title=" ">
<polygon fill="none" stroke="black" points="390,-379.5 390,-398.5 447,-398.5 447,-379.5 390,-379.5"/>
<text text-anchor="middle" x="418.5" y="-386.5" font-family="Helvetica,sans-Serif" font-size="10.00">yed_attrs</text>
</a>
</g>
</g>
<!-- Node12&#45;&gt;Node4 -->
<g id="edge18" class="edge">
<title>Node12&#45;&gt;Node4</title>
<path fill="none" stroke="#9a32cd" stroke-dasharray="5,2" d="M456.88,-400.84C465.42,-403.36 474.49,-405.89 483,-408 631.43,-444.72 811.3,-476.03 885.48,-488.37"/>
<polygon fill="#9a32cd" stroke="#9a32cd" points="457.74,-397.44 447.16,-397.91 455.72,-404.14 457.74,-397.44"/>
<text text-anchor="middle" x="646.5" y="-456" font-family="Helvetica,sans-Serif" font-size="10.00"> row_base_attrs</text>
</g>
<!-- Node19 -->
<g id="node19" class="node">
<title>Node19</title>
<g id="a_node19"><a xlink:href="../../d7/da8/structyed__screen.html" target="_top" xlink:title=" ">
<polygon fill="none" stroke="black" points="887.5,-378.5 887.5,-397.5 954.5,-397.5 954.5,-378.5 887.5,-378.5"/>
<text text-anchor="middle" x="921" y="-385.5" font-family="Helvetica,sans-Serif" font-size="10.00">yed_screen</text>
</a>
</g>
</g>
<!-- Node12&#45;&gt;Node19 -->
<g id="edge30" class="edge">
<title>Node12&#45;&gt;Node19</title>
<path fill="none" stroke="#9a32cd" stroke-dasharray="5,2" d="M457.3,-391.77C465.76,-392.28 474.68,-392.74 483,-393 642.03,-398 681.97,-398.03 841,-393 856.25,-392.52 873.12,-391.51 887.35,-390.53"/>
<polygon fill="#9a32cd" stroke="#9a32cd" points="457.5,-388.28 447.3,-391.13 457.06,-395.26 457.5,-388.28"/>
<text text-anchor="middle" x="646.5" y="-399" font-family="Helvetica,sans-Serif" font-size="10.00"> cur_attrs</text>
</g>
<!-- Node20 -->
<g id="node20" class="node">
<title>Node20</title>
<g id="a_node20"><a xlink:href="../../d9/dba/structyed__screen__cell.html" target="_top" xlink:title=" ">
<polygon fill="none" stroke="black" points="603,-351.5 603,-370.5 690,-370.5 690,-351.5 603,-351.5"/>
<text text-anchor="middle" x="646.5" y="-358.5" font-family="Helvetica,sans-Serif" font-size="10.00">yed_screen_cell</text>
</a>
</g>
</g>
<!-- Node12&#45;&gt;Node20 -->
<g id="edge32" class="edge">
<title>Node12&#45;&gt;Node20</title>
<path fill="none" stroke="#9a32cd" stroke-dasharray="5,2" d="M457.15,-384.34C497.34,-379.36 560.89,-371.48 602.89,-366.28"/>
<polygon fill="#9a32cd" stroke="#9a32cd" points="456.71,-380.86 447.21,-385.57 457.57,-387.81 456.71,-380.86"/>
<text text-anchor="middle" x="531.5" y="-383" font-family="Helvetica,sans-Serif" font-size="10.00"> attrs</text>
</g>
<!-- Node13&#45;&gt;Node1 -->
<g id="edge20" class="edge">
<title>Node13&#45;&gt;Node1</title>
<path fill="none" stroke="#9a32cd" stroke-dasharray="5,2" d="M364.13,-95C411.32,-95 474.61,-95 530.5,-95 530.5,-95 530.5,-95 922,-95 1009.26,-95 1100.48,-159.1 1132.79,-184.15"/>
<polygon fill="#9a32cd" stroke="#9a32cd" points="364.02,-91.5 354.02,-95 364.02,-98.5 364.02,-91.5"/>
<text text-anchor="middle" x="646.5" y="-120" font-family="Helvetica,sans-Serif" font-size="10.00"> cmd_prompt_readline</text>
<text text-anchor="middle" x="646.5" y="-109" font-family="Helvetica,sans-Serif" font-size="10.00">replace_readline</text>
<text text-anchor="middle" x="646.5" y="-98" font-family="Helvetica,sans-Serif" font-size="10.00">search_readline</text>
</g>
<!-- Node14&#45;&gt;Node1 -->
<g id="edge22" class="edge">
<title>Node14&#45;&gt;Node1</title>
<path fill="none" stroke="#9a32cd" stroke-dasharray="5,2" d="M844.74,-41.33C910.63,-34.46 1011.47,-34.14 1082,-81 1119.79,-106.11 1137.17,-161.95 1142.82,-184.39"/>
<polygon fill="#9a32cd" stroke="#9a32cd" points="844.03,-37.89 834.48,-42.49 844.81,-44.85 844.03,-37.89"/>
<text text-anchor="middle" x="921" y="-47" font-family="Helvetica,sans-Serif" font-size="10.00"> cmd_prompt_compl_results</text>
</g>
<!-- Node15 -->
<g id="node15" class="node">
<title>Node15</title>
<g id="a_node15"><a xlink:href="../../d1/d6b/structyed__key__binding__t.html" target="_top" xlink:title=" ">
<polygon fill="none" stroke="black" points="872,-0.5 872,-19.5 970,-19.5 970,-0.5 872,-0.5"/>
<text text-anchor="middle" x="921" y="-7.5" font-family="Helvetica,sans-Serif" font-size="10.00">yed_key_binding_t</text>
</a>
</g>
</g>
<!-- Node15&#45;&gt;Node1 -->
<g id="edge24" class="edge">
<title>Node15&#45;&gt;Node1</title>
<path fill="none" stroke="#9a32cd" stroke-dasharray="5,2" d="M980.33,-3.88C1013.38,-3.53 1053.66,-8.72 1082,-31 1132.33,-70.56 1142.49,-155.64 1144.51,-184.33"/>
<polygon fill="#9a32cd" stroke="#9a32cd" points="980.22,-0.38 970.32,-4.16 980.41,-7.38 980.22,-0.38"/>
<text text-anchor="middle" x="1041.5" y="-34" font-family="Helvetica,sans-Serif" font-size="10.00"> real_key_map</text>
</g>
<!-- Node16 -->
<g id="node16" class="node">
<title>Node16</title>
<g id="a_node16"><a xlink:href="../../d8/d31/unionyed__glyph.html" target="_top" xlink:title=" ">
<polygon fill="none" stroke="black" points="388,-321.5 388,-340.5 449,-340.5 449,-321.5 388,-321.5"/>
<text text-anchor="middle" x="418.5" y="-328.5" font-family="Helvetica,sans-Serif" font-size="10.00">yed_glyph</text>
</a>
</g>
</g>
<!-- Node16&#45;&gt;Node1 -->
<g id="edge25" class="edge">
<title>Node16&#45;&gt;Node1</title>
<path fill="none" stroke="#9a32cd" stroke-dasharray="5,2" d="M459.25,-324.12C562.32,-306.18 846.51,-256.01 1082,-208 1091.66,-206.03 1102.12,-203.76 1111.7,-201.63"/>
<polygon fill="#9a32cd" stroke="#9a32cd" points="458.54,-320.69 449.29,-325.85 459.74,-327.59 458.54,-320.69"/>
<text text-anchor="middle" x="777" y="-281" font-family="Helvetica,sans-Serif" font-size="10.00"> mbyte</text>
</g>
<!-- Node16&#45;&gt;Node20 -->
<g id="edge33" class="edge">
<title>Node16&#45;&gt;Node20</title>
<path fill="none" stroke="#9a32cd" stroke-dasharray="5,2" d="M459.03,-336.25C499.28,-341.59 561.48,-349.85 602.83,-355.34"/>
<polygon fill="#9a32cd" stroke="#9a32cd" points="459.42,-332.77 449.05,-334.92 458.5,-339.71 459.42,-332.77"/>
<text text-anchor="middle" x="531.5" y="-355" font-family="Helvetica,sans-Serif" font-size="10.00"> glyph</text>
</g>
<!-- Node17 -->
<g id="node17" class="node">
<title>Node17</title>
<g id="a_node17"><a xlink:href="../../de/d13/structyed__style__t.html" target="_top" xlink:title=" ">
<polygon fill="none" stroke="black" points="887.5,-340.5 887.5,-359.5 954.5,-359.5 954.5,-340.5 887.5,-340.5"/>
<text text-anchor="middle" x="921" y="-347.5" font-family="Helvetica,sans-Serif" font-size="10.00">yed_style_t</text>
</a>
</g>
</g>
<!-- Node17&#45;&gt;Node1 -->
<g id="edge26" class="edge">
<title>Node17&#45;&gt;Node1</title>
<path fill="none" stroke="#9a32cd" stroke-dasharray="5,2" d="M964.69,-348.07C1005.66,-345.43 1063.89,-339.4 1082,-326 1124.04,-294.88 1139.22,-228.37 1143.54,-203.58"/>
<polygon fill="#9a32cd" stroke="#9a32cd" points="964.46,-344.57 954.69,-348.67 964.88,-351.56 964.46,-344.57"/>
<text text-anchor="middle" x="1041.5" y="-347" font-family="Helvetica,sans-Serif" font-size="10.00"> active_style</text>
</g>
<!-- Node18&#45;&gt;Node1 -->
<g id="edge27" class="edge">
<title>Node18&#45;&gt;Node1</title>
<path fill="none" stroke="#9a32cd" stroke-dasharray="5,2" d="M569.65,-144.47C658.58,-146.03 890.56,-152.62 1082,-180 1091.76,-181.4 1102.25,-183.49 1111.83,-185.63"/>
<polygon fill="#9a32cd" stroke="#9a32cd" points="569.58,-140.97 559.53,-144.31 569.47,-147.97 569.58,-140.97"/>
<text text-anchor="middle" x="777" y="-159" font-family="Helvetica,sans-Serif" font-size="10.00"> options</text>
</g>
<!-- Node19&#45;&gt;Node1 -->
<g id="edge29" class="edge">
<title>Node19&#45;&gt;Node1</title>
<path fill="none" stroke="#9a32cd" stroke-dasharray="5,2" d="M964.63,-384.97C1005.83,-381.23 1064.53,-373.5 1082,-359 1131.79,-317.68 1142.3,-232.38 1144.46,-203.67"/>
<polygon fill="#9a32cd" stroke="#9a32cd" points="964.22,-381.49 954.56,-385.84 964.82,-388.47 964.22,-381.49"/>
<text text-anchor="middle" x="1041.5" y="-416" font-family="Helvetica,sans-Serif" font-size="10.00"> screen1</text>
<text text-anchor="middle" x="1041.5" y="-405" font-family="Helvetica,sans-Serif" font-size="10.00">screen2</text>
<text text-anchor="middle" x="1041.5" y="-394" font-family="Helvetica,sans-Serif" font-size="10.00">screen_render</text>
<text text-anchor="middle" x="1041.5" y="-383" font-family="Helvetica,sans-Serif" font-size="10.00">screen_update</text>
</g>
<!-- Node20&#45;&gt;Node19 -->
<g id="edge31" class="edge">
<title>Node20&#45;&gt;Node19</title>
<path fill="none" stroke="#9a32cd" stroke-dasharray="5,2" d="M700.04,-366.21C755.34,-371.68 840.68,-380.14 887.13,-384.74"/>
<polygon fill="#9a32cd" stroke="#9a32cd" points="700.37,-362.72 690.08,-365.22 699.68,-369.69 700.37,-362.72"/>
<text text-anchor="middle" x="777" y="-383" font-family="Helvetica,sans-Serif" font-size="10.00"> cells</text>
</g>
</g>
</svg>
