<?xml version="1.0" encoding="UTF-8" standalone="no"?>
<!DOCTYPE svg PUBLIC "-//W3C//DTD SVG 1.1//EN"
 "http://www.w3.org/Graphics/SVG/1.1/DTD/svg11.dtd">
<!-- Generated by graphviz version 3.0.0 (20220226.1711)
 -->
<!-- Title: yed_buffer_t Pages: 1 -->
<svg width="380pt" height="240pt"
 viewBox="0.00 0.00 379.50 240.00" xmlns="http://www.w3.org/2000/svg" xmlns:xlink="http://www.w3.org/1999/xlink">
<g id="graph0" class="graph" transform="scale(1 1) rotate(0) translate(4 236)">
<title>yed_buffer_t</title>
<!-- Node1 -->
<g id="node1" class="node">
<title>Node1</title>
<g id="a_node1"><a xlink:title=" ">
<polygon fill="#bfbfbf" stroke="black" points="117,-0.5 117,-19.5 188,-19.5 188,-0.5 117,-0.5"/>
<text text-anchor="middle" x="152.5" y="-7.5" font-family="Helvetica,sans-Serif" font-size="10.00">yed_buffer_t</text>
</a>
</g>
</g>
<!-- Node2 -->
<g id="node2" class="node">
<title>Node2</title>
<g id="a_node2"><a xlink:href="../../dc/d81/structbucket__array__t.html" target="_top" xlink:title=" ">
<polygon fill="none" stroke="black" points="0,-105.5 0,-124.5 81,-124.5 81,-105.5 0,-105.5"/>
<text text-anchor="middle" x="40.5" y="-112.5" font-family="Helvetica,sans-Serif" font-size="10.00">bucket_array_t</text>
</a>
</g>
</g>
<!-- Node2&#45;&gt;Node1 -->
<g id="edge1" class="edge">
<title>Node2&#45;&gt;Node1</title>
<path fill="none" stroke="#9a32cd" stroke-dasharray="5,2" d="M56.54,-97.86C65.76,-88.68 77.64,-77.05 88.5,-67 107.14,-49.75 129.62,-30.4 142.37,-19.56"/>
<polygon fill="#9a32cd" stroke="#9a32cd" points="53.8,-95.64 49.2,-105.19 58.75,-100.59 53.8,-95.64"/>
<text text-anchor="middle" x="100.5" y="-74.5" font-family="Helvetica,sans-Serif" font-size="10.00"> lines</text>
</g>
<!-- Node3 -->
<g id="node3" class="node">
<title>Node3</title>
<g id="a_node3"><a xlink:href="../../d1/d16/structarray__t.html" target="_top" xlink:title=" ">
<polygon fill="none" stroke="black" points="116,-212.5 116,-231.5 163,-231.5 163,-212.5 116,-212.5"/>
<text text-anchor="middle" x="139.5" y="-219.5" font-family="Helvetica,sans-Serif" font-size="10.00">array_t</text>
</a>
</g>
</g>
<!-- Node3&#45;&gt;Node2 -->
<g id="edge2" class="edge">
<title>Node3&#45;&gt;Node2</title>
<path fill="none" stroke="#9a32cd" stroke-dasharray="5,2" d="M106.43,-212.04C95.88,-207.9 84.79,-202.07 76.5,-194 56.08,-174.14 46.09,-140.49 42.34,-124.69"/>
<polygon fill="#9a32cd" stroke="#9a32cd" points="105.29,-215.34 115.88,-215.37 107.62,-208.74 105.29,-215.34"/>
<text text-anchor="middle" x="95.5" y="-186" font-family="Helvetica,sans-Serif" font-size="10.00"> buckets</text>
</g>
<!-- Node4 -->
<g id="node4" class="node">
<title>Node4</title>
<g id="a_node4"><a xlink:href="../../d6/df3/structyed__line__t.html" target="_top" xlink:title=" ">
<polygon fill="none" stroke="black" points="86,-105.5 86,-124.5 147,-124.5 147,-105.5 86,-105.5"/>
<text text-anchor="middle" x="116.5" y="-112.5" font-family="Helvetica,sans-Serif" font-size="10.00">yed_line_t</text>
</a>
</g>
</g>
<!-- Node3&#45;&gt;Node4 -->
<g id="edge4" class="edge">
<title>Node3&#45;&gt;Node4</title>
<path fill="none" stroke="#9a32cd" stroke-dasharray="5,2" d="M125.48,-204.06C123.48,-200.88 121.7,-197.46 120.5,-194 112.27,-170.16 113.89,-139.79 115.39,-124.96"/>
<polygon fill="#9a32cd" stroke="#9a32cd" points="122.7,-206.19 131.4,-212.23 128.37,-202.08 122.7,-206.19"/>
<text text-anchor="middle" x="134.5" y="-186" font-family="Helvetica,sans-Serif" font-size="10.00"> chars</text>
</g>
<!-- Node6 -->
<g id="node6" class="node">
<title>Node6</title>
<g id="a_node6"><a xlink:href="../../d3/d53/structyed__undo__history.html" target="_top" xlink:title=" ">
<polygon fill="none" stroke="black" points="198,-67.5 198,-86.5 291,-86.5 291,-67.5 198,-67.5"/>
<text text-anchor="middle" x="244.5" y="-74.5" font-family="Helvetica,sans-Serif" font-size="10.00">yed_undo_history</text>
</a>
</g>
</g>
<!-- Node3&#45;&gt;Node6 -->
<g id="edge7" class="edge">
<title>Node3&#45;&gt;Node6</title>
<path fill="none" stroke="#9a32cd" stroke-dasharray="5,2" d="M145.85,-202.88C152.97,-183.12 164.44,-152.97 171.5,-143 188.47,-119.04 215.84,-97.78 231.81,-86.51"/>
<polygon fill="#9a32cd" stroke="#9a32cd" points="142.54,-201.76 142.49,-212.36 149.13,-204.1 142.54,-201.76"/>
<text text-anchor="middle" x="182.5" y="-157" font-family="Helvetica,sans-Serif" font-size="10.00"> redo</text>
<text text-anchor="middle" x="182.5" y="-146" font-family="Helvetica,sans-Serif" font-size="10.00">undo</text>
</g>
<!-- Node7 -->
<g id="node7" class="node">
<title>Node7</title>
<g id="a_node7"><a xlink:href="../../dc/dde/structyed__undo__record.html" target="_top" xlink:title=" ">
<polygon fill="none" stroke="black" points="203,-144.5 203,-163.5 294,-163.5 294,-144.5 203,-144.5"/>
<text text-anchor="middle" x="248.5" y="-151.5" font-family="Helvetica,sans-Serif" font-size="10.00">yed_undo_record</text>
</a>
</g>
</g>
<!-- Node3&#45;&gt;Node7 -->
<g id="edge9" class="edge">
<title>Node3&#45;&gt;Node7</title>
<path fill="none" stroke="#9a32cd" stroke-dasharray="5,2" d="M162.35,-207.16C184.04,-194.03 215.97,-174.7 234.25,-163.63"/>
<polygon fill="#9a32cd" stroke="#9a32cd" points="160.49,-204.2 153.75,-212.37 164.12,-210.19 160.49,-204.2"/>
<text text-anchor="middle" x="218" y="-186" font-family="Helvetica,sans-Serif" font-size="10.00"> actions</text>
</g>
<!-- Node4&#45;&gt;Node1 -->
<g id="edge3" class="edge">
<title>Node4&#45;&gt;Node1</title>
<path fill="none" stroke="#9a32cd" stroke-dasharray="5,2" d="M115.71,-95.21C115.85,-86.46 116.73,-76.02 119.5,-67 125.13,-48.66 137.84,-29.98 145.74,-19.5"/>
<polygon fill="#9a32cd" stroke="#9a32cd" points="112.22,-95.52 115.87,-105.47 119.22,-95.41 112.22,-95.52"/>
<text text-anchor="middle" x="154" y="-74.5" font-family="Helvetica,sans-Serif" font-size="10.00"> get_line_cache</text>
</g>
<!-- Node5 -->
<g id="node5" class="node">
<title>Node5</title>
<g id="a_node5"><a xlink:href="../../d2/d1d/structyed__range.html" target="_top" xlink:title=" ">
<polygon fill="none" stroke="black" points="309.5,-67.5 309.5,-86.5 371.5,-86.5 371.5,-67.5 309.5,-67.5"/>
<text text-anchor="middle" x="340.5" y="-74.5" font-family="Helvetica,sans-Serif" font-size="10.00">yed_range</text>
</a>
</g>
</g>
<!-- Node5&#45;&gt;Node1 -->
<g id="edge5" class="edge">
<title>Node5&#45;&gt;Node1</title>
<path fill="none" stroke="#9a32cd" stroke-dasharray="5,2" d="M317.17,-62.17C302.92,-54.2 284.11,-44.5 266.5,-38 240.93,-28.57 210.89,-21.61 188.07,-17.12"/>
<polygon fill="#9a32cd" stroke="#9a32cd" points="315.81,-65.43 326.23,-67.35 319.29,-59.35 315.81,-65.43"/>
<text text-anchor="middle" x="313" y="-41" font-family="Helvetica,sans-Serif" font-size="10.00"> selection</text>
</g>
<!-- Node6&#45;&gt;Node1 -->
<g id="edge6" class="edge">
<title>Node6&#45;&gt;Node1</title>
<path fill="none" stroke="#9a32cd" stroke-dasharray="5,2" d="M223.86,-61.42C205.68,-48.57 179.79,-30.28 164.71,-19.63"/>
<polygon fill="#9a32cd" stroke="#9a32cd" points="221.91,-64.32 232.09,-67.23 225.94,-58.6 221.91,-64.32"/>
<text text-anchor="middle" x="233" y="-41" font-family="Helvetica,sans-Serif" font-size="10.00"> undo_history</text>
</g>
<!-- Node7&#45;&gt;Node6 -->
<g id="edge8" class="edge">
<title>Node7&#45;&gt;Node6</title>
<path fill="none" stroke="#9a32cd" stroke-dasharray="5,2" d="M247.49,-134.02C246.67,-118.74 245.57,-97.98 244.95,-86.5"/>
<polygon fill="#9a32cd" stroke="#9a32cd" points="244.01,-134.6 248.04,-144.4 251,-134.22 244.01,-134.6"/>
<text text-anchor="middle" x="279.5" y="-112.5" font-family="Helvetica,sans-Serif" font-size="10.00"> current_record</text>
</g>
</g>
</svg>
