<?xml version="1.0" encoding="UTF-8" standalone="no"?>
<!DOCTYPE svg PUBLIC "-//W3C//DTD SVG 1.1//EN"
 "http://www.w3.org/Graphics/SVG/1.1/DTD/svg11.dtd">
<!-- Generated by graphviz version 3.0.0 (20220226.1711)
 -->
<!-- Title: src/frame_tree.h Pages: 1 -->
<svg width="269pt" height="364pt"
 viewBox="0.00 0.00 268.50 364.00" xmlns="http://www.w3.org/2000/svg" xmlns:xlink="http://www.w3.org/1999/xlink">
<g id="graph0" class="graph" transform="scale(1 1) rotate(0) translate(4 360)">
<title>src/frame_tree.h</title>
<!-- Node1 -->
<g id="node1" class="node">
<title>Node1</title>
<g id="a_node1"><a xlink:title=" ">
<polygon fill="#bfbfbf" stroke="black" points="53.5,-336.5 53.5,-355.5 141.5,-355.5 141.5,-336.5 53.5,-336.5"/>
<text text-anchor="middle" x="97.5" y="-343.5" font-family="Helvetica,sans-Serif" font-size="10.00">src/frame_tree.h</text>
</a>
</g>
</g>
<!-- Node2 -->
<g id="node2" class="node">
<title>Node2</title>
<g id="a_node2"><a xlink:href="../../df/d7d/frame_8h.html" target="_top" xlink:title=" ">
<polygon fill="none" stroke="black" points="64.5,-280.5 64.5,-299.5 130.5,-299.5 130.5,-280.5 64.5,-280.5"/>
<text text-anchor="middle" x="97.5" y="-287.5" font-family="Helvetica,sans-Serif" font-size="10.00">src/frame.h</text>
</a>
</g>
</g>
<!-- Node1&#45;&gt;Node2 -->
<g id="edge1" class="edge">
<title>Node1&#45;&gt;Node2</title>
<path fill="none" stroke="midnightblue" d="M91.03,-326.1C90.4,-317.14 90.84,-306.86 92.37,-299.75"/>
<polygon fill="midnightblue" stroke="midnightblue" points="87.57,-326.62 92.33,-336.08 94.51,-325.71 87.57,-326.62"/>
</g>
<!-- Node10 -->
<g id="node10" class="node">
<title>Node10</title>
<g id="a_node10"><a xlink:href="../../d9/d27/frame__tree_8c.html" target="_top" xlink:title=" ">
<polygon fill="none" stroke="black" points="172.5,-224.5 172.5,-243.5 260.5,-243.5 260.5,-224.5 172.5,-224.5"/>
<text text-anchor="middle" x="216.5" y="-231.5" font-family="Helvetica,sans-Serif" font-size="10.00">src/frame_tree.c</text>
</a>
</g>
</g>
<!-- Node1&#45;&gt;Node10 -->
<g id="edge13" class="edge">
<title>Node1&#45;&gt;Node10</title>
<path fill="none" stroke="midnightblue" d="M114.26,-329.51C139.68,-306.01 187.17,-262.11 207.21,-243.59"/>
<polygon fill="midnightblue" stroke="midnightblue" points="111.81,-327.01 106.84,-336.37 116.56,-332.15 111.81,-327.01"/>
</g>
<!-- Node2&#45;&gt;Node1 -->
<g id="edge2" class="edge">
<title>Node2&#45;&gt;Node1</title>
<path fill="none" stroke="midnightblue" d="M103.96,-309.69C104.61,-318.64 104.18,-328.93 102.67,-336.08"/>
<polygon fill="midnightblue" stroke="midnightblue" points="107.42,-309.2 102.63,-299.75 100.48,-310.13 107.42,-309.2"/>
</g>
<!-- Node3 -->
<g id="node3" class="node">
<title>Node3</title>
<g id="a_node3"><a xlink:href="../../db/dde/internal_8h.html" target="_top" xlink:title=" ">
<polygon fill="none" stroke="black" points="42,-224.5 42,-243.5 115,-243.5 115,-224.5 42,-224.5"/>
<text text-anchor="middle" x="78.5" y="-231.5" font-family="Helvetica,sans-Serif" font-size="10.00">src/internal.h</text>
</a>
</g>
</g>
<!-- Node2&#45;&gt;Node3 -->
<g id="edge3" class="edge">
<title>Node2&#45;&gt;Node3</title>
<path fill="none" stroke="midnightblue" d="M90.95,-270.4C87.78,-261.36 84.11,-250.94 81.58,-243.75"/>
<polygon fill="midnightblue" stroke="midnightblue" points="87.74,-271.81 94.36,-280.08 94.35,-269.49 87.74,-271.81"/>
</g>
<!-- Node4 -->
<g id="node4" class="node">
<title>Node4</title>
<g id="a_node4"><a xlink:href="../../da/d9e/boyer__moore_8h.html" target="_top" xlink:title=" ">
<polygon fill="none" stroke="black" points="130.5,-168.5 130.5,-187.5 228.5,-187.5 228.5,-168.5 130.5,-168.5"/>
<text text-anchor="middle" x="179.5" y="-175.5" font-family="Helvetica,sans-Serif" font-size="10.00">src/boyer_moore.h</text>
</a>
</g>
</g>
<!-- Node3&#45;&gt;Node4 -->
<g id="edge4" class="edge">
<title>Node3&#45;&gt;Node4</title>
<path fill="none" stroke="midnightblue" d="M103.58,-219.59C122.26,-209.61 147.2,-196.27 163.31,-187.65"/>
<polygon fill="midnightblue" stroke="midnightblue" points="101.9,-216.52 94.73,-224.32 105.2,-222.7 101.9,-216.52"/>
</g>
<!-- Node7 -->
<g id="node7" class="node">
<title>Node7</title>
<g id="a_node7"><a xlink:href="../../d6/d07/yed_8c.html" target="_top" xlink:title=" ">
<polygon fill="none" stroke="black" points="0,-0.5 0,-19.5 57,-19.5 57,-0.5 0,-0.5"/>
<text text-anchor="middle" x="28.5" y="-7.5" font-family="Helvetica,sans-Serif" font-size="10.00">src/yed.c</text>
</a>
</g>
</g>
<!-- Node3&#45;&gt;Node7 -->
<g id="edge12" class="edge">
<title>Node3&#45;&gt;Node7</title>
<path fill="none" stroke="midnightblue" d="M58.13,-217.89C48.43,-209.88 37.28,-199.35 29.5,-188 14.38,-165.95 12.48,-158.27 7.5,-132 -0.47,-89.89 17.02,-39.31 24.9,-19.52"/>
<polygon fill="midnightblue" stroke="midnightblue" points="56.14,-220.78 66.15,-224.25 60.49,-215.3 56.14,-220.78"/>
</g>
<!-- Node8 -->
<g id="node8" class="node">
<title>Node8</title>
<g id="a_node8"><a xlink:href="../../d4/daa/plugin_8c.html" target="_top" xlink:title=" ">
<polygon fill="none" stroke="black" points="17,-112.5 17,-131.5 84,-131.5 84,-112.5 17,-112.5"/>
<text text-anchor="middle" x="50.5" y="-119.5" font-family="Helvetica,sans-Serif" font-size="10.00">src/plugin.c</text>
</a>
</g>
</g>
<!-- Node3&#45;&gt;Node8 -->
<g id="edge8" class="edge">
<title>Node3&#45;&gt;Node8</title>
<path fill="none" stroke="midnightblue" d="M58.26,-217.86C49.49,-210.03 40.18,-199.67 35.5,-188 27.74,-168.65 38.31,-144.38 45.27,-131.67"/>
<polygon fill="midnightblue" stroke="midnightblue" points="56.08,-220.6 66,-224.3 60.55,-215.22 56.08,-220.6"/>
</g>
<!-- Node9 -->
<g id="node9" class="node">
<title>Node9</title>
<g id="a_node9"><a xlink:href="../../d9/dc4/plugin_8h.html" target="_top" xlink:title=" ">
<polygon fill="none" stroke="black" points="45,-168.5 45,-187.5 112,-187.5 112,-168.5 45,-168.5"/>
<text text-anchor="middle" x="78.5" y="-175.5" font-family="Helvetica,sans-Serif" font-size="10.00">src/plugin.h</text>
</a>
</g>
</g>
<!-- Node3&#45;&gt;Node9 -->
<g id="edge10" class="edge">
<title>Node3&#45;&gt;Node9</title>
<path fill="none" stroke="midnightblue" d="M72.03,-214.1C71.4,-205.14 71.84,-194.86 73.37,-187.75"/>
<polygon fill="midnightblue" stroke="midnightblue" points="68.57,-214.62 73.33,-224.08 75.51,-213.71 68.57,-214.62"/>
</g>
<!-- Node5 -->
<g id="node5" class="node">
<title>Node5</title>
<g id="a_node5"><a xlink:href="../../d6/d91/boyer__moore_8c.html" target="_top" xlink:title=" ">
<polygon fill="none" stroke="black" points="121.5,-112.5 121.5,-131.5 219.5,-131.5 219.5,-112.5 121.5,-112.5"/>
<text text-anchor="middle" x="170.5" y="-119.5" font-family="Helvetica,sans-Serif" font-size="10.00">src/boyer_moore.c</text>
</a>
</g>
</g>
<!-- Node4&#45;&gt;Node5 -->
<g id="edge5" class="edge">
<title>Node4&#45;&gt;Node5</title>
<path fill="none" stroke="midnightblue" d="M176.35,-158.1C174.86,-149.14 173.14,-138.86 171.96,-131.75"/>
<polygon fill="midnightblue" stroke="midnightblue" points="172.92,-158.79 178.01,-168.08 179.82,-157.64 172.92,-158.79"/>
</g>
<!-- Node6 -->
<g id="node6" class="node">
<title>Node6</title>
<g id="a_node6"><a xlink:href="../../dc/df8/internal_8c.html" target="_top" xlink:title=" ">
<polygon fill="none" stroke="black" points="64,-56.5 64,-75.5 137,-75.5 137,-56.5 64,-56.5"/>
<text text-anchor="middle" x="100.5" y="-63.5" font-family="Helvetica,sans-Serif" font-size="10.00">src/internal.c</text>
</a>
</g>
</g>
<!-- Node5&#45;&gt;Node6 -->
<g id="edge6" class="edge">
<title>Node5&#45;&gt;Node6</title>
<path fill="none" stroke="midnightblue" d="M151.19,-106.1C138.59,-96.38 122.57,-84.03 111.95,-75.83"/>
<polygon fill="midnightblue" stroke="midnightblue" points="149.2,-108.99 159.25,-112.32 153.47,-103.44 149.2,-108.99"/>
</g>
<!-- Node6&#45;&gt;Node7 -->
<g id="edge7" class="edge">
<title>Node6&#45;&gt;Node7</title>
<path fill="none" stroke="midnightblue" d="M80.63,-50.1C67.68,-40.38 51.2,-28.03 40.28,-19.83"/>
<polygon fill="midnightblue" stroke="midnightblue" points="78.83,-53.12 88.93,-56.32 83.03,-47.52 78.83,-53.12"/>
</g>
<!-- Node8&#45;&gt;Node6 -->
<g id="edge9" class="edge">
<title>Node8&#45;&gt;Node6</title>
<path fill="none" stroke="midnightblue" d="M65.58,-104.72C74.39,-95.2 85.17,-83.56 92.4,-75.75"/>
<polygon fill="midnightblue" stroke="midnightblue" points="62.98,-102.37 58.76,-112.08 68.12,-107.12 62.98,-102.37"/>
</g>
<!-- Node9&#45;&gt;Node3 -->
<g id="edge11" class="edge">
<title>Node9&#45;&gt;Node3</title>
<path fill="none" stroke="midnightblue" d="M84.96,-197.69C85.61,-206.64 85.18,-216.93 83.67,-224.08"/>
<polygon fill="midnightblue" stroke="midnightblue" points="88.42,-197.2 83.63,-187.75 81.48,-198.13 88.42,-197.2"/>
</g>
<!-- Node10&#45;&gt;Node6 -->
<g id="edge14" class="edge">
<title>Node10&#45;&gt;Node6</title>
<path fill="none" stroke="midnightblue" d="M226.78,-215.63C230.99,-207.52 235.38,-197.57 237.5,-188 242.43,-165.79 229.06,-112.68 228.5,-112 206,-85.07 166.33,-74.24 137.1,-69.9"/>
<polygon fill="midnightblue" stroke="midnightblue" points="223.68,-214 221.88,-224.44 229.8,-217.4 223.68,-214"/>
</g>
</g>
</svg>
