<?xml version="1.0" encoding="UTF-8" standalone="no"?>
<!DOCTYPE svg PUBLIC "-//W3C//DTD SVG 1.1//EN"
 "http://www.w3.org/Graphics/SVG/1.1/DTD/svg11.dtd">
<!-- Generated by graphviz version 3.0.0 (20220226.1711)
 -->
<!-- Title: src/yed.c Pages: 1 -->
<svg width="3257pt" height="196pt"
 viewBox="0.00 0.00 3256.50 196.00" xmlns="http://www.w3.org/2000/svg" xmlns:xlink="http://www.w3.org/1999/xlink">
<g id="graph0" class="graph" transform="scale(1 1) rotate(0) translate(4 192)">
<title>src/yed.c</title>
<!-- Node1 -->
<g id="node1" class="node">
<title>Node1</title>
<g id="a_node1"><a xlink:title=" ">
<polygon fill="#bfbfbf" stroke="black" points="1680.5,-168.5 1680.5,-187.5 1737.5,-187.5 1737.5,-168.5 1680.5,-168.5"/>
<text text-anchor="middle" x="1709" y="-175.5" font-family="Helvetica,sans-Serif" font-size="10.00">src/yed.c</text>
</a>
</g>
</g>
<!-- Node2 -->
<g id="node2" class="node">
<title>Node2</title>
<g id="a_node2"><a xlink:href="../../db/dde/internal_8h.html" target="_top" xlink:title=" ">
<polygon fill="none" stroke="red" points="1644,-112.5 1644,-131.5 1700,-131.5 1700,-112.5 1644,-112.5"/>
<text text-anchor="middle" x="1672" y="-119.5" font-family="Helvetica,sans-Serif" font-size="10.00">internal.h</text>
</a>
</g>
</g>
<!-- Node1&#45;&gt;Node2 -->
<g id="edge1" class="edge">
<title>Node1&#45;&gt;Node2</title>
<path fill="none" stroke="midnightblue" d="M1702.89,-168.08C1697.72,-160.53 1690.15,-149.49 1683.81,-140.23"/>
<polygon fill="midnightblue" stroke="midnightblue" points="1686.54,-138.02 1678,-131.75 1680.76,-141.98 1686.54,-138.02"/>
</g>
<!-- Node61 -->
<g id="node50" class="node">
<title>Node61</title>
<g id="a_node50"><a xlink:href="../../dc/df8/internal_8c.html" target="_top" xlink:title=" ">
<polygon fill="none" stroke="red" points="1718,-112.5 1718,-131.5 1774,-131.5 1774,-112.5 1718,-112.5"/>
<text text-anchor="middle" x="1746" y="-119.5" font-family="Helvetica,sans-Serif" font-size="10.00">internal.c</text>
</a>
</g>
</g>
<!-- Node1&#45;&gt;Node61 -->
<g id="edge52" class="edge">
<title>Node1&#45;&gt;Node61</title>
<path fill="none" stroke="midnightblue" d="M1715.11,-168.08C1720.28,-160.53 1727.85,-149.49 1734.19,-140.23"/>
<polygon fill="midnightblue" stroke="midnightblue" points="1737.24,-141.98 1740,-131.75 1731.46,-138.02 1737.24,-141.98"/>
</g>
<!-- Node3 -->
<g id="node3" class="node">
<title>Node3</title>
<g id="a_node3"><a xlink:title=" ">
<polygon fill="none" stroke="#bfbfbf" points="0,-56.5 0,-75.5 46,-75.5 46,-56.5 0,-56.5"/>
<text text-anchor="middle" x="23" y="-63.5" font-family="Helvetica,sans-Serif" font-size="10.00">stdio.h</text>
</a>
</g>
</g>
<!-- Node2&#45;&gt;Node3 -->
<g id="edge2" class="edge">
<title>Node2&#45;&gt;Node3</title>
<path fill="none" stroke="midnightblue" d="M1643.93,-121.16C1457.91,-122.1 399.93,-125.23 56.23,-75.74"/>
<polygon fill="midnightblue" stroke="midnightblue" points="56.68,-72.27 46.27,-74.26 55.65,-79.19 56.68,-72.27"/>
</g>
<!-- Node4 -->
<g id="node4" class="node">
<title>Node4</title>
<g id="a_node4"><a xlink:title=" ">
<polygon fill="none" stroke="#bfbfbf" points="64.5,-56.5 64.5,-75.5 113.5,-75.5 113.5,-56.5 64.5,-56.5"/>
<text text-anchor="middle" x="89" y="-63.5" font-family="Helvetica,sans-Serif" font-size="10.00">string.h</text>
</a>
</g>
</g>
<!-- Node2&#45;&gt;Node4 -->
<g id="edge3" class="edge">
<title>Node2&#45;&gt;Node4</title>
<path fill="none" stroke="midnightblue" d="M1643.77,-120.94C1460.51,-120.43 437.53,-115.83 128,-76 126.54,-75.81 125.05,-75.59 123.54,-75.35"/>
<polygon fill="midnightblue" stroke="midnightblue" points="124.1,-71.89 113.62,-73.46 122.79,-78.77 124.1,-71.89"/>
</g>
<!-- Node5 -->
<g id="node5" class="node">
<title>Node5</title>
<g id="a_node5"><a xlink:title=" ">
<polygon fill="none" stroke="#bfbfbf" points="897,-0.5 897,-19.5 945,-19.5 945,-0.5 897,-0.5"/>
<text text-anchor="middle" x="921" y="-7.5" font-family="Helvetica,sans-Serif" font-size="10.00">stdlib.h</text>
</a>
</g>
</g>
<!-- Node2&#45;&gt;Node5 -->
<g id="edge4" class="edge">
<title>Node2&#45;&gt;Node5</title>
<path fill="none" stroke="midnightblue" d="M1643.71,-120.7C1438.67,-118.46 187.85,-103.66 161,-76 154.81,-69.62 154.9,-62.47 161,-56 186.21,-29.26 741.38,-15.01 886.53,-11.74"/>
<polygon fill="midnightblue" stroke="midnightblue" points="886.72,-15.24 896.64,-11.51 886.57,-8.24 886.72,-15.24"/>
</g>
<!-- Node6 -->
<g id="node6" class="node">
<title>Node6</title>
<g id="a_node6"><a xlink:title=" ">
<polygon fill="none" stroke="#bfbfbf" points="170,-56.5 170,-75.5 222,-75.5 222,-56.5 170,-56.5"/>
<text text-anchor="middle" x="196" y="-63.5" font-family="Helvetica,sans-Serif" font-size="10.00">stdarg.h</text>
</a>
</g>
</g>
<!-- Node2&#45;&gt;Node6 -->
<g id="edge5" class="edge">
<title>Node2&#45;&gt;Node6</title>
<path fill="none" stroke="midnightblue" d="M1643.96,-120.97C1470.34,-120.64 539.68,-117.02 232.47,-75.83"/>
<polygon fill="midnightblue" stroke="midnightblue" points="232.63,-72.32 222.25,-74.41 231.67,-79.25 232.63,-72.32"/>
</g>
<!-- Node7 -->
<g id="node7" class="node">
<title>Node7</title>
<g id="a_node7"><a xlink:title=" ">
<polygon fill="none" stroke="#bfbfbf" points="240.5,-56.5 240.5,-75.5 289.5,-75.5 289.5,-56.5 240.5,-56.5"/>
<text text-anchor="middle" x="265" y="-63.5" font-family="Helvetica,sans-Serif" font-size="10.00">dirent.h</text>
</a>
</g>
</g>
<!-- Node2&#45;&gt;Node7 -->
<g id="edge6" class="edge">
<title>Node2&#45;&gt;Node7</title>
<path fill="none" stroke="midnightblue" d="M1643.91,-120.94C1475.08,-120.47 593,-116.18 299.92,-75.7"/>
<polygon fill="midnightblue" stroke="midnightblue" points="300.14,-72.19 289.75,-74.24 299.15,-79.12 300.14,-72.19"/>
</g>
<!-- Node8 -->
<g id="node8" class="node">
<title>Node8</title>
<g id="a_node8"><a xlink:title=" ">
<polygon fill="none" stroke="#bfbfbf" points="308,-56.5 308,-75.5 358,-75.5 358,-56.5 308,-56.5"/>
<text text-anchor="middle" x="333" y="-63.5" font-family="Helvetica,sans-Serif" font-size="10.00">libgen.h</text>
</a>
</g>
</g>
<!-- Node2&#45;&gt;Node8 -->
<g id="edge7" class="edge">
<title>Node2&#45;&gt;Node8</title>
<path fill="none" stroke="midnightblue" d="M1643.97,-120.89C1480.33,-120.11 646.46,-114.35 368.18,-75.77"/>
<polygon fill="midnightblue" stroke="midnightblue" points="368.52,-72.28 358.12,-74.32 367.52,-79.21 368.52,-72.28"/>
</g>
<!-- Node9 -->
<g id="node9" class="node">
<title>Node9</title>
<g id="a_node9"><a xlink:title=" ">
<polygon fill="none" stroke="#bfbfbf" points="376,-56.5 376,-75.5 438,-75.5 438,-56.5 376,-56.5"/>
<text text-anchor="middle" x="407" y="-63.5" font-family="Helvetica,sans-Serif" font-size="10.00">sys/time.h</text>
</a>
</g>
</g>
<!-- Node2&#45;&gt;Node9 -->
<g id="edge8" class="edge">
<title>Node2&#45;&gt;Node9</title>
<path fill="none" stroke="midnightblue" d="M1643.91,-120.67C1486.35,-118.73 710.42,-107.77 448.56,-75.91"/>
<polygon fill="midnightblue" stroke="midnightblue" points="448.7,-72.41 438.35,-74.63 447.83,-79.35 448.7,-72.41"/>
</g>
<!-- Node10 -->
<g id="node10" class="node">
<title>Node10</title>
<g id="a_node10"><a xlink:title=" ">
<polygon fill="none" stroke="#bfbfbf" points="456,-56.5 456,-75.5 516,-75.5 516,-56.5 456,-56.5"/>
<text text-anchor="middle" x="486" y="-63.5" font-family="Helvetica,sans-Serif" font-size="10.00">sys/stat.h</text>
</a>
</g>
</g>
<!-- Node2&#45;&gt;Node10 -->
<g id="edge9" class="edge">
<title>Node2&#45;&gt;Node10</title>
<path fill="none" stroke="midnightblue" d="M1643.96,-120.61C1492.62,-118.42 771.27,-106.59 526.05,-75.83"/>
<polygon fill="midnightblue" stroke="midnightblue" points="526.5,-72.36 516.13,-74.54 525.6,-79.3 526.5,-72.36"/>
</g>
<!-- Node11 -->
<g id="node11" class="node">
<title>Node11</title>
<g id="a_node11"><a xlink:title=" ">
<polygon fill="none" stroke="#bfbfbf" points="534.5,-56.5 534.5,-75.5 605.5,-75.5 605.5,-56.5 534.5,-56.5"/>
<text text-anchor="middle" x="570" y="-63.5" font-family="Helvetica,sans-Serif" font-size="10.00">sys/mman.h</text>
</a>
</g>
</g>
<!-- Node2&#45;&gt;Node11 -->
<g id="edge10" class="edge">
<title>Node2&#45;&gt;Node11</title>
<path fill="none" stroke="midnightblue" d="M1643.7,-121.4C1521.76,-122.78 1029.22,-124.93 615.84,-75.88"/>
<polygon fill="midnightblue" stroke="midnightblue" points="616.13,-72.39 605.78,-74.68 615.29,-79.34 616.13,-72.39"/>
</g>
<!-- Node12 -->
<g id="node12" class="node">
<title>Node12</title>
<g id="a_node12"><a xlink:title=" ">
<polygon fill="none" stroke="#bfbfbf" points="624,-56.5 624,-75.5 686,-75.5 686,-56.5 624,-56.5"/>
<text text-anchor="middle" x="655" y="-63.5" font-family="Helvetica,sans-Serif" font-size="10.00">sys/ioctl.h</text>
</a>
</g>
</g>
<!-- Node2&#45;&gt;Node12 -->
<g id="edge11" class="edge">
<title>Node2&#45;&gt;Node12</title>
<path fill="none" stroke="midnightblue" d="M1643.66,-120.37C1505.98,-117.18 905.38,-102.12 696.3,-75.9"/>
<polygon fill="midnightblue" stroke="midnightblue" points="696.72,-72.42 686.35,-74.6 695.81,-79.36 696.72,-72.42"/>
</g>
<!-- Node13 -->
<g id="node13" class="node">
<title>Node13</title>
<g id="a_node13"><a xlink:title=" ">
<polygon fill="none" stroke="#bfbfbf" points="704.5,-56.5 704.5,-75.5 761.5,-75.5 761.5,-56.5 704.5,-56.5"/>
<text text-anchor="middle" x="733" y="-63.5" font-family="Helvetica,sans-Serif" font-size="10.00">termios.h</text>
</a>
</g>
</g>
<!-- Node2&#45;&gt;Node13 -->
<g id="edge12" class="edge">
<title>Node2&#45;&gt;Node13</title>
<path fill="none" stroke="midnightblue" d="M1643.8,-121.46C1533.42,-122.86 1120.1,-124.47 771.56,-75.77"/>
<polygon fill="midnightblue" stroke="midnightblue" points="771.92,-72.28 761.53,-74.35 770.94,-79.21 771.92,-72.28"/>
</g>
<!-- Node14 -->
<g id="node14" class="node">
<title>Node14</title>
<g id="a_node14"><a xlink:title=" ">
<polygon fill="none" stroke="#bfbfbf" points="780,-56.5 780,-75.5 830,-75.5 830,-56.5 780,-56.5"/>
<text text-anchor="middle" x="805" y="-63.5" font-family="Helvetica,sans-Serif" font-size="10.00">signal.h</text>
</a>
</g>
</g>
<!-- Node2&#45;&gt;Node14 -->
<g id="edge13" class="edge">
<title>Node2&#45;&gt;Node14</title>
<path fill="none" stroke="midnightblue" d="M1643.72,-120.25C1519.24,-116.83 1018.8,-101.85 840.16,-75.8"/>
<polygon fill="midnightblue" stroke="midnightblue" points="840.54,-72.31 830.13,-74.27 839.49,-79.23 840.54,-72.31"/>
</g>
<!-- Node15 -->
<g id="node15" class="node">
<title>Node15</title>
<g id="a_node15"><a xlink:title=" ">
<polygon fill="none" stroke="#bfbfbf" points="848.5,-56.5 848.5,-75.5 899.5,-75.5 899.5,-56.5 848.5,-56.5"/>
<text text-anchor="middle" x="874" y="-63.5" font-family="Helvetica,sans-Serif" font-size="10.00">unistd.h</text>
</a>
</g>
</g>
<!-- Node2&#45;&gt;Node15 -->
<g id="edge14" class="edge">
<title>Node2&#45;&gt;Node15</title>
<path fill="none" stroke="midnightblue" d="M1643.73,-121.29C1544.23,-121.89 1200.98,-120.52 909.78,-75.79"/>
<polygon fill="midnightblue" stroke="midnightblue" points="910.3,-72.33 899.88,-74.25 909.22,-79.24 910.3,-72.33"/>
</g>
<!-- Node16 -->
<g id="node16" class="node">
<title>Node16</title>
<g id="a_node16"><a xlink:title=" ">
<polygon fill="none" stroke="#bfbfbf" points="918,-56.5 918,-75.5 980,-75.5 980,-56.5 918,-56.5"/>
<text text-anchor="middle" x="949" y="-63.5" font-family="Helvetica,sans-Serif" font-size="10.00">sys/wait.h</text>
</a>
</g>
</g>
<!-- Node2&#45;&gt;Node16 -->
<g id="edge15" class="edge">
<title>Node2&#45;&gt;Node16</title>
<path fill="none" stroke="midnightblue" d="M1643.86,-120.71C1551.49,-119.43 1249.09,-112.64 990.32,-75.97"/>
<polygon fill="midnightblue" stroke="midnightblue" points="990.75,-72.5 980.36,-74.54 989.76,-79.42 990.75,-72.5"/>
</g>
<!-- Node17 -->
<g id="node17" class="node">
<title>Node17</title>
<g id="a_node17"><a xlink:title=" ">
<polygon fill="none" stroke="#bfbfbf" points="998,-56.5 998,-75.5 1066,-75.5 1066,-56.5 998,-56.5"/>
<text text-anchor="middle" x="1032" y="-63.5" font-family="Helvetica,sans-Serif" font-size="10.00">sys/types.h</text>
</a>
</g>
</g>
<!-- Node2&#45;&gt;Node17 -->
<g id="edge16" class="edge">
<title>Node2&#45;&gt;Node17</title>
<path fill="none" stroke="midnightblue" d="M1643.88,-120.19C1559.41,-117.48 1300.4,-107.15 1076.17,-75.98"/>
<polygon fill="midnightblue" stroke="midnightblue" points="1076.59,-72.51 1066.2,-74.58 1075.61,-79.44 1076.59,-72.51"/>
</g>
<!-- Node18 -->
<g id="node18" class="node">
<title>Node18</title>
<g id="a_node18"><a xlink:title=" ">
<polygon fill="none" stroke="#bfbfbf" points="1084,-56.5 1084,-75.5 1128,-75.5 1128,-56.5 1084,-56.5"/>
<text text-anchor="middle" x="1106" y="-63.5" font-family="Helvetica,sans-Serif" font-size="10.00">fcntl.h</text>
</a>
</g>
</g>
<!-- Node2&#45;&gt;Node18 -->
<g id="edge17" class="edge">
<title>Node2&#45;&gt;Node18</title>
<path fill="none" stroke="midnightblue" d="M1643.89,-120.6C1565.25,-119.05 1336.32,-111.74 1138.23,-75.87"/>
<polygon fill="midnightblue" stroke="midnightblue" points="1138.69,-72.39 1128.22,-74.03 1137.42,-79.28 1138.69,-72.39"/>
</g>
<!-- Node19 -->
<g id="node19" class="node">
<title>Node19</title>
<g id="a_node19"><a xlink:title=" ">
<polygon fill="none" stroke="#bfbfbf" points="1146.5,-56.5 1146.5,-75.5 1193.5,-75.5 1193.5,-56.5 1146.5,-56.5"/>
<text text-anchor="middle" x="1170" y="-63.5" font-family="Helvetica,sans-Serif" font-size="10.00">errno.h</text>
</a>
</g>
</g>
<!-- Node2&#45;&gt;Node19 -->
<g id="edge18" class="edge">
<title>Node2&#45;&gt;Node19</title>
<path fill="none" stroke="midnightblue" d="M1643.95,-120.06C1572.07,-117.29 1375.46,-107.38 1203.63,-76.01"/>
<polygon fill="midnightblue" stroke="midnightblue" points="1204.12,-72.54 1193.65,-74.16 1202.85,-79.43 1204.12,-72.54"/>
</g>
<!-- Node20 -->
<g id="node20" class="node">
<title>Node20</title>
<g id="a_node20"><a xlink:title=" ">
<polygon fill="none" stroke="#bfbfbf" points="1211.5,-56.5 1211.5,-75.5 1260.5,-75.5 1260.5,-56.5 1211.5,-56.5"/>
<text text-anchor="middle" x="1236" y="-63.5" font-family="Helvetica,sans-Serif" font-size="10.00">ctype.h</text>
</a>
</g>
</g>
<!-- Node2&#45;&gt;Node20 -->
<g id="edge19" class="edge">
<title>Node2&#45;&gt;Node20</title>
<path fill="none" stroke="midnightblue" d="M1643.93,-119.37C1579.48,-115.3 1415.91,-103.18 1270.75,-76.09"/>
<polygon fill="midnightblue" stroke="midnightblue" points="1271.25,-72.62 1260.77,-74.2 1269.94,-79.5 1271.25,-72.62"/>
</g>
<!-- Node21 -->
<g id="node21" class="node">
<title>Node21</title>
<g id="a_node21"><a xlink:title=" ">
<polygon fill="none" stroke="#bfbfbf" points="1508.5,-0.5 1508.5,-19.5 1557.5,-19.5 1557.5,-0.5 1508.5,-0.5"/>
<text text-anchor="middle" x="1533" y="-7.5" font-family="Helvetica,sans-Serif" font-size="10.00">stdint.h</text>
</a>
</g>
</g>
<!-- Node2&#45;&gt;Node21 -->
<g id="edge20" class="edge">
<title>Node2&#45;&gt;Node21</title>
<path fill="none" stroke="midnightblue" d="M1696.8,-112.44C1725.97,-101.03 1768.15,-79.55 1749,-56 1726.52,-28.36 1622.67,-17.13 1567.57,-13.05"/>
<polygon fill="midnightblue" stroke="midnightblue" points="1567.77,-9.56 1557.55,-12.35 1567.29,-16.54 1567.77,-9.56"/>
</g>
<!-- Node22 -->
<g id="node22" class="node">
<title>Node22</title>
<g id="a_node22"><a xlink:title=" ">
<polygon fill="none" stroke="#bfbfbf" points="1337.5,-56.5 1337.5,-75.5 1384.5,-75.5 1384.5,-56.5 1337.5,-56.5"/>
<text text-anchor="middle" x="1361" y="-63.5" font-family="Helvetica,sans-Serif" font-size="10.00">math.h</text>
</a>
</g>
</g>
<!-- Node2&#45;&gt;Node22 -->
<g id="edge21" class="edge">
<title>Node2&#45;&gt;Node22</title>
<path fill="none" stroke="midnightblue" d="M1643.68,-117.52C1594.73,-111.27 1490.98,-97.01 1394.59,-76.16"/>
<polygon fill="midnightblue" stroke="midnightblue" points="1395.21,-72.71 1384.69,-73.99 1393.71,-79.55 1395.21,-72.71"/>
</g>
<!-- Node23 -->
<g id="node23" class="node">
<title>Node23</title>
<g id="a_node23"><a xlink:title=" ">
<polygon fill="none" stroke="#bfbfbf" points="1402.5,-56.5 1402.5,-75.5 1459.5,-75.5 1459.5,-56.5 1402.5,-56.5"/>
<text text-anchor="middle" x="1431" y="-63.5" font-family="Helvetica,sans-Serif" font-size="10.00">pthread.h</text>
</a>
</g>
</g>
<!-- Node2&#45;&gt;Node23 -->
<g id="edge22" class="edge">
<title>Node2&#45;&gt;Node23</title>
<path fill="none" stroke="midnightblue" d="M1643.73,-114.87C1606.32,-106.72 1538.07,-91.77 1469.71,-76.14"/>
<polygon fill="midnightblue" stroke="midnightblue" points="1470.15,-72.65 1459.62,-73.83 1468.59,-79.47 1470.15,-72.65"/>
</g>
<!-- Node24 -->
<g id="node24" class="node">
<title>Node24</title>
<g id="a_node24"><a xlink:title=" ">
<polygon fill="none" stroke="#bfbfbf" points="1478,-56.5 1478,-75.5 1524,-75.5 1524,-56.5 1478,-56.5"/>
<text text-anchor="middle" x="1501" y="-63.5" font-family="Helvetica,sans-Serif" font-size="10.00">dlfcn.h</text>
</a>
</g>
</g>
<!-- Node2&#45;&gt;Node24 -->
<g id="edge23" class="edge">
<title>Node2&#45;&gt;Node24</title>
<path fill="none" stroke="midnightblue" d="M1644.9,-112.44C1614.82,-102.94 1566.26,-87.61 1533.99,-77.42"/>
<polygon fill="midnightblue" stroke="midnightblue" points="1534.72,-73.98 1524.13,-74.3 1532.61,-80.65 1534.72,-73.98"/>
</g>
<!-- Node25 -->
<g id="node25" class="node">
<title>Node25</title>
<g id="a_node25"><a xlink:title=" ">
<polygon fill="none" stroke="#bfbfbf" points="1542,-56.5 1542,-75.5 1592,-75.5 1592,-56.5 1542,-56.5"/>
<text text-anchor="middle" x="1567" y="-63.5" font-family="Helvetica,sans-Serif" font-size="10.00">locale.h</text>
</a>
</g>
</g>
<!-- Node2&#45;&gt;Node25 -->
<g id="edge24" class="edge">
<title>Node2&#45;&gt;Node25</title>
<path fill="none" stroke="midnightblue" d="M1655.13,-112.32C1638.29,-103.66 1612.19,-90.24 1592.76,-80.25"/>
<polygon fill="midnightblue" stroke="midnightblue" points="1594.32,-77.12 1583.83,-75.65 1591.12,-83.34 1594.32,-77.12"/>
</g>
<!-- Node26 -->
<g id="node26" class="node">
<title>Node26</title>
<g id="a_node26"><a xlink:title=" ">
<polygon fill="none" stroke="#bfbfbf" points="1610,-56.5 1610,-75.5 1660,-75.5 1660,-56.5 1610,-56.5"/>
<text text-anchor="middle" x="1635" y="-63.5" font-family="Helvetica,sans-Serif" font-size="10.00">wchar.h</text>
</a>
</g>
</g>
<!-- Node2&#45;&gt;Node26 -->
<g id="edge25" class="edge">
<title>Node2&#45;&gt;Node26</title>
<path fill="none" stroke="midnightblue" d="M1665.89,-112.08C1660.72,-104.53 1653.15,-93.49 1646.81,-84.23"/>
<polygon fill="midnightblue" stroke="midnightblue" points="1649.54,-82.02 1641,-75.75 1643.76,-85.98 1649.54,-82.02"/>
</g>
<!-- Node27 -->
<g id="node27" class="node">
<title>Node27</title>
<g id="a_node27"><a xlink:href="../../d7/d69/typedefs_8h.html" target="_top" xlink:title=" ">
<polygon fill="none" stroke="black" points="1678,-56.5 1678,-75.5 1740,-75.5 1740,-56.5 1678,-56.5"/>
<text text-anchor="middle" x="1709" y="-63.5" font-family="Helvetica,sans-Serif" font-size="10.00">typedefs.h</text>
</a>
</g>
</g>
<!-- Node2&#45;&gt;Node27 -->
<g id="edge26" class="edge">
<title>Node2&#45;&gt;Node27</title>
<path fill="none" stroke="midnightblue" d="M1678.11,-112.08C1683.28,-104.53 1690.85,-93.49 1697.19,-84.23"/>
<polygon fill="midnightblue" stroke="midnightblue" points="1700.24,-85.98 1703,-75.75 1694.46,-82.02 1700.24,-85.98"/>
</g>
<!-- Node28 -->
<g id="node28" class="node">
<title>Node28</title>
<g id="a_node28"><a xlink:href="../../d3/d09/tree_8h.html" target="_top" xlink:title=" ">
<polygon fill="none" stroke="black" points="1278.5,-56.5 1278.5,-75.5 1319.5,-75.5 1319.5,-56.5 1278.5,-56.5"/>
<text text-anchor="middle" x="1299" y="-63.5" font-family="Helvetica,sans-Serif" font-size="10.00">tree.h</text>
</a>
</g>
</g>
<!-- Node2&#45;&gt;Node28 -->
<g id="edge27" class="edge">
<title>Node2&#45;&gt;Node28</title>
<path fill="none" stroke="midnightblue" d="M1643.63,-118.94C1585.98,-114.4 1450.98,-101.99 1329.62,-76.06"/>
<polygon fill="midnightblue" stroke="midnightblue" points="1330.31,-72.62 1319.8,-73.92 1328.82,-79.46 1330.31,-72.62"/>
</g>
<!-- Node29 -->
<g id="node29" class="node">
<title>Node29</title>
<g id="a_node29"><a xlink:href="../../db/d63/array_8h.html" target="_top" xlink:title=" ">
<polygon fill="none" stroke="black" points="1796.5,-56.5 1796.5,-75.5 1841.5,-75.5 1841.5,-56.5 1796.5,-56.5"/>
<text text-anchor="middle" x="1819" y="-63.5" font-family="Helvetica,sans-Serif" font-size="10.00">array.h</text>
</a>
</g>
</g>
<!-- Node2&#45;&gt;Node29 -->
<g id="edge30" class="edge">
<title>Node2&#45;&gt;Node29</title>
<path fill="none" stroke="midnightblue" d="M1695.29,-112.44C1719.95,-103.39 1759.05,-89.02 1786.69,-78.87"/>
<polygon fill="midnightblue" stroke="midnightblue" points="1788.12,-82.07 1796.3,-75.34 1785.71,-75.5 1788.12,-82.07"/>
</g>
<!-- Node30 -->
<g id="node30" class="node">
<title>Node30</title>
<g id="a_node30"><a xlink:href="../../de/d00/bucket__array_8h.html" target="_top" xlink:title=" ">
<polygon fill="none" stroke="black" points="1860,-56.5 1860,-75.5 1940,-75.5 1940,-56.5 1860,-56.5"/>
<text text-anchor="middle" x="1900" y="-63.5" font-family="Helvetica,sans-Serif" font-size="10.00">bucket_array.h</text>
</a>
</g>
</g>
<!-- Node2&#45;&gt;Node30 -->
<g id="edge31" class="edge">
<title>Node2&#45;&gt;Node30</title>
<path fill="none" stroke="midnightblue" d="M1700.28,-114.1C1703.22,-113.39 1706.17,-112.68 1709,-112 1758.27,-100.2 1814.75,-86.93 1853.44,-77.87"/>
<polygon fill="midnightblue" stroke="midnightblue" points="1854.43,-81.23 1863.37,-75.55 1852.83,-74.42 1854.43,-81.23"/>
</g>
<!-- Node31 -->
<g id="node31" class="node">
<title>Node31</title>
<g id="a_node31"><a xlink:href="../../dc/dcd/yed_8h.html" target="_top" xlink:title=" ">
<polygon fill="none" stroke="black" points="1958.5,-56.5 1958.5,-75.5 1999.5,-75.5 1999.5,-56.5 1958.5,-56.5"/>
<text text-anchor="middle" x="1979" y="-63.5" font-family="Helvetica,sans-Serif" font-size="10.00">yed.h</text>
</a>
</g>
</g>
<!-- Node2&#45;&gt;Node31 -->
<g id="edge32" class="edge">
<title>Node2&#45;&gt;Node31</title>
<path fill="none" stroke="midnightblue" d="M1700.22,-113.86C1703.18,-113.19 1706.15,-112.56 1709,-112 1811.74,-91.84 1841.98,-99.09 1948.58,-75.78"/>
<polygon fill="midnightblue" stroke="midnightblue" points="1949.44,-79.18 1958.45,-73.59 1947.92,-72.34 1949.44,-79.18"/>
</g>
<!-- Node32 -->
<g id="node32" class="node">
<title>Node32</title>
<g id="a_node32"><a xlink:href="../../db/d45/term_8h.html" target="_top" xlink:title=" ">
<polygon fill="none" stroke="black" points="2018,-56.5 2018,-75.5 2062,-75.5 2062,-56.5 2018,-56.5"/>
<text text-anchor="middle" x="2040" y="-63.5" font-family="Helvetica,sans-Serif" font-size="10.00">term.h</text>
</a>
</g>
</g>
<!-- Node2&#45;&gt;Node32 -->
<g id="edge33" class="edge">
<title>Node2&#45;&gt;Node32</title>
<path fill="none" stroke="midnightblue" d="M1700.21,-113.77C1703.17,-113.12 1706.14,-112.52 1709,-112 1837.92,-88.67 1875.59,-102.11 2007.66,-75.97"/>
<polygon fill="midnightblue" stroke="midnightblue" points="2008.65,-79.34 2017.76,-73.93 2007.26,-72.48 2008.65,-79.34"/>
</g>
<!-- Node33 -->
<g id="node33" class="node">
<title>Node33</title>
<g id="a_node33"><a xlink:href="../../d9/d3c/attrs_8h.html" target="_top" xlink:title=" ">
<polygon fill="none" stroke="black" points="2080,-56.5 2080,-75.5 2124,-75.5 2124,-56.5 2080,-56.5"/>
<text text-anchor="middle" x="2102" y="-63.5" font-family="Helvetica,sans-Serif" font-size="10.00">attrs.h</text>
</a>
</g>
</g>
<!-- Node2&#45;&gt;Node33 -->
<g id="edge34" class="edge">
<title>Node2&#45;&gt;Node33</title>
<path fill="none" stroke="midnightblue" d="M1700.2,-113.71C1703.16,-113.08 1706.13,-112.49 1709,-112 1865.11,-85.38 1910.4,-105.79 2069.62,-75.93"/>
<polygon fill="midnightblue" stroke="midnightblue" points="2070.6,-79.3 2079.77,-73.98 2069.29,-72.43 2070.6,-79.3"/>
</g>
<!-- Node34 -->
<g id="node34" class="node">
<title>Node34</title>
<g id="a_node34"><a xlink:href="../../db/d7c/utf8_8h.html" target="_top" xlink:title=" ">
<polygon fill="none" stroke="black" points="2142.5,-56.5 2142.5,-75.5 2183.5,-75.5 2183.5,-56.5 2142.5,-56.5"/>
<text text-anchor="middle" x="2163" y="-63.5" font-family="Helvetica,sans-Serif" font-size="10.00">utf8.h</text>
</a>
</g>
</g>
<!-- Node2&#45;&gt;Node34 -->
<g id="edge35" class="edge">
<title>Node2&#45;&gt;Node34</title>
<path fill="none" stroke="midnightblue" d="M1700.19,-113.67C1703.15,-113.04 1706.13,-112.47 1709,-112 1892.47,-82.08 1945.41,-110.36 2132.6,-75.63"/>
<polygon fill="midnightblue" stroke="midnightblue" points="2133.31,-79.06 2142.48,-73.77 2132.01,-72.18 2133.31,-79.06"/>
</g>
<!-- Node35 -->
<g id="node35" class="node">
<title>Node35</title>
<g id="a_node35"><a xlink:href="../../dd/ddc/screen_8h.html" target="_top" xlink:title=" ">
<polygon fill="none" stroke="black" points="2202,-56.5 2202,-75.5 2256,-75.5 2256,-56.5 2202,-56.5"/>
<text text-anchor="middle" x="2229" y="-63.5" font-family="Helvetica,sans-Serif" font-size="10.00">screen.h</text>
</a>
</g>
</g>
<!-- Node2&#45;&gt;Node35 -->
<g id="edge36" class="edge">
<title>Node2&#45;&gt;Node35</title>
<path fill="none" stroke="midnightblue" d="M1700.19,-113.64C1703.15,-113.02 1706.13,-112.45 1709,-112 1918.85,-78.9 1978.25,-109.33 2192.01,-75.87"/>
<polygon fill="midnightblue" stroke="midnightblue" points="2192.65,-79.31 2201.98,-74.28 2191.55,-72.4 2192.65,-79.31"/>
</g>
<!-- Node36 -->
<g id="node36" class="node">
<title>Node36</title>
<g id="a_node36"><a xlink:href="../../de/de5/key_8h.html" target="_top" xlink:title=" ">
<polygon fill="none" stroke="black" points="2274.5,-56.5 2274.5,-75.5 2313.5,-75.5 2313.5,-56.5 2274.5,-56.5"/>
<text text-anchor="middle" x="2294" y="-63.5" font-family="Helvetica,sans-Serif" font-size="10.00">key.h</text>
</a>
</g>
</g>
<!-- Node2&#45;&gt;Node36 -->
<g id="edge37" class="edge">
<title>Node2&#45;&gt;Node36</title>
<path fill="none" stroke="midnightblue" d="M1700.18,-113.61C1703.14,-112.99 1706.12,-112.44 1709,-112 1950.56,-75.09 2019.68,-119.8 2264.29,-75.64"/>
<polygon fill="midnightblue" stroke="midnightblue" points="2264.98,-79.07 2274.19,-73.83 2263.72,-72.19 2264.98,-79.07"/>
</g>
<!-- Node37 -->
<g id="node37" class="node">
<title>Node37</title>
<g id="a_node37"><a xlink:href="../../d0/dbe/ft_8h.html" target="_top" xlink:title=" ">
<polygon fill="none" stroke="black" points="2331.5,-56.5 2331.5,-75.5 2362.5,-75.5 2362.5,-56.5 2331.5,-56.5"/>
<text text-anchor="middle" x="2347" y="-63.5" font-family="Helvetica,sans-Serif" font-size="10.00">ft.h</text>
</a>
</g>
</g>
<!-- Node2&#45;&gt;Node37 -->
<g id="edge38" class="edge">
<title>Node2&#45;&gt;Node37</title>
<path fill="none" stroke="midnightblue" d="M1700.18,-113.59C1703.14,-112.98 1706.12,-112.43 1709,-112 1976.05,-72.03 2053.68,-131.15 2321.44,-75.71"/>
<polygon fill="midnightblue" stroke="midnightblue" points="2322.39,-79.08 2331.45,-73.6 2320.95,-72.23 2322.39,-79.08"/>
</g>
<!-- Node38 -->
<g id="node38" class="node">
<title>Node38</title>
<g id="a_node38"><a xlink:href="../../d2/da4/undo_8h.html" target="_top" xlink:title=" ">
<polygon fill="none" stroke="black" points="2381,-56.5 2381,-75.5 2427,-75.5 2427,-56.5 2381,-56.5"/>
<text text-anchor="middle" x="2404" y="-63.5" font-family="Helvetica,sans-Serif" font-size="10.00">undo.h</text>
</a>
</g>
</g>
<!-- Node2&#45;&gt;Node38 -->
<g id="edge39" class="edge">
<title>Node2&#45;&gt;Node38</title>
<path fill="none" stroke="midnightblue" d="M1700.18,-113.58C1703.14,-112.97 1706.12,-112.42 1709,-112 1997.66,-69.43 2079.05,-123.01 2370.7,-75.83"/>
<polygon fill="midnightblue" stroke="midnightblue" points="2371.42,-79.26 2380.72,-74.19 2370.28,-72.36 2371.42,-79.26"/>
</g>
<!-- Node39 -->
<g id="node39" class="node">
<title>Node39</title>
<g id="a_node39"><a xlink:href="../../d5/d08/buffer_8h.html" target="_top" xlink:title=" ">
<polygon fill="none" stroke="black" points="2445.5,-56.5 2445.5,-75.5 2494.5,-75.5 2494.5,-56.5 2445.5,-56.5"/>
<text text-anchor="middle" x="2470" y="-63.5" font-family="Helvetica,sans-Serif" font-size="10.00">buffer.h</text>
</a>
</g>
</g>
<!-- Node2&#45;&gt;Node39 -->
<g id="edge40" class="edge">
<title>Node2&#45;&gt;Node39</title>
<path fill="none" stroke="midnightblue" d="M1700.17,-113.57C1703.14,-112.96 1706.12,-112.42 1709,-112 2025.87,-66.04 2114.52,-124.44 2435.2,-75.74"/>
<polygon fill="midnightblue" stroke="midnightblue" points="2435.89,-79.18 2445.24,-74.19 2434.83,-72.26 2435.89,-79.18"/>
</g>
<!-- Node40 -->
<g id="node40" class="node">
<title>Node40</title>
<g id="a_node40"><a xlink:href="../../df/d7d/frame_8h.html" target="_top" xlink:title=" ">
<polygon fill="none" stroke="red" points="2513,-56.5 2513,-75.5 2563,-75.5 2563,-56.5 2513,-56.5"/>
<text text-anchor="middle" x="2538" y="-63.5" font-family="Helvetica,sans-Serif" font-size="10.00">frame.h</text>
</a>
</g>
</g>
<!-- Node2&#45;&gt;Node40 -->
<g id="edge41" class="edge">
<title>Node2&#45;&gt;Node40</title>
<path fill="none" stroke="midnightblue" d="M1700.17,-113.55C1703.14,-112.95 1706.12,-112.41 1709,-112 2055.89,-62.43 2152.59,-128.31 2502.97,-75.8"/>
<polygon fill="midnightblue" stroke="midnightblue" points="2503.52,-79.25 2512.88,-74.29 2502.46,-72.33 2503.52,-79.25"/>
</g>
<!-- Node42 -->
<g id="node41" class="node">
<title>Node42</title>
<g id="a_node41"><a xlink:href="../../d7/d7f/log_8h.html" target="_top" xlink:title=" ">
<polygon fill="none" stroke="black" points="2581,-56.5 2581,-75.5 2619,-75.5 2619,-56.5 2581,-56.5"/>
<text text-anchor="middle" x="2600" y="-63.5" font-family="Helvetica,sans-Serif" font-size="10.00">log.h</text>
</a>
</g>
</g>
<!-- Node2&#45;&gt;Node42 -->
<g id="edge42" class="edge">
<title>Node2&#45;&gt;Node42</title>
<path fill="none" stroke="midnightblue" d="M1700.17,-113.54C1703.14,-112.94 1706.12,-112.41 1709,-112 2085.88,-58.83 2192.25,-141.9 2571.04,-75.64"/>
<polygon fill="midnightblue" stroke="midnightblue" points="2571.66,-79.08 2580.89,-73.89 2570.44,-72.19 2571.66,-79.08"/>
</g>
<!-- Node43 -->
<g id="node42" class="node">
<title>Node43</title>
<g id="a_node42"><a xlink:href="../../d3/d2c/complete_8h.html" target="_top" xlink:title=" ">
<polygon fill="none" stroke="black" points="2637.5,-56.5 2637.5,-75.5 2702.5,-75.5 2702.5,-56.5 2637.5,-56.5"/>
<text text-anchor="middle" x="2670" y="-63.5" font-family="Helvetica,sans-Serif" font-size="10.00">complete.h</text>
</a>
</g>
</g>
<!-- Node2&#45;&gt;Node43 -->
<g id="edge43" class="edge">
<title>Node2&#45;&gt;Node43</title>
<path fill="none" stroke="midnightblue" d="M1700.17,-113.53C1703.14,-112.93 1706.12,-112.4 1709,-112 2110.56,-55.87 2220.67,-125.87 2627.11,-75.86"/>
<polygon fill="midnightblue" stroke="midnightblue" points="2627.59,-79.33 2637.08,-74.61 2626.72,-72.38 2627.59,-79.33"/>
</g>
<!-- Node44 -->
<g id="node43" class="node">
<title>Node44</title>
<g id="a_node43"><a xlink:href="../../d6/dde/cmd__line_8h.html" target="_top" xlink:title=" ">
<polygon fill="none" stroke="black" points="2721,-56.5 2721,-75.5 2785,-75.5 2785,-56.5 2721,-56.5"/>
<text text-anchor="middle" x="2753" y="-63.5" font-family="Helvetica,sans-Serif" font-size="10.00">cmd_line.h</text>
</a>
</g>
</g>
<!-- Node2&#45;&gt;Node44 -->
<g id="edge44" class="edge">
<title>Node2&#45;&gt;Node44</title>
<path fill="none" stroke="midnightblue" d="M1700.17,-113.52C1703.13,-112.92 1706.12,-112.4 1709,-112 2147.53,-51.43 2267.66,-130.83 2710.67,-75.91"/>
<polygon fill="midnightblue" stroke="midnightblue" points="2711.38,-79.35 2720.87,-74.63 2710.51,-72.4 2711.38,-79.35"/>
</g>
<!-- Node45 -->
<g id="node44" class="node">
<title>Node45</title>
<g id="a_node44"><a xlink:href="../../d0/d09/command_8h.html" target="_top" xlink:title=" ">
<polygon fill="none" stroke="black" points="2803,-56.5 2803,-75.5 2871,-75.5 2871,-56.5 2803,-56.5"/>
<text text-anchor="middle" x="2837" y="-63.5" font-family="Helvetica,sans-Serif" font-size="10.00">command.h</text>
</a>
</g>
</g>
<!-- Node2&#45;&gt;Node45 -->
<g id="edge45" class="edge">
<title>Node2&#45;&gt;Node45</title>
<path fill="none" stroke="midnightblue" d="M1700.17,-113.52C1703.13,-112.92 1706.12,-112.39 1709,-112 2183.77,-47.08 2313.2,-132.46 2792.87,-75.9"/>
<polygon fill="midnightblue" stroke="midnightblue" points="2793.31,-79.37 2802.82,-74.71 2792.48,-72.42 2793.31,-79.37"/>
</g>
<!-- Node46 -->
<g id="node45" class="node">
<title>Node46</title>
<g id="a_node45"><a xlink:href="../../d4/deb/get_r_s_s_8h.html" target="_top" xlink:title=" ">
<polygon fill="none" stroke="red" points="2889.5,-56.5 2889.5,-75.5 2948.5,-75.5 2948.5,-56.5 2889.5,-56.5"/>
<text text-anchor="middle" x="2919" y="-63.5" font-family="Helvetica,sans-Serif" font-size="10.00">getRSS.h</text>
</a>
</g>
</g>
<!-- Node2&#45;&gt;Node46 -->
<g id="edge46" class="edge">
<title>Node2&#45;&gt;Node46</title>
<path fill="none" stroke="midnightblue" d="M1700.17,-113.51C1703.13,-112.91 1706.12,-112.39 1709,-112 2221.7,-42.53 2361.85,-141.59 2879.33,-75.77"/>
<polygon fill="midnightblue" stroke="midnightblue" points="2879.83,-79.23 2889.3,-74.49 2878.93,-72.29 2879.83,-79.23"/>
</g>
<!-- Node48 -->
<g id="node46" class="node">
<title>Node48</title>
<g id="a_node46"><a xlink:href="../../d6/d0e/measure__time_8h.html" target="_top" xlink:title=" ">
<polygon fill="none" stroke="black" points="2967,-56.5 2967,-75.5 3053,-75.5 3053,-56.5 2967,-56.5"/>
<text text-anchor="middle" x="3010" y="-63.5" font-family="Helvetica,sans-Serif" font-size="10.00">measure_time.h</text>
</a>
</g>
</g>
<!-- Node2&#45;&gt;Node48 -->
<g id="edge47" class="edge">
<title>Node2&#45;&gt;Node48</title>
<path fill="none" stroke="midnightblue" d="M1700.17,-113.5C1703.13,-112.91 1706.12,-112.39 1709,-112 2256.03,-38.42 2403.64,-130.36 2956.7,-75.96"/>
<polygon fill="midnightblue" stroke="midnightblue" points="2957.33,-79.41 2966.93,-74.94 2956.64,-72.45 2957.33,-79.41"/>
</g>
<!-- Node49 -->
<g id="node47" class="node">
<title>Node49</title>
<g id="a_node47"><a xlink:href="../../dd/d20/event_8h.html" target="_top" xlink:title=" ">
<polygon fill="none" stroke="black" points="3071.5,-56.5 3071.5,-75.5 3120.5,-75.5 3120.5,-56.5 3071.5,-56.5"/>
<text text-anchor="middle" x="3096" y="-63.5" font-family="Helvetica,sans-Serif" font-size="10.00">event.h</text>
</a>
</g>
</g>
<!-- Node2&#45;&gt;Node49 -->
<g id="edge48" class="edge">
<title>Node2&#45;&gt;Node49</title>
<path fill="none" stroke="midnightblue" d="M1700.16,-113.5C1703.13,-112.9 1706.12,-112.38 1709,-112 2301.92,-32.91 2464.74,-160.1 3061.11,-75.71"/>
<polygon fill="midnightblue" stroke="midnightblue" points="3061.85,-79.14 3071.25,-74.26 3060.86,-72.21 3061.85,-79.14"/>
</g>
<!-- Node50 -->
<g id="node48" class="node">
<title>Node50</title>
<g id="a_node48"><a xlink:href="../../d9/dc4/plugin_8h.html" target="_top" xlink:title=" ">
<polygon fill="none" stroke="black" points="3139,-56.5 3139,-75.5 3189,-75.5 3189,-56.5 3139,-56.5"/>
<text text-anchor="middle" x="3164" y="-63.5" font-family="Helvetica,sans-Serif" font-size="10.00">plugin.h</text>
</a>
</g>
</g>
<!-- Node2&#45;&gt;Node50 -->
<g id="edge49" class="edge">
<title>Node2&#45;&gt;Node50</title>
<path fill="none" stroke="midnightblue" d="M1696.82,-112.47C1697.89,-112.3 1698.95,-112.14 1700,-112 2326.26,-28.87 2495.6,-165.44 3121,-76 3123.57,-75.63 3126.23,-75.14 3128.92,-74.57"/>
<polygon fill="midnightblue" stroke="midnightblue" points="3129.73,-77.97 3138.66,-72.27 3128.12,-71.16 3129.73,-77.97"/>
</g>
<!-- Node51 -->
<g id="node49" class="node">
<title>Node51</title>
<g id="a_node49"><a xlink:href="../../d6/db2/find_8h.html" target="_top" xlink:title=" ">
<polygon fill="none" stroke="black" points="3207.5,-56.5 3207.5,-75.5 3248.5,-75.5 3248.5,-56.5 3207.5,-56.5"/>
<text text-anchor="middle" x="3228" y="-63.5" font-family="Helvetica,sans-Serif" font-size="10.00">find.h</text>
</a>
</g>
</g>
<!-- Node2&#45;&gt;Node51 -->
<g id="edge51" class="edge">
<title>Node2&#45;&gt;Node51</title>
<path fill="none" stroke="midnightblue" d="M1700.16,-113.49C1703.13,-112.9 1706.12,-112.38 1709,-112 2033.93,-69.06 2854.89,-126.87 3197.2,-75.57"/>
<polygon fill="midnightblue" stroke="midnightblue" points="3197.84,-79.01 3207.19,-74.02 3196.77,-72.1 3197.84,-79.01"/>
</g>
<!-- Node28&#45;&gt;Node5 -->
<g id="edge29" class="edge">
<title>Node28&#45;&gt;Node5</title>
<path fill="none" stroke="midnightblue" d="M1278.46,-58.36C1275.31,-57.48 1272.08,-56.66 1269,-56 1155.51,-31.81 1018.24,-18.7 955.42,-13.58"/>
<polygon fill="midnightblue" stroke="midnightblue" points="955.52,-10.08 945.28,-12.77 954.97,-17.06 955.52,-10.08"/>
</g>
<!-- Node28&#45;&gt;Node21 -->
<g id="edge28" class="edge">
<title>Node28&#45;&gt;Node21</title>
<path fill="none" stroke="midnightblue" d="M1319.53,-58.39C1322.37,-57.55 1325.25,-56.73 1328,-56 1387.3,-40.32 1457.26,-25.8 1498.21,-17.7"/>
<polygon fill="midnightblue" stroke="midnightblue" points="1499.09,-21.09 1508.22,-15.73 1497.74,-14.23 1499.09,-21.09"/>
</g>
<!-- Node50&#45;&gt;Node2 -->
<g id="edge50" class="edge">
<title>Node50&#45;&gt;Node2</title>
<path fill="none" stroke="midnightblue" d="M3141.93,-75.53C3140.95,-75.71 3139.97,-75.86 3139,-76 2513.6,-165.44 2344.26,-28.87 1718,-112 1715.39,-112.35 1712.69,-112.8 1709.97,-113.33"/>
<polygon fill="midnightblue" stroke="midnightblue" points="1709.12,-109.93 1700.07,-115.45 1710.58,-116.78 1709.12,-109.93"/>
</g>
</g>
</svg>
