<?xml version="1.0" encoding="UTF-8" standalone="no"?>
<!DOCTYPE svg PUBLIC "-//W3C//DTD SVG 1.1//EN"
 "http://www.w3.org/Graphics/SVG/1.1/DTD/svg11.dtd">
<!-- Generated by graphviz version 3.0.0 (20220226.1711)
 -->
<!-- Title: yed_event_handler Pages: 1 -->
<svg width="511pt" height="478pt"
 viewBox="0.00 0.00 511.00 478.00" xmlns="http://www.w3.org/2000/svg" xmlns:xlink="http://www.w3.org/1999/xlink">
<g id="graph0" class="graph" transform="scale(1 1) rotate(0) translate(4 474)">
<title>yed_event_handler</title>
<!-- Node1 -->
<g id="node1" class="node">
<title>Node1</title>
<g id="a_node1"><a xlink:title=" ">
<polygon fill="#bfbfbf" stroke="black" points="213,-0.5 213,-19.5 311,-19.5 311,-0.5 213,-0.5"/>
<text text-anchor="middle" x="262" y="-7.5" font-family="Helvetica,sans-Serif" font-size="10.00">yed_event_handler</text>
</a>
</g>
</g>
<!-- Node2 -->
<g id="node2" class="node">
<title>Node2</title>
<g id="a_node2"><a xlink:href="../../de/d2f/structyed__event.html" target="_top" xlink:title=" ">
<polygon fill="none" stroke="black" points="231,-68.5 231,-87.5 293,-87.5 293,-68.5 231,-68.5"/>
<text text-anchor="middle" x="262" y="-75.5" font-family="Helvetica,sans-Serif" font-size="10.00">yed_event</text>
</a>
</g>
</g>
<!-- Node2&#45;&gt;Node1 -->
<g id="edge1" class="edge">
<title>Node2&#45;&gt;Node1</title>
<path fill="none" stroke="#9a32cd" stroke-dasharray="5,2" d="M262,-58.04C262,-45.47 262,-29.56 262,-19.84"/>
<polygon fill="#9a32cd" stroke="#9a32cd" points="258.5,-58.37 262,-68.37 265.5,-58.37 258.5,-58.37"/>
<text text-anchor="middle" x="268" y="-41" font-family="Helvetica,sans-Serif" font-size="10.00"> fn</text>
</g>
<!-- Node3 -->
<g id="node3" class="node">
<title>Node3</title>
<g id="a_node3"><a xlink:href="../../d3/d59/structyed__frame__t.html" target="_top" xlink:title=" ">
<polygon fill="none" stroke="black" points="64.5,-136.5 64.5,-155.5 135.5,-155.5 135.5,-136.5 64.5,-136.5"/>
<text text-anchor="middle" x="100" y="-143.5" font-family="Helvetica,sans-Serif" font-size="10.00">yed_frame_t</text>
</a>
</g>
</g>
<!-- Node3&#45;&gt;Node2 -->
<g id="edge2" class="edge">
<title>Node3&#45;&gt;Node2</title>
<path fill="none" stroke="#9a32cd" stroke-dasharray="5,2" d="M114.72,-128.67C122.44,-121.04 132.47,-112.45 143,-107 158.13,-99.17 201.06,-90.16 230.99,-84.52"/>
<polygon fill="#9a32cd" stroke="#9a32cd" points="111.72,-126.75 107.34,-136.39 116.78,-131.59 111.72,-126.75"/>
<text text-anchor="middle" x="157" y="-110" font-family="Helvetica,sans-Serif" font-size="10.00"> frame</text>
</g>
<!-- Node4 -->
<g id="node4" class="node">
<title>Node4</title>
<g id="a_node4"><a xlink:href="../../db/d0f/structyed__frame__tree__t.html" target="_top" xlink:title=" ">
<polygon fill="none" stroke="black" points="28,-68.5 28,-87.5 120,-87.5 120,-68.5 28,-68.5"/>
<text text-anchor="middle" x="74" y="-75.5" font-family="Helvetica,sans-Serif" font-size="10.00">yed_frame_tree_t</text>
</a>
</g>
</g>
<!-- Node3&#45;&gt;Node4 -->
<g id="edge5" class="edge">
<title>Node3&#45;&gt;Node4</title>
<path fill="none" stroke="#9a32cd" stroke-dasharray="5,2" d="M66.46,-131.12C61.48,-127.58 57.01,-123.25 54,-118 48.18,-107.83 56.6,-95.78 64.23,-87.8"/>
<polygon fill="#9a32cd" stroke="#9a32cd" points="64.81,-134.2 75.18,-136.34 68.4,-128.2 64.81,-134.2"/>
<text text-anchor="middle" x="68" y="-110" font-family="Helvetica,sans-Serif" font-size="10.00"> frame</text>
</g>
<!-- Node4&#45;&gt;Node3 -->
<g id="edge3" class="edge">
<title>Node4&#45;&gt;Node3</title>
<path fill="none" stroke="#9a32cd" stroke-dasharray="5,2" d="M81.27,-97.47C86.29,-110.2 92.73,-126.54 96.6,-136.37"/>
<polygon fill="#9a32cd" stroke="#9a32cd" points="84.4,-95.86 77.48,-87.84 77.89,-98.43 84.4,-95.86"/>
<text text-anchor="middle" x="100" y="-110" font-family="Helvetica,sans-Serif" font-size="10.00"> tree</text>
</g>
<!-- Node4&#45;&gt;Node4 -->
<g id="edge4" class="edge">
<title>Node4&#45;&gt;Node4</title>
<path fill="none" stroke="#9a32cd" stroke-dasharray="5,2" d="M130.27,-82.95C135.03,-81.89 138,-80.24 138,-78 138,-74.41 130.41,-72.34 120.02,-71.78"/>
<polygon fill="#9a32cd" stroke="#9a32cd" points="129.52,-79.52 120.02,-84.22 130.38,-86.46 129.52,-79.52"/>
<text text-anchor="middle" x="163.5" y="-81" font-family="Helvetica,sans-Serif" font-size="10.00"> child_trees</text>
<text text-anchor="middle" x="163.5" y="-70" font-family="Helvetica,sans-Serif" font-size="10.00">parent</text>
</g>
<!-- Node5 -->
<g id="node5" class="node">
<title>Node5</title>
<g id="a_node5"><a xlink:href="../../d5/d2d/structyed__buffer__t.html" target="_top" xlink:title=" ">
<polygon fill="none" stroke="black" points="218.5,-203.5 218.5,-222.5 289.5,-222.5 289.5,-203.5 218.5,-203.5"/>
<text text-anchor="middle" x="254" y="-210.5" font-family="Helvetica,sans-Serif" font-size="10.00">yed_buffer_t</text>
</a>
</g>
</g>
<!-- Node5&#45;&gt;Node2 -->
<g id="edge18" class="edge">
<title>Node5&#45;&gt;Node2</title>
<path fill="none" stroke="#9a32cd" stroke-dasharray="5,2" d="M255.13,-193.13C256.89,-163.88 260.21,-108.76 261.48,-87.59"/>
<polygon fill="#9a32cd" stroke="#9a32cd" points="251.63,-193.08 254.52,-203.27 258.62,-193.5 251.63,-193.08"/>
<text text-anchor="middle" x="272" y="-143.5" font-family="Helvetica,sans-Serif" font-size="10.00"> buffer</text>
</g>
<!-- Node5&#45;&gt;Node3 -->
<g id="edge6" class="edge">
<title>Node5&#45;&gt;Node3</title>
<path fill="none" stroke="#9a32cd" stroke-dasharray="5,2" d="M228.26,-198.79C212.96,-191.15 193.08,-181.58 175,-174 158.92,-167.26 140.5,-160.61 125.94,-155.6"/>
<polygon fill="#9a32cd" stroke="#9a32cd" points="227.08,-202.11 237.58,-203.49 230.23,-195.86 227.08,-202.11"/>
<text text-anchor="middle" x="213" y="-177" font-family="Helvetica,sans-Serif" font-size="10.00"> buffer</text>
</g>
<!-- Node6 -->
<g id="node6" class="node">
<title>Node6</title>
<g id="a_node6"><a xlink:href="../../dc/d81/structbucket__array__t.html" target="_top" xlink:title=" ">
<polygon fill="none" stroke="black" points="340.5,-343.5 340.5,-362.5 421.5,-362.5 421.5,-343.5 340.5,-343.5"/>
<text text-anchor="middle" x="381" y="-350.5" font-family="Helvetica,sans-Serif" font-size="10.00">bucket_array_t</text>
</a>
</g>
</g>
<!-- Node6&#45;&gt;Node5 -->
<g id="edge7" class="edge">
<title>Node6&#45;&gt;Node5</title>
<path fill="none" stroke="#9a32cd" stroke-dasharray="5,2" d="M381.68,-333.25C381.51,-308.7 377.39,-265.86 353,-241 336.53,-224.21 310.73,-217.56 289.59,-215.05"/>
<polygon fill="#9a32cd" stroke="#9a32cd" points="378.18,-333.35 381.53,-343.4 385.18,-333.45 378.18,-333.35"/>
<text text-anchor="middle" x="393" y="-306" font-family="Helvetica,sans-Serif" font-size="10.00"> lines</text>
</g>
<!-- Node7 -->
<g id="node7" class="node">
<title>Node7</title>
<g id="a_node7"><a xlink:href="../../d1/d16/structarray__t.html" target="_top" xlink:title=" ">
<polygon fill="none" stroke="black" points="264.5,-450.5 264.5,-469.5 311.5,-469.5 311.5,-450.5 264.5,-450.5"/>
<text text-anchor="middle" x="288" y="-457.5" font-family="Helvetica,sans-Serif" font-size="10.00">array_t</text>
</a>
</g>
</g>
<!-- Node7&#45;&gt;Node2 -->
<g id="edge20" class="edge">
<title>Node7&#45;&gt;Node2</title>
<path fill="none" stroke="#9a32cd" stroke-dasharray="5,2" d="M321.81,-458.97C367.69,-456.94 444,-445.65 444,-393 444,-393 444,-393 444,-145 444,-113.32 345.32,-92.51 293.29,-83.74"/>
<polygon fill="#9a32cd" stroke="#9a32cd" points="321.58,-455.47 311.69,-459.29 321.8,-462.47 321.58,-455.47"/>
<text text-anchor="middle" x="473.5" y="-266" font-family="Helvetica,sans-Serif" font-size="10.00"> gutter_attrs</text>
<text text-anchor="middle" x="473.5" y="-255" font-family="Helvetica,sans-Serif" font-size="10.00">gutter_glyphs</text>
<text text-anchor="middle" x="473.5" y="-244" font-family="Helvetica,sans-Serif" font-size="10.00">line_attrs</text>
</g>
<!-- Node7&#45;&gt;Node3 -->
<g id="edge17" class="edge">
<title>Node7&#45;&gt;Node3</title>
<path fill="none" stroke="#9a32cd" stroke-dasharray="5,2" d="M254.42,-458.33C178.47,-455.9 0,-444.69 0,-393 0,-393 0,-393 0,-212 0,-180.32 35.72,-163.29 64.46,-154.71"/>
<polygon fill="#9a32cd" stroke="#9a32cd" points="254.34,-461.83 264.43,-458.62 254.54,-454.83 254.34,-461.83"/>
<text text-anchor="middle" x="29.5" y="-317" font-family="Helvetica,sans-Serif" font-size="10.00"> gutter_attrs</text>
<text text-anchor="middle" x="29.5" y="-306" font-family="Helvetica,sans-Serif" font-size="10.00">gutter_glyphs</text>
<text text-anchor="middle" x="29.5" y="-295" font-family="Helvetica,sans-Serif" font-size="10.00">line_attrs</text>
</g>
<!-- Node7&#45;&gt;Node6 -->
<g id="edge8" class="edge">
<title>Node7&#45;&gt;Node6</title>
<path fill="none" stroke="#9a32cd" stroke-dasharray="5,2" d="M311.73,-444.6C317.04,-440.84 322.45,-436.55 327,-432 348.89,-410.11 367.75,-378.3 376.23,-362.95"/>
<polygon fill="#9a32cd" stroke="#9a32cd" points="309.42,-441.94 303.03,-450.39 313.29,-447.76 309.42,-441.94"/>
<text text-anchor="middle" x="355" y="-424" font-family="Helvetica,sans-Serif" font-size="10.00"> buckets</text>
</g>
<!-- Node8 -->
<g id="node8" class="node">
<title>Node8</title>
<g id="a_node8"><a xlink:href="../../d6/df3/structyed__line__t.html" target="_top" xlink:title=" ">
<polygon fill="none" stroke="black" points="78.5,-343.5 78.5,-362.5 139.5,-362.5 139.5,-343.5 78.5,-343.5"/>
<text text-anchor="middle" x="109" y="-350.5" font-family="Helvetica,sans-Serif" font-size="10.00">yed_line_t</text>
</a>
</g>
</g>
<!-- Node7&#45;&gt;Node8 -->
<g id="edge10" class="edge">
<title>Node7&#45;&gt;Node8</title>
<path fill="none" stroke="#9a32cd" stroke-dasharray="5,2" d="M254.88,-446.84C244.19,-442.55 232.42,-437.43 222,-432 181.83,-411.07 139.04,-378.24 119.65,-362.71"/>
<polygon fill="#9a32cd" stroke="#9a32cd" points="253.72,-450.14 264.31,-450.53 256.27,-443.62 253.72,-450.14"/>
<text text-anchor="middle" x="236" y="-424" font-family="Helvetica,sans-Serif" font-size="10.00"> chars</text>
</g>
<!-- Node10 -->
<g id="node10" class="node">
<title>Node10</title>
<g id="a_node10"><a xlink:href="../../d3/d53/structyed__undo__history.html" target="_top" xlink:title=" ">
<polygon fill="none" stroke="black" points="262.5,-299 262.5,-318 355.5,-318 355.5,-299 262.5,-299"/>
<text text-anchor="middle" x="309" y="-306" font-family="Helvetica,sans-Serif" font-size="10.00">yed_undo_history</text>
</a>
</g>
</g>
<!-- Node7&#45;&gt;Node10 -->
<g id="edge13" class="edge">
<title>Node7&#45;&gt;Node10</title>
<path fill="none" stroke="#9a32cd" stroke-dasharray="5,2" d="M296.23,-440.95C297.32,-438.01 298.3,-434.95 299,-432 308.95,-390.28 309.44,-338.56 309.19,-318.26"/>
<polygon fill="#9a32cd" stroke="#9a32cd" points="292.98,-439.65 292.37,-450.23 299.44,-442.34 292.98,-439.65"/>
<text text-anchor="middle" x="317" y="-395" font-family="Helvetica,sans-Serif" font-size="10.00"> redo</text>
<text text-anchor="middle" x="317" y="-384" font-family="Helvetica,sans-Serif" font-size="10.00">undo</text>
</g>
<!-- Node11 -->
<g id="node11" class="node">
<title>Node11</title>
<g id="a_node11"><a xlink:href="../../dc/dde/structyed__undo__record.html" target="_top" xlink:title=" ">
<polygon fill="none" stroke="black" points="185.5,-382.5 185.5,-401.5 276.5,-401.5 276.5,-382.5 185.5,-382.5"/>
<text text-anchor="middle" x="231" y="-389.5" font-family="Helvetica,sans-Serif" font-size="10.00">yed_undo_record</text>
</a>
</g>
</g>
<!-- Node7&#45;&gt;Node11 -->
<g id="edge15" class="edge">
<title>Node7&#45;&gt;Node11</title>
<path fill="none" stroke="#9a32cd" stroke-dasharray="5,2" d="M273.21,-442.49C270.15,-439.04 266.96,-435.41 264,-432 255.05,-421.68 244.93,-409.66 238.28,-401.73"/>
<polygon fill="#9a32cd" stroke="#9a32cd" points="270.68,-444.91 279.94,-450.05 275.91,-440.25 270.68,-444.91"/>
<text text-anchor="middle" x="281.5" y="-424" font-family="Helvetica,sans-Serif" font-size="10.00"> actions</text>
</g>
<!-- Node8&#45;&gt;Node5 -->
<g id="edge9" class="edge">
<title>Node8&#45;&gt;Node5</title>
<path fill="none" stroke="#9a32cd" stroke-dasharray="5,2" d="M102,-333.28C98.54,-320.72 96.53,-304.3 104,-292 128.75,-251.23 182.52,-230.79 218.49,-221.3"/>
<polygon fill="#9a32cd" stroke="#9a32cd" points="98.78,-334.69 105.2,-343.11 105.43,-332.52 98.78,-334.69"/>
<text text-anchor="middle" x="138.5" y="-306" font-family="Helvetica,sans-Serif" font-size="10.00"> get_line_cache</text>
</g>
<!-- Node9 -->
<g id="node9" class="node">
<title>Node9</title>
<g id="a_node9"><a xlink:href="../../d2/d1d/structyed__range.html" target="_top" xlink:title=" ">
<polygon fill="none" stroke="black" points="182,-299 182,-318 244,-318 244,-299 182,-299"/>
<text text-anchor="middle" x="213" y="-306" font-family="Helvetica,sans-Serif" font-size="10.00">yed_range</text>
</a>
</g>
</g>
<!-- Node9&#45;&gt;Node5 -->
<g id="edge11" class="edge">
<title>Node9&#45;&gt;Node5</title>
<path fill="none" stroke="#9a32cd" stroke-dasharray="5,2" d="M214.95,-288.58C216.98,-274.75 221.03,-255.89 229,-241 232.74,-234.02 238.72,-227.46 243.9,-222.56"/>
<polygon fill="#9a32cd" stroke="#9a32cd" points="211.44,-288.46 213.68,-298.82 218.38,-289.33 211.44,-288.46"/>
<text text-anchor="middle" x="250.5" y="-255" font-family="Helvetica,sans-Serif" font-size="10.00"> selection</text>
</g>
<!-- Node10&#45;&gt;Node5 -->
<g id="edge12" class="edge">
<title>Node10&#45;&gt;Node5</title>
<path fill="none" stroke="#9a32cd" stroke-dasharray="5,2" d="M299.56,-289.62C292.3,-276.1 281.87,-257.18 272,-241 268.24,-234.84 263.74,-228.09 260.18,-222.88"/>
<polygon fill="#9a32cd" stroke="#9a32cd" points="296.64,-291.58 304.43,-298.76 302.82,-288.29 296.64,-291.58"/>
<text text-anchor="middle" x="319.5" y="-255" font-family="Helvetica,sans-Serif" font-size="10.00"> undo_history</text>
</g>
<!-- Node11&#45;&gt;Node10 -->
<g id="edge14" class="edge">
<title>Node11&#45;&gt;Node10</title>
<path fill="none" stroke="#9a32cd" stroke-dasharray="5,2" d="M227.36,-372.27C226.54,-362.74 227.26,-351.42 233,-343 241.29,-330.85 255.04,-323.06 268.58,-318.09"/>
<polygon fill="#9a32cd" stroke="#9a32cd" points="223.92,-372.96 228.82,-382.35 230.85,-371.96 223.92,-372.96"/>
<text text-anchor="middle" x="266" y="-350.5" font-family="Helvetica,sans-Serif" font-size="10.00"> current_record</text>
</g>
<!-- Node12 -->
<g id="node12" class="node">
<title>Node12</title>
<g id="a_node12"><a xlink:href="../../d6/df6/structyed__attrs.html" target="_top" xlink:title=" ">
<polygon fill="none" stroke="black" points="107.5,-203.5 107.5,-222.5 164.5,-222.5 164.5,-203.5 107.5,-203.5"/>
<text text-anchor="middle" x="136" y="-210.5" font-family="Helvetica,sans-Serif" font-size="10.00">yed_attrs</text>
</a>
</g>
</g>
<!-- Node12&#45;&gt;Node2 -->
<g id="edge19" class="edge">
<title>Node12&#45;&gt;Node2</title>
<path fill="none" stroke="#9a32cd" stroke-dasharray="5,2" d="M159.27,-197.14C163.6,-193.57 167.78,-189.48 171,-185 184.47,-166.29 174.53,-154.7 188,-136 203.45,-114.55 229.22,-97.31 245.91,-87.61"/>
<polygon fill="#9a32cd" stroke="#9a32cd" points="156.88,-194.56 150.94,-203.33 161.05,-200.18 156.88,-194.56"/>
<text text-anchor="middle" x="220.5" y="-143.5" font-family="Helvetica,sans-Serif" font-size="10.00"> row_base_attr</text>
</g>
<!-- Node12&#45;&gt;Node3 -->
<g id="edge16" class="edge">
<title>Node12&#45;&gt;Node3</title>
<path fill="none" stroke="#9a32cd" stroke-dasharray="5,2" d="M111.18,-197.46C107.1,-193.91 103.41,-189.75 101,-185 96.34,-175.82 96.99,-163.72 98.2,-155.66"/>
<polygon fill="#9a32cd" stroke="#9a32cd" points="109.18,-200.33 119.3,-203.49 113.36,-194.72 109.18,-200.33"/>
<text text-anchor="middle" x="136" y="-177" font-family="Helvetica,sans-Serif" font-size="10.00"> row_base_attrs</text>
</g>
</g>
</svg>
