<?xml version="1.0" encoding="UTF-8" standalone="no"?>
<!DOCTYPE svg PUBLIC "-//W3C//DTD SVG 1.1//EN"
 "http://www.w3.org/Graphics/SVG/1.1/DTD/svg11.dtd">
<!-- Generated by graphviz version 3.0.0 (20220226.1711)
 -->
<!-- Title: src/bucket_array.h Pages: 1 -->
<svg width="325pt" height="308pt"
 viewBox="0.00 0.00 324.84 308.00" xmlns="http://www.w3.org/2000/svg" xmlns:xlink="http://www.w3.org/1999/xlink">
<g id="graph0" class="graph" transform="scale(1 1) rotate(0) translate(4 304)">
<title>src/bucket_array.h</title>
<!-- Node1 -->
<g id="node1" class="node">
<title>Node1</title>
<g id="a_node1"><a xlink:title=" ">
<polygon fill="#bfbfbf" stroke="black" points="78,-280.5 78,-299.5 174,-299.5 174,-280.5 78,-280.5"/>
<text text-anchor="middle" x="126" y="-287.5" font-family="Helvetica,sans-Serif" font-size="10.00">src/bucket_array.h</text>
</a>
</g>
</g>
<!-- Node2 -->
<g id="node2" class="node">
<title>Node2</title>
<g id="a_node2"><a xlink:href="../../db/d39/bucket__array_8c.html" target="_top" xlink:title=" ">
<polygon fill="none" stroke="black" points="0,-112.5 0,-131.5 96,-131.5 96,-112.5 0,-112.5"/>
<text text-anchor="middle" x="48" y="-119.5" font-family="Helvetica,sans-Serif" font-size="10.00">src/bucket_array.c</text>
</a>
</g>
</g>
<!-- Node1&#45;&gt;Node2 -->
<g id="edge1" class="edge">
<title>Node1&#45;&gt;Node2</title>
<path fill="none" stroke="midnightblue" d="M114.66,-272C101.97,-252.4 81.43,-218.92 68,-188 59.53,-168.51 53.08,-144.29 50,-131.63"/>
<polygon fill="midnightblue" stroke="midnightblue" points="111.78,-273.99 120.19,-280.43 117.63,-270.15 111.78,-273.99"/>
</g>
<!-- Node5 -->
<g id="node5" class="node">
<title>Node5</title>
<g id="a_node5"><a xlink:href="../../db/dde/internal_8h.html" target="_top" xlink:title=" ">
<polygon fill="none" stroke="black" points="197.5,-224.5 197.5,-243.5 270.5,-243.5 270.5,-224.5 197.5,-224.5"/>
<text text-anchor="middle" x="234" y="-231.5" font-family="Helvetica,sans-Serif" font-size="10.00">src/internal.h</text>
</a>
</g>
</g>
<!-- Node1&#45;&gt;Node5 -->
<g id="edge4" class="edge">
<title>Node1&#45;&gt;Node5</title>
<path fill="none" stroke="midnightblue" d="M152.55,-275.73C172.55,-265.73 199.39,-252.31 216.69,-243.65"/>
<polygon fill="midnightblue" stroke="midnightblue" points="150.73,-272.72 143.35,-280.32 153.86,-278.98 150.73,-272.72"/>
</g>
<!-- Node3 -->
<g id="node3" class="node">
<title>Node3</title>
<g id="a_node3"><a xlink:href="../../dc/df8/internal_8c.html" target="_top" xlink:title=" ">
<polygon fill="none" stroke="black" points="176.5,-56.5 176.5,-75.5 249.5,-75.5 249.5,-56.5 176.5,-56.5"/>
<text text-anchor="middle" x="213" y="-63.5" font-family="Helvetica,sans-Serif" font-size="10.00">src/internal.c</text>
</a>
</g>
</g>
<!-- Node2&#45;&gt;Node3 -->
<g id="edge2" class="edge">
<title>Node2&#45;&gt;Node3</title>
<path fill="none" stroke="midnightblue" d="M83.74,-109.3C114.83,-99.13 159.15,-84.62 186.98,-75.52"/>
<polygon fill="midnightblue" stroke="midnightblue" points="82.56,-106.01 74.14,-112.44 84.74,-112.66 82.56,-106.01"/>
</g>
<!-- Node4 -->
<g id="node4" class="node">
<title>Node4</title>
<g id="a_node4"><a xlink:href="../../d6/d07/yed_8c.html" target="_top" xlink:title=" ">
<polygon fill="none" stroke="black" points="216.5,-0.5 216.5,-19.5 273.5,-19.5 273.5,-0.5 216.5,-0.5"/>
<text text-anchor="middle" x="245" y="-7.5" font-family="Helvetica,sans-Serif" font-size="10.00">src/yed.c</text>
</a>
</g>
</g>
<!-- Node3&#45;&gt;Node4 -->
<g id="edge3" class="edge">
<title>Node3&#45;&gt;Node4</title>
<path fill="none" stroke="midnightblue" d="M223.5,-47.27C228.97,-38.05 235.42,-27.17 239.81,-19.75"/>
<polygon fill="midnightblue" stroke="midnightblue" points="220.37,-45.7 218.28,-56.08 226.39,-49.26 220.37,-45.7"/>
</g>
<!-- Node5&#45;&gt;Node4 -->
<g id="edge12" class="edge">
<title>Node5&#45;&gt;Node4</title>
<path fill="none" stroke="midnightblue" d="M269.45,-220.2C283.78,-213.06 298.84,-202.61 307,-188 340.65,-127.73 276.05,-45.9 252.85,-19.55"/>
<polygon fill="midnightblue" stroke="midnightblue" points="267.85,-217.08 260.21,-224.41 270.76,-223.44 267.85,-217.08"/>
</g>
<!-- Node6 -->
<g id="node6" class="node">
<title>Node6</title>
<g id="a_node6"><a xlink:href="../../da/d9e/boyer__moore_8h.html" target="_top" xlink:title=" ">
<polygon fill="none" stroke="black" points="77,-168.5 77,-187.5 175,-187.5 175,-168.5 77,-168.5"/>
<text text-anchor="middle" x="126" y="-175.5" font-family="Helvetica,sans-Serif" font-size="10.00">src/boyer_moore.h</text>
</a>
</g>
</g>
<!-- Node5&#45;&gt;Node6 -->
<g id="edge5" class="edge">
<title>Node5&#45;&gt;Node6</title>
<path fill="none" stroke="midnightblue" d="M207.45,-219.73C187.45,-209.73 160.61,-196.31 143.31,-187.65"/>
<polygon fill="midnightblue" stroke="midnightblue" points="206.14,-222.98 216.65,-224.32 209.27,-216.72 206.14,-222.98"/>
</g>
<!-- Node8 -->
<g id="node8" class="node">
<title>Node8</title>
<g id="a_node8"><a xlink:href="../../d4/daa/plugin_8c.html" target="_top" xlink:title=" ">
<polygon fill="none" stroke="black" points="230.5,-112.5 230.5,-131.5 297.5,-131.5 297.5,-112.5 230.5,-112.5"/>
<text text-anchor="middle" x="264" y="-119.5" font-family="Helvetica,sans-Serif" font-size="10.00">src/plugin.c</text>
</a>
</g>
</g>
<!-- Node5&#45;&gt;Node8 -->
<g id="edge8" class="edge">
<title>Node5&#45;&gt;Node8</title>
<path fill="none" stroke="midnightblue" d="M225.43,-214.84C220.37,-201.51 216.02,-183.16 222,-168 227.96,-152.89 241.65,-139.86 251.79,-131.76"/>
<polygon fill="midnightblue" stroke="midnightblue" points="222.32,-216.46 229.45,-224.3 228.76,-213.72 222.32,-216.46"/>
</g>
<!-- Node9 -->
<g id="node9" class="node">
<title>Node9</title>
<g id="a_node9"><a xlink:href="../../d9/dc4/plugin_8h.html" target="_top" xlink:title=" ">
<polygon fill="none" stroke="black" points="231.5,-168.5 231.5,-187.5 298.5,-187.5 298.5,-168.5 231.5,-168.5"/>
<text text-anchor="middle" x="265" y="-175.5" font-family="Helvetica,sans-Serif" font-size="10.00">src/plugin.h</text>
</a>
</g>
</g>
<!-- Node5&#45;&gt;Node9 -->
<g id="edge10" class="edge">
<title>Node5&#45;&gt;Node9</title>
<path fill="none" stroke="midnightblue" d="M238.08,-214.69C242.61,-205.59 249.12,-195.01 254.85,-187.75"/>
<polygon fill="midnightblue" stroke="midnightblue" points="234.77,-213.52 233.95,-224.08 241.18,-216.34 234.77,-213.52"/>
</g>
<!-- Node7 -->
<g id="node7" class="node">
<title>Node7</title>
<g id="a_node7"><a xlink:href="../../d6/d91/boyer__moore_8c.html" target="_top" xlink:title=" ">
<polygon fill="none" stroke="black" points="114,-112.5 114,-131.5 212,-131.5 212,-112.5 114,-112.5"/>
<text text-anchor="middle" x="163" y="-119.5" font-family="Helvetica,sans-Serif" font-size="10.00">src/boyer_moore.c</text>
</a>
</g>
</g>
<!-- Node6&#45;&gt;Node7 -->
<g id="edge6" class="edge">
<title>Node6&#45;&gt;Node7</title>
<path fill="none" stroke="midnightblue" d="M137.95,-159.57C144.31,-150.27 151.87,-139.25 157,-131.75"/>
<polygon fill="midnightblue" stroke="midnightblue" points="134.87,-157.86 132.11,-168.08 140.65,-161.81 134.87,-157.86"/>
</g>
<!-- Node7&#45;&gt;Node3 -->
<g id="edge7" class="edge">
<title>Node7&#45;&gt;Node3</title>
<path fill="none" stroke="midnightblue" d="M178.08,-104.72C186.89,-95.2 197.67,-83.56 204.9,-75.75"/>
<polygon fill="midnightblue" stroke="midnightblue" points="175.48,-102.37 171.26,-112.08 180.62,-107.12 175.48,-102.37"/>
</g>
<!-- Node8&#45;&gt;Node3 -->
<g id="edge9" class="edge">
<title>Node8&#45;&gt;Node3</title>
<path fill="none" stroke="midnightblue" d="M248.62,-104.72C239.63,-95.2 228.64,-83.56 221.26,-75.75"/>
<polygon fill="midnightblue" stroke="midnightblue" points="246.17,-107.22 255.58,-112.08 251.26,-102.41 246.17,-107.22"/>
</g>
<!-- Node9&#45;&gt;Node5 -->
<g id="edge11" class="edge">
<title>Node9&#45;&gt;Node5</title>
<path fill="none" stroke="midnightblue" d="M261.02,-197.1C256.52,-206.18 250.03,-216.77 244.29,-224.08"/>
<polygon fill="midnightblue" stroke="midnightblue" points="264.31,-198.32 265.11,-187.75 257.9,-195.51 264.31,-198.32"/>
</g>
</g>
</svg>
