<?xml version="1.0" encoding="UTF-8" standalone="no"?>
<!DOCTYPE svg PUBLIC "-//W3C//DTD SVG 1.1//EN"
 "http://www.w3.org/Graphics/SVG/1.1/DTD/svg11.dtd">
<!-- Generated by graphviz version 3.0.0 (20220226.1711)
 -->
<!-- Title: yed_lib Pages: 1 -->
<svg width="1200pt" height="679pt"
 viewBox="0.00 0.00 1200.00 678.55" xmlns="http://www.w3.org/2000/svg" xmlns:xlink="http://www.w3.org/1999/xlink">
<g id="graph0" class="graph" transform="scale(1 1) rotate(0) translate(4 674.55)">
<title>yed_lib</title>
<!-- Node1 -->
<g id="node1" class="node">
<title>Node1</title>
<g id="a_node1"><a xlink:title=" ">
<polygon fill="#bfbfbf" stroke="black" points="897.5,-291.05 897.5,-310.05 944.5,-310.05 944.5,-291.05 897.5,-291.05"/>
<text text-anchor="middle" x="921" y="-298.05" font-family="Helvetica,sans-Serif" font-size="10.00">yed_lib</text>
</a>
</g>
</g>
<!-- Node2 -->
<g id="node2" class="node">
<title>Node2</title>
<g id="a_node2"><a xlink:href="../../dc/da9/structyed__state__t.html" target="_top" xlink:title=" ">
<polygon fill="none" stroke="black" points="1112,-233.05 1112,-252.05 1180,-252.05 1180,-233.05 1112,-233.05"/>
<text text-anchor="middle" x="1146" y="-240.05" font-family="Helvetica,sans-Serif" font-size="10.00">yed_state_t</text>
</a>
</g>
</g>
<!-- Node1&#45;&gt;Node2 -->
<g id="edge2" class="edge">
<title>Node1&#45;&gt;Node2</title>
<path fill="none" stroke="#9a32cd" stroke-dasharray="5,2" d="M954.76,-306.63C988.01,-311.34 1040.39,-314.66 1082,-298.55 1106.29,-289.14 1127.26,-265.74 1137.78,-252.35"/>
<polygon fill="#9a32cd" stroke="#9a32cd" points="955.08,-303.14 944.67,-305.08 954.02,-310.06 955.08,-303.14"/>
<text text-anchor="middle" x="1041.5" y="-312.55" font-family="Helvetica,sans-Serif" font-size="10.00"> yed_lib</text>
</g>
<!-- Node2&#45;&gt;Node1 -->
<g id="edge1" class="edge">
<title>Node2&#45;&gt;Node1</title>
<path fill="none" stroke="#9a32cd" stroke-dasharray="5,2" d="M1101.86,-251.98C1073.16,-258.45 1034.69,-267.46 1001,-276.55 981.9,-281.7 960.44,-288.27 944.71,-293.23"/>
<polygon fill="#9a32cd" stroke="#9a32cd" points="1102.97,-255.32 1111.97,-249.72 1101.44,-248.49 1102.97,-255.32"/>
<text text-anchor="middle" x="1041.5" y="-290.55" font-family="Helvetica,sans-Serif" font-size="10.00"> _get_state</text>
<text text-anchor="middle" x="1041.5" y="-279.55" font-family="Helvetica,sans-Serif" font-size="10.00">_init</text>
</g>
<!-- Node3 -->
<g id="node3" class="node">
<title>Node3</title>
<g id="a_node3"><a xlink:href="../../d1/d16/structarray__t.html" target="_top" xlink:title=" ">
<polygon fill="none" stroke="black" points="0,-456.05 0,-475.05 47,-475.05 47,-456.05 0,-456.05"/>
<text text-anchor="middle" x="23.5" y="-463.05" font-family="Helvetica,sans-Serif" font-size="10.00">array_t</text>
</a>
</g>
</g>
<!-- Node3&#45;&gt;Node2 -->
<g id="edge3" class="edge">
<title>Node3&#45;&gt;Node2</title>
<path fill="none" stroke="#9a32cd" stroke-dasharray="5,2" d="M46.74,-449.95C110.73,-406.15 302.3,-282.49 483,-240.55 544.36,-226.3 986.19,-237.92 1111.78,-241.55"/>
<polygon fill="#9a32cd" stroke="#9a32cd" points="44.49,-447.25 38.24,-455.81 48.46,-453.01 44.49,-447.25"/>
<text text-anchor="middle" x="531.5" y="-353.55" font-family="Helvetica,sans-Serif" font-size="10.00"> bracketed_paste_buff</text>
<text text-anchor="middle" x="531.5" y="-342.55" font-family="Helvetica,sans-Serif" font-size="10.00">cmd_buff</text>
<text text-anchor="middle" x="531.5" y="-331.55" font-family="Helvetica,sans-Serif" font-size="10.00">cmd_prompt_hist</text>
<text text-anchor="middle" x="531.5" y="-320.55" font-family="Helvetica,sans-Serif" font-size="10.00">direct_draws</text>
<text text-anchor="middle" x="531.5" y="-309.55" font-family="Helvetica,sans-Serif" font-size="10.00">event_handlers</text>
<text text-anchor="middle" x="531.5" y="-298.55" font-family="Helvetica,sans-Serif" font-size="10.00">frame_trees</text>
<text text-anchor="middle" x="531.5" y="-287.55" font-family="Helvetica,sans-Serif" font-size="10.00">frames</text>
<text text-anchor="middle" x="531.5" y="-276.55" font-family="Helvetica,sans-Serif" font-size="10.00">ft_array</text>
<text text-anchor="middle" x="531.5" y="-265.55" font-family="Helvetica,sans-Serif" font-size="10.00">key_sequences</text>
<text text-anchor="middle" x="531.5" y="-254.55" font-family="Helvetica,sans-Serif" font-size="10.00">log_name_stack</text>
<text text-anchor="middle" x="531.5" y="-243.55" font-family="Helvetica,sans-Serif" font-size="10.00">...</text>
</g>
<!-- Node4 -->
<g id="node4" class="node">
<title>Node4</title>
<g id="a_node4"><a xlink:href="../../d3/d59/structyed__frame__t.html" target="_top" xlink:title=" ">
<polygon fill="none" stroke="black" points="885.5,-502.05 885.5,-521.05 956.5,-521.05 956.5,-502.05 885.5,-502.05"/>
<text text-anchor="middle" x="921" y="-509.05" font-family="Helvetica,sans-Serif" font-size="10.00">yed_frame_t</text>
</a>
</g>
</g>
<!-- Node3&#45;&gt;Node4 -->
<g id="edge19" class="edge">
<title>Node3&#45;&gt;Node4</title>
<path fill="none" stroke="#9a32cd" stroke-dasharray="5,2" d="M28.51,-484.99C33.86,-507.23 45.06,-543.9 65,-569.55 98.11,-612.12 111.57,-637.55 165.5,-637.55 165.5,-637.55 165.5,-637.55 647.5,-637.55 758,-637.55 872.36,-551.14 908.41,-521.43"/>
<polygon fill="#9a32cd" stroke="#9a32cd" points="31.89,-484.06 26.29,-475.07 25.06,-485.59 31.89,-484.06"/>
<text text-anchor="middle" x="418.5" y="-662.55" font-family="Helvetica,sans-Serif" font-size="10.00"> gutter_attrs</text>
<text text-anchor="middle" x="418.5" y="-651.55" font-family="Helvetica,sans-Serif" font-size="10.00">gutter_glyphs</text>
<text text-anchor="middle" x="418.5" y="-640.55" font-family="Helvetica,sans-Serif" font-size="10.00">line_attrs</text>
</g>
<!-- Node7 -->
<g id="node7" class="node">
<title>Node7</title>
<g id="a_node7"><a xlink:href="../../dc/d81/structbucket__array__t.html" target="_top" xlink:title=" ">
<polygon fill="none" stroke="black" points="251.5,-500.05 251.5,-519.05 332.5,-519.05 332.5,-500.05 251.5,-500.05"/>
<text text-anchor="middle" x="292" y="-507.05" font-family="Helvetica,sans-Serif" font-size="10.00">bucket_array_t</text>
</a>
</g>
</g>
<!-- Node3&#45;&gt;Node7 -->
<g id="edge10" class="edge">
<title>Node3&#45;&gt;Node7</title>
<path fill="none" stroke="#9a32cd" stroke-dasharray="5,2" d="M56.96,-478.29C59.66,-479.13 62.36,-479.9 65,-480.55 129.15,-496.32 205.78,-503.86 251.31,-507.19"/>
<polygon fill="#9a32cd" stroke="#9a32cd" points="57.94,-474.93 47.35,-475.04 55.69,-481.56 57.94,-474.93"/>
<text text-anchor="middle" x="84" y="-490.55" font-family="Helvetica,sans-Serif" font-size="10.00"> buckets</text>
</g>
<!-- Node8 -->
<g id="node8" class="node">
<title>Node8</title>
<g id="a_node8"><a xlink:href="../../d6/df3/structyed__line__t.html" target="_top" xlink:title=" ">
<polygon fill="none" stroke="black" points="136,-456.05 136,-475.05 197,-475.05 197,-456.05 136,-456.05"/>
<text text-anchor="middle" x="166.5" y="-463.05" font-family="Helvetica,sans-Serif" font-size="10.00">yed_line_t</text>
</a>
</g>
</g>
<!-- Node3&#45;&gt;Node8 -->
<g id="edge12" class="edge">
<title>Node3&#45;&gt;Node8</title>
<path fill="none" stroke="#9a32cd" stroke-dasharray="5,2" d="M57.42,-465.55C81.13,-465.55 112.85,-465.55 135.78,-465.55"/>
<polygon fill="#9a32cd" stroke="#9a32cd" points="57.15,-462.05 47.15,-465.55 57.15,-469.05 57.15,-462.05"/>
<text text-anchor="middle" x="84" y="-468.55" font-family="Helvetica,sans-Serif" font-size="10.00"> chars</text>
</g>
<!-- Node10 -->
<g id="node10" class="node">
<title>Node10</title>
<g id="a_node10"><a xlink:href="../../d3/d53/structyed__undo__history.html" target="_top" xlink:title=" ">
<polygon fill="none" stroke="black" points="372,-582.05 372,-601.05 465,-601.05 465,-582.05 372,-582.05"/>
<text text-anchor="middle" x="418.5" y="-589.05" font-family="Helvetica,sans-Serif" font-size="10.00">yed_undo_history</text>
</a>
</g>
</g>
<!-- Node3&#45;&gt;Node10 -->
<g id="edge15" class="edge">
<title>Node3&#45;&gt;Node10</title>
<path fill="none" stroke="#9a32cd" stroke-dasharray="5,2" d="M28.95,-484.95C34.29,-503.8 45.13,-531.8 65,-547.55 111.53,-584.41 287.4,-590.71 371.78,-591.57"/>
<polygon fill="#9a32cd" stroke="#9a32cd" points="32.29,-483.89 26.41,-475.08 25.51,-485.63 32.29,-483.89"/>
<text text-anchor="middle" x="166.5" y="-597.55" font-family="Helvetica,sans-Serif" font-size="10.00"> redo</text>
<text text-anchor="middle" x="166.5" y="-586.55" font-family="Helvetica,sans-Serif" font-size="10.00">undo</text>
</g>
<!-- Node11 -->
<g id="node11" class="node">
<title>Node11</title>
<g id="a_node11"><a xlink:href="../../dc/dde/structyed__undo__record.html" target="_top" xlink:title=" ">
<polygon fill="none" stroke="black" points="121,-532.05 121,-551.05 212,-551.05 212,-532.05 121,-532.05"/>
<text text-anchor="middle" x="166.5" y="-539.05" font-family="Helvetica,sans-Serif" font-size="10.00">yed_undo_record</text>
</a>
</g>
</g>
<!-- Node3&#45;&gt;Node11 -->
<g id="edge17" class="edge">
<title>Node3&#45;&gt;Node11</title>
<path fill="none" stroke="#9a32cd" stroke-dasharray="5,2" d="M34.48,-483.97C41.55,-495.31 52.07,-509.23 65,-517.55 81.59,-528.22 102.48,-534.16 120.91,-537.45"/>
<polygon fill="#9a32cd" stroke="#9a32cd" points="37.44,-482.1 29.37,-475.23 31.4,-485.63 37.44,-482.1"/>
<text text-anchor="middle" x="84" y="-535.55" font-family="Helvetica,sans-Serif" font-size="10.00"> actions</text>
</g>
<!-- Node13 -->
<g id="node13" class="node">
<title>Node13</title>
<g id="a_node13"><a xlink:href="../../df/d9c/structyed__cmd__line__readline__t.html" target="_top" xlink:title=" ">
<polygon fill="none" stroke="black" points="230,-139.05 230,-158.05 354,-158.05 354,-139.05 230,-139.05"/>
<text text-anchor="middle" x="292" y="-146.05" font-family="Helvetica,sans-Serif" font-size="10.00">yed_cmd_line_readline_t</text>
</a>
</g>
</g>
<!-- Node3&#45;&gt;Node13 -->
<g id="edge21" class="edge">
<title>Node3&#45;&gt;Node13</title>
<path fill="none" stroke="#9a32cd" stroke-dasharray="5,2" d="M24.45,-445.65C24.74,-387.97 28.79,-222.44 65,-185.55 107.19,-142.56 178.6,-137.49 229.86,-140.52"/>
<polygon fill="#9a32cd" stroke="#9a32cd" points="20.95,-445.95 24.44,-455.96 27.95,-445.96 20.95,-445.95"/>
<text text-anchor="middle" x="84" y="-188.55" font-family="Helvetica,sans-Serif" font-size="10.00"> hist</text>
</g>
<!-- Node14 -->
<g id="node14" class="node">
<title>Node14</title>
<g id="a_node14"><a xlink:href="../../d5/dce/structyed__completion__results__t.html" target="_top" xlink:title=" ">
<polygon fill="none" stroke="black" points="713,-83.05 713,-102.05 841,-102.05 841,-83.05 713,-83.05"/>
<text text-anchor="middle" x="777" y="-90.05" font-family="Helvetica,sans-Serif" font-size="10.00">yed_completion_results_t</text>
</a>
</g>
</g>
<!-- Node3&#45;&gt;Node14 -->
<g id="edge23" class="edge">
<title>Node3&#45;&gt;Node14</title>
<path fill="none" stroke="#9a32cd" stroke-dasharray="5,2" d="M24.98,-445.88C26.79,-385.73 34.66,-205.31 65,-156.55 93.36,-110.97 111.82,-89.55 165.5,-89.55 165.5,-89.55 165.5,-89.55 532.5,-89.55 593.8,-89.55 663.78,-90.51 712.94,-91.34"/>
<polygon fill="#9a32cd" stroke="#9a32cd" points="21.48,-445.86 24.71,-455.95 28.48,-446.05 21.48,-445.86"/>
<text text-anchor="middle" x="292" y="-92.55" font-family="Helvetica,sans-Serif" font-size="10.00"> strings</text>
</g>
<!-- Node18 -->
<g id="node18" class="node">
<title>Node18</title>
<g id="a_node18"><a xlink:href="../../d5/d88/structoptions__t.html" target="_top" xlink:title=" ">
<polygon fill="none" stroke="black" points="503.5,-41.05 503.5,-60.05 559.5,-60.05 559.5,-41.05 503.5,-41.05"/>
<text text-anchor="middle" x="531.5" y="-48.05" font-family="Helvetica,sans-Serif" font-size="10.00">options_t</text>
</a>
</g>
</g>
<!-- Node3&#45;&gt;Node18 -->
<g id="edge28" class="edge">
<title>Node3&#45;&gt;Node18</title>
<path fill="none" stroke="#9a32cd" stroke-dasharray="5,2" d="M25.19,-445.93C28.02,-370.67 39.78,-103.15 65,-75.55 180.3,50.69 422.29,-14.39 503.37,-41"/>
<polygon fill="#9a32cd" stroke="#9a32cd" points="21.69,-445.82 24.82,-455.94 28.69,-446.08 21.69,-445.82"/>
<text text-anchor="middle" x="166.5" y="-35.55" font-family="Helvetica,sans-Serif" font-size="10.00"> files</text>
</g>
<!-- Node4&#45;&gt;Node2 -->
<g id="edge4" class="edge">
<title>Node4&#45;&gt;Node2</title>
<path fill="none" stroke="#9a32cd" stroke-dasharray="5,2" d="M950.29,-497.56C995.6,-475.12 1079.62,-433.29 1082,-430.55 1129.72,-375.33 1141.61,-282.64 1144.29,-252.4"/>
<polygon fill="#9a32cd" stroke="#9a32cd" points="948.66,-494.46 941.25,-502.04 951.77,-500.74 948.66,-494.46"/>
<text text-anchor="middle" x="1041.5" y="-483.55" font-family="Helvetica,sans-Serif" font-size="10.00"> active_frame</text>
<text text-anchor="middle" x="1041.5" y="-472.55" font-family="Helvetica,sans-Serif" font-size="10.00">prev_active_frame</text>
</g>
<!-- Node5 -->
<g id="node5" class="node">
<title>Node5</title>
<g id="a_node5"><a xlink:href="../../db/d0f/structyed__frame__tree__t.html" target="_top" xlink:title=" ">
<polygon fill="none" stroke="black" points="1100,-508.05 1100,-527.05 1192,-527.05 1192,-508.05 1100,-508.05"/>
<text text-anchor="middle" x="1146" y="-515.05" font-family="Helvetica,sans-Serif" font-size="10.00">yed_frame_tree_t</text>
</a>
</g>
</g>
<!-- Node4&#45;&gt;Node5 -->
<g id="edge7" class="edge">
<title>Node4&#45;&gt;Node5</title>
<path fill="none" stroke="#9a32cd" stroke-dasharray="5,2" d="M967.26,-512.76C1005.83,-513.8 1060.99,-515.29 1099.6,-516.32"/>
<polygon fill="#9a32cd" stroke="#9a32cd" points="966.93,-509.25 956.84,-512.48 966.75,-516.25 966.93,-509.25"/>
<text text-anchor="middle" x="1041.5" y="-518.55" font-family="Helvetica,sans-Serif" font-size="10.00"> frame</text>
</g>
<!-- Node5&#45;&gt;Node4 -->
<g id="edge5" class="edge">
<title>Node5&#45;&gt;Node4</title>
<path fill="none" stroke="#9a32cd" stroke-dasharray="5,2" d="M1104.15,-505.61C1096.83,-503.92 1089.24,-502.45 1082,-501.55 1039.06,-496.18 989.25,-501.02 956.76,-505.65"/>
<polygon fill="#9a32cd" stroke="#9a32cd" points="1103.34,-509.01 1113.89,-508.01 1105.02,-502.22 1103.34,-509.01"/>
<text text-anchor="middle" x="1041.5" y="-504.55" font-family="Helvetica,sans-Serif" font-size="10.00"> tree</text>
</g>
<!-- Node5&#45;&gt;Node5 -->
<g id="edge6" class="edge">
<title>Node5&#45;&gt;Node5</title>
<path fill="none" stroke="#9a32cd" stroke-dasharray="5,2" d="M1126.74,-536.95C1128.03,-541.86 1134.45,-545.55 1146,-545.55 1164.48,-545.55 1169.83,-536.11 1162.03,-527.3"/>
<polygon fill="#9a32cd" stroke="#9a32cd" points="1130.11,-537.9 1129.97,-527.3 1123.48,-535.67 1130.11,-537.9"/>
<text text-anchor="middle" x="1146" y="-559.55" font-family="Helvetica,sans-Serif" font-size="10.00"> child_trees</text>
<text text-anchor="middle" x="1146" y="-548.55" font-family="Helvetica,sans-Serif" font-size="10.00">parent</text>
</g>
<!-- Node6 -->
<g id="node6" class="node">
<title>Node6</title>
<g id="a_node6"><a xlink:href="../../d5/d2d/structyed__buffer__t.html" target="_top" xlink:title=" ">
<polygon fill="none" stroke="black" points="611,-507.05 611,-526.05 682,-526.05 682,-507.05 611,-507.05"/>
<text text-anchor="middle" x="646.5" y="-514.05" font-family="Helvetica,sans-Serif" font-size="10.00">yed_buffer_t</text>
</a>
</g>
</g>
<!-- Node6&#45;&gt;Node4 -->
<g id="edge8" class="edge">
<title>Node6&#45;&gt;Node4</title>
<path fill="none" stroke="#9a32cd" stroke-dasharray="5,2" d="M692.33,-515.72C746.44,-514.73 836.25,-513.08 885.34,-512.18"/>
<polygon fill="#9a32cd" stroke="#9a32cd" points="691.95,-512.23 682.01,-515.91 692.07,-519.23 691.95,-512.23"/>
<text text-anchor="middle" x="777" y="-517.55" font-family="Helvetica,sans-Serif" font-size="10.00"> buffer</text>
</g>
<!-- Node7&#45;&gt;Node6 -->
<g id="edge9" class="edge">
<title>Node7&#45;&gt;Node6</title>
<path fill="none" stroke="#9a32cd" stroke-dasharray="5,2" d="M343,-510.54C415.56,-511.98 548.17,-514.61 610.88,-515.86"/>
<polygon fill="#9a32cd" stroke="#9a32cd" points="342.82,-507.03 332.75,-510.34 342.68,-514.03 342.82,-507.03"/>
<text text-anchor="middle" x="418.5" y="-515.55" font-family="Helvetica,sans-Serif" font-size="10.00"> lines</text>
</g>
<!-- Node8&#45;&gt;Node6 -->
<g id="edge11" class="edge">
<title>Node8&#45;&gt;Node6</title>
<path fill="none" stroke="#9a32cd" stroke-dasharray="5,2" d="M207.1,-469.39C264.13,-474.95 372.67,-485.67 465,-495.55 516.15,-501.02 528.92,-502.54 580,-508.55 590.01,-509.72 600.88,-511.04 610.83,-512.25"/>
<polygon fill="#9a32cd" stroke="#9a32cd" points="207.36,-465.89 197.07,-468.41 206.68,-472.86 207.36,-465.89"/>
<text text-anchor="middle" x="418.5" y="-498.55" font-family="Helvetica,sans-Serif" font-size="10.00"> get_line_cache</text>
</g>
<!-- Node9 -->
<g id="node9" class="node">
<title>Node9</title>
<g id="a_node9"><a xlink:href="../../d2/d1d/structyed__range.html" target="_top" xlink:title=" ">
<polygon fill="none" stroke="black" points="387.5,-544.05 387.5,-563.05 449.5,-563.05 449.5,-544.05 387.5,-544.05"/>
<text text-anchor="middle" x="418.5" y="-551.05" font-family="Helvetica,sans-Serif" font-size="10.00">yed_range</text>
</a>
</g>
</g>
<!-- Node9&#45;&gt;Node6 -->
<g id="edge13" class="edge">
<title>Node9&#45;&gt;Node6</title>
<path fill="none" stroke="#9a32cd" stroke-dasharray="5,2" d="M459.73,-547.58C492.22,-542.69 539.1,-535.48 580,-528.55 590.03,-526.85 600.9,-524.9 610.86,-523.07"/>
<polygon fill="#9a32cd" stroke="#9a32cd" points="459.08,-544.14 449.71,-549.09 460.12,-551.06 459.08,-544.14"/>
<text text-anchor="middle" x="531.5" y="-546.55" font-family="Helvetica,sans-Serif" font-size="10.00"> selection</text>
</g>
<!-- Node10&#45;&gt;Node6 -->
<g id="edge14" class="edge">
<title>Node10&#45;&gt;Node6</title>
<path fill="none" stroke="#9a32cd" stroke-dasharray="5,2" d="M475.03,-585.25C506.63,-580.42 546.48,-572.19 580,-558.55 600.02,-550.4 620.6,-536.03 633.22,-526.4"/>
<polygon fill="#9a32cd" stroke="#9a32cd" points="474.46,-581.8 465.07,-586.7 475.48,-588.72 474.46,-581.8"/>
<text text-anchor="middle" x="531.5" y="-585.55" font-family="Helvetica,sans-Serif" font-size="10.00"> undo_history</text>
</g>
<!-- Node11&#45;&gt;Node10 -->
<g id="edge16" class="edge">
<title>Node11&#45;&gt;Node10</title>
<path fill="none" stroke="#9a32cd" stroke-dasharray="5,2" d="M222.53,-542.08C260.31,-543.81 311.17,-548.84 354,-562.55 362.72,-565.33 363.76,-568.55 372,-572.55 378.78,-575.83 386.27,-579.1 393.19,-581.98"/>
<polygon fill="#9a32cd" stroke="#9a32cd" points="222.37,-538.58 212.24,-541.68 222.09,-545.57 222.37,-538.58"/>
<text text-anchor="middle" x="292" y="-565.55" font-family="Helvetica,sans-Serif" font-size="10.00"> current_record</text>
</g>
<!-- Node12 -->
<g id="node12" class="node">
<title>Node12</title>
<g id="a_node12"><a xlink:href="../../d6/df6/structyed__attrs.html" target="_top" xlink:title=" ">
<polygon fill="none" stroke="black" points="390,-412.05 390,-431.05 447,-431.05 447,-412.05 390,-412.05"/>
<text text-anchor="middle" x="418.5" y="-419.05" font-family="Helvetica,sans-Serif" font-size="10.00">yed_attrs</text>
</a>
</g>
</g>
<!-- Node12&#45;&gt;Node4 -->
<g id="edge18" class="edge">
<title>Node12&#45;&gt;Node4</title>
<path fill="none" stroke="#9a32cd" stroke-dasharray="5,2" d="M453.4,-434.55C462.88,-437.84 473.25,-441.12 483,-443.55 630.34,-480.22 810.81,-500.81 885.31,-508.28"/>
<polygon fill="#9a32cd" stroke="#9a32cd" points="454.51,-431.23 443.92,-431.16 452.16,-437.82 454.51,-431.23"/>
<text text-anchor="middle" x="646.5" y="-486.55" font-family="Helvetica,sans-Serif" font-size="10.00"> row_base_attrs</text>
</g>
<!-- Node19 -->
<g id="node19" class="node">
<title>Node19</title>
<g id="a_node19"><a xlink:href="../../d7/da8/structyed__screen.html" target="_top" xlink:title=" ">
<polygon fill="none" stroke="black" points="887.5,-383.05 887.5,-402.05 954.5,-402.05 954.5,-383.05 887.5,-383.05"/>
<text text-anchor="middle" x="921" y="-390.05" font-family="Helvetica,sans-Serif" font-size="10.00">yed_screen</text>
</a>
</g>
</g>
<!-- Node12&#45;&gt;Node19 -->
<g id="edge30" class="edge">
<title>Node12&#45;&gt;Node19</title>
<path fill="none" stroke="#9a32cd" stroke-dasharray="5,2" d="M457.34,-416.38C493.41,-411.67 549.3,-404.95 598,-401.55 703.44,-394.18 828.7,-392.78 887.04,-392.56"/>
<polygon fill="#9a32cd" stroke="#9a32cd" points="456.72,-412.93 447.26,-417.71 457.63,-419.87 456.72,-412.93"/>
<text text-anchor="middle" x="646.5" y="-404.55" font-family="Helvetica,sans-Serif" font-size="10.00"> cur_attrs</text>
</g>
<!-- Node20 -->
<g id="node20" class="node">
<title>Node20</title>
<g id="a_node20"><a xlink:href="../../d9/dba/structyed__screen__cell.html" target="_top" xlink:title=" ">
<polygon fill="none" stroke="black" points="603,-422.05 603,-441.05 690,-441.05 690,-422.05 603,-422.05"/>
<text text-anchor="middle" x="646.5" y="-429.05" font-family="Helvetica,sans-Serif" font-size="10.00">yed_screen_cell</text>
</a>
</g>
</g>
<!-- Node12&#45;&gt;Node20 -->
<g id="edge32" class="edge">
<title>Node12&#45;&gt;Node20</title>
<path fill="none" stroke="#9a32cd" stroke-dasharray="5,2" d="M457.4,-423.22C497.61,-425 560.98,-427.81 602.89,-429.66"/>
<polygon fill="#9a32cd" stroke="#9a32cd" points="457.36,-419.72 447.21,-422.77 457.05,-426.71 457.36,-419.72"/>
<text text-anchor="middle" x="531.5" y="-431.55" font-family="Helvetica,sans-Serif" font-size="10.00"> attrs</text>
</g>
<!-- Node13&#45;&gt;Node2 -->
<g id="edge20" class="edge">
<title>Node13&#45;&gt;Node2</title>
<path fill="none" stroke="#9a32cd" stroke-dasharray="5,2" d="M364.56,-142.59C411.67,-139.17 474.72,-135.55 530.5,-135.55 530.5,-135.55 530.5,-135.55 922,-135.55 994.79,-135.55 1019.33,-133.52 1082,-170.55 1108.6,-186.26 1129.8,-217.15 1139.41,-232.86"/>
<polygon fill="#9a32cd" stroke="#9a32cd" points="364.17,-139.1 354.46,-143.33 364.69,-146.09 364.17,-139.1"/>
<text text-anchor="middle" x="646.5" y="-160.55" font-family="Helvetica,sans-Serif" font-size="10.00"> cmd_prompt_readline</text>
<text text-anchor="middle" x="646.5" y="-149.55" font-family="Helvetica,sans-Serif" font-size="10.00">replace_readline</text>
<text text-anchor="middle" x="646.5" y="-138.55" font-family="Helvetica,sans-Serif" font-size="10.00">search_readline</text>
</g>
<!-- Node14&#45;&gt;Node2 -->
<g id="edge22" class="edge">
<title>Node14&#45;&gt;Node2</title>
<path fill="none" stroke="#9a32cd" stroke-dasharray="5,2" d="M842.11,-81.78C908.13,-74.28 1011.11,-72.98 1082,-121.55 1121.86,-148.85 1138.2,-209.48 1143.19,-232.98"/>
<polygon fill="#9a32cd" stroke="#9a32cd" points="841.34,-78.35 831.84,-83.03 842.19,-85.3 841.34,-78.35"/>
<text text-anchor="middle" x="921" y="-86.55" font-family="Helvetica,sans-Serif" font-size="10.00"> cmd_prompt_compl_results</text>
</g>
<!-- Node15 -->
<g id="node15" class="node">
<title>Node15</title>
<g id="a_node15"><a xlink:href="../../d1/d6b/structyed__key__binding__t.html" target="_top" xlink:title=" ">
<polygon fill="none" stroke="black" points="872,-202.05 872,-221.05 970,-221.05 970,-202.05 872,-202.05"/>
<text text-anchor="middle" x="921" y="-209.05" font-family="Helvetica,sans-Serif" font-size="10.00">yed_key_binding_t</text>
</a>
</g>
</g>
<!-- Node15&#45;&gt;Node2 -->
<g id="edge24" class="edge">
<title>Node15&#45;&gt;Node2</title>
<path fill="none" stroke="#9a32cd" stroke-dasharray="5,2" d="M980.2,-209.01C1010.81,-208.86 1048.76,-210.54 1082,-217.55 1097.31,-220.77 1113.72,-227.39 1125.95,-233.01"/>
<polygon fill="#9a32cd" stroke="#9a32cd" points="980.08,-205.51 970.13,-209.13 980.17,-212.51 980.08,-205.51"/>
<text text-anchor="middle" x="1041.5" y="-220.55" font-family="Helvetica,sans-Serif" font-size="10.00"> real_key_map</text>
</g>
<!-- Node16 -->
<g id="node16" class="node">
<title>Node16</title>
<g id="a_node16"><a xlink:href="../../d8/d31/unionyed__glyph.html" target="_top" xlink:title=" ">
<polygon fill="none" stroke="black" points="388,-354.05 388,-373.05 449,-373.05 449,-354.05 388,-354.05"/>
<text text-anchor="middle" x="418.5" y="-361.05" font-family="Helvetica,sans-Serif" font-size="10.00">yed_glyph</text>
</a>
</g>
</g>
<!-- Node16&#45;&gt;Node2 -->
<g id="edge25" class="edge">
<title>Node16&#45;&gt;Node2</title>
<path fill="none" stroke="#9a32cd" stroke-dasharray="5,2" d="M459.61,-365.46C585.91,-370.81 973.43,-382.07 1082,-324.55 1112.62,-308.32 1132.88,-269.95 1140.99,-252.05"/>
<polygon fill="#9a32cd" stroke="#9a32cd" points="459.39,-361.94 449.25,-365 459.09,-368.94 459.39,-361.94"/>
<text text-anchor="middle" x="777" y="-372.55" font-family="Helvetica,sans-Serif" font-size="10.00"> mbyte</text>
</g>
<!-- Node16&#45;&gt;Node20 -->
<g id="edge33" class="edge">
<title>Node16&#45;&gt;Node20</title>
<path fill="none" stroke="#9a32cd" stroke-dasharray="5,2" d="M459.3,-373.94C491.9,-382.64 539.16,-395.66 580,-408.55 593.1,-412.68 607.53,-417.69 619.49,-421.98"/>
<polygon fill="#9a32cd" stroke="#9a32cd" points="459.81,-370.46 449.25,-371.27 458.02,-377.22 459.81,-370.46"/>
<text text-anchor="middle" x="531.5" y="-411.55" font-family="Helvetica,sans-Serif" font-size="10.00"> glyph</text>
</g>
<!-- Node17 -->
<g id="node17" class="node">
<title>Node17</title>
<g id="a_node17"><a xlink:href="../../de/d13/structyed__style__t.html" target="_top" xlink:title=" ">
<polygon fill="none" stroke="black" points="887.5,-164.05 887.5,-183.05 954.5,-183.05 954.5,-164.05 887.5,-164.05"/>
<text text-anchor="middle" x="921" y="-171.05" font-family="Helvetica,sans-Serif" font-size="10.00">yed_style_t</text>
</a>
</g>
</g>
<!-- Node17&#45;&gt;Node2 -->
<g id="edge26" class="edge">
<title>Node17&#45;&gt;Node2</title>
<path fill="none" stroke="#9a32cd" stroke-dasharray="5,2" d="M964.81,-172.8C997.97,-173.64 1044.43,-177.98 1082,-193.55 1103.76,-202.56 1124.4,-221.21 1135.82,-232.72"/>
<polygon fill="#9a32cd" stroke="#9a32cd" points="964.6,-169.3 954.55,-172.64 964.49,-176.29 964.6,-169.3"/>
<text text-anchor="middle" x="1041.5" y="-196.55" font-family="Helvetica,sans-Serif" font-size="10.00"> active_style</text>
</g>
<!-- Node18&#45;&gt;Node2 -->
<g id="edge27" class="edge">
<title>Node18&#45;&gt;Node2</title>
<path fill="none" stroke="#9a32cd" stroke-dasharray="5,2" d="M569.55,-40.28C665.4,-16.11 924.97,33.85 1082,-84.55 1131.52,-121.88 1142.19,-204.28 1144.43,-232.69"/>
<polygon fill="#9a32cd" stroke="#9a32cd" points="568.55,-36.92 559.74,-42.81 570.29,-43.7 568.55,-36.92"/>
<text text-anchor="middle" x="777" y="-17.55" font-family="Helvetica,sans-Serif" font-size="10.00"> options</text>
</g>
<!-- Node19&#45;&gt;Node2 -->
<g id="edge29" class="edge">
<title>Node19&#45;&gt;Node2</title>
<path fill="none" stroke="#9a32cd" stroke-dasharray="5,2" d="M964.64,-388.16C1005.56,-383.23 1063.76,-374.09 1082,-360.55 1119.66,-332.57 1137.11,-275.28 1142.8,-252.35"/>
<polygon fill="#9a32cd" stroke="#9a32cd" points="964.17,-384.69 954.64,-389.32 964.98,-391.64 964.17,-384.69"/>
<text text-anchor="middle" x="1041.5" y="-418.55" font-family="Helvetica,sans-Serif" font-size="10.00"> screen1</text>
<text text-anchor="middle" x="1041.5" y="-407.55" font-family="Helvetica,sans-Serif" font-size="10.00">screen2</text>
<text text-anchor="middle" x="1041.5" y="-396.55" font-family="Helvetica,sans-Serif" font-size="10.00">screen_render</text>
<text text-anchor="middle" x="1041.5" y="-385.55" font-family="Helvetica,sans-Serif" font-size="10.00">screen_update</text>
</g>
<!-- Node20&#45;&gt;Node19 -->
<g id="edge31" class="edge">
<title>Node20&#45;&gt;Node19</title>
<path fill="none" stroke="#9a32cd" stroke-dasharray="5,2" d="M700.3,-425.4C739.25,-420.7 793.51,-413.82 841,-406.55 856.28,-404.21 873.17,-401.26 887.39,-398.68"/>
<polygon fill="#9a32cd" stroke="#9a32cd" points="699.75,-421.94 690.24,-426.61 700.58,-428.89 699.75,-421.94"/>
<text text-anchor="middle" x="777" y="-425.55" font-family="Helvetica,sans-Serif" font-size="10.00"> cells</text>
</g>
</g>
</svg>
