<?xml version="1.0" encoding="UTF-8" standalone="no"?>
<!DOCTYPE svg PUBLIC "-//W3C//DTD SVG 1.1//EN"
 "http://www.w3.org/Graphics/SVG/1.1/DTD/svg11.dtd">
<!-- Generated by graphviz version 3.0.0 (20220226.1711)
 -->
<!-- Title: _yed_syntax_items Pages: 1 -->
<svg width="181pt" height="162pt"
 viewBox="0.00 0.00 180.50 162.00" xmlns="http://www.w3.org/2000/svg" xmlns:xlink="http://www.w3.org/1999/xlink">
<g id="graph0" class="graph" transform="scale(1 1) rotate(0) translate(4 158)">
<title>_yed_syntax_items</title>
<!-- Node1 -->
<g id="node1" class="node">
<title>Node1</title>
<g id="a_node1"><a xlink:title=" ">
<polygon fill="#bfbfbf" stroke="black" points="0,-0.5 0,-19.5 101,-19.5 101,-0.5 0,-0.5"/>
<text text-anchor="middle" x="50.5" y="-7.5" font-family="Helvetica,sans-Serif" font-size="10.00">_yed_syntax_items</text>
</a>
</g>
</g>
<!-- Node2 -->
<g id="node2" class="node">
<title>Node2</title>
<g id="a_node2"><a xlink:href="../../d4/d1b/struct__yed__syntax__kwd__set.html" target="_top" xlink:title=" ">
<polygon fill="none" stroke="black" points="58.5,-67.5 58.5,-86.5 172.5,-86.5 172.5,-67.5 58.5,-67.5"/>
<text text-anchor="middle" x="115.5" y="-74.5" font-family="Helvetica,sans-Serif" font-size="10.00">_yed_syntax_kwd_set</text>
</a>
</g>
</g>
<!-- Node2&#45;&gt;Node1 -->
<g id="edge1" class="edge">
<title>Node2&#45;&gt;Node1</title>
<path fill="none" stroke="#9a32cd" stroke-dasharray="5,2" d="M99.5,-60C86.75,-47.25 69.39,-29.89 59.13,-19.63"/>
<polygon fill="#9a32cd" stroke="#9a32cd" points="97.19,-62.64 106.73,-67.23 102.14,-57.69 97.19,-62.64"/>
<text text-anchor="middle" x="100" y="-41" font-family="Helvetica,sans-Serif" font-size="10.00"> kwds</text>
</g>
<!-- Node3 -->
<g id="node3" class="node">
<title>Node3</title>
<g id="a_node3"><a xlink:href="../../d1/d16/structarray__t.html" target="_top" xlink:title=" ">
<polygon fill="none" stroke="black" points="11,-134.5 11,-153.5 58,-153.5 58,-134.5 11,-134.5"/>
<text text-anchor="middle" x="34.5" y="-141.5" font-family="Helvetica,sans-Serif" font-size="10.00">array_t</text>
</a>
</g>
</g>
<!-- Node3&#45;&gt;Node1 -->
<g id="edge3" class="edge">
<title>Node3&#45;&gt;Node1</title>
<path fill="none" stroke="#9a32cd" stroke-dasharray="5,2" d="M29.89,-124.63C26.7,-109.14 23.66,-86.46 27.5,-67 30.96,-49.47 39.97,-30.53 45.63,-19.78"/>
<polygon fill="#9a32cd" stroke="#9a32cd" points="26.51,-125.52 32.15,-134.48 33.33,-123.96 26.51,-125.52"/>
<text text-anchor="middle" x="38.5" y="-74.5" font-family="Helvetica,sans-Serif" font-size="10.00"> regs</text>
</g>
<!-- Node3&#45;&gt;Node2 -->
<g id="edge2" class="edge">
<title>Node3&#45;&gt;Node2</title>
<path fill="none" stroke="#9a32cd" stroke-dasharray="5,2" d="M53.55,-127.71C69.51,-114.91 91.71,-97.09 104.75,-86.63"/>
<polygon fill="#9a32cd" stroke="#9a32cd" points="51.03,-125.25 45.42,-134.23 55.41,-130.7 51.03,-125.25"/>
<text text-anchor="middle" x="110" y="-108" font-family="Helvetica,sans-Serif" font-size="10.00"> kwds_by_len</text>
</g>
</g>
</svg>
