<?xml version="1.0" encoding="UTF-8" standalone="no"?>
<!DOCTYPE svg PUBLIC "-//W3C//DTD SVG 1.1//EN"
 "http://www.w3.org/Graphics/SVG/1.1/DTD/svg11.dtd">
<!-- Generated by graphviz version 3.0.0 (20220226.1711)
 -->
<!-- Title: yed_syntax Pages: 1 -->
<svg width="376pt" height="320pt"
 viewBox="0.00 0.00 376.00 320.00" xmlns="http://www.w3.org/2000/svg" xmlns:xlink="http://www.w3.org/1999/xlink">
<g id="graph0" class="graph" transform="scale(1 1) rotate(0) translate(4 316)">
<title>yed_syntax</title>
<!-- Node1 -->
<g id="node1" class="node">
<title>Node1</title>
<g id="a_node1"><a xlink:title=" ">
<polygon fill="#bfbfbf" stroke="black" points="0,-0.5 0,-19.5 67,-19.5 67,-0.5 0,-0.5"/>
<text text-anchor="middle" x="33.5" y="-7.5" font-family="Helvetica,sans-Serif" font-size="10.00">yed_syntax</text>
</a>
</g>
</g>
<!-- Node2 -->
<g id="node2" class="node">
<title>Node2</title>
<g id="a_node2"><a xlink:href="../../d1/d16/structarray__t.html" target="_top" xlink:title=" ">
<polygon fill="none" stroke="black" points="92,-292.5 92,-311.5 139,-311.5 139,-292.5 92,-292.5"/>
<text text-anchor="middle" x="115.5" y="-299.5" font-family="Helvetica,sans-Serif" font-size="10.00">array_t</text>
</a>
</g>
</g>
<!-- Node2&#45;&gt;Node1 -->
<g id="edge1" class="edge">
<title>Node2&#45;&gt;Node1</title>
<path fill="none" stroke="#9a32cd" stroke-dasharray="5,2" d="M82.13,-293.52C53.73,-284.94 17.5,-267.78 17.5,-236 17.5,-236 17.5,-236 17.5,-87 17.5,-62.19 25.77,-33.78 30.42,-19.77"/>
<polygon fill="#9a32cd" stroke="#9a32cd" points="81.2,-296.89 91.78,-296.2 83.08,-290.15 81.2,-296.89"/>
<text text-anchor="middle" x="41" y="-170" font-family="Helvetica,sans-Serif" font-size="10.00"> attr_stack</text>
<text text-anchor="middle" x="41" y="-159" font-family="Helvetica,sans-Serif" font-size="10.00">attrs</text>
<text text-anchor="middle" x="41" y="-148" font-family="Helvetica,sans-Serif" font-size="10.00">ranges</text>
</g>
<!-- Node3 -->
<g id="node3" class="node">
<title>Node3</title>
<g id="a_node3"><a xlink:href="../../d4/d00/struct__yed__syntax__range.html" target="_top" xlink:title=" ">
<polygon fill="none" stroke="black" points="74,-78.5 74,-97.5 175,-97.5 175,-78.5 74,-78.5"/>
<text text-anchor="middle" x="124.5" y="-85.5" font-family="Helvetica,sans-Serif" font-size="10.00">_yed_syntax_range</text>
</a>
</g>
</g>
<!-- Node2&#45;&gt;Node3 -->
<g id="edge5" class="edge">
<title>Node2&#45;&gt;Node3</title>
<path fill="none" stroke="#9a32cd" stroke-dasharray="5,2" d="M113.32,-282.07C110.31,-252.64 105.87,-194.19 111.5,-145 113.45,-127.94 118.65,-108.53 121.85,-97.62"/>
<polygon fill="#9a32cd" stroke="#9a32cd" points="109.86,-282.6 114.41,-292.17 116.82,-281.85 109.86,-282.6"/>
<text text-anchor="middle" x="123" y="-199" font-family="Helvetica,sans-Serif" font-size="10.00"> skips</text>
</g>
<!-- Node6 -->
<g id="node6" class="node">
<title>Node6</title>
<g id="a_node6"><a xlink:href="../../de/d3a/struct__yed__syntax__items.html" target="_top" xlink:title=" ">
<polygon fill="none" stroke="black" points="121,-152 121,-171 222,-171 222,-152 121,-152"/>
<text text-anchor="middle" x="171.5" y="-159" font-family="Helvetica,sans-Serif" font-size="10.00">_yed_syntax_items</text>
</a>
</g>
</g>
<!-- Node2&#45;&gt;Node6 -->
<g id="edge9" class="edge">
<title>Node2&#45;&gt;Node6</title>
<path fill="none" stroke="#9a32cd" stroke-dasharray="5,2" d="M122.77,-283.02C134.94,-252.91 159,-193.41 168,-171.16"/>
<polygon fill="#9a32cd" stroke="#9a32cd" points="119.51,-281.75 119,-292.34 126,-284.38 119.51,-281.75"/>
<text text-anchor="middle" x="156.5" y="-232.5" font-family="Helvetica,sans-Serif" font-size="10.00"> regs</text>
</g>
<!-- Node7 -->
<g id="node7" class="node">
<title>Node7</title>
<g id="a_node7"><a xlink:href="../../d4/d1b/struct__yed__syntax__kwd__set.html" target="_top" xlink:title=" ">
<polygon fill="none" stroke="black" points="178.5,-225.5 178.5,-244.5 292.5,-244.5 292.5,-225.5 178.5,-225.5"/>
<text text-anchor="middle" x="235.5" y="-232.5" font-family="Helvetica,sans-Serif" font-size="10.00">_yed_syntax_kwd_set</text>
</a>
</g>
</g>
<!-- Node2&#45;&gt;Node7 -->
<g id="edge8" class="edge">
<title>Node2&#45;&gt;Node7</title>
<path fill="none" stroke="#9a32cd" stroke-dasharray="5,2" d="M140.5,-287.46C164.29,-274.57 199.37,-255.57 219.57,-244.63"/>
<polygon fill="#9a32cd" stroke="#9a32cd" points="138.81,-284.39 131.68,-292.23 142.14,-290.55 138.81,-284.39"/>
<text text-anchor="middle" x="214" y="-266" font-family="Helvetica,sans-Serif" font-size="10.00"> kwds_by_len</text>
</g>
<!-- Node3&#45;&gt;Node1 -->
<g id="edge2" class="edge">
<title>Node3&#45;&gt;Node1</title>
<path fill="none" stroke="#9a32cd" stroke-dasharray="5,2" d="M106.22,-71.73C87.47,-56.07 58.97,-32.27 43.82,-19.62"/>
<polygon fill="#9a32cd" stroke="#9a32cd" points="104.14,-74.56 114.06,-78.28 108.63,-69.19 104.14,-74.56"/>
<text text-anchor="middle" x="105" y="-52" font-family="Helvetica,sans-Serif" font-size="10.00"> global</text>
<text text-anchor="middle" x="105" y="-41" font-family="Helvetica,sans-Serif" font-size="10.00">range</text>
</g>
<!-- Node4 -->
<g id="node4" class="node">
<title>Node4</title>
<g id="a_node4"><a xlink:href="../../d7/d24/struct__yed__syntax__attr.html" target="_top" xlink:title=" ">
<polygon fill="none" stroke="black" points="267.5,-152 267.5,-171 359.5,-171 359.5,-152 267.5,-152"/>
<text text-anchor="middle" x="313.5" y="-159" font-family="Helvetica,sans-Serif" font-size="10.00">_yed_syntax_attr</text>
</a>
</g>
</g>
<!-- Node4&#45;&gt;Node3 -->
<g id="edge3" class="edge">
<title>Node4&#45;&gt;Node3</title>
<path fill="none" stroke="#9a32cd" stroke-dasharray="5,2" d="M281.08,-148.24C242.88,-133.78 180.4,-110.15 147.08,-97.54"/>
<polygon fill="#9a32cd" stroke="#9a32cd" points="280.11,-151.61 290.7,-151.88 282.59,-145.06 280.11,-151.61"/>
<text text-anchor="middle" x="234.5" y="-119" font-family="Helvetica,sans-Serif" font-size="10.00"> attr</text>
</g>
<!-- Node5 -->
<g id="node5" class="node">
<title>Node5</title>
<g id="a_node5"><a xlink:href="../../d6/df6/structyed__attrs.html" target="_top" xlink:title=" ">
<polygon fill="none" stroke="black" points="311,-225.5 311,-244.5 368,-244.5 368,-225.5 311,-225.5"/>
<text text-anchor="middle" x="339.5" y="-232.5" font-family="Helvetica,sans-Serif" font-size="10.00">yed_attrs</text>
</a>
</g>
</g>
<!-- Node5&#45;&gt;Node4 -->
<g id="edge4" class="edge">
<title>Node5&#45;&gt;Node4</title>
<path fill="none" stroke="#9a32cd" stroke-dasharray="5,2" d="M332.78,-215.51C327.61,-201.3 320.7,-182.31 316.71,-171.34"/>
<polygon fill="#9a32cd" stroke="#9a32cd" points="329.61,-217.03 336.31,-225.23 336.18,-214.64 329.61,-217.03"/>
<text text-anchor="middle" x="338.5" y="-199" font-family="Helvetica,sans-Serif" font-size="10.00"> attr</text>
</g>
<!-- Node6&#45;&gt;Node3 -->
<g id="edge6" class="edge">
<title>Node6&#45;&gt;Node3</title>
<path fill="none" stroke="#9a32cd" stroke-dasharray="5,2" d="M160.16,-143.25C150.75,-128.93 137.73,-109.13 130.31,-97.84"/>
<polygon fill="#9a32cd" stroke="#9a32cd" points="157.32,-145.3 165.74,-151.73 163.17,-141.45 157.32,-145.3"/>
<text text-anchor="middle" x="163.5" y="-119" font-family="Helvetica,sans-Serif" font-size="10.00"> items</text>
</g>
<!-- Node7&#45;&gt;Node6 -->
<g id="edge7" class="edge">
<title>Node7&#45;&gt;Node6</title>
<path fill="none" stroke="#9a32cd" stroke-dasharray="5,2" d="M220.79,-217.57C207.92,-203.19 189.71,-182.85 179.41,-171.34"/>
<polygon fill="#9a32cd" stroke="#9a32cd" points="218.37,-220.12 227.65,-225.23 223.59,-215.45 218.37,-220.12"/>
<text text-anchor="middle" x="225" y="-199" font-family="Helvetica,sans-Serif" font-size="10.00"> kwds</text>
</g>
</g>
</svg>
