<?xml version="1.0" encoding="UTF-8" standalone="no"?>
<!DOCTYPE svg PUBLIC "-//W3C//DTD SVG 1.1//EN"
 "http://www.w3.org/Graphics/SVG/1.1/DTD/svg11.dtd">
<!-- Generated by graphviz version 3.0.0 (20220226.1711)
 -->
<!-- Title: yed_nb_subproc_t Pages: 1 -->
<svg width="380pt" height="307pt"
 viewBox="0.00 0.00 379.50 307.00" xmlns="http://www.w3.org/2000/svg" xmlns:xlink="http://www.w3.org/1999/xlink">
<g id="graph0" class="graph" transform="scale(1 1) rotate(0) translate(4 303)">
<title>yed_nb_subproc_t</title>
<!-- Node1 -->
<g id="node1" class="node">
<title>Node1</title>
<g id="a_node1"><a xlink:title=" ">
<polygon fill="#bfbfbf" stroke="black" points="104.5,-0.5 104.5,-19.5 200.5,-19.5 200.5,-0.5 104.5,-0.5"/>
<text text-anchor="middle" x="152.5" y="-7.5" font-family="Helvetica,sans-Serif" font-size="10.00">yed_nb_subproc_t</text>
</a>
</g>
</g>
<!-- Node2 -->
<g id="node2" class="node">
<title>Node2</title>
<g id="a_node2"><a xlink:href="../../d5/d2d/structyed__buffer__t.html" target="_top" xlink:title=" ">
<polygon fill="none" stroke="black" points="117,-67.5 117,-86.5 188,-86.5 188,-67.5 117,-67.5"/>
<text text-anchor="middle" x="152.5" y="-74.5" font-family="Helvetica,sans-Serif" font-size="10.00">yed_buffer_t</text>
</a>
</g>
</g>
<!-- Node2&#45;&gt;Node1 -->
<g id="edge1" class="edge">
<title>Node2&#45;&gt;Node1</title>
<path fill="none" stroke="#9a32cd" stroke-dasharray="5,2" d="M152.5,-57.04C152.5,-44.67 152.5,-29.12 152.5,-19.63"/>
<polygon fill="#9a32cd" stroke="#9a32cd" points="149,-57.23 152.5,-67.23 156,-57.23 149,-57.23"/>
<text text-anchor="middle" x="166.5" y="-41" font-family="Helvetica,sans-Serif" font-size="10.00"> buffer</text>
</g>
<!-- Node3 -->
<g id="node3" class="node">
<title>Node3</title>
<g id="a_node3"><a xlink:href="../../dc/d81/structbucket__array__t.html" target="_top" xlink:title=" ">
<polygon fill="none" stroke="black" points="0,-172.5 0,-191.5 81,-191.5 81,-172.5 0,-172.5"/>
<text text-anchor="middle" x="40.5" y="-179.5" font-family="Helvetica,sans-Serif" font-size="10.00">bucket_array_t</text>
</a>
</g>
</g>
<!-- Node3&#45;&gt;Node2 -->
<g id="edge2" class="edge">
<title>Node3&#45;&gt;Node2</title>
<path fill="none" stroke="#9a32cd" stroke-dasharray="5,2" d="M56.54,-164.86C65.76,-155.68 77.64,-144.05 88.5,-134 107.14,-116.75 129.62,-97.4 142.37,-86.56"/>
<polygon fill="#9a32cd" stroke="#9a32cd" points="53.8,-162.64 49.2,-172.19 58.75,-167.59 53.8,-162.64"/>
<text text-anchor="middle" x="100.5" y="-141.5" font-family="Helvetica,sans-Serif" font-size="10.00"> lines</text>
</g>
<!-- Node4 -->
<g id="node4" class="node">
<title>Node4</title>
<g id="a_node4"><a xlink:href="../../d1/d16/structarray__t.html" target="_top" xlink:title=" ">
<polygon fill="none" stroke="black" points="116,-279.5 116,-298.5 163,-298.5 163,-279.5 116,-279.5"/>
<text text-anchor="middle" x="139.5" y="-286.5" font-family="Helvetica,sans-Serif" font-size="10.00">array_t</text>
</a>
</g>
</g>
<!-- Node4&#45;&gt;Node3 -->
<g id="edge3" class="edge">
<title>Node4&#45;&gt;Node3</title>
<path fill="none" stroke="#9a32cd" stroke-dasharray="5,2" d="M106.43,-279.04C95.88,-274.9 84.79,-269.07 76.5,-261 56.08,-241.14 46.09,-207.49 42.34,-191.69"/>
<polygon fill="#9a32cd" stroke="#9a32cd" points="105.29,-282.34 115.88,-282.37 107.62,-275.74 105.29,-282.34"/>
<text text-anchor="middle" x="95.5" y="-253" font-family="Helvetica,sans-Serif" font-size="10.00"> buckets</text>
</g>
<!-- Node5 -->
<g id="node5" class="node">
<title>Node5</title>
<g id="a_node5"><a xlink:href="../../d6/df3/structyed__line__t.html" target="_top" xlink:title=" ">
<polygon fill="none" stroke="black" points="86,-172.5 86,-191.5 147,-191.5 147,-172.5 86,-172.5"/>
<text text-anchor="middle" x="116.5" y="-179.5" font-family="Helvetica,sans-Serif" font-size="10.00">yed_line_t</text>
</a>
</g>
</g>
<!-- Node4&#45;&gt;Node5 -->
<g id="edge5" class="edge">
<title>Node4&#45;&gt;Node5</title>
<path fill="none" stroke="#9a32cd" stroke-dasharray="5,2" d="M125.48,-271.06C123.48,-267.88 121.7,-264.46 120.5,-261 112.27,-237.16 113.89,-206.79 115.39,-191.96"/>
<polygon fill="#9a32cd" stroke="#9a32cd" points="122.7,-273.19 131.4,-279.23 128.37,-269.08 122.7,-273.19"/>
<text text-anchor="middle" x="134.5" y="-253" font-family="Helvetica,sans-Serif" font-size="10.00"> chars</text>
</g>
<!-- Node7 -->
<g id="node7" class="node">
<title>Node7</title>
<g id="a_node7"><a xlink:href="../../d3/d53/structyed__undo__history.html" target="_top" xlink:title=" ">
<polygon fill="none" stroke="black" points="198,-134.5 198,-153.5 291,-153.5 291,-134.5 198,-134.5"/>
<text text-anchor="middle" x="244.5" y="-141.5" font-family="Helvetica,sans-Serif" font-size="10.00">yed_undo_history</text>
</a>
</g>
</g>
<!-- Node4&#45;&gt;Node7 -->
<g id="edge8" class="edge">
<title>Node4&#45;&gt;Node7</title>
<path fill="none" stroke="#9a32cd" stroke-dasharray="5,2" d="M145.85,-269.88C152.97,-250.12 164.44,-219.97 171.5,-210 188.47,-186.04 215.84,-164.78 231.81,-153.51"/>
<polygon fill="#9a32cd" stroke="#9a32cd" points="142.54,-268.76 142.49,-279.36 149.13,-271.1 142.54,-268.76"/>
<text text-anchor="middle" x="182.5" y="-224" font-family="Helvetica,sans-Serif" font-size="10.00"> redo</text>
<text text-anchor="middle" x="182.5" y="-213" font-family="Helvetica,sans-Serif" font-size="10.00">undo</text>
</g>
<!-- Node8 -->
<g id="node8" class="node">
<title>Node8</title>
<g id="a_node8"><a xlink:href="../../dc/dde/structyed__undo__record.html" target="_top" xlink:title=" ">
<polygon fill="none" stroke="black" points="203,-211.5 203,-230.5 294,-230.5 294,-211.5 203,-211.5"/>
<text text-anchor="middle" x="248.5" y="-218.5" font-family="Helvetica,sans-Serif" font-size="10.00">yed_undo_record</text>
</a>
</g>
</g>
<!-- Node4&#45;&gt;Node8 -->
<g id="edge10" class="edge">
<title>Node4&#45;&gt;Node8</title>
<path fill="none" stroke="#9a32cd" stroke-dasharray="5,2" d="M162.35,-274.16C184.04,-261.03 215.97,-241.7 234.25,-230.63"/>
<polygon fill="#9a32cd" stroke="#9a32cd" points="160.49,-271.2 153.75,-279.37 164.12,-277.19 160.49,-271.2"/>
<text text-anchor="middle" x="218" y="-253" font-family="Helvetica,sans-Serif" font-size="10.00"> actions</text>
</g>
<!-- Node5&#45;&gt;Node2 -->
<g id="edge4" class="edge">
<title>Node5&#45;&gt;Node2</title>
<path fill="none" stroke="#9a32cd" stroke-dasharray="5,2" d="M115.71,-162.21C115.85,-153.46 116.73,-143.02 119.5,-134 125.13,-115.66 137.84,-96.98 145.74,-86.5"/>
<polygon fill="#9a32cd" stroke="#9a32cd" points="112.22,-162.52 115.87,-172.47 119.22,-162.41 112.22,-162.52"/>
<text text-anchor="middle" x="154" y="-141.5" font-family="Helvetica,sans-Serif" font-size="10.00"> get_line_cache</text>
</g>
<!-- Node6 -->
<g id="node6" class="node">
<title>Node6</title>
<g id="a_node6"><a xlink:href="../../d2/d1d/structyed__range.html" target="_top" xlink:title=" ">
<polygon fill="none" stroke="black" points="309.5,-134.5 309.5,-153.5 371.5,-153.5 371.5,-134.5 309.5,-134.5"/>
<text text-anchor="middle" x="340.5" y="-141.5" font-family="Helvetica,sans-Serif" font-size="10.00">yed_range</text>
</a>
</g>
</g>
<!-- Node6&#45;&gt;Node2 -->
<g id="edge6" class="edge">
<title>Node6&#45;&gt;Node2</title>
<path fill="none" stroke="#9a32cd" stroke-dasharray="5,2" d="M317.17,-129.17C302.92,-121.2 284.11,-111.5 266.5,-105 240.93,-95.57 210.89,-88.61 188.07,-84.12"/>
<polygon fill="#9a32cd" stroke="#9a32cd" points="315.81,-132.43 326.23,-134.35 319.29,-126.35 315.81,-132.43"/>
<text text-anchor="middle" x="313" y="-108" font-family="Helvetica,sans-Serif" font-size="10.00"> selection</text>
</g>
<!-- Node7&#45;&gt;Node2 -->
<g id="edge7" class="edge">
<title>Node7&#45;&gt;Node2</title>
<path fill="none" stroke="#9a32cd" stroke-dasharray="5,2" d="M223.86,-128.42C205.68,-115.57 179.79,-97.28 164.71,-86.63"/>
<polygon fill="#9a32cd" stroke="#9a32cd" points="221.91,-131.32 232.09,-134.23 225.94,-125.6 221.91,-131.32"/>
<text text-anchor="middle" x="233" y="-108" font-family="Helvetica,sans-Serif" font-size="10.00"> undo_history</text>
</g>
<!-- Node8&#45;&gt;Node7 -->
<g id="edge9" class="edge">
<title>Node8&#45;&gt;Node7</title>
<path fill="none" stroke="#9a32cd" stroke-dasharray="5,2" d="M247.49,-201.02C246.67,-185.74 245.57,-164.98 244.95,-153.5"/>
<polygon fill="#9a32cd" stroke="#9a32cd" points="244.01,-201.6 248.04,-211.4 251,-201.22 244.01,-201.6"/>
<text text-anchor="middle" x="279.5" y="-179.5" font-family="Helvetica,sans-Serif" font-size="10.00"> current_record</text>
</g>
</g>
</svg>
