<?xml version="1.0" encoding="UTF-8" standalone="no"?>
<!DOCTYPE svg PUBLIC "-//W3C//DTD SVG 1.1//EN"
 "http://www.w3.org/Graphics/SVG/1.1/DTD/svg11.dtd">
<!-- Generated by graphviz version 3.0.0 (20220226.1711)
 -->
<!-- Title: src/boyer_moore.h Pages: 1 -->
<svg width="3313pt" height="196pt"
 viewBox="0.00 0.00 3313.00 196.00" xmlns="http://www.w3.org/2000/svg" xmlns:xlink="http://www.w3.org/1999/xlink">
<g id="graph0" class="graph" transform="scale(1 1) rotate(0) translate(4 192)">
<title>src/boyer_moore.h</title>
<!-- Node1 -->
<g id="node1" class="node">
<title>Node1</title>
<g id="a_node1"><a xlink:title=" ">
<polygon fill="#bfbfbf" stroke="black" points="1660,-168.5 1660,-187.5 1758,-187.5 1758,-168.5 1660,-168.5"/>
<text text-anchor="middle" x="1709" y="-175.5" font-family="Helvetica,sans-Serif" font-size="10.00">src/boyer_moore.h</text>
</a>
</g>
</g>
<!-- Node2 -->
<g id="node2" class="node">
<title>Node2</title>
<g id="a_node2"><a xlink:href="../../db/dde/internal_8h.html" target="_top" xlink:title=" ">
<polygon fill="none" stroke="red" points="1681,-112.5 1681,-131.5 1737,-131.5 1737,-112.5 1681,-112.5"/>
<text text-anchor="middle" x="1709" y="-119.5" font-family="Helvetica,sans-Serif" font-size="10.00">internal.h</text>
</a>
</g>
</g>
<!-- Node1&#45;&gt;Node2 -->
<g id="edge1" class="edge">
<title>Node1&#45;&gt;Node2</title>
<path fill="none" stroke="midnightblue" d="M1709,-168.08C1709,-161.01 1709,-150.86 1709,-141.99"/>
<polygon fill="midnightblue" stroke="midnightblue" points="1712.5,-141.75 1709,-131.75 1705.5,-141.75 1712.5,-141.75"/>
</g>
<!-- Node3 -->
<g id="node3" class="node">
<title>Node3</title>
<g id="a_node3"><a xlink:title=" ">
<polygon fill="none" stroke="#bfbfbf" points="0,-56.5 0,-75.5 46,-75.5 46,-56.5 0,-56.5"/>
<text text-anchor="middle" x="23" y="-63.5" font-family="Helvetica,sans-Serif" font-size="10.00">stdio.h</text>
</a>
</g>
</g>
<!-- Node2&#45;&gt;Node3 -->
<g id="edge2" class="edge">
<title>Node2&#45;&gt;Node3</title>
<path fill="none" stroke="midnightblue" d="M1680.91,-121.18C1492.31,-122.27 407.69,-126.29 56.2,-75.74"/>
<polygon fill="midnightblue" stroke="midnightblue" points="56.68,-72.27 46.27,-74.26 55.65,-79.19 56.68,-72.27"/>
</g>
<!-- Node4 -->
<g id="node4" class="node">
<title>Node4</title>
<g id="a_node4"><a xlink:title=" ">
<polygon fill="none" stroke="#bfbfbf" points="64.5,-56.5 64.5,-75.5 113.5,-75.5 113.5,-56.5 64.5,-56.5"/>
<text text-anchor="middle" x="89" y="-63.5" font-family="Helvetica,sans-Serif" font-size="10.00">string.h</text>
</a>
</g>
</g>
<!-- Node2&#45;&gt;Node4 -->
<g id="edge3" class="edge">
<title>Node2&#45;&gt;Node4</title>
<path fill="none" stroke="midnightblue" d="M1680.99,-120.96C1495.82,-120.6 445.47,-116.74 128,-76 126.54,-75.81 125.05,-75.59 123.54,-75.35"/>
<polygon fill="midnightblue" stroke="midnightblue" points="124.1,-71.89 113.62,-73.46 122.79,-78.77 124.1,-71.89"/>
</g>
<!-- Node5 -->
<g id="node5" class="node">
<title>Node5</title>
<g id="a_node5"><a xlink:title=" ">
<polygon fill="none" stroke="#bfbfbf" points="897,-0.5 897,-19.5 945,-19.5 945,-0.5 897,-0.5"/>
<text text-anchor="middle" x="921" y="-7.5" font-family="Helvetica,sans-Serif" font-size="10.00">stdlib.h</text>
</a>
</g>
</g>
<!-- Node2&#45;&gt;Node5 -->
<g id="edge4" class="edge">
<title>Node2&#45;&gt;Node5</title>
<path fill="none" stroke="midnightblue" d="M1680.68,-120.72C1472.69,-118.6 188.54,-104.36 161,-76 154.81,-69.62 154.9,-62.47 161,-56 186.21,-29.26 741.38,-15.01 886.53,-11.74"/>
<polygon fill="midnightblue" stroke="midnightblue" points="886.72,-15.24 896.64,-11.51 886.57,-8.24 886.72,-15.24"/>
</g>
<!-- Node6 -->
<g id="node6" class="node">
<title>Node6</title>
<g id="a_node6"><a xlink:title=" ">
<polygon fill="none" stroke="#bfbfbf" points="170,-56.5 170,-75.5 222,-75.5 222,-56.5 170,-56.5"/>
<text text-anchor="middle" x="196" y="-63.5" font-family="Helvetica,sans-Serif" font-size="10.00">stdarg.h</text>
</a>
</g>
</g>
<!-- Node2&#45;&gt;Node6 -->
<g id="edge5" class="edge">
<title>Node2&#45;&gt;Node6</title>
<path fill="none" stroke="midnightblue" d="M1680.82,-120.99C1504.17,-120.82 547.03,-117.98 232.27,-75.8"/>
<polygon fill="midnightblue" stroke="midnightblue" points="232.63,-72.32 222.25,-74.41 231.67,-79.25 232.63,-72.32"/>
</g>
<!-- Node7 -->
<g id="node7" class="node">
<title>Node7</title>
<g id="a_node7"><a xlink:title=" ">
<polygon fill="none" stroke="#bfbfbf" points="240.5,-56.5 240.5,-75.5 289.5,-75.5 289.5,-56.5 240.5,-56.5"/>
<text text-anchor="middle" x="265" y="-63.5" font-family="Helvetica,sans-Serif" font-size="10.00">dirent.h</text>
</a>
</g>
</g>
<!-- Node2&#45;&gt;Node7 -->
<g id="edge6" class="edge">
<title>Node2&#45;&gt;Node7</title>
<path fill="none" stroke="midnightblue" d="M1681,-120.97C1509.67,-120.67 600.55,-117.18 299.76,-75.67"/>
<polygon fill="midnightblue" stroke="midnightblue" points="300.14,-72.19 289.75,-74.25 299.15,-79.12 300.14,-72.19"/>
</g>
<!-- Node8 -->
<g id="node8" class="node">
<title>Node8</title>
<g id="a_node8"><a xlink:title=" ">
<polygon fill="none" stroke="#bfbfbf" points="308,-56.5 308,-75.5 358,-75.5 358,-56.5 308,-56.5"/>
<text text-anchor="middle" x="333" y="-63.5" font-family="Helvetica,sans-Serif" font-size="10.00">libgen.h</text>
</a>
</g>
</g>
<!-- Node2&#45;&gt;Node8 -->
<g id="edge7" class="edge">
<title>Node2&#45;&gt;Node8</title>
<path fill="none" stroke="midnightblue" d="M1681,-120.92C1514.64,-120.31 654.03,-115.35 368.05,-75.75"/>
<polygon fill="midnightblue" stroke="midnightblue" points="368.52,-72.28 358.12,-74.32 367.52,-79.21 368.52,-72.28"/>
</g>
<!-- Node9 -->
<g id="node9" class="node">
<title>Node9</title>
<g id="a_node9"><a xlink:title=" ">
<polygon fill="none" stroke="#bfbfbf" points="376,-56.5 376,-75.5 438,-75.5 438,-56.5 376,-56.5"/>
<text text-anchor="middle" x="407" y="-63.5" font-family="Helvetica,sans-Serif" font-size="10.00">sys/time.h</text>
</a>
</g>
</g>
<!-- Node2&#45;&gt;Node9 -->
<g id="edge8" class="edge">
<title>Node2&#45;&gt;Node9</title>
<path fill="none" stroke="midnightblue" d="M1680.86,-120.71C1520.31,-118.93 718.05,-108.61 448.48,-75.9"/>
<polygon fill="midnightblue" stroke="midnightblue" points="448.7,-72.4 438.34,-74.63 447.83,-79.35 448.7,-72.4"/>
</g>
<!-- Node10 -->
<g id="node10" class="node">
<title>Node10</title>
<g id="a_node10"><a xlink:title=" ">
<polygon fill="none" stroke="#bfbfbf" points="456,-56.5 456,-75.5 516,-75.5 516,-56.5 456,-56.5"/>
<text text-anchor="middle" x="486" y="-63.5" font-family="Helvetica,sans-Serif" font-size="10.00">sys/stat.h</text>
</a>
</g>
</g>
<!-- Node2&#45;&gt;Node10 -->
<g id="edge9" class="edge">
<title>Node2&#45;&gt;Node10</title>
<path fill="none" stroke="midnightblue" d="M1680.83,-120.65C1526.31,-118.63 779.67,-107.45 526.38,-75.87"/>
<polygon fill="midnightblue" stroke="midnightblue" points="526.5,-72.36 516.13,-74.55 525.6,-79.3 526.5,-72.36"/>
</g>
<!-- Node11 -->
<g id="node11" class="node">
<title>Node11</title>
<g id="a_node11"><a xlink:title=" ">
<polygon fill="none" stroke="#bfbfbf" points="534.5,-56.5 534.5,-75.5 605.5,-75.5 605.5,-56.5 534.5,-56.5"/>
<text text-anchor="middle" x="570" y="-63.5" font-family="Helvetica,sans-Serif" font-size="10.00">sys/mman.h</text>
</a>
</g>
</g>
<!-- Node2&#45;&gt;Node11 -->
<g id="edge10" class="edge">
<title>Node2&#45;&gt;Node11</title>
<path fill="none" stroke="midnightblue" d="M1680.82,-120.44C1533.57,-117.41 850.82,-102.26 615.95,-75.87"/>
<polygon fill="midnightblue" stroke="midnightblue" points="616.12,-72.36 605.78,-74.68 615.31,-79.31 616.12,-72.36"/>
</g>
<!-- Node12 -->
<g id="node12" class="node">
<title>Node12</title>
<g id="a_node12"><a xlink:title=" ">
<polygon fill="none" stroke="#bfbfbf" points="624,-56.5 624,-75.5 686,-75.5 686,-56.5 624,-56.5"/>
<text text-anchor="middle" x="655" y="-63.5" font-family="Helvetica,sans-Serif" font-size="10.00">sys/ioctl.h</text>
</a>
</g>
</g>
<!-- Node2&#45;&gt;Node12 -->
<g id="edge11" class="edge">
<title>Node2&#45;&gt;Node12</title>
<path fill="none" stroke="midnightblue" d="M1680.54,-120.42C1539.43,-117.43 913.24,-102.95 696.36,-75.9"/>
<polygon fill="midnightblue" stroke="midnightblue" points="696.71,-72.42 686.35,-74.6 695.82,-79.36 696.71,-72.42"/>
</g>
<!-- Node13 -->
<g id="node13" class="node">
<title>Node13</title>
<g id="a_node13"><a xlink:title=" ">
<polygon fill="none" stroke="#bfbfbf" points="704.5,-56.5 704.5,-75.5 761.5,-75.5 761.5,-56.5 704.5,-56.5"/>
<text text-anchor="middle" x="733" y="-63.5" font-family="Helvetica,sans-Serif" font-size="10.00">termios.h</text>
</a>
</g>
</g>
<!-- Node2&#45;&gt;Node13 -->
<g id="edge12" class="edge">
<title>Node2&#45;&gt;Node13</title>
<path fill="none" stroke="midnightblue" d="M1680.89,-120.35C1547.12,-117.16 973.5,-102.27 771.71,-75.75"/>
<polygon fill="midnightblue" stroke="midnightblue" points="771.91,-72.24 761.53,-74.35 770.96,-79.18 771.91,-72.24"/>
</g>
<!-- Node14 -->
<g id="node14" class="node">
<title>Node14</title>
<g id="a_node14"><a xlink:title=" ">
<polygon fill="none" stroke="#bfbfbf" points="780,-56.5 780,-75.5 830,-75.5 830,-56.5 780,-56.5"/>
<text text-anchor="middle" x="805" y="-63.5" font-family="Helvetica,sans-Serif" font-size="10.00">signal.h</text>
</a>
</g>
</g>
<!-- Node2&#45;&gt;Node14 -->
<g id="edge13" class="edge">
<title>Node2&#45;&gt;Node14</title>
<path fill="none" stroke="midnightblue" d="M1680.78,-120.33C1552.91,-117.16 1026.42,-102.81 840.06,-75.78"/>
<polygon fill="midnightblue" stroke="midnightblue" points="840.54,-72.31 830.13,-74.27 839.49,-79.23 840.54,-72.31"/>
</g>
<!-- Node15 -->
<g id="node15" class="node">
<title>Node15</title>
<g id="a_node15"><a xlink:title=" ">
<polygon fill="none" stroke="#bfbfbf" points="848.5,-56.5 848.5,-75.5 899.5,-75.5 899.5,-56.5 848.5,-56.5"/>
<text text-anchor="middle" x="874" y="-63.5" font-family="Helvetica,sans-Serif" font-size="10.00">unistd.h</text>
</a>
</g>
</g>
<!-- Node2&#45;&gt;Node15 -->
<g id="edge14" class="edge">
<title>Node2&#45;&gt;Node15</title>
<path fill="none" stroke="midnightblue" d="M1680.81,-121.4C1578.36,-122.43 1216.22,-122.45 909.84,-75.79"/>
<polygon fill="midnightblue" stroke="midnightblue" points="910.29,-72.32 899.88,-74.25 909.23,-79.24 910.29,-72.32"/>
</g>
<!-- Node16 -->
<g id="node16" class="node">
<title>Node16</title>
<g id="a_node16"><a xlink:title=" ">
<polygon fill="none" stroke="#bfbfbf" points="918,-56.5 918,-75.5 980,-75.5 980,-56.5 918,-56.5"/>
<text text-anchor="middle" x="949" y="-63.5" font-family="Helvetica,sans-Serif" font-size="10.00">sys/wait.h</text>
</a>
</g>
</g>
<!-- Node2&#45;&gt;Node16 -->
<g id="edge15" class="edge">
<title>Node2&#45;&gt;Node16</title>
<path fill="none" stroke="midnightblue" d="M1680.7,-120.84C1584.93,-119.97 1264.15,-114.3 990.48,-75.99"/>
<polygon fill="midnightblue" stroke="midnightblue" points="990.75,-72.49 980.36,-74.55 989.77,-79.42 990.75,-72.49"/>
</g>
<!-- Node17 -->
<g id="node17" class="node">
<title>Node17</title>
<g id="a_node17"><a xlink:title=" ">
<polygon fill="none" stroke="#bfbfbf" points="998,-56.5 998,-75.5 1066,-75.5 1066,-56.5 998,-56.5"/>
<text text-anchor="middle" x="1032" y="-63.5" font-family="Helvetica,sans-Serif" font-size="10.00">sys/types.h</text>
</a>
</g>
</g>
<!-- Node2&#45;&gt;Node17 -->
<g id="edge16" class="edge">
<title>Node2&#45;&gt;Node17</title>
<path fill="none" stroke="midnightblue" d="M1680.74,-120.36C1592.66,-118.07 1315.24,-108.69 1076.12,-75.97"/>
<polygon fill="midnightblue" stroke="midnightblue" points="1076.58,-72.5 1066.19,-74.59 1075.62,-79.43 1076.58,-72.5"/>
</g>
<!-- Node18 -->
<g id="node18" class="node">
<title>Node18</title>
<g id="a_node18"><a xlink:title=" ">
<polygon fill="none" stroke="#bfbfbf" points="1084,-56.5 1084,-75.5 1128,-75.5 1128,-56.5 1084,-56.5"/>
<text text-anchor="middle" x="1106" y="-63.5" font-family="Helvetica,sans-Serif" font-size="10.00">fcntl.h</text>
</a>
</g>
</g>
<!-- Node2&#45;&gt;Node18 -->
<g id="edge17" class="edge">
<title>Node2&#45;&gt;Node18</title>
<path fill="none" stroke="midnightblue" d="M1680.76,-120.81C1598.37,-119.82 1351.17,-113.84 1138.33,-75.87"/>
<polygon fill="midnightblue" stroke="midnightblue" points="1138.69,-72.38 1128.22,-74.04 1137.44,-79.27 1138.69,-72.38"/>
</g>
<!-- Node19 -->
<g id="node19" class="node">
<title>Node19</title>
<g id="a_node19"><a xlink:title=" ">
<polygon fill="none" stroke="#bfbfbf" points="1146.5,-56.5 1146.5,-75.5 1193.5,-75.5 1193.5,-56.5 1146.5,-56.5"/>
<text text-anchor="middle" x="1170" y="-63.5" font-family="Helvetica,sans-Serif" font-size="10.00">errno.h</text>
</a>
</g>
</g>
<!-- Node2&#45;&gt;Node19 -->
<g id="edge18" class="edge">
<title>Node2&#45;&gt;Node19</title>
<path fill="none" stroke="midnightblue" d="M1680.72,-120.33C1604.79,-118.13 1390.08,-109.39 1203.63,-76"/>
<polygon fill="midnightblue" stroke="midnightblue" points="1204.12,-72.53 1193.65,-74.18 1202.86,-79.41 1204.12,-72.53"/>
</g>
<!-- Node20 -->
<g id="node20" class="node">
<title>Node20</title>
<g id="a_node20"><a xlink:title=" ">
<polygon fill="none" stroke="#bfbfbf" points="1211.5,-56.5 1211.5,-75.5 1260.5,-75.5 1260.5,-56.5 1211.5,-56.5"/>
<text text-anchor="middle" x="1236" y="-63.5" font-family="Helvetica,sans-Serif" font-size="10.00">ctype.h</text>
</a>
</g>
</g>
<!-- Node2&#45;&gt;Node20 -->
<g id="edge19" class="edge">
<title>Node2&#45;&gt;Node20</title>
<path fill="none" stroke="midnightblue" d="M1680.97,-119.73C1612.4,-116.3 1430.66,-105.14 1270.78,-76.07"/>
<polygon fill="midnightblue" stroke="midnightblue" points="1271.23,-72.6 1260.77,-74.22 1269.96,-79.48 1271.23,-72.6"/>
</g>
<!-- Node21 -->
<g id="node21" class="node">
<title>Node21</title>
<g id="a_node21"><a xlink:title=" ">
<polygon fill="none" stroke="#bfbfbf" points="1508.5,-0.5 1508.5,-19.5 1557.5,-19.5 1557.5,-0.5 1508.5,-0.5"/>
<text text-anchor="middle" x="1533" y="-7.5" font-family="Helvetica,sans-Serif" font-size="10.00">stdint.h</text>
</a>
</g>
</g>
<!-- Node2&#45;&gt;Node21 -->
<g id="edge20" class="edge">
<title>Node2&#45;&gt;Node21</title>
<path fill="none" stroke="midnightblue" d="M1721.18,-112.32C1737.87,-99.4 1764.13,-74.61 1749,-56 1726.52,-28.36 1622.67,-17.13 1567.57,-13.05"/>
<polygon fill="midnightblue" stroke="midnightblue" points="1567.77,-9.56 1557.55,-12.35 1567.29,-16.54 1567.77,-9.56"/>
</g>
<!-- Node22 -->
<g id="node22" class="node">
<title>Node22</title>
<g id="a_node22"><a xlink:title=" ">
<polygon fill="none" stroke="#bfbfbf" points="1337.5,-56.5 1337.5,-75.5 1384.5,-75.5 1384.5,-56.5 1337.5,-56.5"/>
<text text-anchor="middle" x="1361" y="-63.5" font-family="Helvetica,sans-Serif" font-size="10.00">math.h</text>
</a>
</g>
</g>
<!-- Node2&#45;&gt;Node22 -->
<g id="edge21" class="edge">
<title>Node2&#45;&gt;Node22</title>
<path fill="none" stroke="midnightblue" d="M1680.88,-118.26C1627.05,-112.75 1505.58,-99.02 1394.69,-76.13"/>
<polygon fill="midnightblue" stroke="midnightblue" points="1395.18,-72.66 1384.68,-74.04 1393.75,-79.51 1395.18,-72.66"/>
</g>
<!-- Node23 -->
<g id="node23" class="node">
<title>Node23</title>
<g id="a_node23"><a xlink:title=" ">
<polygon fill="none" stroke="#bfbfbf" points="1402.5,-56.5 1402.5,-75.5 1459.5,-75.5 1459.5,-56.5 1402.5,-56.5"/>
<text text-anchor="middle" x="1431" y="-63.5" font-family="Helvetica,sans-Serif" font-size="10.00">pthread.h</text>
</a>
</g>
</g>
<!-- Node2&#45;&gt;Node23 -->
<g id="edge22" class="edge">
<title>Node2&#45;&gt;Node23</title>
<path fill="none" stroke="midnightblue" d="M1680.83,-116.16C1637.62,-108.65 1552.14,-93.4 1469.41,-76"/>
<polygon fill="midnightblue" stroke="midnightblue" points="1470.11,-72.57 1459.6,-73.93 1468.66,-79.42 1470.11,-72.57"/>
</g>
<!-- Node24 -->
<g id="node24" class="node">
<title>Node24</title>
<g id="a_node24"><a xlink:title=" ">
<polygon fill="none" stroke="#bfbfbf" points="1478,-56.5 1478,-75.5 1524,-75.5 1524,-56.5 1478,-56.5"/>
<text text-anchor="middle" x="1501" y="-63.5" font-family="Helvetica,sans-Serif" font-size="10.00">dlfcn.h</text>
</a>
</g>
</g>
<!-- Node2&#45;&gt;Node24 -->
<g id="edge23" class="edge">
<title>Node2&#45;&gt;Node24</title>
<path fill="none" stroke="midnightblue" d="M1680.9,-114.04C1648.02,-105.84 1591.68,-91.64 1534.06,-76.24"/>
<polygon fill="midnightblue" stroke="midnightblue" points="1534.62,-72.77 1524.05,-73.55 1532.81,-79.53 1534.62,-72.77"/>
</g>
<!-- Node25 -->
<g id="node25" class="node">
<title>Node25</title>
<g id="a_node25"><a xlink:title=" ">
<polygon fill="none" stroke="#bfbfbf" points="1542,-56.5 1542,-75.5 1592,-75.5 1592,-56.5 1542,-56.5"/>
<text text-anchor="middle" x="1567" y="-63.5" font-family="Helvetica,sans-Serif" font-size="10.00">locale.h</text>
</a>
</g>
</g>
<!-- Node2&#45;&gt;Node25 -->
<g id="edge24" class="edge">
<title>Node2&#45;&gt;Node25</title>
<path fill="none" stroke="midnightblue" d="M1686.5,-112.44C1662.92,-103.48 1625.68,-89.31 1599.04,-79.18"/>
<polygon fill="midnightblue" stroke="midnightblue" points="1599.99,-75.8 1589.4,-75.52 1597.5,-82.34 1599.99,-75.8"/>
</g>
<!-- Node26 -->
<g id="node26" class="node">
<title>Node26</title>
<g id="a_node26"><a xlink:title=" ">
<polygon fill="none" stroke="#bfbfbf" points="1610,-56.5 1610,-75.5 1660,-75.5 1660,-56.5 1610,-56.5"/>
<text text-anchor="middle" x="1635" y="-63.5" font-family="Helvetica,sans-Serif" font-size="10.00">wchar.h</text>
</a>
</g>
</g>
<!-- Node2&#45;&gt;Node26 -->
<g id="edge25" class="edge">
<title>Node2&#45;&gt;Node26</title>
<path fill="none" stroke="midnightblue" d="M1697.11,-112.32C1685.85,-104.11 1668.71,-91.6 1655.29,-81.81"/>
<polygon fill="midnightblue" stroke="midnightblue" points="1657.25,-78.9 1647.11,-75.83 1653.12,-84.56 1657.25,-78.9"/>
</g>
<!-- Node27 -->
<g id="node27" class="node">
<title>Node27</title>
<g id="a_node27"><a xlink:href="../../d7/d69/typedefs_8h.html" target="_top" xlink:title=" ">
<polygon fill="none" stroke="black" points="1678,-56.5 1678,-75.5 1740,-75.5 1740,-56.5 1678,-56.5"/>
<text text-anchor="middle" x="1709" y="-63.5" font-family="Helvetica,sans-Serif" font-size="10.00">typedefs.h</text>
</a>
</g>
</g>
<!-- Node2&#45;&gt;Node27 -->
<g id="edge26" class="edge">
<title>Node2&#45;&gt;Node27</title>
<path fill="none" stroke="midnightblue" d="M1709,-112.08C1709,-105.01 1709,-94.86 1709,-85.99"/>
<polygon fill="midnightblue" stroke="midnightblue" points="1712.5,-85.75 1709,-75.75 1705.5,-85.75 1712.5,-85.75"/>
</g>
<!-- Node28 -->
<g id="node28" class="node">
<title>Node28</title>
<g id="a_node28"><a xlink:href="../../d3/d09/tree_8h.html" target="_top" xlink:title=" ">
<polygon fill="none" stroke="black" points="1278.5,-56.5 1278.5,-75.5 1319.5,-75.5 1319.5,-56.5 1278.5,-56.5"/>
<text text-anchor="middle" x="1299" y="-63.5" font-family="Helvetica,sans-Serif" font-size="10.00">tree.h</text>
</a>
</g>
</g>
<!-- Node2&#45;&gt;Node28 -->
<g id="edge27" class="edge">
<title>Node2&#45;&gt;Node28</title>
<path fill="none" stroke="midnightblue" d="M1680.99,-119.45C1619.1,-115.67 1466.02,-104.25 1329.97,-76.1"/>
<polygon fill="midnightblue" stroke="midnightblue" points="1330.3,-72.59 1319.79,-73.95 1328.85,-79.44 1330.3,-72.59"/>
</g>
<!-- Node29 -->
<g id="node29" class="node">
<title>Node29</title>
<g id="a_node29"><a xlink:href="../../db/d63/array_8h.html" target="_top" xlink:title=" ">
<polygon fill="none" stroke="black" points="1796.5,-56.5 1796.5,-75.5 1841.5,-75.5 1841.5,-56.5 1796.5,-56.5"/>
<text text-anchor="middle" x="1819" y="-63.5" font-family="Helvetica,sans-Serif" font-size="10.00">array.h</text>
</a>
</g>
</g>
<!-- Node2&#45;&gt;Node29 -->
<g id="edge30" class="edge">
<title>Node2&#45;&gt;Node29</title>
<path fill="none" stroke="midnightblue" d="M1726.67,-112.32C1744.39,-103.62 1771.9,-90.12 1792.29,-80.11"/>
<polygon fill="midnightblue" stroke="midnightblue" points="1793.94,-83.2 1801.37,-75.65 1790.85,-76.92 1793.94,-83.2"/>
</g>
<!-- Node30 -->
<g id="node30" class="node">
<title>Node30</title>
<g id="a_node30"><a xlink:href="../../de/d00/bucket__array_8h.html" target="_top" xlink:title=" ">
<polygon fill="none" stroke="black" points="1860,-56.5 1860,-75.5 1940,-75.5 1940,-56.5 1860,-56.5"/>
<text text-anchor="middle" x="1900" y="-63.5" font-family="Helvetica,sans-Serif" font-size="10.00">bucket_array.h</text>
</a>
</g>
</g>
<!-- Node2&#45;&gt;Node30 -->
<g id="edge31" class="edge">
<title>Node2&#45;&gt;Node30</title>
<path fill="none" stroke="midnightblue" d="M1737.18,-113.03C1769.62,-103.86 1823.15,-88.73 1859.91,-78.33"/>
<polygon fill="midnightblue" stroke="midnightblue" points="1861.14,-81.62 1869.81,-75.54 1859.23,-74.89 1861.14,-81.62"/>
</g>
<!-- Node31 -->
<g id="node31" class="node">
<title>Node31</title>
<g id="a_node31"><a xlink:href="../../dc/dcd/yed_8h.html" target="_top" xlink:title=" ">
<polygon fill="none" stroke="black" points="1958.5,-56.5 1958.5,-75.5 1999.5,-75.5 1999.5,-56.5 1958.5,-56.5"/>
<text text-anchor="middle" x="1979" y="-63.5" font-family="Helvetica,sans-Serif" font-size="10.00">yed.h</text>
</a>
</g>
</g>
<!-- Node2&#45;&gt;Node31 -->
<g id="edge32" class="edge">
<title>Node2&#45;&gt;Node31</title>
<path fill="none" stroke="midnightblue" d="M1737.29,-116.69C1780.66,-109.88 1866.35,-95.57 1948.66,-75.85"/>
<polygon fill="midnightblue" stroke="midnightblue" points="1949.53,-79.25 1958.42,-73.49 1947.88,-72.44 1949.53,-79.25"/>
</g>
<!-- Node32 -->
<g id="node32" class="node">
<title>Node32</title>
<g id="a_node32"><a xlink:href="../../db/d45/term_8h.html" target="_top" xlink:title=" ">
<polygon fill="none" stroke="black" points="2018,-56.5 2018,-75.5 2062,-75.5 2062,-56.5 2018,-56.5"/>
<text text-anchor="middle" x="2040" y="-63.5" font-family="Helvetica,sans-Serif" font-size="10.00">term.h</text>
</a>
</g>
</g>
<!-- Node2&#45;&gt;Node32 -->
<g id="edge33" class="edge">
<title>Node2&#45;&gt;Node32</title>
<path fill="none" stroke="midnightblue" d="M1737.35,-118.03C1789.24,-112.31 1903.06,-98.51 2007.95,-75.98"/>
<polygon fill="midnightblue" stroke="midnightblue" points="2008.72,-79.4 2017.74,-73.85 2007.22,-72.56 2008.72,-79.4"/>
</g>
<!-- Node33 -->
<g id="node33" class="node">
<title>Node33</title>
<g id="a_node33"><a xlink:href="../../d9/d3c/attrs_8h.html" target="_top" xlink:title=" ">
<polygon fill="none" stroke="black" points="2080,-56.5 2080,-75.5 2124,-75.5 2124,-56.5 2080,-56.5"/>
<text text-anchor="middle" x="2102" y="-63.5" font-family="Helvetica,sans-Serif" font-size="10.00">attrs.h</text>
</a>
</g>
</g>
<!-- Node2&#45;&gt;Node33 -->
<g id="edge34" class="edge">
<title>Node2&#45;&gt;Node33</title>
<path fill="none" stroke="midnightblue" d="M1737.41,-119.01C1797.24,-114.5 1940.65,-101.95 2069.7,-75.97"/>
<polygon fill="midnightblue" stroke="midnightblue" points="2070.66,-79.35 2079.75,-73.92 2069.26,-72.49 2070.66,-79.35"/>
</g>
<!-- Node34 -->
<g id="node34" class="node">
<title>Node34</title>
<g id="a_node34"><a xlink:href="../../db/d7c/utf8_8h.html" target="_top" xlink:title=" ">
<polygon fill="none" stroke="black" points="2142.5,-56.5 2142.5,-75.5 2183.5,-75.5 2183.5,-56.5 2142.5,-56.5"/>
<text text-anchor="middle" x="2163" y="-63.5" font-family="Helvetica,sans-Serif" font-size="10.00">utf8.h</text>
</a>
</g>
</g>
<!-- Node2&#45;&gt;Node34 -->
<g id="edge35" class="edge">
<title>Node2&#45;&gt;Node34</title>
<path fill="none" stroke="midnightblue" d="M1737.05,-119.82C1803.92,-116.64 1977.99,-106.11 2132.33,-75.74"/>
<polygon fill="midnightblue" stroke="midnightblue" points="2133.35,-79.1 2142.47,-73.71 2131.98,-72.24 2133.35,-79.1"/>
</g>
<!-- Node35 -->
<g id="node35" class="node">
<title>Node35</title>
<g id="a_node35"><a xlink:href="../../dd/ddc/screen_8h.html" target="_top" xlink:title=" ">
<polygon fill="none" stroke="black" points="2202,-56.5 2202,-75.5 2256,-75.5 2256,-56.5 2202,-56.5"/>
<text text-anchor="middle" x="2229" y="-63.5" font-family="Helvetica,sans-Serif" font-size="10.00">screen.h</text>
</a>
</g>
</g>
<!-- Node2&#45;&gt;Node35 -->
<g id="edge36" class="edge">
<title>Node2&#45;&gt;Node35</title>
<path fill="none" stroke="midnightblue" d="M1737.02,-119.89C1810.26,-116.67 2013.48,-105.7 2191.88,-75.94"/>
<polygon fill="midnightblue" stroke="midnightblue" points="2192.69,-79.35 2201.97,-74.23 2191.52,-72.45 2192.69,-79.35"/>
</g>
<!-- Node36 -->
<g id="node36" class="node">
<title>Node36</title>
<g id="a_node36"><a xlink:href="../../de/de5/key_8h.html" target="_top" xlink:title=" ">
<polygon fill="none" stroke="black" points="2274.5,-56.5 2274.5,-75.5 2313.5,-75.5 2313.5,-56.5 2274.5,-56.5"/>
<text text-anchor="middle" x="2294" y="-63.5" font-family="Helvetica,sans-Serif" font-size="10.00">key.h</text>
</a>
</g>
</g>
<!-- Node2&#45;&gt;Node36 -->
<g id="edge37" class="edge">
<title>Node2&#45;&gt;Node36</title>
<path fill="none" stroke="midnightblue" d="M1737.06,-120.9C1817.82,-120.16 2057.67,-114.75 2264.66,-75.58"/>
<polygon fill="midnightblue" stroke="midnightblue" points="2265.33,-79.02 2274.49,-73.69 2264.01,-72.15 2265.33,-79.02"/>
</g>
<!-- Node37 -->
<g id="node37" class="node">
<title>Node37</title>
<g id="a_node37"><a xlink:href="../../d0/dbe/ft_8h.html" target="_top" xlink:title=" ">
<polygon fill="none" stroke="black" points="2331.5,-56.5 2331.5,-75.5 2362.5,-75.5 2362.5,-56.5 2331.5,-56.5"/>
<text text-anchor="middle" x="2347" y="-63.5" font-family="Helvetica,sans-Serif" font-size="10.00">ft.h</text>
</a>
</g>
</g>
<!-- Node2&#45;&gt;Node37 -->
<g id="edge38" class="edge">
<title>Node2&#45;&gt;Node37</title>
<path fill="none" stroke="midnightblue" d="M1737.32,-120C1839.63,-116.21 2190.49,-101.78 2321.65,-75.63"/>
<polygon fill="midnightblue" stroke="midnightblue" points="2322.38,-79.05 2331.44,-73.56 2320.94,-72.2 2322.38,-79.05"/>
</g>
<!-- Node38 -->
<g id="node38" class="node">
<title>Node38</title>
<g id="a_node38"><a xlink:href="../../d2/da4/undo_8h.html" target="_top" xlink:title=" ">
<polygon fill="none" stroke="black" points="2381,-56.5 2381,-75.5 2427,-75.5 2427,-56.5 2381,-56.5"/>
<text text-anchor="middle" x="2404" y="-63.5" font-family="Helvetica,sans-Serif" font-size="10.00">undo.h</text>
</a>
</g>
</g>
<!-- Node2&#45;&gt;Node38 -->
<g id="edge39" class="edge">
<title>Node2&#45;&gt;Node38</title>
<path fill="none" stroke="midnightblue" d="M1737.04,-121.16C1827.66,-121.23 2120.84,-118.09 2370.72,-75.86"/>
<polygon fill="midnightblue" stroke="midnightblue" points="2371.44,-79.29 2380.71,-74.15 2370.26,-72.39 2371.44,-79.29"/>
</g>
<!-- Node39 -->
<g id="node39" class="node">
<title>Node39</title>
<g id="a_node39"><a xlink:href="../../d5/d08/buffer_8h.html" target="_top" xlink:title=" ">
<polygon fill="none" stroke="black" points="2445.5,-56.5 2445.5,-75.5 2494.5,-75.5 2494.5,-56.5 2445.5,-56.5"/>
<text text-anchor="middle" x="2470" y="-63.5" font-family="Helvetica,sans-Serif" font-size="10.00">buffer.h</text>
</a>
</g>
</g>
<!-- Node2&#45;&gt;Node39 -->
<g id="edge40" class="edge">
<title>Node2&#45;&gt;Node39</title>
<path fill="none" stroke="midnightblue" d="M1737.29,-121.24C1833.75,-121.65 2158.6,-119.6 2435.01,-75.8"/>
<polygon fill="midnightblue" stroke="midnightblue" points="2435.92,-79.2 2445.24,-74.16 2434.81,-72.29 2435.92,-79.2"/>
</g>
<!-- Node40 -->
<g id="node40" class="node">
<title>Node40</title>
<g id="a_node40"><a xlink:href="../../df/d7d/frame_8h.html" target="_top" xlink:title=" ">
<polygon fill="none" stroke="red" points="2513,-56.5 2513,-75.5 2563,-75.5 2563,-56.5 2513,-56.5"/>
<text text-anchor="middle" x="2538" y="-63.5" font-family="Helvetica,sans-Serif" font-size="10.00">frame.h</text>
</a>
</g>
</g>
<!-- Node2&#45;&gt;Node40 -->
<g id="edge41" class="edge">
<title>Node2&#45;&gt;Node40</title>
<path fill="none" stroke="midnightblue" d="M1737.03,-121.45C1838.88,-122.67 2198.86,-123.25 2502.98,-75.82"/>
<polygon fill="midnightblue" stroke="midnightblue" points="2503.54,-79.28 2512.87,-74.26 2502.45,-72.36 2503.54,-79.28"/>
</g>
<!-- Node42 -->
<g id="node41" class="node">
<title>Node42</title>
<g id="a_node41"><a xlink:href="../../d7/d7f/log_8h.html" target="_top" xlink:title=" ">
<polygon fill="none" stroke="black" points="2581,-56.5 2581,-75.5 2619,-75.5 2619,-56.5 2581,-56.5"/>
<text text-anchor="middle" x="2600" y="-63.5" font-family="Helvetica,sans-Serif" font-size="10.00">log.h</text>
</a>
</g>
</g>
<!-- Node2&#45;&gt;Node42 -->
<g id="edge42" class="edge">
<title>Node2&#45;&gt;Node42</title>
<path fill="none" stroke="midnightblue" d="M1737.03,-120.51C1863.95,-118.16 2386.28,-106.87 2570.79,-75.66"/>
<polygon fill="midnightblue" stroke="midnightblue" points="2571.65,-79.06 2580.89,-73.86 2570.43,-72.16 2571.65,-79.06"/>
</g>
<!-- Node43 -->
<g id="node42" class="node">
<title>Node43</title>
<g id="a_node42"><a xlink:href="../../d3/d2c/complete_8h.html" target="_top" xlink:title=" ">
<polygon fill="none" stroke="black" points="2637.5,-56.5 2637.5,-75.5 2702.5,-75.5 2702.5,-56.5 2637.5,-56.5"/>
<text text-anchor="middle" x="2670" y="-63.5" font-family="Helvetica,sans-Serif" font-size="10.00">complete.h</text>
</a>
</g>
</g>
<!-- Node2&#45;&gt;Node43 -->
<g id="edge43" class="edge">
<title>Node2&#45;&gt;Node43</title>
<path fill="none" stroke="midnightblue" d="M1737.35,-121.28C1849.27,-122.04 2271.21,-121.62 2627.09,-75.88"/>
<polygon fill="midnightblue" stroke="midnightblue" points="2627.61,-79.34 2637.07,-74.58 2626.7,-72.4 2627.61,-79.34"/>
</g>
<!-- Node44 -->
<g id="node43" class="node">
<title>Node44</title>
<g id="a_node43"><a xlink:href="../../d6/dde/cmd__line_8h.html" target="_top" xlink:title=" ">
<polygon fill="none" stroke="black" points="2721,-56.5 2721,-75.5 2785,-75.5 2785,-56.5 2721,-56.5"/>
<text text-anchor="middle" x="2753" y="-63.5" font-family="Helvetica,sans-Serif" font-size="10.00">cmd_line.h</text>
</a>
</g>
</g>
<!-- Node2&#45;&gt;Node44 -->
<g id="edge44" class="edge">
<title>Node2&#45;&gt;Node44</title>
<path fill="none" stroke="midnightblue" d="M1737.15,-120.39C1876.71,-117.26 2496.06,-102.22 2710.94,-75.86"/>
<polygon fill="midnightblue" stroke="midnightblue" points="2711.39,-79.33 2720.86,-74.6 2710.5,-72.39 2711.39,-79.33"/>
</g>
<!-- Node45 -->
<g id="node44" class="node">
<title>Node45</title>
<g id="a_node44"><a xlink:href="../../d0/d09/command_8h.html" target="_top" xlink:title=" ">
<polygon fill="none" stroke="black" points="2803,-56.5 2803,-75.5 2871,-75.5 2871,-56.5 2803,-56.5"/>
<text text-anchor="middle" x="2837" y="-63.5" font-family="Helvetica,sans-Serif" font-size="10.00">command.h</text>
</a>
</g>
</g>
<!-- Node2&#45;&gt;Node45 -->
<g id="edge45" class="edge">
<title>Node2&#45;&gt;Node45</title>
<path fill="none" stroke="midnightblue" d="M1737.45,-120.46C1884.52,-117.55 2560.51,-102.99 2792.76,-75.9"/>
<polygon fill="midnightblue" stroke="midnightblue" points="2793.31,-79.36 2802.82,-74.68 2792.47,-72.41 2793.31,-79.36"/>
</g>
<!-- Node46 -->
<g id="node45" class="node">
<title>Node46</title>
<g id="a_node45"><a xlink:href="../../d4/deb/get_r_s_s_8h.html" target="_top" xlink:title=" ">
<polygon fill="none" stroke="red" points="2889.5,-56.5 2889.5,-75.5 2948.5,-75.5 2948.5,-56.5 2889.5,-56.5"/>
<text text-anchor="middle" x="2919" y="-63.5" font-family="Helvetica,sans-Serif" font-size="10.00">getRSS.h</text>
</a>
</g>
</g>
<!-- Node2&#45;&gt;Node46 -->
<g id="edge46" class="edge">
<title>Node2&#45;&gt;Node46</title>
<path fill="none" stroke="midnightblue" d="M1737.11,-120.64C1890.5,-118.56 2628.28,-107.15 2879.15,-75.78"/>
<polygon fill="midnightblue" stroke="midnightblue" points="2879.83,-79.22 2889.3,-74.46 2878.93,-72.28 2879.83,-79.22"/>
</g>
<!-- Node48 -->
<g id="node46" class="node">
<title>Node48</title>
<g id="a_node46"><a xlink:href="../../d6/d0e/measure__time_8h.html" target="_top" xlink:title=" ">
<polygon fill="none" stroke="black" points="2967,-56.5 2967,-75.5 3053,-75.5 3053,-56.5 2967,-56.5"/>
<text text-anchor="middle" x="3010" y="-63.5" font-family="Helvetica,sans-Serif" font-size="10.00">measure_time.h</text>
</a>
</g>
</g>
<!-- Node2&#45;&gt;Node48 -->
<g id="edge47" class="edge">
<title>Node2&#45;&gt;Node48</title>
<path fill="none" stroke="midnightblue" d="M1737.09,-120.51C1896.48,-117.62 2689.19,-102.24 2956.87,-75.94"/>
<polygon fill="midnightblue" stroke="midnightblue" points="2957.34,-79.41 2966.93,-74.92 2956.63,-72.44 2957.34,-79.41"/>
</g>
<!-- Node49 -->
<g id="node47" class="node">
<title>Node49</title>
<g id="a_node47"><a xlink:href="../../dd/d20/event_8h.html" target="_top" xlink:title=" ">
<polygon fill="none" stroke="black" points="3071.5,-56.5 3071.5,-75.5 3120.5,-75.5 3120.5,-56.5 3071.5,-56.5"/>
<text text-anchor="middle" x="3096" y="-63.5" font-family="Helvetica,sans-Serif" font-size="10.00">event.h</text>
</a>
</g>
</g>
<!-- Node2&#45;&gt;Node49 -->
<g id="edge48" class="edge">
<title>Node2&#45;&gt;Node49</title>
<path fill="none" stroke="midnightblue" d="M1737.23,-120.93C1904.95,-120.37 2772.61,-115.63 3061.23,-75.68"/>
<polygon fill="midnightblue" stroke="midnightblue" points="3061.85,-79.12 3071.25,-74.24 3060.86,-72.2 3061.85,-79.12"/>
</g>
<!-- Node50 -->
<g id="node48" class="node">
<title>Node50</title>
<g id="a_node48"><a xlink:href="../../d9/dc4/plugin_8h.html" target="_top" xlink:title=" ">
<polygon fill="none" stroke="black" points="3139,-56.5 3139,-75.5 3189,-75.5 3189,-56.5 3139,-56.5"/>
<text text-anchor="middle" x="3164" y="-63.5" font-family="Helvetica,sans-Serif" font-size="10.00">plugin.h</text>
</a>
</g>
</g>
<!-- Node2&#45;&gt;Node50 -->
<g id="edge49" class="edge">
<title>Node2&#45;&gt;Node50</title>
<path fill="none" stroke="midnightblue" d="M1737.11,-120.98C1910.91,-120.69 2839.22,-117.21 3121,-76 3123.57,-75.62 3126.23,-75.12 3128.92,-74.55"/>
<polygon fill="midnightblue" stroke="midnightblue" points="3129.73,-77.96 3138.65,-72.25 3128.12,-71.14 3129.73,-77.96"/>
</g>
<!-- Node51 -->
<g id="node49" class="node">
<title>Node51</title>
<g id="a_node49"><a xlink:href="../../d6/db2/find_8h.html" target="_top" xlink:title=" ">
<polygon fill="none" stroke="black" points="3207.5,-56.5 3207.5,-75.5 3248.5,-75.5 3248.5,-56.5 3207.5,-56.5"/>
<text text-anchor="middle" x="3228" y="-63.5" font-family="Helvetica,sans-Serif" font-size="10.00">find.h</text>
</a>
</g>
</g>
<!-- Node2&#45;&gt;Node51 -->
<g id="edge51" class="edge">
<title>Node2&#45;&gt;Node51</title>
<path fill="none" stroke="midnightblue" d="M1737.12,-121.15C1914.47,-121.95 2880.32,-124.07 3197.09,-75.6"/>
<polygon fill="midnightblue" stroke="midnightblue" points="3197.85,-79.02 3207.18,-74 3196.76,-72.11 3197.85,-79.02"/>
</g>
<!-- Node52 -->
<g id="node50" class="node">
<title>Node52</title>
<g id="a_node50"><a xlink:href="../../df/d46/var_8h.html" target="_top" xlink:title=" ">
<polygon fill="none" stroke="black" points="3267,-56.5 3267,-75.5 3305,-75.5 3305,-56.5 3267,-56.5"/>
<text text-anchor="middle" x="3286" y="-63.5" font-family="Helvetica,sans-Serif" font-size="10.00">var.h</text>
</a>
</g>
</g>
<!-- Node2&#45;&gt;Node52 -->
<g id="edge52" class="edge">
<title>Node2&#45;&gt;Node52</title>
<path fill="none" stroke="midnightblue" d="M1737.28,-120.66C1930.98,-118.25 3059.7,-103.23 3256.74,-75.51"/>
<polygon fill="midnightblue" stroke="midnightblue" points="3257.56,-78.92 3266.9,-73.92 3256.48,-72.01 3257.56,-78.92"/>
</g>
<!-- Node28&#45;&gt;Node5 -->
<g id="edge29" class="edge">
<title>Node28&#45;&gt;Node5</title>
<path fill="none" stroke="midnightblue" d="M1278.46,-58.36C1275.31,-57.48 1272.08,-56.66 1269,-56 1155.51,-31.81 1018.24,-18.7 955.42,-13.58"/>
<polygon fill="midnightblue" stroke="midnightblue" points="955.52,-10.08 945.28,-12.77 954.97,-17.06 955.52,-10.08"/>
</g>
<!-- Node28&#45;&gt;Node21 -->
<g id="edge28" class="edge">
<title>Node28&#45;&gt;Node21</title>
<path fill="none" stroke="midnightblue" d="M1319.53,-58.39C1322.37,-57.55 1325.25,-56.73 1328,-56 1387.3,-40.32 1457.26,-25.8 1498.21,-17.7"/>
<polygon fill="midnightblue" stroke="midnightblue" points="1499.09,-21.09 1508.22,-15.73 1497.74,-14.23 1499.09,-21.09"/>
</g>
<!-- Node50&#45;&gt;Node2 -->
<g id="edge50" class="edge">
<title>Node50&#45;&gt;Node2</title>
<path fill="none" stroke="midnightblue" d="M3141.93,-75.53C3140.95,-75.7 3139.97,-75.86 3139,-76 2859.92,-116.81 1946.59,-120.62 1747.49,-120.97"/>
<polygon fill="midnightblue" stroke="midnightblue" points="1747.23,-117.47 1737.24,-120.98 1747.24,-124.47 1747.23,-117.47"/>
</g>
</g>
</svg>
